<svg id="Layer_1" data-name="Layer 1" xmlns="http://www.w3.org/2000/svg" viewBox="0 0 64.26 67.29"><defs><style>.cls-1{fill:#fff;}.cls-1,.cls-16,.cls-17,.cls-2,.cls-3,.cls-4{fill-rule:evenodd;}.cls-2{fill:#31471f;}.cls-3{fill:#26150e;}.cls-4{fill:#97a543;}.cls-5{fill:#d8d4ce;}.cls-6{fill:#eae7e4;}.cls-7{fill:#f7f6f5;}.cls-8{fill:#a09e9b;}.cls-9{fill:#8f191c;}.cls-10{fill:#f15a29;}.cls-11{fill:#231f1e;}.cls-12{fill:#3b3432;}.cls-13{fill:#58595b;}.cls-14{fill:#071a34;}.cls-15{fill:#53713b;}.cls-16{fill:#628c3e;}.cls-17{fill:#3e5429;}</style></defs><title>maine-acadia-national-park</title><path class="cls-1" d="M59.71,999.61A35.34,35.34,0,0,1,35.43,990l-0.69-.66-0.51-.51c-0.35-.35-0.69-0.72-1-1.06l-0.06-.08a35.67,35.67,0,0,1-3.8-5.14l0-.06L29,982l-0.19-.31a2.76,2.76,0,0,1-.34-1A3.23,3.23,0,0,1,29,978.2a2.27,2.27,0,0,1,.34-0.4,2,2,0,0,1,.35-0.34,6.75,6.75,0,0,1,2.9-1.25l0.3-.05,0-.59H31.26a1.8,1.8,0,0,1-1.7-2.38l3.87-11.38a1.8,1.8,0,0,1,1.7-1.22h0a1.8,1.8,0,0,1,1.7,1.22l0.5,1.48,1.07-3.14a1.8,1.8,0,0,1,3.41,0l0.66,1.95-0.13-9.93a4.37,4.37,0,0,1-.38-2.25c0.11-1.16,1-2,2.84-2.79v-5.81a1.8,1.8,0,0,1,0-2.06L45.7,938a1.79,1.79,0,0,1,.46-0.45l3.3-2.23a2.68,2.68,0,0,1,0-.28,2.76,2.76,0,0,1,5.52,0c0,0.06,0,.13,0,0.19l3.4,1.8,0.23,0.14,0.78,0.57a1.8,1.8,0,0,1,.47,2.38v4.89L68.29,938a1.8,1.8,0,0,1,2.43.11L81,948.32a1.8,1.8,0,0,1,.53,1.21l0.07,2a1.8,1.8,0,0,1-.43,1.23v0.15a1.79,1.79,0,0,1-.16.74v6.55l2.65-7.8a1.8,1.8,0,0,1,3.41,0l4.58,13.44a1.8,1.8,0,0,1-1.12,2.28,11.19,11.19,0,0,1,1.12,11.54c-0.2.41-.42,0.82-0.64,1.22a1.68,1.68,0,0,1-.11.27,35.56,35.56,0,0,1-4.61,6.53l-0.16.15A35.53,35.53,0,0,1,59.71,999.61Z" transform="translate(-28.46 -932.32)"/><path class="cls-1" d="M88.45,968.51l0,0-0.12-.11h0a2.18,2.18,0,0,0-.86-0.48l-0.28-.06-0.12,0-1.28-.1-0.05-1.26H89.9L85.32,953l-4.58,13.44H85l-0.07,1.2-5.79-.45h0V952.93h0.16V951.6H79.15l0.61,0V951.3h0l-0.06-1.71L69.47,939.37h0l0,0-9.85,8.27-1.55,0v-8l0.26-.34-0.78-.57-4.38-2.32a0.13,0.13,0,0,0,0-.07v-0.07a0.13,0.13,0,0,0-.13-0.13h-0.1a0.13,0.13,0,0,0,0-.06v-0.08a0.14,0.14,0,0,0-.13-0.14,1,1,0,0,0,.33-0.71,1,1,0,0,0-1.92,0,1,1,0,0,0,.33.71,0.14,0.14,0,0,0-.13.14V936a0.13,0.13,0,0,0,0,.06h-0.1a0.13,0.13,0,0,0-.13.13v0.07a0.12,0.12,0,0,0,0,0l-4.09,2.77-0.87,1.22,0.31,0.18v7.91c-0.73.23-2.77,0.92-2.85,1.7a2.51,2.51,0,0,0,.37,1.59,1,1,0,0,1,0-.39l0.31,23.18-1.54.27-2.31.87,0-.59,0-.84-0.09-2.07H44l-3.87-11.38-2.77,8.15-2.21-6.49-3.87,11.38h3.62l-0.22,3.93L33,978h0a4.91,4.91,0,0,0-2.16.92,1.39,1.39,0,0,0-.16.17,0.51,0.51,0,0,0-.13.14,1.42,1.42,0,0,0-.24,1.16,1,1,0,0,0,.12.39l0.18,0.3,0.28,0.46h0a33.83,33.83,0,0,0,3.75,5.07h0c0.27,0.31.58,0.65,0.91,1L36,988l0.66,0.63a33.65,33.65,0,0,0,48.22-2.18h0a33.91,33.91,0,0,0,4.35-6.16h0c0.26-.47.53-0.95,0.76-1.43A9.32,9.32,0,0,0,88.45,968.51ZM58.5,953.18l1.21-1h0ZM59.71,951h0ZM56,952.14l0.62-.46A4.12,4.12,0,0,1,56,952.14Zm-1.33-2.48,0.83,1.56Zm1.18,2.21L55.9,952Zm-5.09,27.36v-4.56h0v4.17l2.09-.87-2.06,1.29Zm5.88-27.57L58.68,950C58.14,950.43,57.24,951.17,56.62,951.66Zm-6.37-12.5,0.26,0v4.13l-0.26.08v-4.19Zm6.18,4.24-2.24-.17H54.06v-4.32l2.37,0.39v4.09Zm-6.44,0-2.28.7v-4.2l2.28-.73v4.22Zm-3,5.91a7.91,7.91,0,0,0-1.89.73,5.54,5.54,0,0,1,1.72-.69Zm10.81-9.11v3.9l-1.08-.67v-4.06Zm-10.32-.08v4.09l-0.59.92v-4.23ZM39,973.78l-0.57-1.66h1.41L39.63,976l-4,1.52,0-.81,0-.84-0.09-2.07H39Z" transform="translate(-28.46 -932.32)"/><polygon class="cls-2" points="6.68 30.07 2.8 41.45 10.55 41.45 6.68 30.07"/><polygon class="cls-3" points="7.1 43.52 6.88 38.22 8.37 36.33 6.86 37.81 6.75 35.39 6.66 37.03 5.63 36.02 6.65 37.31 6.54 39.3 4.63 37.43 6.51 39.8 6.17 45.97 7.21 45.97 7.14 44.37 7.1 43.52"/><polygon class="cls-4" points="11.66 28.41 7.78 39.79 15.53 39.79 11.66 28.41"/><polygon class="cls-3" points="12.08 41.86 11.86 36.56 13.35 34.67 11.84 36.15 11.74 33.73 11.64 35.37 10.61 34.36 11.63 35.65 11.52 37.64 9.61 35.77 11.49 38.14 11.15 44.31 12.19 44.31 12.12 42.71 12.08 41.86"/><polygon class="cls-5" points="32.13 18.74 50.71 19.29 40.95 9.58 32.13 18.74"/><path class="cls-6" d="M53.34,948.51c-9.29.44-9.21,2.58-9.21,2.58l0.36,27.37,6.26-3.8Z" transform="translate(-28.46 -932.32)"/><polygon class="cls-7" points="22.3 27.06 31.36 19.82 31.91 42.52 22.3 46.51 22.3 27.06"/><polygon class="cls-6" points="31.26 19.82 50.71 20.52 50.71 34.87 31.82 42.52 31.26 19.82"/><polygon class="cls-8" points="31.26 18.71 31.26 19.89 50.87 20.61 50.87 19.28 31.26 18.71"/><polygon class="cls-9" points="22.07 11.01 22.07 6.57 25.61 6.37 25.61 11.01 22.07 11.01"/><rect class="cls-10" x="23.29" y="8.04" width="1.11" height="3.5" rx="0.44" ry="0.44"/><polygon class="cls-5" points="21.97 26.43 22 27.3 31.26 19.89 31.27 18.76 21.97 26.43"/><rect class="cls-11" x="18.16" y="8.12" width="0.26" height="8.01"/><polygon class="cls-11" points="18.34 12.96 19.03 11.88 22.2 10.9 25.75 10.9 28.18 11.09 29.53 11.93 29.53 15.54 18.34 16.07 18.34 12.96"/><rect class="cls-11" x="29.32" y="7.23" width="0.26" height="8.23"/><path class="cls-12" d="M57.77,947.64c-7.65-.26-10.9.68-10.9,0.68s-3,.83-3.11,1.77a2.51,2.51,0,0,0,.37,1.59s-0.39-1.57,2.66-2.31c0,0,3-.87,9.16-0.56Z" transform="translate(-28.46 -932.32)"/><path class="cls-9" d="M53.49,947.48l6.1,0.13,9.85-8.27-10.36,10.3-2.48,2-0.63.46Z" transform="translate(-28.46 -932.32)"/><polygon class="cls-9" points="23.4 22.87 23.28 23.38 21.01 25.31 23.4 22.87"/><polygon class="cls-5" points="38.23 29.04 38.24 29.82 44.15 29.98 44.14 29.19 38.23 29.04"/><polygon class="cls-13" points="38.45 21.29 38.59 29.03 43.72 29.16 43.41 21.48 38.45 21.29"/><polygon class="cls-6" points="38.85 21.76 38.97 28.79 43.29 28.91 43.03 21.93 38.85 21.76"/><polygon class="cls-14" points="39.01 22.05 39.13 28.67 43.15 28.79 42.91 22.21 39.01 22.05"/><path class="cls-6" d="M71.61,959.49l-1.21-.06,0-1.59,1.18,0v-0.19l-1.19,0,0-1.51,1.17,0V956l-1.18,0,0-1.59H70.07l0,1.57-1.3,0,0-1.61H68.59l0,1.6-1.16,0V956l1.17,0,0,1.51-1.17,0v0.19l1.18,0,0,1.57-1.2-.06v0.19l1.21,0.06,0,1.58h0.19l0-1.57,1.34,0.07,0,1.54h0.19l0-1.52,1.19,0.06v-0.19Zm-2.8-3.41,1.31,0,0,1.51-1.32,0Zm0.07,3.27,0-1.57,1.32,0,0,1.59Z" transform="translate(-28.46 -932.32)"/><path class="cls-7" d="M49.47,957.64v0.92L59.1,951l0-1.43s-3.1,2.6-3.14,2.53l-2.5-4.66-1.76,8.22Z" transform="translate(-28.46 -932.32)"/><polygon class="cls-13" points="28.18 31.55 28.18 23.68 29.95 22.37 29.95 30.39 28.18 31.55"/><polygon class="cls-6" points="28.29 31.26 28.29 23.89 29.84 22.74 29.84 30.19 28.29 31.26"/><polygon class="cls-14" points="28.41 30.94 28.41 24.05 29.7 23.05 29.7 30.09 28.41 30.94"/><polygon class="cls-13" points="25.55 33.1 25.55 25.7 27.22 24.46 27.22 32.01 25.55 33.1"/><polygon class="cls-6" points="25.66 32.83 25.66 25.92 27.11 24.84 27.11 31.82 25.66 32.83"/><polygon class="cls-14" points="25.77 32.52 25.77 26.06 26.98 25.13 26.98 31.73 25.77 32.52"/><polygon class="cls-13" points="23.18 34.64 23.18 27.45 24.79 26.24 24.79 33.58 23.18 34.64"/><polygon class="cls-6" points="23.28 34.38 23.28 27.68 24.69 26.64 24.69 33.4 23.28 34.38"/><polygon class="cls-14" points="23.39 34.08 23.39 27.82 24.56 26.91 24.56 33.31 23.39 34.08"/><path class="cls-6" d="M58.27,961.09l-0.44.25v-2l0.5-.34-0.06-.1-0.44.29v-1.88l0.5-.32-0.06-.1-0.44.28v-1.64H57.71v1.72l-0.45.29v-1.64H57.14v1.71l-0.33.22,0.06,0.1,0.27-.17v1.9l-0.46.31,0.06,0.1,0.39-.26v1.89l-0.45.25,0.06,0.1,0.39-.22v1.27h0.12v-1.33l0.45-.25v1.26h0.12v-1.33l0.5-.28Zm-1-3.38,0.45-.29v1.89l-0.45.3v-1.9Zm0,3.94v-1.91l0.45-.3v2Z" transform="translate(-28.46 -932.32)"/><path class="cls-6" d="M55.6,960.89l-0.06-.1-0.41.27v-1.76l0.47-.3-0.06-.1-0.41.26v-1.53H55v1.61l-0.42.27V958H54.49v1.6l-0.31.2,0.06,0.1,0.25-.16v1.77l-0.43.29,0.06,0.1,0.36-.24v1.77l-0.42.24,0.06,0.1,0.36-.21v1.18H54.6v-1.25l0.42-.23v1.18h0.12v-1.24l0.47-.26-0.06-.1-0.41.23v-1.84Zm-1-1.24,0.42-.27v1.76l-0.42.28v-1.77ZM55,963.11l-0.42.23v-1.78l0.42-.28v1.82Z" transform="translate(-28.46 -932.32)"/><path class="cls-6" d="M53.18,962.57l-0.06-.1-0.39.26V961l0.45-.29-0.06-.1-0.39.25v-1.48H52.61V961l-0.4.26v-1.48H52.1v1.55l-0.3.19,0.06,0.1,0.24-.15v1.72l-0.41.28,0.06,0.1,0.35-.23V965l-0.41.23,0.06,0.1,0.35-.2v1.14h0.12v-1.21l0.4-.22V966h0.12v-1.2l0.45-.25-0.06-.1-0.39.22v-1.78Zm-1-1.2,0.4-.26v1.7l-0.4.27v-1.71Zm0.4,3.35-0.4.22v-1.72l0.4-.27v1.76Z" transform="translate(-28.46 -932.32)"/><polygon class="cls-5" points="25.36 33.17 25.36 33.87 27.51 32.52 27.51 31.79 25.36 33.17"/><polygon class="cls-5" points="22.9 34.72 22.9 35.42 25.05 34.07 25.05 33.34 22.9 34.72"/><polygon class="cls-5" points="27.96 31.61 27.96 32.3 30.11 30.95 30.11 30.22 27.96 31.61"/><polygon class="cls-6" points="30.64 17.1 30.64 18.71 32.13 18.74 40.94 9.94 50.49 19.27 51.3 19.29 51.23 17.26 40.99 7.01 30.64 17.1"/><polygon class="cls-5" points="51.09 19.29 40.93 8.72 30.64 18.71 30.63 18.15 40.94 8.09 51.29 18.97 51.3 19.29 51.09 19.29"/><polygon class="cls-9" points="51.23 17.49 40.95 7.05 40.99 7.01 51.23 17.26 51.23 17.49"/><polygon class="cls-9" points="30.63 17.32 41.02 7.04 40.99 7.01 30.63 17.1 30.63 17.32"/><polygon class="cls-8" points="21.01 26.24 21.97 26.43 31.27 18.76 31.26 18.72 30.64 18.71 21.01 26.24"/><polygon class="cls-9" points="23.35 23.24 25.06 15.21 25.03 15.16 23.28 23.38 23.35 23.24"/><polygon class="cls-11" points="18.29 8.78 18.29 8.24 17.84 7.98 18.71 6.76 21.45 5.76 25.1 5.49 29.06 6.34 29.84 6.91 29.45 7.43 29.45 8 28.18 7.01 25.22 6.52 21.63 6.86 19.14 7.65 18.29 8.78"/><circle class="cls-11" cx="23.75" cy="2.76" r="0.96"/><polygon class="cls-11" points="18.71 6.76 23.17 3.75 21.45 5.76 18.71 6.76"/><polygon class="cls-11" points="24.17 3.75 25.27 5.53 29.06 6.34 24.17 3.75"/><polygon class="cls-12" points="21.45 5.76 25.27 5.53 24.17 3.75 23.17 3.75 21.45 5.76"/><rect class="cls-11" x="22.79" y="3.75" width="1.92" height="0.33" rx="0.13" ry="0.13"/><rect class="cls-11" x="22.99" y="3.47" width="1.52" height="0.36" rx="0.14" ry="0.14"/><rect class="cls-11" x="19.01" y="7.21" width="0.26" height="5.08"/><rect class="cls-11" x="21.55" y="6.41" width="0.26" height="4.76"/><rect class="cls-11" x="27.99" y="6.56" width="0.26" height="4.64"/><rect class="cls-11" x="25.03" y="6.09" width="0.26" height="4.92"/><path class="cls-15" d="M59.71,997.81A33.69,33.69,0,0,0,90,978.9a9.32,9.32,0,0,0-1.54-10.38l0,0a2.09,2.09,0,0,0-1.38-.67l-7.89-.62-6.65,1.34-6.3,1.85-3.4,1.3-2.54,1.66-9.47,5.91,0,0v-4.69l-3-.36a6.31,6.31,0,0,0-1.84.05l-2.94.52-7.51,2.84L33,978a5.12,5.12,0,0,0-2.23,1,1,1,0,0,0-.47.73,1.52,1.52,0,0,0,.09,1.05A33.68,33.68,0,0,0,59.71,997.81Z" transform="translate(-28.46 -932.32)"/><path class="cls-16" d="M84.91,986.49l-22.48,1.65-5.11.56-4.89.93-14.91-.17a37.22,37.22,0,0,1-2.92-2.88l3.3,0.78,6.91,0.71,7.37,1,4.82-.6,3.16-1.34,7.06-2.27,6.49-.76,12.09-3.62a7.4,7.4,0,0,1,2.95-.26l0.51,0.06A33.91,33.91,0,0,1,84.91,986.49Z" transform="translate(-28.46 -932.32)"/><path class="cls-16" d="M30.87,981.52l1.94-.14a6.31,6.31,0,0,0,2.7-.83l1.67-1a8.45,8.45,0,0,1,2.77-1l6.65-1.16a5.21,5.21,0,0,0,2.06-.84l1.56-1.07-2.45.16a3.41,3.41,0,0,1-1.8-.38h0a4.2,4.2,0,0,0-1.74-.47l-1.31-.06L39,976.23l-3.6,1.36L33,978a4.91,4.91,0,0,0-2.16.92h0a1.44,1.44,0,0,0-.39,1.86C30.58,981,30.73,981.3,30.87,981.52Z" transform="translate(-28.46 -932.32)"/><path class="cls-16" d="M79.1,967.19l-6.59,1.34-6.3,1.85-3.4,1.3h0l-2.54,1.66L57.56,975l7.62-.56a2.61,2.61,0,0,0,1.47-.59l1-.79a10,10,0,0,1,2-1.28l1.21-.58A18.07,18.07,0,0,1,74.19,970l4.9-1.26a19,19,0,0,1,5.35-.58l3.89,0.2a2,2,0,0,0-1.27-.56Z" transform="translate(-28.46 -932.32)"/><polygon class="cls-17" points="56.87 20.68 52.3 34.12 61.45 34.12 56.87 20.68"/><polygon class="cls-3" points="57.38 36.57 57.11 30.31 58.88 28.08 57.09 29.83 56.96 26.96 56.86 28.9 55.63 27.7 56.84 29.23 56.71 31.58 54.45 29.37 56.67 32.17 56.27 39.46 57.5 39.46 57.42 37.57 57.38 36.57"/></svg>