<svg id="Layer_1" data-name="Layer 1" xmlns="http://www.w3.org/2000/svg" viewBox="0 0 63.77 67.6"><defs><style>.cls-1{fill:#fff;}.cls-1,.cls-4{fill-rule:evenodd;}.cls-2{fill:#628c3e;}.cls-3{fill:#3e5429;}.cls-4{fill:#26150e;}.cls-5{fill:#467384;}.cls-6{fill:#97a543;}.cls-7{fill:#a5c1cc;}.cls-8{fill:#53713b;}</style></defs><title>missouri-gateway-arch</title><path class="cls-1" d="M341.9,1231.57a124.12,124.12,0,0,1-21.6-1.67c-7.11-1.33-10.28-3.09-10.28-5.73,0-2,2-3.34,4.34-4.19a5.65,5.65,0,0,1,7.64-7.58c3.5-17,4.69-21.33,5.08-22.43,5.61-23.28,13.77-25.62,15.41-25.86a3.89,3.89,0,0,1,1-.13h0.34c1.7,0,3.39,1.49,4,2.11,3.3,2.5,7,12.4,7.69,14.38,3.31,9.33,5.52,21.68,6.85,31.09h0.37a4.84,4.84,0,0,1,4.83,4.83,4.76,4.76,0,0,1-.87,2.74c4.89,1.24,7.11,2.84,7.11,5,0,2.64-3.17,4.41-10.28,5.73A124.14,124.14,0,0,1,341.9,1231.57Zm0-14.8c3.65,0,7.21.12,10.59,0.35a4.94,4.94,0,0,1,2.48-1.45c-0.7-6.49-1.82-15.28-3.42-23.49-2.47-12.69-6-21.07-7.16-22a1.11,1.11,0,0,0-.54-0.14,1.13,1.13,0,0,0-.63.19c-1.51,1-2.57,3.65-2.82,4.49-3.78,11.33-5.89,24.85-7,35.06a5,5,0,0,1,4.94,4.95,4.85,4.85,0,0,1-.47,2.09C339.17,1216.78,340.53,1216.77,341.9,1216.77Z" transform="translate(-310.01 -1163.98)"/><path class="cls-1" d="M363,1220.17l0-.78a3,3,0,1,0-2.09-5.39c-1.24-9.24-3.51-22.9-7.07-32.92,0,0-4.14-11.53-7.17-13.62,0,0-1.78-1.82-3-1.67a1.76,1.76,0,0,0-.84.09h0s-8.24.59-14,24.59c0,0-.86,1.73-5.76,25.8a3.84,3.84,0,1,0-5.35,4.58c-3.69.93-5.88,2.08-5.88,3.33,0,3.09,13.47,5.6,30.09,5.6s30.09-2.51,30.09-5.6C372,1222.6,368.53,1221.19,363,1220.17Zm-0.45-.77,0,0.69-0.9-.15-0.09-.77A3,3,0,0,0,362.53,1219.4Zm-11.28-40.23c-0.4-1.22-.78-2.3-1.15-3.25l0,0.08S350.56,1177,351.25,1179.17ZM347,1170c-0.14-.18-0.27-0.33-0.4-0.47A4.9,4.9,0,0,1,347,1170Zm-9.47,2.68c-0.17.42-.38,1-0.63,1.74,0.2-.6.41-1.17,0.61-1.7Zm-4.43,45.9v0.21H333A2,2,0,0,0,333.12,1218.6ZM331,1201.19c0.62-3.71,1.31-7.53,2-11.21C332.79,1191.34,332,1195.55,331,1201.19Zm2.62,17.59,0-.94a3.14,3.14,0,1,0-2.33-5.46c1.07-10.34,3.23-25.61,7.42-38.18,0,0,1.15-3.89,3.54-5.48a2.93,2.93,0,0,1,3.16-.06c2,1.31,5.7,11.67,7.93,23.17,1.8,9.28,3,19.25,3.66,25.65a3.06,3.06,0,0,0-3.63,1.5c-3.53-.27-7.39-0.42-11.45-0.42C339,1218.57,336.26,1218.64,333.63,1218.78Z" transform="translate(-310.01 -1163.98)"/><ellipse class="cls-2" cx="31.89" cy="60.2" rx="30.09" ry="5.6"/><circle class="cls-3" cx="23.34" cy="50.75" r="3.15"/><polygon class="cls-4" points="23.64 55.33 23.48 51.52 24.56 50.16 23.47 51.23 23.39 49.48 23.33 50.66 22.58 49.93 23.32 50.86 23.24 52.29 21.86 50.95 23.22 52.66 22.97 57.09 23.72 57.09 23.67 55.94 23.64 55.33"/><path class="cls-5" d="M321.43,1224.23h6.22s4.65-38.05,9.88-51.48c0,0,3.08-5.14,5.28-6.87,0,0-8.24.59-14,24.59C328.8,1190.46,327.75,1192.55,321.43,1224.23Z" transform="translate(-310.01 -1163.98)"/><circle class="cls-6" cx="21.16" cy="53.95" r="2.07"/><polygon class="cls-4" points="21.36 56.97 21.25 54.46 21.96 53.56 21.24 54.27 21.19 53.12 21.15 53.89 20.66 53.41 21.14 54.02 21.09 54.97 20.18 54.08 21.08 55.21 20.91 58.13 21.41 58.13 21.38 57.37 21.36 56.97"/><circle class="cls-6" cx="52.7" cy="52.41" r="3.03"/><polygon class="cls-4" points="52.99 56.83 52.84 53.15 53.87 51.85 52.83 52.87 52.76 51.2 52.69 52.33 51.97 51.63 52.68 52.52 52.6 53.9 51.28 52.6 52.59 54.25 52.35 58.52 53.07 58.52 53.02 57.41 52.99 56.83"/><path class="cls-7" d="M327.65,1224.23h2.67s1.31-28.85,8.36-50c0,0,1.15-3.89,3.54-5.48a2.93,2.93,0,0,1,3.16-.06c1.29,0.8,1.79.75,4.75,7.34a75.71,75.71,0,0,1,2.91,9.46c1.94,7.58,4.41,20,5.34,38.76H362s-2.36-26.55-8.25-43.14c0,0-4.14-11.53-7.17-13.62,0,0-1.78-1.82-3-1.67,0,0-2.62-.68-5.69,5.95,0,0-2.41,5-4.81,17.77C333.15,1189.51,329.59,1207.37,327.65,1224.23Z" transform="translate(-310.01 -1163.98)"/><path class="cls-5" d="M358.38,1224.23H357.6s-1.32-17.15-4.28-32.39c-2.24-11.49-5.89-21.86-7.93-23.17,0,0,5.42.49,10.94,32.5C356.33,1201.17,358.73,1219.23,358.38,1224.23Z" transform="translate(-310.01 -1163.98)"/><circle class="cls-8" cx="9.37" cy="53.42" r="3.85"/><circle class="cls-3" cx="11.8" cy="56.79" r="1.73"/><polygon class="cls-4" points="12.5 56.33 9.74 59.03 9.54 54.37 10.86 52.7 9.53 54.01 9.43 51.88 9.35 53.32 8.44 52.43 9.34 53.56 9.24 55.31 7.56 53.67 9.22 55.76 8.92 61.18 9.83 61.18 9.77 59.77 12.5 56.33"/><circle class="cls-3" cx="46.08" cy="56.52" r="3.15"/><polygon class="cls-4" points="46.39 61.1 46.23 57.29 47.3 55.93 46.21 57 46.14 55.25 46.07 56.43 45.33 55.7 46.06 56.63 45.98 58.06 44.61 56.72 45.96 58.43 45.72 62.86 46.47 62.86 46.42 61.71 46.39 61.1"/><circle class="cls-6" cx="49.05" cy="58.69" r="2.22"/><polygon class="cls-4" points="49.26 61.92 49.15 59.23 49.91 58.27 49.14 59.02 49.09 57.79 49.04 58.63 48.51 58.11 49.03 58.77 48.98 59.78 48.01 58.83 48.96 60.03 48.79 63.17 49.32 63.17 49.28 62.35 49.26 61.92"/></svg>