<svg id="Layer_1" data-name="Layer 1" xmlns="http://www.w3.org/2000/svg" viewBox="0 0 67.6 63.09"><defs><style>.cls-1{fill:#fff;}.cls-2{fill:none;}.cls-3{fill:#816a44;}.cls-4{fill:#d77d31;}.cls-5{fill:#a9813c;}.cls-6{fill:#4d4845;}.cls-7{fill:#a0703b;}.cls-8{fill:#db9130;}.cls-9{fill:#ff9f36;}.cls-10{fill:#6ec829;}.cls-11{fill:#bbdc00;}.cls-12{fill:#6a6663;}.cls-13{fill:#f15a29;}.cls-14{fill:#2b3990;}.cls-15{fill:#908c8a;}</style></defs><title>oklahoma-route-66</title><path class="cls-1" d="M538.28,1322.56c-0.74,0-1.51,0-2.28-.08s-1.67-.15-1.67-0.15l-0.22,0a33.65,33.65,0,0,1-7.5-1.79,34.19,34.19,0,0,1-18.84-17.1c-0.36-.74-0.69-1.5-1-2.27q-0.33-.83-0.62-1.69a33.77,33.77,0,0,1-1-3.91c-0.15-.72-0.28-1.48-0.38-2.27a34.44,34.44,0,0,1-.31-4.56v-24.47a1.8,1.8,0,0,1,1.8-1.8h7.24a1.8,1.8,0,0,1,1.8,1.8v3.33l2.54,1.94a1.8,1.8,0,0,1,.71,1.43v2.9h6.73a1.8,1.8,0,0,1,1.11.38l1.66,1.3a1.8,1.8,0,0,1,.69,1.42v5.35H530l0.88-1.25v-3.31a1.8,1.8,0,0,1,.66-1.4l0.75-.61v-0.92a1.8,1.8,0,0,1,1.8-1.8h2.59a1.8,1.8,0,0,1,.9.24l1.78,1a1.8,1.8,0,0,1,.9,1.56v3a1.85,1.85,0,0,1,.29-0.31l0.25-.21v-6.54a1.8,1.8,0,0,1,1.8-1.8h1.51a1.8,1.8,0,0,1,1.22.48l1.13,1a1.8,1.8,0,0,1,.58,1.32v8.07l0.55,0.55,0.11-.21a1.8,1.8,0,0,1,.87-0.8l0.46-.2V1275a1.8,1.8,0,0,1,.66-1.4l0.61-.5v-0.54a1.8,1.8,0,0,1,.73-1.45l1.15-.84a1.8,1.8,0,0,1,1.07-.35h4.35v-5.3a1.8,1.8,0,0,1,.66-1.4l1-.79v-1.19a1.8,1.8,0,0,1,1.8-1.8h4.27a1.8,1.8,0,0,1,1.8,1.8v5.55h3.08a1.8,1.8,0,0,1,1.8,1.8v22.8s0,0.1,0,.15q-0.07.85-.18,1.69c-0.11.78-.23,1.54-0.38,2.27a33.83,33.83,0,0,1-1.67,5.6c-0.31.77-.64,1.54-1,2.27a34.13,34.13,0,0,1-19.12,17.18l-0.19.08-1,.33-0.8.24-0.22.05c-1.06.3-2,.53-2.93,0.7A34.22,34.22,0,0,1,538.28,1322.56Z" transform="translate(-504.42 -1259.47)"/><path class="cls-1" d="M569.91,1268.62h-4.57v-7.35h-4.27v2l-1.63,1.33v7.1h-6.15l-1.15.84v1.4l-1.27,1v6.37l-1.54.67-1.24,2.32h-1.53v-1.48l-1.28-1.28v-8.82l-1.13-1h-1.52v7.38l-0.9.75v4.87h-1.61l-1.64-1.09v-7.86l-1.78-1h-2.59v1.78l-1.42,1.15v3.89l-1.75,2.47h-4.06v-7.14l-1.66-1.3H516.7v-4.7l-3.24-2.48v-4.22h-7.24v24.47a32.34,32.34,0,0,0,.29,4.32q0.15,1.08.36,2.15a31.81,31.81,0,0,0,1,3.7q0.27,0.81.58,1.6,0.43,1.09.94,2.15h0a32.16,32.16,0,0,0,17.84,16.19,12.38,12.38,0,0,1,.22-5,13.89,13.89,0,0,1,1.23-3.18h0a13.89,13.89,0,0,0-1.23,3.18,12.38,12.38,0,0,0-.22,5,31.87,31.87,0,0,0,7.32,1.72v0s0.73,0.09,1.57.14,1.43,0.07,2.16.07a32.23,32.23,0,0,0,5.93-.55c1-.19,2-0.44,3-0.72h0l0.71-.22h0l0.91-.3v0a32.15,32.15,0,0,0,18.31-16.34q0.51-1.05.94-2.15a31.82,31.82,0,0,0,1.58-5.3q0.22-1.06.36-2.15,0.11-.8.17-1.6h0v-22.8h-0.31Zm-28.08,40.45,0.07-.17h0l-0.07.17q-0.11.3-.2,0.62Q541.72,1309.37,541.83,1309.07Zm18.87-8.31h0Zm0-.3h0s0,0,0,0v0Zm-4,0,0,0h0Zm-34.05,8a1.36,1.36,0,0,0-.28-0.56,1.36,1.36,0,0,1,.28.56h0Zm-1.34-1.08a1.38,1.38,0,0,0-1.15.62h0a1.37,1.37,0,0,1,2-.29A1.37,1.37,0,0,0,521.28,1307.46Zm-3.13,2.23a1.64,1.64,0,0,1,1-1.51,1.64,1.64,0,0,0-.68,2.49A1.63,1.63,0,0,1,518.15,1309.69Zm11.22-.2h0a23.33,23.33,0,0,1,7.33-6.87h0A23.33,23.33,0,0,0,529.37,1309.49Zm12,2.29h0q0,0.31,0,.63Q541.34,1312.09,541.34,1311.78Z" transform="translate(-504.42 -1259.47)"/><path class="cls-2" d="M529.85,1293.53a2.55,2.55,0,0,0,1.13.27h0a2.55,2.55,0,0,1-1.13-.26h0Z" transform="translate(-504.42 -1259.47)"/><polygon class="cls-2" points="51.76 29.41 52.58 28.62 51.76 29.41 51.76 29.41"/><polygon class="cls-2" points="61.64 19.83 60.67 20.49 60.67 20.49 61.64 19.83"/><polygon class="cls-2" points="62.55 27.64 64.49 25.74 64.49 25.74 62.55 27.64 62.55 29.42 62.55 32.13 62.55 32.13 62.55 29.42 62.55 27.64"/><path class="cls-2" d="M542.4,1308.78q-0.11.23-.2,0.47Q542.29,1309,542.4,1308.78Z" transform="translate(-504.42 -1259.47)"/><path class="cls-2" d="M548.24,1300.65a8.11,8.11,0,0,1-1.17,2.15,24,24,0,0,1-1.73,2,24,24,0,0,0,1.73-2,8.11,8.11,0,0,0,1.17-2.15c0.84-2.43-.3-4.14-1.91-5.3l-0.42-.28,0.42,0.28C547.94,1296.51,549.08,1298.22,548.24,1300.65Z" transform="translate(-504.42 -1259.47)"/><path class="cls-2" d="M541.71,1312q0,0.31,0,.63Q541.71,1312.27,541.71,1312Z" transform="translate(-504.42 -1259.47)"/><polygon class="cls-2" points="64.23 18.04 65.86 16.92 65.86 9.33 65.86 9.33 65.86 16.92 64.23 18.04"/><path class="cls-2" d="M547.69,1291.32l0.08-.09-0.08.09h0Z" transform="translate(-504.42 -1259.47)"/><path class="cls-2" d="M549.51,1292.11a1.2,1.2,0,0,1,.29.18,1.2,1.2,0,0,0-.29-0.18,1,1,0,0,0,0-.23,0.86,0.86,0,0,0,0-.14,0.86,0.86,0,0,1,0,.14A1,1,0,0,1,549.51,1292.11Z" transform="translate(-504.42 -1259.47)"/><polygon class="cls-2" points="60 15.57 59.34 14.98 59.34 9.33 59.34 9.33 59.34 14.98 60 15.57"/><polygon class="cls-2" points="43.43 31.67 43.31 31.76 43.43 31.67 43.43 31.67"/><polygon class="cls-2" points="21.53 34.15 21.52 34.15 21.52 35.88 21.52 39.58 21.53 39.58 21.53 35.89 21.53 34.15"/><path class="cls-2" d="M570.59,1291.6h0q-0.07.81-.17,1.6h0q0.11-.8.17-1.6h0Z" transform="translate(-504.42 -1259.47)"/><path class="cls-2" d="M544.6,1294.35l0.44,0.22Z" transform="translate(-504.42 -1259.47)"/><path class="cls-2" d="M545,1294.57l0.44,0.24Z" transform="translate(-504.42 -1259.47)"/><path class="cls-2" d="M545.49,1294.81l0.43,0.26Z" transform="translate(-504.42 -1259.47)"/><path class="cls-2" d="M544.17,1294.15l0.44,0.2Z" transform="translate(-504.42 -1259.47)"/><path class="cls-2" d="M542.73,1293.62l0.38,0.13Z" transform="translate(-504.42 -1259.47)"/><path class="cls-2" d="M545.34,1304.82l-0.33.36Z" transform="translate(-504.42 -1259.47)"/><path class="cls-2" d="M545,1305.18l-0.33.36Z" transform="translate(-504.42 -1259.47)"/><path class="cls-2" d="M544,1306.29l-0.31.38Z" transform="translate(-504.42 -1259.47)"/><path class="cls-2" d="M558.54,1299.79a1.65,1.65,0,0,0-.33,0h0a1.65,1.65,0,0,1,.33,0h0Z" transform="translate(-504.42 -1259.47)"/><path class="cls-2" d="M556.74,1300.65l0.11-.19-0.11.19a1.65,1.65,0,0,0-.13.36A1.65,1.65,0,0,1,556.74,1300.65Z" transform="translate(-504.42 -1259.47)"/><path class="cls-2" d="M561.07,1300.55s0,0.07,0,.11a1.43,1.43,0,0,1,0,.21,1.64,1.64,0,0,1,1,1.51h0a1.64,1.64,0,0,0-1-1.51,1.43,1.43,0,0,0,0-.21s0-.07,0-0.11a1.38,1.38,0,0,0-1.38-1.38h0A1.38,1.38,0,0,1,561.07,1300.55Z" transform="translate(-504.42 -1259.47)"/><polygon class="cls-3" points="61.28 12.16 62.61 13.49 62.61 19.17 64.23 18.04 65.86 16.92 65.86 9.33 61.28 9.33 61.28 11.13 61.28 12.16"/><polygon class="cls-4" points="4.87 4.95 4.87 4.95 2.93 4.95 2.17 4.95 2.17 4.95 4.87 4.95"/><polygon class="cls-4" points="2.17 9.78 2.93 9.42 2.93 16.04 4.87 14.54 4.87 4.95 2.17 4.95 2.17 9.78"/><polygon class="cls-4" points="3.9 28.12 5.85 26.75 5.85 22.76 3.9 21.44 3.9 28.12"/><rect class="cls-4" x="7.46" y="4.95" width="1.95"/><polygon class="cls-4" points="12.65 11.64 9.41 9.16 9.41 9.16 12.65 11.64"/><polygon class="cls-4" points="9.41 9.16 9.41 9.16 9.41 4.95 7.46 4.95 7.46 12.99 9.11 13.95 9.11 16.34 9.11 27.14 11.06 25.04 11.06 20.98 12.65 19.57 12.65 16.34 12.65 11.64 9.41 9.16"/><polygon class="cls-5" points="61.28 12.16 61.28 11.13 61.28 9.33 61.28 1.98 59.34 1.98 59.34 9.33 59.34 14.98 60 15.57 60.67 16.16 60.67 20.49 61.64 19.83 62.61 19.17 62.61 19.17 62.61 13.49 61.28 12.16"/><path class="cls-3" d="M521.44,1281.91v3.58l5.54,3.4,1.61,1a0.65,0.65,0,0,1,1.14.44v0.27l1.25,0.77v-5.46a1.09,1.09,0,1,1,2.18,0v5.86a1,1,0,0,1,1.25-.85,0.66,0.66,0,0,1,1.31,0v0.5a1.19,1.19,0,0,1,.47,1.8h10.29a1.19,1.19,0,0,1,1-1.91l0.17,0,0.11-.09,0.11-.09L548,1291l2.77-2.16,0.47-.37v-3.71a0.68,0.68,0,0,1,1.36,0v2.66l0.79-.61a0.41,0.41,0,0,1,.4-0.34h0l0.6-.47v-2.6l5.41-4.21v-7.31h-6.15l-1.15.84v1.4l-1.27,1v6.37l-1.54.67-1.24,2.32h-1.53v-1.48l-1.28-1.28V1273l-1.13-1H543v7.38l-0.9.75v4.87H540.5l-1.64-1.09V1276l-1.78-1h-2.59v1.78l-1.42,1.15v3.89l-1.75,2.47h-4.06v-7.14l-1.66-1.3h-8.53V1279Z" transform="translate(-504.42 -1259.47)"/><path class="cls-6" d="M533.17,1292v0.14h0A1.08,1.08,0,0,1,533.17,1292Z" transform="translate(-504.42 -1259.47)"/><path class="cls-4" d="M545.34,1304.82l-0.33.36-0.33.36c-0.22.24-.44,0.49-0.65,0.74l-0.31.38a10.29,10.29,0,0,0-1.32,2.1q-0.1.23-.2,0.47a7.65,7.65,0,0,0-.49,2.71q0,0.31,0,.63c0.13,2,.95,4.55,2.85,7.81a32.1,32.1,0,0,0,23-17.6H547.07A24,24,0,0,1,545.34,1304.82Z" transform="translate(-504.42 -1259.47)"/><path class="cls-7" d="M548.24,1300.65h8.82c0-.07.22-0.06,0.26-0.12a1.13,1.13,0,0,1,.32-0.07c0.28-.24.27-0.11,0.67-0.11l0.22,0,0.07,0a2,2,0,0,1,.22-0.18,1.35,1.35,0,0,1,.26-0.19,0.51,0.51,0,0,1,.29-0.05,1,1,0,0,1,.42-0.1l0.27,0.08,0.12,0.08c0.47,0.49.2,0.16,0.67,0.62a0.6,0.6,0,0,1,.18.1h7.45a31.81,31.81,0,0,0,1.58-5.3H546.33C547.94,1296.51,549.08,1298.22,548.24,1300.65Z" transform="translate(-504.42 -1259.47)"/><path class="cls-7" d="M534.92,1295.76l5.52,3.29v1.6h0.49s4.41-2,.3-5.3h-5.95A2.57,2.57,0,0,1,534.92,1295.76Z" transform="translate(-504.42 -1259.47)"/><path class="cls-8" d="M535.73,1293.2v0.69a2.55,2.55,0,0,1-.46,1.46h5.95a18.23,18.23,0,0,0-3.65-2.15h-1.85Z" transform="translate(-504.42 -1259.47)"/><path class="cls-8" d="M552.57,1293.2H541.14a15,15,0,0,1,1.59.42l0.38,0.13c0.33,0.11.69,0.25,1,.4l0.44,0.2,0.44,0.22,0.44,0.24,0.43,0.26,0.42,0.28h23.72q0.22-1.06.36-2.15H552.57Z" transform="translate(-504.42 -1259.47)"/><path class="cls-8" d="M533.17,1293.2v1.51l0.52,0.31a1.25,1.25,0,0,0,.73-1.13v-0.69h-1.25Z" transform="translate(-504.42 -1259.47)"/><path class="cls-9" d="M540.93,1300.65H508.82q0.43,1.09.94,2.15h27.31A41,41,0,0,1,540.93,1300.65Z" transform="translate(-504.42 -1259.47)"/><path class="cls-9" d="M561,1300.87a3.25,3.25,0,0,1,0,.46,2.85,2.85,0,0,1,.53.4,0.88,0.88,0,0,1,.2.27,1.39,1.39,0,0,1,.2.38h-5a1.46,1.46,0,0,1-.05-0.94,1.63,1.63,0,0,1,0-.39,2.09,2.09,0,0,1,.18-0.39h-8.82a8.11,8.11,0,0,1-1.17,2.15h20.46q0.51-1.05.94-2.15H561A1.45,1.45,0,0,1,561,1300.87Z" transform="translate(-504.42 -1259.47)"/><path class="cls-10" d="M556.61,1301.44a1.63,1.63,0,0,0,.27,1.36H562a1.64,1.64,0,0,0-1-1.51,1.43,1.43,0,0,0,0-.21s0-.07,0-0.11a1.38,1.38,0,0,0-2.53-.76h0a1.65,1.65,0,0,0-.33,0,1.63,1.63,0,0,0-1,.38,1.66,1.66,0,0,0-.3.33l-0.11.19A1.65,1.65,0,0,0,556.61,1301.44Z" transform="translate(-504.42 -1259.47)"/><path class="cls-10" d="M556.58,1301.2a1.63,1.63,0,0,0,.31,1.17h0A1.63,1.63,0,0,1,556.58,1301.2Z" transform="translate(-504.42 -1259.47)"/><path class="cls-10" d="M533.18,1292.11h0v1.09h1.25v-2.3h0a1,1,0,0,0-1.25.85V1292A1.08,1.08,0,0,0,533.18,1292.11Z" transform="translate(-504.42 -1259.47)"/><path class="cls-10" d="M536.2,1293.2a1.19,1.19,0,0,0-.47-1.8v1.8h0.47Z" transform="translate(-504.42 -1259.47)"/><path class="cls-10" d="M523,1309.48s0-.08.07-0.09l-0.09,0a1.38,1.38,0,0,0-2.49-1.08,1.64,1.64,0,0,0-1.65,2.58h4.1a1.5,1.5,0,0,1-.1-0.54,1.59,1.59,0,0,1,0-.2Z" transform="translate(-504.42 -1259.47)"/><path class="cls-9" d="M533.39,1298.74a0.81,0.81,0,0,1,.63.31h2.61l-3.47-2.07v1.8A0.81,0.81,0,0,1,533.39,1298.74Z" transform="translate(-504.42 -1259.47)"/><path class="cls-9" d="M523.26,1288.89l-3.76-2.31v-5.94l1.95,1.27-4.37-2.86-1.59,1.41v4.05l-1.95,2.1v-13.19l-1.65-1v-8H509.3V1274l-1.95,1.5v-6.62l-0.76.36v19.64a32.34,32.34,0,0,0,.29,4.32q0.15,1.08.36,2.15a31.82,31.82,0,0,0,1,3.7h3.51a1.64,1.64,0,0,1,1.85-1,1.38,1.38,0,0,1,2.53.76,1.33,1.33,0,0,1,0,.22h6v-2.58l1-1.12,1-1.11v-4.9Zm-14.94-8,1.95,1.32v4l-1.95,1.37v-6.68Z" transform="translate(-504.42 -1259.47)"/><path class="cls-9" d="M525.94,1293.2v0.42h0v5.43h5v-5.25a2.55,2.55,0,0,1-1.13-.27h0a2.54,2.54,0,0,1-1.25-1.36l-2.66-1.63v2.67Z" transform="translate(-504.42 -1259.47)"/><path class="cls-4" d="M531,1292.48v-1.13l-1.25-.77v0.65A1.25,1.25,0,0,0,531,1292.48Z" transform="translate(-504.42 -1259.47)"/><path class="cls-4" d="M533.17,1295.14a1.24,1.24,0,0,0,.52-0.12l-0.52-.31v0.43Z" transform="translate(-504.42 -1259.47)"/><path class="cls-4" d="M511.62,1299.68a1.64,1.64,0,0,1,.12-0.63h-3.51q0.27,0.81.58,1.6h3.12A1.63,1.63,0,0,1,511.62,1299.68Z" transform="translate(-504.42 -1259.47)"/><path class="cls-4" d="M534.92,1295.76a2.55,2.55,0,0,1-1.75.7V1297l3.47,2.07H534l0.05,0.06,0.2,0a1,1,0,0,1,.79,1.56h5.37v-1.6Z" transform="translate(-504.42 -1259.47)"/><path class="cls-4" d="M526,1299.06h0v-8.51l2.66,1.63a2.55,2.55,0,0,1-.18-0.94v-0.92a0.65,0.65,0,0,1,.17-0.44l-1.61-1-5.54-3.4v-3.58l-1.95-1.27v5.94l3.76,2.31,0.74,0.45v4.9l-1,1.11-1,1.12v2.58h-6l0,0.1a1.64,1.64,0,0,1,1,1.51H531v-1.59h-5Z" transform="translate(-504.42 -1259.47)"/><rect class="cls-4" x="21.53" y="39.58" width="5.03" height="0.01"/><path class="cls-8" d="M549.49,1291.6h1.72v-3.08l-0.47.37L548,1291A1,1,0,0,1,549.49,1291.6Z" transform="translate(-504.42 -1259.47)"/><polygon class="cls-8" points="66.17 32.13 66.17 32.13 66.17 32.13 66.17 32.13"/><path class="cls-8" d="M570.28,1268.8v7.59l-1.62,1.12-1.62,1.12-1,.66-1,.66h0v-4.33l-0.66-.59-0.66-.59v-13h-2.33v2l-1.63,1.33v14.41l-5.41,4.21v2.6l-0.6.47a0.41,0.41,0,0,1,.38.41v1.92s0,0,0,.05a1.59,1.59,0,0,1-1.59,1.54v1.17h0.82l2.79-2.72h0l0.81-.79v0.79h0v2.71h10v-4.49l1.95-1.9h0v6.39h1.67v-22.8h-0.31Z" transform="translate(-504.42 -1259.47)"/><polygon class="cls-8" points="64.23 18.04 62.61 19.17 62.61 19.17 64.23 18.04"/><polygon class="cls-8" points="59.26 11.24 59.26 9.33 59.26 9.33 59.26 11.24 57.46 12.45 57.46 12.45 59.26 11.24"/><rect class="cls-8" x="64.49" y="25.74" height="3.68"/><polygon class="cls-8" points="60.67 20.49 60.67 20.49 60.67 16.16 60 15.57 60.67 16.16 60.67 20.49"/><polygon class="cls-8" points="62.61 19.17 62.61 19.17 61.64 19.83 62.61 19.17 62.61 19.17"/><path class="cls-8" d="M547.69,1291.32l0.08-.09,0.08-.09-0.11.09-0.11.09h0.07Z" transform="translate(-504.42 -1259.47)"/><polygon class="cls-8" points="43.31 31.76 43.2 31.85 43.2 31.85 43.31 31.76"/><path class="cls-8" d="M552.57,1289.61a0.78,0.78,0,0,0,.77-0.72s0,0,0-.05v-1.92a0.41,0.41,0,0,1,0-.07l-0.79.61v2.15Z" transform="translate(-504.42 -1259.47)"/><rect class="cls-5" x="64.49" y="29.42" height="2.71"/><polygon class="cls-5" points="64.49 29.42 64.49 25.74 62.55 27.64 62.55 29.42 62.55 32.13 64.49 32.13 64.49 29.42"/><path class="cls-5" d="M568.91,1291.6H557v-2.71h0v-0.79l-0.81.79h0l-2.79,2.72h-0.82v1.6h17.84q0.11-.79.17-1.6h-1.67Z" transform="translate(-504.42 -1259.47)"/><polygon class="cls-5" points="48.97 32.13 48.15 32.13 48.15 32.13 48.97 32.13 51.76 29.42 51.76 29.41 51.76 29.41 48.97 32.13"/><rect class="cls-5" x="52.58" y="32.13" width="9.97"/><rect class="cls-5" x="64.49" y="32.13" width="1.67"/><rect class="cls-5" x="62.55" y="32.13" width="1.95"/><rect class="cls-5" x="64.49" y="32.13"/><path class="cls-5" d="M549.49,1291.6a1.21,1.21,0,0,1,0,.13,0.86,0.86,0,0,1,0,.14,1,1,0,0,1,0,.23,1.19,1.19,0,0,1,.72,1.1h1v-1.6h-1.72Z" transform="translate(-504.42 -1259.47)"/><path class="cls-10" d="M516.08,1299.15l0-.1a1.33,1.33,0,0,0,0-.22,1.38,1.38,0,0,0-2.53-.76,1.64,1.64,0,0,0-2,1.61,1.63,1.63,0,0,0,.32,1h5.13A1.64,1.64,0,0,0,516.08,1299.15Z" transform="translate(-504.42 -1259.47)"/><path class="cls-10" d="M549.8,1292.29a1.2,1.2,0,0,0-.29-0.18,1,1,0,0,0,0-.23,0.86,0.86,0,0,0,0-.14,1.2,1.2,0,0,0,0-.13h0A1,1,0,0,0,548,1291l-0.12.09h0L548,1291l-0.12.09-0.08.09-0.08.09h-0.07l-0.17,0a1.19,1.19,0,0,0-1,1.91h3.74A1.19,1.19,0,0,0,549.8,1292.29Z" transform="translate(-504.42 -1259.47)"/><path class="cls-10" d="M547.85,1291.14h0l-0.08.09Z" transform="translate(-504.42 -1259.47)"/><path class="cls-10" d="M547.69,1291.32h0Z" transform="translate(-504.42 -1259.47)"/><path class="cls-10" d="M550.23,1293.2h0a1.19,1.19,0,0,0-.12-0.51A1.19,1.19,0,0,1,550.23,1293.2Z" transform="translate(-504.42 -1259.47)"/><path class="cls-10" d="M549.52,1291.74a1.21,1.21,0,0,0,0-.13h0A1.2,1.2,0,0,1,549.52,1291.74Z" transform="translate(-504.42 -1259.47)"/><path class="cls-6" d="M533.17,1292v-0.22a1,1,0,0,0,0,.12A0.91,0.91,0,0,0,533.17,1292Z" transform="translate(-504.42 -1259.47)"/><path class="cls-11" d="M532.6,1299.76a0.82,0.82,0,0,1,.57-1v-2.32a2.57,2.57,0,0,0,2.56-2.56v-3a0.66,0.66,0,0,0-1.31,0h0v3a1.26,1.26,0,0,1-1.25,1.25V1292a0.91,0.91,0,0,1,0-.1,1,1,0,0,1,0-.12v-5.86a1.09,1.09,0,1,0-2.18,0v6.59a1.25,1.25,0,0,1-1.25-1.25v-0.92a0.66,0.66,0,0,0-1.31,0v0.92a2.55,2.55,0,0,0,.18.94,5.37,5.37,0,0,0,1.25,1.36,2.55,2.55,0,0,0,1.13.26h0v5.26h0v1.59h1A1,1,0,0,1,532.6,1299.76Z" transform="translate(-504.42 -1259.47)"/><path class="cls-11" d="M529.35,1293.2a2.57,2.57,0,0,0,.5.33,5.37,5.37,0,0,1-1.25-1.36A2.57,2.57,0,0,0,529.35,1293.2Z" transform="translate(-504.42 -1259.47)"/><path class="cls-11" d="M531,1299.05h0v-5.26h0v5.25Z" transform="translate(-504.42 -1259.47)"/><path class="cls-11" d="M552.57,1291.6v-1.17a1.59,1.59,0,0,0,1.59-1.54s0,0,0-.05v-1.92a0.41,0.41,0,0,0-.38-0.41h0a0.42,0.42,0,0,0-.41.41v1.92s0,0,0,.05a0.78,0.78,0,0,1-.77.72v-4.81a0.68,0.68,0,0,0-1.36,0v6.8h0v1.6h1.36v-1.6h0Z" transform="translate(-504.42 -1259.47)"/><rect class="cls-11" x="46.79" y="32.13" height="1.6"/><path class="cls-6" d="M546.33,1295.35l-0.42-.28-0.43-.26-0.44-.24-0.44-.22-0.44-.2c-0.36-.15-0.72-0.29-1-0.4l-0.38-.13a15,15,0,0,0-1.59-.42h-3.56a18.23,18.23,0,0,1,3.65,2.15c4.12,3.29-.3,5.3-0.3,5.3a41,41,0,0,0-3.86,2.15c-9.65,6.1-10,12.9-9.47,16.19a31.88,31.88,0,0,0,8.07,1.82l0.82,0.06c0.71,0,1.43.07,2.16,0.07a32.23,32.23,0,0,0,5.93-.55c-1.9-3.26-2.72-5.78-2.85-7.81q0-.32,0-0.63a7.65,7.65,0,0,1,.49-2.71q0.09-.24.2-0.47a10.29,10.29,0,0,1,1.32-2.1l0.31-.38c0.21-.25.43-0.5,0.65-0.74l0.33-.36,0.33-.36a24,24,0,0,0,1.73-2,8.11,8.11,0,0,0,1.17-2.15C549.08,1298.22,547.94,1296.51,546.33,1295.35Z" transform="translate(-504.42 -1259.47)"/><path class="cls-10" d="M534.28,1299.09l-0.2,0-0.05-.06a0.82,0.82,0,0,0-1.43.71,1,1,0,0,0-.59.9h3.06A1,1,0,0,0,534.28,1299.09Z" transform="translate(-504.42 -1259.47)"/><polygon class="cls-1" points="66.17 32.13 66.17 32.13 66.17 32.13 66.17 32.13"/><path class="cls-12" d="M549.23,1319.16v-9.51h-1.67v10S548.62,1319.38,549.23,1319.16Z" transform="translate(-504.42 -1259.47)"/><path class="cls-1" d="M555.31,1298.8l0-.05-2.48-2.4c-0.08-.08-0.12,0-0.18,0a3.92,3.92,0,0,1-1.08.51,3.73,3.73,0,0,1-1.78.12,3.43,3.43,0,0,1-1.24-.54,0.19,0.19,0,0,0-.23,0,4.73,4.73,0,0,1-.56.31,3.5,3.5,0,0,1-2.88-.05,8.26,8.26,0,0,1-.79-0.42l-2.57,2.5a6.08,6.08,0,0,1,.85,1.57,3.24,3.24,0,0,1-.08,2.6c-0.17.38-.36,0.75-0.54,1.13a4.72,4.72,0,0,0-.32,3.51,3.35,3.35,0,0,0,.86,1.47,4.07,4.07,0,0,0,2.22,1c0.67,0.11,1.35.18,2,.3a3,3,0,0,1,1.69.84c0.17,0.17.24,0.17,0.41,0a2.18,2.18,0,0,1,.89-0.62,9.52,9.52,0,0,1,1-.26c0.66-.11,1.34-0.17,2-0.3a3.52,3.52,0,0,0,2.4-1.47,4.13,4.13,0,0,0,.69-2.34,5.18,5.18,0,0,0-.6-2.35c-0.15-.29-0.29-0.59-0.43-0.89a3.23,3.23,0,0,1-.28-2.08A5,5,0,0,1,555.31,1298.8Z" transform="translate(-504.42 -1259.47)"/><path class="cls-1" d="M555.31,1298.8a5,5,0,0,0-1,2.16,3.23,3.23,0,0,0,.28,2.08c0.13,0.3.28,0.6,0.43,0.89a5.18,5.18,0,0,1,.6,2.35,4.13,4.13,0,0,1-.69,2.34,3.52,3.52,0,0,1-2.4,1.47c-0.66.13-1.33,0.19-2,.3a9.52,9.52,0,0,0-1,.26,2.18,2.18,0,0,0-.89.62c-0.17.17-.24,0.17-0.41,0a3,3,0,0,0-1.69-.84c-0.67-.12-1.35-0.19-2-0.3a4.07,4.07,0,0,1-2.22-1,3.35,3.35,0,0,1-.86-1.47,4.72,4.72,0,0,1,.32-3.51c0.18-.38.36-0.75,0.54-1.13a3.24,3.24,0,0,0,.08-2.6,6.08,6.08,0,0,0-.85-1.57l2.57-2.5a8.26,8.26,0,0,0,.79.42,3.5,3.5,0,0,0,2.88.05,4.73,4.73,0,0,0,.56-0.31,0.19,0.19,0,0,1,.23,0,3.43,3.43,0,0,0,1.24.54,3.73,3.73,0,0,0,1.78-.12,3.92,3.92,0,0,0,1.08-.51c0.06,0,.1-0.08.18,0l2.48,2.4Zm-6.91,2.71h-5a0.18,0.18,0,0,0-.22.19,6.08,6.08,0,0,1-.67,2.22,5.34,5.34,0,0,0-.66,2.4,3.12,3.12,0,0,0,.54,1.84,2.74,2.74,0,0,0,1.68,1.13c0.79,0.18,1.6.28,2.41,0.4a3.84,3.84,0,0,1,1.87.69,0.12,0.12,0,0,0,.18,0,3,3,0,0,1,1.31-.57c0.89-.15,1.79-0.27,2.68-0.43a2.91,2.91,0,0,0,2-1.22,3.33,3.33,0,0,0,.48-2.48,6.28,6.28,0,0,0-.64-1.82,6,6,0,0,1-.64-2.13,0.19,0.19,0,0,0-.24-0.21h-5Zm6.17-2.65h0l-1.84-1.74a0.16,0.16,0,0,0-.23,0,4.22,4.22,0,0,1-4,.06,0.24,0.24,0,0,0-.19,0,4.07,4.07,0,0,1-3.06.3c-0.36-.1-0.71-0.27-1.08-0.41l-1.94,1.84,0.12,0.18a4.56,4.56,0,0,1,.73,1.6,0.19,0.19,0,0,0,.23.18h10.25a0.16,0.16,0,0,0,.2-0.15,2.68,2.68,0,0,1,.18-0.59C554.11,1299.68,554.34,1299.28,554.56,1298.86Z" transform="translate(-504.42 -1259.47)"/><path class="cls-13" d="M554.56,1298.86c-0.22.42-.45,0.82-0.64,1.23a2.68,2.68,0,0,0-.18.59,0.16,0.16,0,0,1-.2.15H543.28a0.19,0.19,0,0,1-.23-0.18,4.56,4.56,0,0,0-.73-1.6l-0.12-.18,1.94-1.84c0.37,0.14.71,0.3,1.08,0.41a4.07,4.07,0,0,0,3.06-.3,0.24,0.24,0,0,1,.19,0,4.22,4.22,0,0,0,4-.06,0.16,0.16,0,0,1,.23,0l1.84,1.74h0Zm-8.91,1.5-0.64-.87,0.15,0a0.56,0.56,0,0,0,.37-0.68,0.47,0.47,0,0,0-.53-0.43h-1.08v2h0.5v-0.8l0.53,0.71a0.26,0.26,0,0,0,.15.11C545.26,1300.36,545.43,1300.35,545.65,1300.35Zm1,0a1,1,0,1,0-1-1A1,1,0,0,0,546.6,1300.35Zm4.59,0h1.37v-0.5H551.7v-0.28h0.87v-0.45H551.7v-0.26h0.86v-0.5h-1.37v2Zm-3.45-2c0,0.49,0,1,0,1.44a0.59,0.59,0,0,0,.55.55,1.57,1.57,0,0,0,.52,0,0.59,0.59,0,0,0,.5-0.63c0-.32,0-0.64,0-1s0-.43-0.42-0.4l-0.06,0c0,0.06,0,.12,0,0.17,0,0.36,0,.71,0,1.07s-0.08.31-.28,0.31a0.27,0.27,0,0,1-.32-0.32c0-.28,0-0.56,0-0.84C548.23,1298.29,548.23,1298.29,547.74,1298.34Zm2.25,0.46v1.54h0.52v-1.54H551v-0.46h-1.15c-0.4,0-.4,0-0.38.4a0.29,0.29,0,0,0,0,.06H550Z" transform="translate(-504.42 -1259.47)"/><path class="cls-1" d="M545.06,1304.62a3,3,0,0,1,1.12-.17,1.89,1.89,0,0,1,1.83,1.62,2.27,2.27,0,0,1-2.24,2.74,2.3,2.3,0,0,1-2.4-2.81,7.15,7.15,0,0,1,1.8-3.55c0.17-.2.37-0.37,0.55-0.56a0.13,0.13,0,0,1,.21,0l0.61,0.55c0.11,0.09.1,0.15,0,.24a5.55,5.55,0,0,0-1.27,1.51C545.19,1304.32,545.13,1304.45,545.06,1304.62Zm0.63,3.17a1.17,1.17,0,1,0-1.17-1.17A1.18,1.18,0,0,0,545.69,1307.78Z" transform="translate(-504.42 -1259.47)"/><path class="cls-1" d="M552,1302.57a5.42,5.42,0,0,0-1.59,2.06l0.21-.06a2.33,2.33,0,0,1,1.65.08,2,2,0,0,1,1.09,1.61,2.24,2.24,0,0,1-1.69,2.48,2.36,2.36,0,0,1-2.64-.93,2.39,2.39,0,0,1-.32-1.88,7.41,7.41,0,0,1,2.31-4,0.16,0.16,0,0,1,.27,0C551.47,1302.15,551.7,1302.35,552,1302.57Zm0.2,4.06a1.16,1.16,0,0,0-1.16-1.17,1.17,1.17,0,0,0,0,2.34A1.16,1.16,0,0,0,552.15,1306.64Z" transform="translate(-504.42 -1259.47)"/><path class="cls-14" d="M554.92,1305.65a6.28,6.28,0,0,0-.64-1.82,6,6,0,0,1-.64-2.13,0.22,0.22,0,0,0-.07-0.17h0a0.31,0.31,0,0,0-.14,0H543.36a0.18,0.18,0,0,0-.22.19,6.08,6.08,0,0,1-.67,2.22,5.34,5.34,0,0,0-.66,2.4,3.12,3.12,0,0,0,.54,1.84,2.74,2.74,0,0,0,1.68,1.13c0.79,0.18,1.6.28,2.41,0.4a3.84,3.84,0,0,1,1.87.69,0.12,0.12,0,0,0,.18,0,3,3,0,0,1,1.31-.57c0.89-.15,1.79-0.27,2.68-0.43a2.91,2.91,0,0,0,2-1.22A3.33,3.33,0,0,0,554.92,1305.65Zm-9.16,3.15a2.3,2.3,0,0,1-2.4-2.81,7.15,7.15,0,0,1,1.8-3.55c0.17-.2.37-0.37,0.55-0.56a0.13,0.13,0,0,1,.21,0l0.61,0.55c0.11,0.09.1,0.15,0,.24a5.55,5.55,0,0,0-1.27,1.51c-0.07.13-.12,0.26-0.2,0.42a3,3,0,0,1,1.12-.17,1.89,1.89,0,0,1,1.83,1.62A2.27,2.27,0,0,1,545.76,1308.81Zm5.87-.06a2.36,2.36,0,0,1-2.64-.93,2.39,2.39,0,0,1-.32-1.88,7.41,7.41,0,0,1,2.31-4,0.16,0.16,0,0,1,.27,0c0.22,0.21.45,0.41,0.7,0.64a5.42,5.42,0,0,0-1.59,2.06l0.21-.06a2.33,2.33,0,0,1,1.65.08,2,2,0,0,1,1.09,1.61A2.24,2.24,0,0,1,551.63,1308.75Z" transform="translate(-504.42 -1259.47)"/><path class="cls-1" d="M545.65,1300.35c-0.21,0-.38,0-0.55,0a0.26,0.26,0,0,1-.15-0.11l-0.53-.71v0.8h-0.5v-2H545a0.47,0.47,0,0,1,.53.43,0.56,0.56,0,0,1-.37.68l-0.15,0Zm-1.23-1.26h0.42c0.09,0,.2,0,0.18-0.14a0.27,0.27,0,0,0-.16-0.18,2.21,2.21,0,0,0-.43,0v0.33Z" transform="translate(-504.42 -1259.47)"/><path class="cls-1" d="M546.6,1300.35a1,1,0,1,1,1-1A1,1,0,0,1,546.6,1300.35Zm0.49-1a0.51,0.51,0,0,0-.48-0.54,0.53,0.53,0,0,0-.48.54,0.51,0.51,0,0,0,.48.54A0.5,0.5,0,0,0,547.09,1299.34Z" transform="translate(-504.42 -1259.47)"/><path class="cls-1" d="M551.19,1300.34v-2h1.37v0.5H551.7v0.26h0.87v0.45H551.7v0.28h0.87v0.5h-1.37Z" transform="translate(-504.42 -1259.47)"/><path class="cls-1" d="M547.74,1298.34c0.49-.05.49-0.05,0.49,0.41,0,0.28,0,.56,0,0.84a0.27,0.27,0,0,0,.32.32c0.21,0,.28-0.08.28-0.31s0-.71,0-1.07c0-.06,0-0.12,0-0.17l0.06,0c0.43,0,.43,0,0.42.4s0,0.64,0,1a0.59,0.59,0,0,1-.5.63,1.57,1.57,0,0,1-.52,0,0.59,0.59,0,0,1-.55-0.55C547.72,1299.3,547.74,1298.83,547.74,1298.34Z" transform="translate(-504.42 -1259.47)"/><path class="cls-1" d="M550,1298.8h-0.49a0.29,0.29,0,0,1,0-.06c0-.4,0-0.4.38-0.4H551v0.46h-0.5v1.54H550v-1.54Z" transform="translate(-504.42 -1259.47)"/><path class="cls-14" d="M545.69,1307.78a1.17,1.17,0,1,1,1.18-1.16A1.18,1.18,0,0,1,545.69,1307.78Z" transform="translate(-504.42 -1259.47)"/><ellipse class="cls-14" cx="550.98" cy="1306.64" rx="1.16" ry="1.17" transform="translate(-506.44 -1258.62) rotate(-0.09)"/><path class="cls-13" d="M544.42,1299.09v-0.33a2.21,2.21,0,0,1,.43,0,0.27,0.27,0,0,1,.16.18c0,0.11-.08.14-0.18,0.14h-0.42Z" transform="translate(-504.42 -1259.47)"/><path class="cls-13" d="M547.09,1299.34a0.5,0.5,0,0,1-.48.54,0.51,0.51,0,0,1-.48-0.54,0.53,0.53,0,0,1,.48-0.54A0.51,0.51,0,0,1,547.09,1299.34Z" transform="translate(-504.42 -1259.47)"/><path class="cls-1" d="M536.49,1320.87l-0.4-2.37-1.17.15v2.08S535.64,1320.82,536.49,1320.87Z" transform="translate(-504.42 -1259.47)"/><polygon class="cls-1" points="30.36 56.17 31.78 56.17 31.43 53.95 30.6 53.95 30.36 56.17"/><polygon class="cls-1" points="30.95 51.28 31.93 51.34 32.03 49.71 31.47 49.71 30.95 51.28"/><polygon class="cls-1" points="32.6 47.46 33.5 47.52 34.18 46.42 33.75 46.39 32.6 47.46"/><polygon class="cls-1" points="35.1 45.07 35.69 45.07 36.27 44.47 35.98 44.37 35.1 45.07"/><polygon class="cls-1" points="37.45 43.16 37.71 43.31 38.4 42.67 38.19 42.57 37.45 43.16"/><polygon class="cls-1" points="41 39.74 41.3 39.76 41.28 39.1 41.03 39.06 41 39.74"/><polygon class="cls-1" points="41.03 37.77 41.3 37.67 40.95 37.15 40.73 37.2 41.03 37.77"/><polygon class="cls-1" points="39.89 36.41 40.06 36.29 39.59 35.88 39.43 35.96 39.89 36.41"/><polygon class="cls-1" points="38.5 35.44 38.6 35.33 38.06 35.03 37.98 35.1 38.5 35.44"/><polygon class="cls-1" points="36.99 34.61 37.09 34.49 36.61 34.17 36.51 34.22 36.99 34.61"/><path class="cls-4" d="M537.07,1302.8H509.76A32.16,32.16,0,0,0,527.6,1319C527.06,1315.7,527.42,1308.9,537.07,1302.8Zm-18.23,8.05a1.64,1.64,0,0,1,1.32-2.62,1.65,1.65,0,0,1,.33,0,1.38,1.38,0,0,1,2.49,1.08h0l-0.06.05s-0.16.93-.15,0.94,0.07,0.35.1,0.51h-4Z" transform="translate(-504.42 -1259.47)"/><path class="cls-6" d="M525.06,1308.93a0.55,0.55,0,0,0-.55.55,0.54,0.54,0,0,0,0,.06A0.55,0.55,0,1,0,525.06,1308.93Z" transform="translate(-504.42 -1259.47)"/><path class="cls-6" d="M528.16,1307.36a0.12,0.12,0,0,0-.24.06,1.63,1.63,0,0,1-.31,1.07l0.65,0.19A1.83,1.83,0,0,0,528.16,1307.36Z" transform="translate(-504.42 -1259.47)"/><path class="cls-1" d="M530.46,1310.28a0.57,0.57,0,0,0-.45-0.55l-0.73-.15a0.84,0.84,0,0,0-.63-0.78l-0.39-.12-0.65-.19a13.76,13.76,0,0,0-2.95-.57,2.11,2.11,0,0,0-1.69.8,1.71,1.71,0,0,1,.66-0.18,0.45,0.45,0,0,1,.37.46,0.56,0.56,0,0,1-.32.49l0,0a4.85,4.85,0,0,1-1.12.26,2.27,2.27,0,0,0,0,.29,2.15,2.15,0,0,0,.14.77h2.65a1,1,0,0,0,1.38-.46,0.46,0.46,0,0,0,.92,0,0.46,0.46,0,0,0,.92,0,0.46,0.46,0,0,1,.46.46h0.92A0.57,0.57,0,0,0,530.46,1310.28Zm-4.94-.5a0.55,0.55,0,0,1-1-.24,0.54,0.54,0,0,1,0-.06A0.55,0.55,0,1,1,525.52,1309.78Z" transform="translate(-504.42 -1259.47)"/><path class="cls-15" d="M528.52,1310.39a0.46,0.46,0,0,0-.46.46H529A0.46,0.46,0,0,0,528.52,1310.39Z" transform="translate(-504.42 -1259.47)"/><path class="cls-15" d="M527.6,1310.39a0.46,0.46,0,0,0-.46.46h0.92A0.46,0.46,0,0,0,527.6,1310.39Z" transform="translate(-504.42 -1259.47)"/><path class="cls-15" d="M526.69,1310.39a0.46,0.46,0,0,0-.46.46h0.92A0.46,0.46,0,0,0,526.69,1310.39Z" transform="translate(-504.42 -1259.47)"/><path class="cls-15" d="M525.77,1310.39a0.46,0.46,0,0,0-.46.46h0.92A0.46,0.46,0,0,0,525.77,1310.39Z" transform="translate(-504.42 -1259.47)"/><path class="cls-6" d="M522.84,1308.77l-0.11,0a2.8,2.8,0,0,1-1.83,0,1.42,1.42,0,0,1-.7-1.4,0.12,0.12,0,0,0-.24-0.06,1.6,1.6,0,0,0,.46,2.05,3.09,3.09,0,0,0,2.11.38,4.85,4.85,0,0,0,1.12-.26l0,0A0.56,0.56,0,0,0,524,1309a0.45,0.45,0,0,0-.37-0.46,1.71,1.71,0,0,0-.66.18Z" transform="translate(-504.42 -1259.47)"/></svg>