<svg id="Layer_1" data-name="Layer 1" xmlns="http://www.w3.org/2000/svg" viewBox="0 0 67.41 52.15"><defs><style>.cls-1{fill:#fff;}.cls-2{fill:#4f2972;}.cls-3{fill:#662d91;}.cls-4{fill:#8352a1;}.cls-5{fill:#d8d4ce;}.cls-6{fill:#f15e22;}.cls-7{fill:#f07522;}.cls-8{fill:#f8952b;}.cls-9{fill:#f7d161;}</style></defs><title>oregon-cannon-beach</title><path class="cls-1" d="M59.37,1668a5.35,5.35,0,0,1-3.73-2,9.51,9.51,0,0,0-.83-0.77c-0.69-.53-1.94-1.62-3.38-2.9-1.63-1.44-3.48-3.06-4.66-4a4,4,0,0,0-2-1.09,1.36,1.36,0,0,0-.83.41c-0.55.43-1.1,0.92-1.69,1.43a26.71,26.71,0,0,1-3.23,2.56,15.6,15.6,0,0,0-2.78,2.4c-0.42.42-.88,0.89-1.44,1.41-1.81,1.73-3.25,2.5-4.68,2.5a3.79,3.79,0,0,1-2.5-1c-2-1.7-1-4.13-.22-5.91,0.18-.42.37-0.86,0.54-1.32,0.25-.68.55-1.54,0.88-2.47,0.77-2.21,1.65-4.71,2.28-6,1-2,1.15-3,.61-3.37a29.71,29.71,0,0,0-3.07-1.82c-0.81-.43-1.64-0.88-2.64-1.51a41.45,41.45,0,0,0-7-3.42,4.49,4.49,0,0,1-3.26-2.89,3,3,0,0,1,1-3,7.2,7.2,0,0,1,5.2-1.69c0.69,0,1.48,0,2.43.13,0.49,0,1,.07,1.59.07,0.83,0,1.72,0,2.67-.1,1.15-.06,2.46-0.13,4-0.13,0.7,0,1.36,0,2,.09s1,0.07,1.49.07a2.15,2.15,0,0,0,1.18-.19c0.62-.46.71-0.74,1.06-2.14,0.11-.44.23-0.93,0.39-1.49,0.28-1,.5-1.92.73-2.92,0.32-1.38.68-2.94,1.27-4.8,0.13-.41.25-0.8,0.36-1.18,0.81-2.68,1.58-5.21,4.18-5.21a3.42,3.42,0,0,1,.54,0c2.93,0.47,3.63,4.1,4.29,7.62,0.25,1.32.53,2.37,0.81,3.38a35.21,35.21,0,0,1,.89,3.93c0.54,3.45,2.16,3.45,2.86,3.45H57c0-.54-0.1-1.07-0.16-1.61-0.11-1-.24-2.13-0.28-3.52,0-.3,0-0.58,0-0.86-0.08-1.94-.2-4.6,2.37-5.07a2.92,2.92,0,0,1,.51,0c2.14,0,3.42,2.21,4.67,4.35,0.46,0.8.89,1.42,1.3,2a25.18,25.18,0,0,1,1.53,2.44c0.29,0.55.89,1.46,1.57,1.46a1.48,1.48,0,0,0,.48-0.09l6.9-2.43c0.29-.1.6-0.24,0.93-0.37a8.75,8.75,0,0,1,3.24-.91,3,3,0,0,1,3.08,3.22c-0.12,1.55-1.4,2.62-2.43,3.48l-0.34.28a55.71,55.71,0,0,0-5,5.44l-0.07.09a5.78,5.78,0,0,0,.81,1.39c1.07,1.53,3,4,4,5.28l0.76,1c0.13,0.17.27,0.34,0.41,0.49,0.59,0.69,2.15,2.51.38,4.4a3.19,3.19,0,0,1-2.37,1.06h0a5.34,5.34,0,0,1-2.31-.67,5.8,5.8,0,0,0-.67-0.29c-0.6-.2-1.68-0.63-2.94-1.14-1.41-.57-3-1.21-4-1.54a4,4,0,0,0-1.15-.26h0a0.42,0.42,0,0,0-.26.25c-0.26.41-.51,0.86-0.77,1.31a19.31,19.31,0,0,1-1.59,2.52,10.41,10.41,0,0,0-1.22,2.14c-0.18.38-.38,0.8-0.63,1.28a7.86,7.86,0,0,1-1.56,2.24c0.09,0.26.19,0.52,0.28,0.76,0.47,1.22,1.46,3.76-1.21,5.15A4,4,0,0,1,59.37,1668Z" transform="translate(-15.67 -1615.86)"/><path class="cls-1" d="M74.55,1644.61c-1.31-1.87-1.46-2.67-.66-3.66a58.13,58.13,0,0,1,5.24-5.67c1.15-1,2.88-2.21,1.82-3.44-0.89-1-3,.27-4.53.79l-6.9,2.43c-2,.69-3.32-0.53-4.23-2.21s-1.75-2.59-2.81-4.41-2.12-3.65-3.3-3.44-0.93,1.83-.86,4.1,0.38,3.78.47,5.54c0,0.58.08,1,.12,1.43H54.62c-2.95,0-4.21-2.28-4.63-5s-1.12-4.3-1.69-7.26-1.12-5.91-2.81-6.18-2.11,2-3.09,5.11-1.28,5.26-2,7.67-0.62,3.46-2.11,4.57c-1.26.94-3.48,0.39-5.74,0.39-3.51,0-5.9.38-8.39,0.15-3-.28-5-0.15-6.22,1.06s0.14,2.42,1.54,2.82a42.14,42.14,0,0,1,7.44,3.63c2.11,1.34,3.47,1.8,5.76,3.36,2,1.34.84,3.9,0,5.64s-2.25,6-3.09,8.33-2.11,4.16-.84,5.24,2.74,0.47,4.78-1.48,2.81-3,4.49-4,3.23-2.69,4.77-3.9,2.81-1.08,5.06.67,6.62,5.79,8,6.87,2.53,3.17,4.49,2.15c1.54-.81.56-2.15,0-3.9-0.07-.22-0.23-0.67-0.43-1.27,0.78-.06,1.45-0.8,2.15-2.19a20.55,20.55,0,0,1,2-3.72c0.87-1.1,1.51-2.53,2.25-3.69s1.61-1.37,3.5-.73,5.73,2.3,6.91,2.68,2.42,1.51,3.48.38c0.83-.89-0.13-1.55-0.91-2.58C78.93,1650.3,76,1646.7,74.55,1644.61Zm-17.68,6.67c-0.65-2.33-.72-3.56-0.08-4.42l0.64,0.16c1.61,0.43,1.47,2.38,1.31,3.74s-0.08,4.38-.11,6.11C58,1654.93,57.31,1652.84,56.87,1651.29Z" transform="translate(-15.67 -1615.86)"/><path class="cls-2" d="M38.31,1635c1.49-1.11,1.4-2.15,2.11-4.57s1-4.58,2-7.67,1.4-5.38,3.09-5.11,2.25,3.22,2.81,6.18,1.26,4.57,1.69,7.26,1.68,5,4.63,5H65c2.25,0,5.75-.73,6.46,1.08,0.84,2.15-2.05,3-4.07,3.76a82.82,82.82,0,0,0-9.72,5.14c-1.54.94-1.72,2.09-.84,5.22,1,3.49,3.19,9.71,3.53,10.75,0.56,1.75,1.54,3.09,0,3.9-2,1-3.09-1.07-4.49-2.15s-5.78-5.12-8-6.87-3.51-1.88-5.06-.67-3.09,2.82-4.77,3.9-2.53,2.15-4.49,4-3.51,2.55-4.78,1.48,0-3,.84-5.24,2.25-6.58,3.09-8.33,2-4.3,0-5.64c-2.29-1.56-3.65-2-5.76-3.36a42.16,42.16,0,0,0-7.44-3.63c-1.4-.4-2.81-1.61-1.54-2.82s3.23-1.34,6.22-1.06c2.49,0.24,4.88-.15,8.39-0.15C34.84,1635.41,37,1636,38.31,1635Z" transform="translate(-15.67 -1615.86)"/><path class="cls-3" d="M38.89,1635.77c1.38-1,1.37-2.59,2-4.82s0.93-4.24,1.84-7.1,1.18-5.54,2.74-5.29,2,3.4,2.47,6.14,1.42,4.38,1.81,6.86,1.51,5,4.24,5,7.17,0.09,9.25.09,5.78-1.11,6.43.55c0.78,2-2.37,2.2-4.24,2.93a78,78,0,0,0-9.07,4.76c-1.43.87-1.07,2.48-.25,5.39,0.91,3.23,3,9,3.27,9.95,0.52,1.62,1.43,2.86,0,3.61-1.82.95-3.18-1.83-4.48-2.82s-5.35-4.74-7.43-6.36-3.54-1.09-5,0-2.86,2.61-4.42,3.61a27.11,27.11,0,0,0-4.16,3.73c-1.89,1.8-2.64,2.55-3.81,1.55s0-2.74.78-4.85,2.08-6.09,2.86-7.71,2.08-4.32.26-5.57c-2.12-1.45-3.38-1.87-5.33-3.11a39.09,39.09,0,0,0-6.89-3.36c-1.3-.37-2.86-1.15-1.69-2.27s2.63-.87,5.4-0.61c2.31,0.22,4.35-.18,7.6-0.18C35.22,1635.86,37.72,1636.64,38.89,1635.77Z" transform="translate(-15.67 -1615.86)"/><path class="cls-4" d="M45.28,1618.62c-0.76,1-.4,3.6-0.27,5.06a23.53,23.53,0,0,1-.13,4.39c-0.13,1.2-.13,3.73-0.27,4.26s-0.13,3.2-.4,4.13-0.67,2.26-1.73,2.26-3.46-.93-4.39-0.67a6.56,6.56,0,0,1-3.6.27,15.25,15.25,0,0,0-4.53-.93,14.37,14.37,0,0,1-2.4,0c-0.93,0-3.06-.13-3.06-0.13s-3.7-1.08-4.38-.61,1.58,0.21,3.58.87a29.9,29.9,0,0,0,6.92.93c2.13,0.13,3.2,1.06,5.46,1.2s5.06,0,5.46.27,1.07,2,.53,2.8-1.6,3.46-2.66,4.66a38.26,38.26,0,0,0-3.73,5.73c-0.67,1.33-2.8,4.13-3.2,4.79s-1.86,4.13-2.26,4.93-0.27,1.46,1.07-.67,2-4,3.2-5.19a29.93,29.93,0,0,0,3.06-4.4c0.53-.8,2.26-2.4,2.53-2.93s1.46-1.73,2.13-2.8l2-3.2s1.86-1.2,2.4,0,3.46,4.79,4.26,6.52,1.86,4.4,2.8,5.46a17.42,17.42,0,0,1,2.53,3.46c0.4,0.93,1.86,2.66,2.26,3.6s1.86,1.86.67-.67a49.24,49.24,0,0,0-2.53-4.26,10,10,0,0,0-1.07-2.66c-0.67-.93-1.46-1.6-2-2.53s-0.27-1.2-.67-2.13-0.93-1.86-1.2-2.4-1.6-1.33-1.73-1.73-2.4-3.06-1.86-3.73a9.11,9.11,0,0,1,4.13-1.86,36.24,36.24,0,0,0,5.19-.53c1.33-.4,5.59-0.8,6.13-0.93s3.6-1.06,4.39-1.2,3.27-.88,1.77-0.91-4,0-5.36.64-2.53.4-3.73,0.67a15.24,15.24,0,0,1-3.2.67c-1.07,0-3.06.13-4.13,0.27s-3.73.67-4.79,0.67-2.26-.27-2.4-1.46-1.07-3.46-.67-5.46a50.9,50.9,0,0,0,.53-5.73c0.13-1.46-.27-3.86-0.27-5.59S45.75,1618,45.28,1618.62Z" transform="translate(-15.67 -1615.86)"/><path class="cls-4" d="M45.8,1622.65a2,2,0,0,0,.84-1.89,0.9,0.9,0,0,0-.74-0.88,0.27,0.27,0,0,0-.18-0.09,1.59,1.59,0,0,0-1.65,1.74A1.21,1.21,0,0,0,45.8,1622.65ZM44.55,1627a1.79,1.79,0,0,0,2.26-.85,1.57,1.57,0,0,0-.53-1.86h0A0.31,0.31,0,0,0,46,1624C44.68,1623.81,42.76,1626.32,44.55,1627Zm0.12,5.38a2.18,2.18,0,0,0,1.49-.37,3,3,0,0,0,.67-0.89c0.26-.5.52-1.44-0.19-1.59a0.33,0.33,0,0,0-.25-0.12H46.08c-1-.83-2.22.25-2.66,1.15a1.49,1.49,0,0,0-.1,1.42A1.55,1.55,0,0,0,44.67,1632.39Zm2.7,2.34a1.33,1.33,0,0,0-1.27-.9,2.4,2.4,0,0,0-1.65.43,1.47,1.47,0,0,0-.64.33,2.13,2.13,0,0,0-.65,1.57c0,1.2,1.93,1.13,2.79,1A2,2,0,0,0,47.37,1634.73Zm4,7.49a1.93,1.93,0,0,0,1.78-1.78c0.12-1-1.16-1.76-2.06-1.94a1.32,1.32,0,0,0-1.28.41,1.18,1.18,0,0,0-.19.8,0.27,0.27,0,0,0-.15.26C49.52,1640.95,50.24,1642.24,51.39,1642.22Zm5.88-.78a1.37,1.37,0,0,0,1.28-.58,1.43,1.43,0,0,0-.12-1.47,2.52,2.52,0,0,0-.57-0.67c-0.19-.17-0.35-0.35-0.54-0.51a1.38,1.38,0,0,0-1.43.08,1.1,1.1,0,0,0-.88,1.44A2.6,2.6,0,0,0,57.27,1641.43Zm3.51-3.52a0.35,0.35,0,0,0-.5.06c-0.44.6,0.11,1.58,0.55,2a1.86,1.86,0,0,0,2.1.63c0.84-.47.44-1.69,0.06-2.31A1.47,1.47,0,0,0,60.77,1637.91Zm7.07,0.07a1.3,1.3,0,0,0-1.08-1,1.61,1.61,0,0,0-1.57.62,1.21,1.21,0,0,0,.34,1.58,1.48,1.48,0,0,0,1.7.18l0,0A1,1,0,0,0,67.84,1638Zm-9.48,21.32a0.32,0.32,0,0,0-.28-0.16H57.23a0.3,0.3,0,0,0-.31.37c-1.08.59-1.29,2.55,0.26,2.74A1.78,1.78,0,0,0,59,1661,1.28,1.28,0,0,0,58.37,1659.3Zm-2-4.56a3.67,3.67,0,0,0-1.77-.76,0.28,0.28,0,0,0-.23.08,1.66,1.66,0,0,0-1.56.83,1.41,1.41,0,0,0,.65,2.08,3.19,3.19,0,0,0,1.72.11,2.24,2.24,0,0,0,1.23-1.08A1,1,0,0,0,56.33,1654.74Zm-2.72-5.08c-0.2-1.29-1.57-1.07-2.56-1a0.31,0.31,0,0,0-.31.34,1.68,1.68,0,0,0-1.19,1.61c-0.05,1.1,1.55,1.48,2.43,1.34A1.94,1.94,0,0,0,53.6,1649.67Zm-2.72-4.85c-0.18-1-1.73-1.14-2.56-1.15a0.29,0.29,0,0,0-.27.15c-0.86.17-1.75,0.75-1.53,1.72a2,2,0,0,0,2.53,1.55A2.09,2.09,0,0,0,50.88,1644.81Zm-12-3.13c1.15,0,1.86-1.27,1.88-2.25a0.27,0.27,0,0,0-.15-0.26,1.18,1.18,0,0,0-.19-0.8,1.31,1.31,0,0,0-1.28-.41c-0.9.18-2.18,0.92-2,1.95A1.93,1.93,0,0,0,38.91,1641.68Zm-5.88-.76a2.6,2.6,0,0,0,2.26-1.72,1.11,1.11,0,0,0-.89-1.43,1.38,1.38,0,0,0-1.43-.08c-0.19.16-.35,0.34-0.54,0.51a2.52,2.52,0,0,0-.56.67,1.43,1.43,0,0,0-.12,1.47A1.37,1.37,0,0,0,33,1640.92Zm-3.52-3.51a1.47,1.47,0,0,0-2.2.43c-0.39.62-.78,1.84,0.06,2.31a1.86,1.86,0,0,0,2.1-.64c0.43-.46,1-1.44.54-2A0.35,0.35,0,0,0,29.51,1637.41Zm-6-.89a1.3,1.3,0,0,0-1.08,1,1,1,0,0,0,.6,1.38l0,0a1.48,1.48,0,0,0,1.7-.19,1.21,1.21,0,0,0,.33-1.58A1.62,1.62,0,0,0,23.52,1636.52Zm9.73,22.27a0.25,0.25,0,0,0-.34-0.29l-1,.21a0.48,0.48,0,0,0-.31.23,1.45,1.45,0,0,0-.66,1.83,1.57,1.57,0,0,0,2,.83C34.68,1661,34.44,1659.11,33.25,1658.79Zm2.37-5.25a0.29,0.29,0,0,0-.23-0.08,3.66,3.66,0,0,0-1.77.77,1,1,0,0,0,0,1.27,2.24,2.24,0,0,0,1.24,1.08,3.2,3.2,0,0,0,1.72-.12,1.41,1.41,0,0,0,.65-2.08A1.66,1.66,0,0,0,35.62,1653.54Zm3.84-5.12a0.31,0.31,0,0,0-.31-0.34c-1,0-2.36-.24-2.56,1.06a1.94,1.94,0,0,0,1.64,2.23c0.88,0.13,2.48-.25,2.42-1.35A1.68,1.68,0,0,0,39.46,1648.42Zm2.8-5.15a0.29,0.29,0,0,0-.27-0.15c-0.83,0-2.38.13-2.56,1.16a2.1,2.1,0,0,0,1.84,2.27A2,2,0,0,0,43.8,1645C44,1644,43.12,1643.44,42.26,1643.27Z" transform="translate(-15.67 -1615.86)"/><path class="cls-5" d="M44.72,1621.67c0.73,0.42,1.73-.38,1.31-0.89a1.23,1.23,0,0,0-.85-0.5C44.56,1620.59,44,1621.25,44.72,1621.67Zm-0.15,4.54c0.58,0.42,2-.35,1.69-0.89a0.9,0.9,0,0,0-1.12-.62C44.48,1624.86,44,1625.79,44.56,1626.22Zm1.73,4a1.25,1.25,0,0,0-1.58-.62c-0.55.25-1.19,1-.69,1.54S46.64,1630.91,46.3,1630.26Zm-1.31,4.2c-0.56.11-1.31,0.31-1.19,1.12s2.89,1.08,2.81,0A1.28,1.28,0,0,0,45,1634.46Zm6.24,6.39c1.08,0.15,1.81-.85,1.08-1.42s-1.58-.92-2-0.19A1,1,0,0,0,51.23,1640.85Zm6.59-1.54a1.17,1.17,0,0,0-1.54-.81c-0.6.23-1,.85,0,1.62A0.91,0.91,0,0,0,57.81,1639.31Zm3.85-1.35c-0.35,0-1.35.5-.77,1.27s2.23,0.81,2-.15S62.24,1637.92,61.66,1638Zm5.43-.42c-0.73-.46-0.69-0.31-1.16-0.08a0.63,0.63,0,0,0,.27,1.19C67,1638.81,67.82,1638,67.09,1637.54ZM48,1644.24a1,1,0,0,0-.42,1.66c0.81,0.66,3-.35,2.31-1.16A1.44,1.44,0,0,0,48,1644.24Zm4.81,5.12a1.28,1.28,0,0,0-1.73-.19c-0.65.24-1.08,0.85-.54,1.35C51.29,1651.18,53.55,1650.38,52.84,1649.36Zm1.5,5c-0.54.08-1.77,0.65-1.39,1.39s3.2,0.27,2.46-.73S54.34,1654.33,54.34,1654.33Zm3,5.39a1,1,0,0,0-.5,1.46c0.54,0.54,2.12-.54,1.62-1.16A0.78,0.78,0,0,0,57.31,1659.72Zm-19.45-20.91c-0.73.58,0,1.58,1.08,1.43a1,1,0,0,0,.89-1.62C39.44,1637.88,38.59,1638.23,37.86,1638.81Zm-4-.92a1.17,1.17,0,0,0-1.54.81,0.91,0.91,0,0,0,1.58.81C34.86,1638.73,34.5,1638.12,33.89,1637.88Zm-5.39-.54c-0.58,0-.92.15-1.19,1.12s1.39,0.92,2,.15S28.85,1637.37,28.5,1637.35Zm-4.27-.5c-0.46-.23-0.42-0.38-1.16.08s0.12,1.27.89,1.12A0.63,0.63,0,0,0,24.23,1636.84Zm17.91,6.78a1.44,1.44,0,0,0-1.89.5c-0.65.81,1.5,1.81,2.31,1.16A1,1,0,0,0,42.14,1643.62Zm-3.08,4.93a1.28,1.28,0,0,0-1.73.19c-0.71,1,1.55,1.82,2.27,1.16C40.13,1649.4,39.7,1648.79,39.06,1648.55Zm-3.23,5.16s-0.35-.35-1.08.66,2.08,1.46,2.46.73S36.36,1653.79,35.82,1653.71Zm-3,5.39a0.78,0.78,0,0,0-1.12.31c-0.5.62,1.08,1.7,1.62,1.16A1,1,0,0,0,32.85,1659.1Z" transform="translate(-15.67 -1615.86)"/><path class="cls-6" d="M58.48,1638.17c0.73-1.08.43-1.75,0.33-3.52s-0.41-3.27-.47-5.54-0.32-3.89.86-4.1,2.24,1.61,3.3,3.44,1.9,2.73,2.81,4.41,2.27,2.9,4.23,2.21l6.9-2.43c1.49-.52,3.64-1.82,4.53-0.79,1.06,1.23-.67,2.45-1.82,3.44a58.13,58.13,0,0,0-5.24,5.67c-0.8,1-.66,1.78.66,3.66,1.46,2.08,4.37,5.68,4.84,6.3,0.78,1,1.74,1.69.91,2.58-1.06,1.14-2.3,0-3.48-.38s-5-2-6.91-2.68-2.76-.43-3.5.73-1.39,2.59-2.25,3.69a20.55,20.55,0,0,0-2,3.72c-0.9,1.77-1.73,2.51-2.82,2.09s-0.69-2-.66-3.67,0-4.88.11-6.24,0.3-3.31-1.31-3.74c-1.88-.5-2.89-0.48-4.6-0.88a29.59,29.59,0,0,0-5.77-.67c-1,.06-2.23-0.41-1.68-1.51s1.83-1.64,3.87-2.15c1.71-.42,3.2-1.23,5.52-2.05C56.27,1639.23,57.86,1639.09,58.48,1638.17Z" transform="translate(-15.67 -1615.86)"/><path class="cls-7" d="M59,1638.53c0.67-1,.3-2,0.21-3.66s-0.38-3-.44-5.13-0.51-3.94.58-4.14,2.08,1.8,3.07,3.49,2,2.57,2.79,4.12,2.15,2.93,4,2.29,4.77-1.61,6.15-2.09,3.57-2.08,4.39-1.13c1,1.14-1.06,2-2.12,2.92a54.75,54.75,0,0,0-4.89,5.26c-0.74.91-.13,1.89,1.09,3.62,1.36,1.93,4,5.26,4.48,5.83,0.72,0.95,1.61,1.56.84,2.39-1,1.05-2.53-.47-3.62-0.83s-4.64-1.89-6.4-2.48a2.45,2.45,0,0,0-3.28,1.18c-0.69,1.07-1.29,2.4-2.09,3.42a19,19,0,0,0-1.89,3.44c-0.83,1.63-1.16,2.3-2.16,1.92s-0.64-1.81-.61-3.39,0-4.52.1-5.77,0.37-3.35-1.12-3.75c-1.74-.46-2.67-0.45-4.25-0.82a27.44,27.44,0,0,0-5.34-.62c-0.95.06-2.16-.09-1.65-1.11s1.54-1.19,3.43-1.66c1.58-.39,2.84-1.13,5-1.89C56.63,1639.44,58.47,1639.37,59,1638.53Z" transform="translate(-15.67 -1615.86)"/><path class="cls-8" d="M59.27,1625.68c-0.28.81,0.57,2.47,1,3.41a16.52,16.52,0,0,1,.93,2.94c0.19,0.83.78,2.5,0.82,2.88s0.66,2.15.7,2.83,0.09,1.65-.62,1.9-2.51.19-3.06,0.58a4.6,4.6,0,0,1-2.32,1,10.7,10.7,0,0,0-3.22.44,10.09,10.09,0,0,1-1.59.56c-0.62.22-2.06,0.63-2.06,0.63s-2.7.15-3,.62,1.1-.23,2.57-0.26a21,21,0,0,0,4.8-1c1.44-.41,2.36,0,3.89-0.48a29.13,29.13,0,0,1,3.68-1.09,2,2,0,0,1,1,1.73,25.37,25.37,0,0,1-.68,3.71,26.86,26.86,0,0,0-1.14,4.66c-0.13,1-.89,3.38-1,3.92s-0.27,3.17-.35,3.79,0.16,1,.55-0.69,0.39-3.11.91-4.18a21,21,0,0,0,1-3.62c0.17-.65.94-2.11,1-2.53s0.57-1.49.76-2.35l0.58-2.58s1-1.23,1.59-.56,3.41,2.37,4.34,3.33a20.82,20.82,0,0,0,3.12,3,12.22,12.22,0,0,1,2.48,1.7c0.48,0.52,1.85,1.33,2.34,1.85s1.67,0.8.29-.6a34.56,34.56,0,0,0-2.67-2.23,7,7,0,0,0-1.33-1.52c-0.66-.46-1.34-0.72-1.91-1.21a9.15,9.15,0,0,1-.94-1.26c-0.48-.52-1.05-1-1.35-1.31s-1.37-.51-1.55-0.74-2.3-1.47-2.1-2a6.39,6.39,0,0,1,2.3-2.2,25.44,25.44,0,0,0,3.31-1.56c0.79-.57,3.52-1.83,3.84-2s2.13-1.54,2.63-1.82,2-1.35,1-1a9.77,9.77,0,0,0-3.4,1.67,9.1,9.1,0,0,1-2.31,1.31,10.69,10.69,0,0,1-2,1.19c-0.71.25-2,.8-2.67,1.14s-2.31,1.31-3,1.56-1.56.35-1.93-.41-1.51-2-1.71-3.46a35.73,35.73,0,0,0-1-3.92c-0.25-1-1.08-2.5-1.48-3.64S59.45,1625.17,59.27,1625.68Z" transform="translate(-15.67 -1615.86)"/><path class="cls-8" d="M60.55,1628.23a1.42,1.42,0,0,0,.12-1.45,0.63,0.63,0,0,0-.69-0.41,0.19,0.19,0,0,0-.14,0,1.11,1.11,0,0,0-.69,1.54A0.85,0.85,0,0,0,60.55,1628.23Zm0.19,3.17a1.26,1.26,0,0,0,1.3-1.09,1.1,1.1,0,0,0-.79-1.11h0a0.22,0.22,0,0,0-.23-0.14C60.09,1629.26,59.4,1631.37,60.74,1631.4Zm1.33,3.54a1.53,1.53,0,0,0,.9-0.59,2.08,2.08,0,0,0,.23-0.75c0.06-.39,0-1.08-0.5-1a0.23,0.23,0,0,0-.2,0l-0.2.07h0c-0.85-.31-1.41.68-1.49,1.38a1,1,0,0,0,.26,1A1.09,1.09,0,0,0,62.07,1634.94Zm2.33,0.92a0.94,0.94,0,0,0-1-.3,1.68,1.68,0,0,0-1,.67,1,1,0,0,0-.34.37,1.5,1.5,0,0,0-.06,1.19c0.31,0.78,1.54.3,2.08,0A1.41,1.41,0,0,0,64.41,1635.86Zm4.41,4a1.36,1.36,0,0,0,.76-1.59c-0.16-.71-1.18-0.9-1.81-0.81a0.92,0.92,0,0,0-.75.57,0.83,0.83,0,0,0,.06.58,0.19,0.19,0,0,0,0,.21A1.53,1.53,0,0,0,68.81,1639.88Zm3.71-1.89a1,1,0,0,0,.71-0.68,1,1,0,0,0-.42-0.95,1.77,1.77,0,0,0-.53-0.31l-0.48-.21a1,1,0,0,0-.93.39,0.78,0.78,0,0,0-.25,1.16A1.83,1.83,0,0,0,72.52,1638Zm1.5-3.15a0.25,0.25,0,0,0-.31.16,1.55,1.55,0,0,0,2.37,1.15c0.45-.51-0.1-1.22-0.5-1.54A1,1,0,0,0,74,1634.85Zm4.7-1.6a0.91,0.91,0,0,0-.94-0.4,1.13,1.13,0,0,0-.9.77,0.85,0.85,0,0,0,.59,1,1,1,0,0,0,1.17-.27l0,0A0.73,0.73,0,0,0,78.72,1633.25Zm-1.31,16.33a0.23,0.23,0,0,0-.22,0l-0.57.2a0.21,0.21,0,0,0-.12.31c-0.58.64-.26,2,0.81,1.76a1.25,1.25,0,0,0,.89-1.25A0.9,0.9,0,0,0,77.41,1649.57ZM75,1647a2.58,2.58,0,0,0-1.35-.09,0.2,0.2,0,0,0-.13.11,1.16,1.16,0,0,0-.84.92,1,1,0,0,0,.92,1.23,2.24,2.24,0,0,0,1.17-.32,1.57,1.57,0,0,0,.56-1A0.69,0.69,0,0,0,75,1647Zm-3-2.73c-0.44-.81-1.29-0.34-1.94-0.1a0.21,0.21,0,0,0-.13.3,1.18,1.18,0,0,0-.41,1.34c0.22,0.74,1.37.62,1.92,0.32A1.36,1.36,0,0,0,72,1644.3Zm-2.93-2.58c-0.36-.64-1.41-0.35-2-0.16a0.2,0.2,0,0,0-.15.16,1.1,1.1,0,0,0-.61,1.49,1.41,1.41,0,0,0,2,.44A1.47,1.47,0,0,0,69.08,1641.72Zm-8.65.72a1.53,1.53,0,0,0,.72-1.93,0.19,0.19,0,0,0-.16-0.14,0.83,0.83,0,0,0-.31-0.49,0.92,0.92,0,0,0-.94,0c-0.55.33-1.23,1.11-.9,1.77A1.36,1.36,0,0,0,60.43,1642.44Zm-4.07.87a1.83,1.83,0,0,0,1.09-1.66,0.78,0.78,0,0,0-.92-0.74,1,1,0,0,0-1,.28c-0.09.15-.15,0.31-0.24,0.46a1.77,1.77,0,0,0-.22.57,1,1,0,0,0,.27,1A1,1,0,0,0,56.36,1643.3Zm-3.15-1.5a1,1,0,0,0-1.36.8c-0.11.5-.09,1.4,0.58,1.51a1.55,1.55,0,0,0,1.12-2.39A0.25,0.25,0,0,0,53.21,1641.8Zm-4.17.81a0.91,0.91,0,0,0-.48.9,0.73,0.73,0,0,0,.71.77h0a1,1,0,0,0,1.08-.52,0.85,0.85,0,0,0-.15-1.13A1.13,1.13,0,0,0,49,1642.6Zm11.63,12.48a0.18,0.18,0,0,0-.29-0.11l-0.58.36a0.34,0.34,0,0,0-.15.22,1,1,0,0,0,0,1.37,1.1,1.1,0,0,0,1.51.09A1,1,0,0,0,60.66,1655.08Zm0.35-4a0.2,0.2,0,0,0-.17,0,2.57,2.57,0,0,0-1,.92,0.69,0.69,0,0,0,.27.85,1.57,1.57,0,0,0,1.07.43,2.25,2.25,0,0,0,1.11-.48,1,1,0,0,0-.06-1.53A1.16,1.16,0,0,0,61,1651.05Zm1.35-4.28a0.21,0.21,0,0,0-.28-0.15c-0.66.22-1.62,0.39-1.45,1.3a1.36,1.36,0,0,0,1.61,1.1c0.61-.12,1.58-0.74,1.29-1.46A1.18,1.18,0,0,0,62.36,1646.77Zm0.66-4.06a0.2,0.2,0,0,0-.22,0c-0.55.2-1.55,0.64-1.43,1.36a1.47,1.47,0,0,0,1.75,1.07,1.41,1.41,0,0,0,1.31-1.62A1.1,1.1,0,0,0,63,1642.71Z" transform="translate(-15.67 -1615.86)"/><path class="cls-9" d="M59.61,1627.83c0.58,0.11,1.06-.66.66-0.89a0.86,0.86,0,0,0-.68-0.13C59.26,1627.15,59,1627.72,59.61,1627.83Zm1,3c0.48,0.15,1.22-.69.92-1a0.63,0.63,0,0,0-.88-0.15C60.2,1630,60.09,1630.73,60.57,1630.88Zm2.09,2.27a0.88,0.88,0,0,0-1.19,0c-0.3.29-.57,0.92-0.1,1.18S63,1633.5,62.66,1633.15Zm0.11,3.08a0.77,0.77,0,0,0-.53,1c0.26,0.51,2.16,0,1.85-.68A0.9,0.9,0,0,0,62.77,1636.24Zm5.62,2.78c0.75-.15,1-1,0.38-1.19s-1.26-.24-1.35.33A0.72,0.72,0,0,0,68.39,1639Zm4-2.55a0.82,0.82,0,0,0-1.21-.18c-0.34.29-.44,0.79,0.35,1.08A0.64,0.64,0,0,0,72.39,1636.46Zm2.24-1.79c-0.22.1-.78,0.65-0.21,1s1.67,0,1.26-.56S75,1634.51,74.62,1634.67Zm3.5-1.55c-0.59-.14-0.53,0-0.78.22a0.44,0.44,0,0,0,.46.73C78.34,1634,78.71,1633.26,78.12,1633.13ZM67.06,1642a0.67,0.67,0,0,0,.11,1.19c0.69,0.25,1.88-.92,1.26-1.3A1,1,0,0,0,67.06,1642Zm4.38,2.27a0.9,0.9,0,0,0-1.19.28c-0.37.31-.52,0.81,0,1C70.84,1645.84,72.15,1644.78,71.44,1644.28Zm2.15,2.94c-0.34.18-1,.85-0.6,1.24s2.18-.57,1.46-1.06S73.59,1647.22,73.59,1647.22Zm3.22,2.88a0.67,0.67,0,0,0,0,1.09c0.48,0.23,1.28-.85.8-1.14A0.55,0.55,0,0,0,76.81,1650.09Zm-17.75-9.32c-0.35.55,0.37,1,1,.69a0.72,0.72,0,0,0,.21-1.28C59.89,1639.8,59.41,1640.22,59.06,1640.78Zm-2.84.31a0.82,0.82,0,0,0-.83.89,0.64,0.64,0,0,0,1.23.17C57.05,1641.43,56.67,1641.1,56.22,1641.09Zm-3.7.9c-0.39.11-.58,0.32-0.53,1s1.13,0.29,1.34-.36S52.76,1641.92,52.52,1642Zm-2.95.66c-0.36,0-.37-0.16-0.75.32s0.37,0.81.85,0.53A0.44,0.44,0,0,0,49.58,1642.65ZM63,1643a1,1,0,0,0-1.13.77c-0.25.69,1.42,0.85,1.8,0.23A0.67,0.67,0,0,0,63,1643Zm-0.89,4a0.9,0.9,0,0,0-1.1.53c-0.23.84,1.45,0.85,1.77,0.24C63,1647.26,62.6,1647,62.12,1647Zm-0.94,4.17s-0.31-.15-0.56.69,1.72,0.48,1.8-.09S61.56,1651,61.18,1651.12Zm-0.71,4.26a0.55,0.55,0,0,0-.67.46c-0.19.53,1.11,0.87,1.34,0.39A0.67,0.67,0,0,0,60.47,1655.38Z" transform="translate(-15.67 -1615.86)"/></svg>