<svg xmlns="http://www.w3.org/2000/svg" viewBox="0 0 90 90"><defs><style>.cls-1{isolation:isolate;}.cls-2{fill:#fff;}.cls-3{fill:#f0493a;}.cls-4{fill:#d1cde3;mix-blend-mode:multiply;}.cls-5{fill:#3cb4c8;}.cls-6{fill:#e0e1e0;}.cls-7{fill:#333;}.cls-8{fill:#f0f0f0;}.cls-11,.cls-9{fill:#ed2224;}.cls-10,.cls-9{opacity:0.72;}.cls-12{fill:#f5f5f5;}.cls-13{fill:#3b3432;}</style></defs><title>welcome-icons</title><g class="cls-1"><g id="Layer_1" data-name="Layer 1"><path class="cls-2" d="M76.24,90a13.63,13.63,0,0,1-2.44-.22l-0.41-.08c-0.33-.07-0.66-0.15-1-0.25l-0.7-.22-0.48-.18-0.44-.19-0.38-.17L70,88.47l-0.32-.17a13.47,13.47,0,0,1-2.27-1.56A13.6,13.6,0,0,1,65,84.19l-0.26-.37-0.31-.49-0.23-.4c-0.14-.25-0.27-0.5-0.39-0.76s-0.15-.32-0.21-0.47-0.11-.26-0.17-0.41-0.1-.26-0.16-0.42-0.11-.32-0.17-0.51l-0.07-.24c0-.14-0.08-0.3-0.13-0.46l-0.11-.45-0.1-.49a12.9,12.9,0,0,1-.18-1.33q0-.34,0-0.68L35.37,77.91a4.23,4.23,0,0,1-.84-0.08l-2.35.39-4.51,1.48a4.3,4.3,0,0,1-5.42-2.75L5.3,25.15C5.08,25,4.87,24.8,4.67,24.62l-0.44-.41-0.32-.33-0.33-.36C3.39,23.31,3.21,23.09,3,22.86l-0.31-.41-0.26-.37L2.21,21.7,2,21.29,1.77,21l-0.2-.38-0.23-.47-0.2-.45a13.52,13.52,0,0,1-.48-1.31A14,14,0,0,1,0,13.81s0-.32,0-0.45c0-.3,0-0.62.08-0.93V12.37c0-.28.08-0.56,0.13-0.83L0.35,11l0.1-.41,0.11-.41C0.62,10,.67,9.85.73,9.68l0.13-.39c0-.12.19-0.49,0.2-0.51l0.28-.64c0.09-.2.18-0.38,0.27-0.55a14.3,14.3,0,0,1,2-2.89l0.28-.31,0.5-.5,0.33-.3,0.33-.29,0.44-.35L5.83,2.7l0.35-.25,0.4-.26L6.94,2c0.22-.13.45-0.26,0.68-0.38L8,1.43l0.28-.13C8.5,1.17,8.79,1.05,9.07.94L9.5,0.79l0.41-.14c0.27-.09.54-0.16,0.81-0.23l0.61-.14,0.56-.1,0.19,0c0.5-.07.87-0.1,1.24-0.13h0.22l0.31,2.39L13.73,0h1.09l0.33,0h0.18l0.49,0c0.37,0,.73.1,1.09,0.18l0.75,0.17L18,0.55c0.31,0.09.64,0.2,1,.31L19.27,1a14.44,14.44,0,0,1,1.41.64l0.39,0.21L21.42,2,21.9,2.34A14,14,0,0,1,23.54,3.6l0.17,0.14,0.56,0.55L24.74,4.8,25,5.09l0.27,0.34L25.55,5.8,25.8,6.15l0.26,0.39L26.27,6.9c0.12,0.21.2,0.34,0.27,0.47l0.16,0.3s0.23,0.46.28,0.59,0.23,0.52.34,0.82l0.15,0.41c0.05,0.15.1,0.3,0.15,0.44s0.16,0.56.17,0.6L45.31,4.8a4.29,4.29,0,0,1,5.42,2.75l0.33,1L60.69,7a4.36,4.36,0,0,1,.7-0.06,4.28,4.28,0,0,1,4.23,3.6l0,0.3,7.2-.31a4.28,4.28,0,0,1,4.29,4.11l2.13,48.24L79.92,63l0.28,0.08,0.65,0.21c0.35,0.12.68,0.26,1,.4l0.28,0.13L82.54,64l0.32,0.17c0.26,0.14.55,0.32,0.84,0.5l0.23,0.16a14,14,0,0,1,1.2.91l0.34,0.3,0.27,0.25,0.39,0.39a13.74,13.74,0,0,1,1.3,1.57l0.13,0.18L87.91,69c0.18,0.29.29,0.48,0.39,0.67L88.48,70l0.19,0.39c0.05,0.11.12,0.26,0.19,0.41l0.2,0.48,0.24,0.66c0.08,0.25.13,0.39,0.17,0.54l0.16,0.61c0,0.11.06,0.23,0.08,0.36s0.11,0.53.15,0.83l0.06,0.44c0,0.14,0,.29,0,0.43s0,0.33,0,.5,0,0.3,0,.46,0,0.23,0,.38a13.77,13.77,0,0,1-.19,2.06c0,0.05,0,.11,0,0.16s-0.06.32-.1,0.48l-0.09.39c0,0.15-.08.3-0.12,0.45l-0.12.4c0,0.12-.08.25-0.12,0.37l-0.32.83c0,0.05-.19.42-0.25,0.55l-0.17.35c-0.18.36-.38,0.7-0.59,1l-0.22.34L87.59,84l-1-.81-0.94-.59,1.89,1.49c-0.13.19-.27,0.38-0.42,0.57l-0.33.41-0.34.38-0.27.29-0.37.37a13.62,13.62,0,0,1-1.57,1.3l-0.17.13-0.57.38-0.65.38-0.32.17-0.38.19-0.42.19-0.4.17-0.43.16-0.83.27-0.64.17c-0.36.09-.77,0.17-1.19,0.23l-0.29,0L77.39,90Q76.81,90,76.24,90Z"/><path class="cls-2" d="M87.59,76.49s0-.07,0-0.11,0-.18,0-0.28,0-.23,0-0.35,0-.28,0-0.43,0-.24,0-0.35,0,0,0-.06,0-.2,0-0.3-0.08-.47-0.13-0.71,0-.19-0.06-0.28,0-.16-0.06-0.23l-0.07-.26c0-.12-0.07-0.24-0.11-0.35l-0.12-.34L86.8,72.1l-0.15-.36c0-.11-0.1-0.23-0.16-0.34l-0.16-.33-0.13-.25-0.28-.48-0.15-.23-0.2-.31h0a11.48,11.48,0,0,0-1.18-1.43l-0.32-.32-0.21-.2-0.28-.24a11,11,0,0,0-.91-0.7l-0.26-.18c-0.24-.15-0.49-0.3-0.73-0.43l-0.23-.12L81.1,66l-0.23-.11c-0.27-.12-0.54-0.23-0.81-0.32l-0.34-.12-0.26-.08-0.16,0L79,65.26l-0.3-.07-0.23,0-0.19,0-0.18,0C77.81,65,77.51,65,77.2,65L77,65,74.76,14.73a1.89,1.89,0,0,0-2-1.81l-9.14.4-0.39-2.41a1.89,1.89,0,0,0-2.17-1.56L49.42,11.26l-1-3a1.89,1.89,0,0,0-2.39-1.21L25.85,13.7V13.64h0a11.76,11.76,0,0,0-.22-1.86l0-.11c0-.09,0-0.19-0.06-0.28s-0.06-.23-0.09-0.35-0.08-.28-0.12-0.43l-0.12-.35,0-.06-0.11-.3C25,9.68,24.89,9.45,24.79,9.23L24.66,9l-0.11-.22L24.42,8.5l-0.19-.33L24,7.85l-0.2-.31L23.6,7.21,23.37,6.9l-0.24-.3-0.19-.22L22.55,6l-0.2-.2L22.07,5.5h0a11.89,11.89,0,0,0-1.51-1.18l-0.39-.25-0.26-.15-0.34-.18a11.36,11.36,0,0,0-1.08-.5l-0.3-.12c-0.28-.1-0.56-0.19-0.84-0.27l-0.26-.07L16.7,2.69l-0.26-.06c-0.3-.06-0.59-0.11-0.89-0.14l-0.37,0-0.28,0H13.46c-0.31,0-.62,0-0.93.09l-0.25,0H12.19l-0.25,0-0.26.05-0.39.09-0.66.19h0l-0.34.11-0.07,0-0.28.1-0.7.29L9,3.61l-0.24.12L8.18,4l-0.32.2-0.33.21-0.3.21L7,4.83,6.83,5l-0.22.18-0.27.23-0.06.05L6,5.65l-0.23.23L5.72,6l-0.21.23h0A11.85,11.85,0,0,0,3.75,8.7C3.68,8.83,3.61,9,3.55,9.1L3.41,9.4l-0.14.32,0,0-0.13.35L3,10.43c0,0.14-.09.28-0.13,0.42l-0.1.35c0,0.12-.06.24-0.09,0.37s0,0.2-.07.31l0,0.1c0,0.24-.08.49-0.11,0.74h0c0,0.25-.05.5-0.07,0.75s0,0.26,0,.38h0a11.64,11.64,0,0,0,.54,3.77,11,11,0,0,0,.39,1.07l0.17,0.38,0.17,0.34,0.2,0.37L4,20l0.16,0.27,0.09,0.15,0.21,0.33,0.22,0.32,0.23,0.31c0.15,0.19.31,0.39,0.47,0.57l0,0,0.26,0.28L5.92,22.5l0,0L6.2,22.76h0a11.9,11.9,0,0,0,1.15.93L24.53,76.19a1.89,1.89,0,0,0,2.39,1.21l4.69-1.53,3.06-.5a1.88,1.88,0,0,0,.78.14l29.67-1.31a11.29,11.29,0,0,0-.16,3,10.69,10.69,0,0,0,.15,1.09l0.08,0.39c0,0.12.05,0.24,0.08,0.36s0.07,0.27.11,0.39l0.06,0.21c0,0.15.1,0.3,0.15,0.45l0.13,0.35c0,0.11.09,0.23,0.14,0.34L66,81.13c0.1,0.22.21,0.43,0.33,0.64v0l0.18,0.32,0.2,0.31,0,0.05,0.17,0.25h0a11.33,11.33,0,0,0,3.87,3.49l0.28,0.14,0.33,0.16,0.34,0.16,0.34,0.14,0.35,0.13h0l0.64,0.2c0.26,0.08.52,0.14,0.78,0.2l0.36,0.07a11.26,11.26,0,0,0,3,.14h0l0.35,0h0.07l0.23,0h0a10.7,10.7,0,0,0,1.05-.2l0.24-.06,0.24-.07,0.7-.23,0.35-.13,0.33-.14h0l0.34-.15,0.33-.16,0.25-.13,0.48-.28,0.23-.15,0.31-.2h0a11.25,11.25,0,0,0,1.44-1.18l0.32-.32,0.2-.21,0.24-.28h0l0.17-.21,0.15-.19c0.12-.15.23-0.3,0.34-0.46l0.14-.21,0,0,0.14-.22c0.18-.28.33-0.56,0.48-0.85l0.16-.33,0.13-.28,0-.09,0.13-.32,0.11-.29L87,80l0.09-.28,0.11-.35c0-.12.07-0.24,0.09-0.36h0l0.08-.35c0-.12,0-0.24.07-0.36h0A11.34,11.34,0,0,0,87.59,76.49Z"/><path class="cls-2" d="M25.32,10.63c0,0.14.09,0.28,0.12,0.43s0.06,0.23.09,0.35,0,0.18.06,0.28l0,0.11a11.77,11.77,0,0,1,.22,1.86h0c0,0.13,0,.25,0,0.38s0,0.25,0,.37h0c0,0.13,0,.25,0,0.38s0,0.25,0,.38,0,0.2,0,.31l0,0.14c0,0.1,0,.21,0,0.32l-0.06.35,0,0.1c0,0.1,0,.21-0.07.31l-0.09.37c-0.08.32-.18,0.64-0.29,1l-0.09.25v0l-0.1.24c-0.07.18-.15,0.36-0.24,0.54l-0.11.23-0.13.25h0l-0.18.34-0.15.26-0.25.39a11.64,11.64,0,0,1-1.18,1.51h0l-0.26.28-0.2.2-0.42.39-0.22.19-0.3.24-0.31.23h0l-0.3.21a10.6,10.6,0,0,1-1,.6l-0.23.12-0.23.12q-0.49.24-1,.44h0l-0.22.08L18,25.2l-0.34.11h0a11.65,11.65,0,0,1-3,.53H14.25c-0.28,0-.56,0-0.83,0l-0.69-.06h0l-0.38-.05L12,25.65l-0.38-.08-0.37-.09L10.9,25.4a11.71,11.71,0,0,1-4.7-2.64h0L6,22.55l0,0-0.27-.27L5.4,22l0,0c-0.16-.18-0.32-0.37-0.47-0.57l-0.23-.31-0.22-.32-0.21-.33-0.09-.15L4,20l-0.11-.2-0.2-.37-0.17-.34-0.17-.38a11,11,0,0,1-.39-1.07,11.64,11.64,0,0,1-.54-3.77h0c0-.13,0-0.25,0-0.38s0-.51.07-0.75h0c0-.25.07-0.49,0.11-0.74l0-.1c0-.1,0-0.21.07-0.31s0.06-.25.09-0.37l0.1-.35c0-.14.09-0.28,0.13-0.42l0.11-.31,0.13-.35,0,0L3.41,9.4,3.55,9.1c0.06-.13.13-0.27,0.2-0.4A11.85,11.85,0,0,1,5.51,6.2h0L5.72,6l0.09-.09L6,5.65l0.24-.23,0.06-.05,0.27-.23L6.83,5,7,4.83l0.23-.17,0.3-.21,0.33-.21L8.18,4l0.55-.3L9,3.61l0.27-.13,0.7-.29,0.28-.1,0.07,0,0.34-.11h0l0.66-.19,0.39-.09,0.26-.05,0.25,0,0.09,0,0.25,0c0.31,0,.62-0.07.93-0.09h1.43l0.28,0,0.37,0c0.3,0,.6.08,0.89,0.14L16.7,2.69l0.39,0.09,0.26,0.07c0.28,0.08.56,0.17,0.84,0.27l0.3,0.12a11.3,11.3,0,0,1,1.08.5l0.34,0.18,0.26,0.15,0.39,0.25a11.87,11.87,0,0,1,1.51,1.18h0l0.28,0.26L22.55,6l0.39,0.42L23.13,6.6l0.24,0.3L23.6,7.21l0.23,0.33L24,7.85l0.2,0.32L24.42,8.5l0.13,0.24L24.66,9l0.13,0.27c0.1,0.23.2,0.45,0.29,0.69l0.11,0.3,0,0.06Z"/><path class="cls-3" d="M23.78,13.73a9.53,9.53,0,0,0-.43-2.48l2-.62-0.12-.35,0-.06-0.11-.3C25,9.68,24.89,9.45,24.79,9.23L24.66,9l-0.11-.22L24.42,8.5l-0.19-.33L24,7.85l-0.2-.31L23.6,7.21,23.37,6.9l-0.24-.3-0.19-.22L22.55,6l-0.2-.2L22.07,5.5h0L20.67,7a9.68,9.68,0,0,0-2.06-1.45l1-1.84a11.3,11.3,0,0,0-1.08-.5l-0.3-.12c-0.28-.1-0.56-0.19-0.84-0.27l-0.26-.07L16.7,2.69l-0.26-.06c-0.3-.06-0.59-0.11-0.89-0.14l-0.37,0-0.28,0H13.65l0.09,2.07a9.58,9.58,0,0,0-2.48.44l-0.62-2h0l-0.34.11-0.07,0-0.28.1-0.7.29L9,3.61l-0.24.12L8.18,4l-0.32.2-0.33.21-0.3.21L7,4.83,6.83,5l-0.22.18-0.27.23-0.06.05L6,5.65l-0.23.23L5.72,6l-0.21.23h0L6.06,6.7,7,7.6H7A9.65,9.65,0,0,0,5.59,9.66h0l-0.95-.5L3.75,8.7C3.68,8.83,3.61,9,3.55,9.1L3.41,9.4l-0.14.32,0,0-0.13.35L3,10.43c0,0.14-.09.28-0.13,0.42l-0.1.35c0,0.12-.06.24-0.09,0.37s0,0.2-.07.31l0,0.1c0,0.24-.08.49-0.11,0.74h0c0,0.25-.05.5-0.07,0.75s0,0.26,0,.38h0c0,0.25,0,.5,0,0.76l1.32-.05,0.75,0A9.55,9.55,0,0,0,4.93,17l-2,.62c0.11,0.37.24,0.72,0.39,1.07l0.17,0.38,0.17,0.34,0.2,0.37L4,20l0.25,0.42,0.21,0.33,0.22,0.32,0.23,0.31c0.15,0.19.31,0.39,0.47,0.57l0,0,0.26,0.28L5.92,22.5l0,0L6.2,22.76h0L7,21.88l0.59-.64a9.65,9.65,0,0,0,2.06,1.45h0l-0.49.94-0.47.89a11.64,11.64,0,0,0,2.2.88l0.31,0.08,0.37,0.09L12,25.65l0.38,0.07,0.38,0.05h0l0.69,0.06c0.28,0,.56,0,0.83,0h0.38l0-.43-0.07-1.64h0A9.67,9.67,0,0,0,17,23.34h0l0.62,2h0L18,25.2l0.07,0,0.22-.08h0q0.53-.2,1-0.44l0.23-.12,0.23-.12L20.42,24l0.33-.21L21,23.6h0l0.31-.23,0.3-.24,0.22-.19,0.42-.39,0.2-.2,0.26-.28h0l-1.52-1.4a9.72,9.72,0,0,0,1.45-2.06h0l1.83,1h0l0.12-.25,0.11-.23c0.09-.18.16-0.36,0.24-0.54l0.1-.24v0L25.2,18c0.11-.32.21-0.64,0.29-1l0.09-.37c0-.1,0-0.2.07-0.31l0-.1,0.06-.35c0-.1,0-0.21,0-0.32l0-.14c0-.1,0-0.21,0-0.31s0-.26,0-0.38,0-.25,0-0.38h0c0-.12,0-0.25,0-0.37s0-.25,0-0.38h0Zm-0.89,0A8.56,8.56,0,0,1,22.68,16a8.7,8.7,0,0,1-2.1,4,8.47,8.47,0,0,1-1.75,1.47,8.87,8.87,0,0,1-4.33,1.36,8.5,8.5,0,0,1-2.27-.21l-0.12,0a8.83,8.83,0,0,1-5.37-3.83,8.83,8.83,0,0,1-1-2.08,8.71,8.71,0,0,1-.39-2.25,8.5,8.5,0,0,1,.2-2.28,8.77,8.77,0,0,1,2.1-4A8.48,8.48,0,0,1,9.44,6.74a8.82,8.82,0,0,1,4.34-1.36A8.35,8.35,0,0,1,16,5.59a8.72,8.72,0,0,1,4,2.1,8.47,8.47,0,0,1,1.46,1.75A8.74,8.74,0,0,1,22.89,13.77Z"/><circle class="cls-3" cx="14.14" cy="14.13" r="7.61" transform="translate(-3.58 4.87) rotate(-17.4)"/><path class="cls-4" d="M13.2,11.74l1.4,4.46a0.47,0.47,0,0,1,0,.29,0.26,0.26,0,0,1-.18.18c-0.18.06-.31,0-0.39-0.29l-1.4-4.46c-0.1-.32-0.06-0.52.13-0.58a0.24,0.24,0,0,1,.24,0A0.84,0.84,0,0,1,13.2,11.74Z"/><path class="cls-2" d="M9.07,13.8a1.94,1.94,0,0,1-.55.3A0.12,0.12,0,0,1,8.35,14l0-.15a0.22,0.22,0,0,1,0-.14,0.48,0.48,0,0,1,.14-0.15,2.82,2.82,0,0,0,.41-0.47,3.34,3.34,0,0,0,.43-0.82,2.61,2.61,0,0,1,.17-0.42,0.32,0.32,0,0,1,.14-0.07l0.32-.1,1.75,5.57a0.2,0.2,0,0,0,.18.11,0.28,0.28,0,0,1,.17.07,1.2,1.2,0,0,1,.12.31c0,0.07,0,.11-0.1.14l-1.76.55a0.18,0.18,0,0,1-.15,0A0.36,0.36,0,0,1,10,18.29,0.82,0.82,0,0,1,10,18a0.28,0.28,0,0,1,.13-0.14,0.25,0.25,0,0,0,.16-0.26Z"/><path class="cls-2" d="M12.64,10.83a1.35,1.35,0,0,1,1,.12,2.57,2.57,0,0,1,1,.89,5.91,5.91,0,0,1,.72,1.57A4.64,4.64,0,0,1,15.59,16a1.57,1.57,0,0,1-1,1.21,1.53,1.53,0,0,1-1.46-.39,4.53,4.53,0,0,1-1.25-2.2A4.72,4.72,0,0,1,11.62,12,1.56,1.56,0,0,1,12.64,10.83Zm0.55,0.91A0.84,0.84,0,0,0,13,11.39a0.24,0.24,0,0,0-.24,0q-0.29.09-.13,0.58L14,16.38c0.08,0.25.21,0.35,0.39,0.29a0.26,0.26,0,0,0,.17-0.18,0.46,0.46,0,0,0,0-.29Z"/><path class="cls-2" d="M16.51,9.62a1.35,1.35,0,0,1,1,.12,2.58,2.58,0,0,1,1,.89,5.91,5.91,0,0,1,.72,1.57,4.63,4.63,0,0,1,.22,2.54,1.57,1.57,0,0,1-1,1.21A1.53,1.53,0,0,1,17,15.56a4.52,4.52,0,0,1-1.25-2.2,4.73,4.73,0,0,1-.24-2.54A1.56,1.56,0,0,1,16.51,9.62Zm0.55,0.91a0.85,0.85,0,0,0-.18-0.36,0.24,0.24,0,0,0-.24,0q-0.29.09-.13,0.58l1.4,4.46q0.12,0.38.39,0.29a0.26,0.26,0,0,0,.18-0.18,0.47,0.47,0,0,0,0-.29Z"/><path class="cls-2" d="M87.55,75.33c0,0.14,0,.28,0,0.43s0,0.23,0,.35,0,0.18,0,.28,0,0.07,0,.11a11.34,11.34,0,0,1-.19,1.8h0c0,0.12,0,.24-0.07.36L87.26,79h0c0,0.12-.06.24-0.09,0.36l-0.11.35L87,80l0,0.13-0.11.29-0.13.32,0,0.09-0.13.28-0.16.33c-0.15.29-.3,0.57-0.48,0.85l-0.14.22,0,0-0.14.21c-0.11.16-.22,0.31-0.34,0.46l-0.15.19-0.17.21h0l-0.24.28-0.2.21-0.32.32a11.26,11.26,0,0,1-1.44,1.18h0l-0.31.2-0.23.15-0.48.28-0.25.13-0.33.16-0.34.15h0l-0.33.14a10.27,10.27,0,0,1-1,.36l-0.24.07-0.24.06q-0.52.12-1.05,0.2h0l-0.23,0H77.55l-0.35,0h0a11.25,11.25,0,0,1-3-.14l-0.36-.07c-0.26-.06-0.52-0.12-0.78-0.2l-0.64-.2h0l-0.35-.13-0.34-.14-0.34-.16-0.33-.16-0.28-.14a11.32,11.32,0,0,1-3.87-3.49h0l-0.17-.25,0-.05-0.2-.31-0.18-.32v0c-0.11-.21-0.22-0.42-0.33-0.64l-0.15-.34c-0.05-.11-0.1-0.23-0.14-0.34l-0.13-.35-0.05-.16-0.1-.28-0.06-.21c0-.13-0.07-0.26-0.11-0.39s-0.06-.24-0.09-0.36l-0.08-.39A10.69,10.69,0,0,1,65,77.2a11.27,11.27,0,0,1,.3-3.67h0l0.09-.36c0.06-.24.14-0.47,0.22-0.7h0q0.12-.34.26-0.67l0-.09L66,71.43l0.16-.33,0.16-.31,0.22-.37,0.17-.27,0.2-.3,0,0,0.2-.27,0.2-.26,0.27-.33a11.45,11.45,0,0,1,2.2-2h0l0.25-.17,0.1-.06,0.27-.17,0.28-.16,0.07,0,0.3-.16,0.25-.12L71.5,66l0.25-.11,0.33-.14,0.35-.13,0.34-.12,0.58-.17,0.25-.06,0.28-.06L74.61,65l0.29,0H75l0.35,0h0l0.66,0h1l0.24,0c0.3,0,.6.07,0.9,0.11l0.18,0,0.19,0,0.23,0L79,65.26l0.29,0.07,0.16,0,0.26,0.08,0.34,0.12c0.27,0.1.54,0.21,0.81,0.32L81.1,66l0.35,0.17,0.23,0.12c0.25,0.13.49,0.28,0.73,0.43l0.26,0.18a11,11,0,0,1,.91.7l0.28,0.24,0.21,0.2,0.32,0.32a11.49,11.49,0,0,1,1.18,1.43h0l0.2,0.31,0.15,0.23,0.28,0.48,0.13,0.25L86.5,71.4c0.06,0.11.11,0.23,0.16,0.34L86.8,72.1l0.12,0.33L87,72.78c0,0.12.08,0.23,0.11,0.35l0.07,0.26c0,0.08,0,.15.06,0.23s0,0.18.06,0.28,0.09,0.47.13,0.71,0,0.2,0,.3,0,0,0,.06S87.54,75.21,87.55,75.33Z"/><path class="cls-5" d="M85.44,77.93a9.23,9.23,0,0,0,.12-2.43l2-.17c0-.12,0-0.24,0-0.35s0,0,0-.06,0-.2,0-0.3-0.08-.47-0.13-0.71,0-.19-0.06-0.28,0-.16-0.06-0.23l-0.07-.26c0-.12-0.07-0.24-0.11-0.35l-0.12-.34L86.8,72.1l-0.15-.36c0-.11-0.1-0.23-0.16-0.34l-0.16-.33-0.13-.25-0.28-.48-0.15-.23-0.2-.31h0l-1.64,1.14a9.42,9.42,0,0,0-1.64-1.8l1.3-1.53a11,11,0,0,0-.91-0.7l-0.26-.18c-0.24-.15-0.49-0.3-0.73-0.43l-0.23-.12L81.1,66l-0.23-.11c-0.27-.12-0.54-0.23-0.81-0.32l-0.34-.12-0.26-.08-0.16,0L79,65.26l-0.3-.07-0.23,0-0.19,0-0.36,2A9.27,9.27,0,0,0,75.49,67l-0.16-2h0L75,65H74.9l-0.29,0-0.72.13-0.28.06-0.25.06-0.58.17-0.34.12-0.35.13-0.33.14L71.5,66l-0.19.09-0.25.12-0.3.16-0.07,0-0.28.16-0.27.17-0.1.06-0.25.17h0l0.41,0.59,0.73,1.05h0a9.35,9.35,0,0,0-1.8,1.64h0l-0.79-.67-0.74-.63-0.27.33-0.2.26-0.2.27,0,0-0.2.3-0.17.27-0.22.37-0.16.31L66,71.43l-0.13.28,0,0.09q-0.14.33-.26,0.67h0c-0.08.23-.15,0.47-0.22,0.7l-0.09.36h0c-0.06.24-.11,0.48-0.15,0.71l1.26,0.23,0.71,0.13A9.25,9.25,0,0,0,67,77l-2,.16c0,0.37.08,0.73,0.14,1.09l0.08,0.39c0,0.12.05,0.24,0.09,0.36s0.07,0.26.11,0.39l0.06,0.21c0,0.15.1,0.3,0.15,0.45l0.13,0.35c0,0.11.09,0.23,0.14,0.34L66,81.13c0.1,0.22.21,0.43,0.33,0.64v0l0.18,0.32,0.2,0.31,0,0.05,0.17,0.25h0l1-.66,0.69-.48a9.32,9.32,0,0,0,1.64,1.8h0l-0.67.79-0.63.74a11.23,11.23,0,0,0,1.88,1.3l0.28,0.14,0.33,0.16,0.34,0.16,0.34,0.14,0.35,0.13h0l0.64,0.2c0.26,0.08.52,0.14,0.78,0.2l0.36,0.07L74.31,87l0.28-1.56h0a9.34,9.34,0,0,0,2.43.12h0l0.17,2h0l0.35,0h0.07l0.23,0h0q0.54-.07,1.05-0.2l0.24-.06,0.24-.07,0.7-.23,0.35-.13,0.33-.14h0l0.34-.15,0.33-.16,0.25-.13,0.48-.28,0.23-.15,0.31-.2h0l-1.14-1.64a9.43,9.43,0,0,0,1.8-1.64h0l1.53,1.29h0l0.17-.21,0.15-.19c0.12-.15.23-0.3,0.34-0.46l0.14-.21,0,0,0.14-.22c0.18-.28.33-0.56,0.48-0.85l0.16-.33,0.13-.28,0-.09,0.13-.32,0.11-.29L87,80l0.09-.28,0.11-.35c0-.12.07-0.24,0.09-0.36h0l0.08-.35c0-.12,0-0.24.07-0.36h0Zm-0.85-.15a8.27,8.27,0,0,1-.68,2.1,8.41,8.41,0,0,1-2.83,3.34,8.15,8.15,0,0,1-2,1,8.57,8.57,0,0,1-4.37.36,8.19,8.19,0,0,1-2.1-.68l-0.11,0a8.53,8.53,0,0,1-4.25-4.75A8.55,8.55,0,0,1,67.82,77a8.42,8.42,0,0,1,.11-2.21,8.23,8.23,0,0,1,.67-2.1,8.48,8.48,0,0,1,2.84-3.34,8.2,8.2,0,0,1,2-1,8.52,8.52,0,0,1,4.38-.36,8.1,8.1,0,0,1,2.1.68,8.45,8.45,0,0,1,3.34,2.83,8.21,8.21,0,0,1,1,2A8.44,8.44,0,0,1,84.59,77.78Z"/><circle class="cls-5" cx="76.26" cy="76.26" r="7.35" transform="translate(-6.03 6.54) rotate(-4.73)"/><path class="cls-2" d="M73.49,74.72a1.89,1.89,0,0,1-.59.17,0.11,0.11,0,0,1-.13-0.12V74.61a0.22,0.22,0,0,1,0-.14A0.44,0.44,0,0,1,73,74.36,2.73,2.73,0,0,0,73.44,74,3.23,3.23,0,0,0,74,73.32,2.52,2.52,0,0,1,74.27,73a0.32,0.32,0,0,1,.15,0l0.32,0,0.47,5.63a0.19,0.19,0,0,0,.14.14,0.27,0.27,0,0,1,.15.1,1.16,1.16,0,0,1,.05.31c0,0.07,0,.11-0.13.11l-1.78.15a0.18,0.18,0,0,1-.14,0,0.35,0.35,0,0,1,0-.17,0.79,0.79,0,0,1,0-.24,0.27,0.27,0,0,1,.15-0.1,0.24,0.24,0,0,0,.2-0.21Z"/><path class="cls-2" d="M77.5,72.68a1.3,1.3,0,0,1,1,.33,2.49,2.49,0,0,1,.72,1,5.74,5.74,0,0,1,.35,1.63,4.48,4.48,0,0,1-.33,2.45,1.52,1.52,0,0,1-1.21.92,1.48,1.48,0,0,1-1.3-.68A4.37,4.37,0,0,1,76,76a4.57,4.57,0,0,1,.31-2.45A1.5,1.5,0,0,1,77.5,72.68Zm0.33,1a0.81,0.81,0,0,0-.1-0.38,0.23,0.23,0,0,0-.22-0.09q-0.29,0-.25.51l0.37,4.5c0,0.25.12,0.37,0.3,0.36a0.25,0.25,0,0,0,.2-0.13,0.46,0.46,0,0,0,.06-0.27Z"/><path class="cls-6" d="M77.28,71.76a1.89,1.89,0,0,1-1.81,2l-40,1.76a1.89,1.89,0,0,1-2-1.81L31,16.66a1.89,1.89,0,0,1,1.81-2l40-1.76a1.89,1.89,0,0,1,2,1.81Z"/><path class="cls-7" d="M39.39,27.1a1.42,1.42,0,0,1-2.63.78c0,0.62.24,1.51,0.78,1.49v0.11l-1.76.08V29.46c0.54,0,.67-0.94.64-1.55h0a1.42,1.42,0,1,1-1.34-2l0.29,0A1.4,1.4,0,0,1,35,25.06a1.42,1.42,0,0,1,2.83-.13,1.4,1.4,0,0,1-.25.86l0.28,0A1.41,1.41,0,0,1,39.39,27.1Z"/><path class="cls-7" d="M37.19,18.51L38.76,22a0.42,0.42,0,0,0,.28.24,0.19,0.19,0,0,1,.14.19s0,0.09,0,.22-0.08.09-.22,0.1l-2.17.1a0.28,0.28,0,0,1-.16,0,0.22,0.22,0,0,1,0-.16s0-.08,0-0.19a0.16,0.16,0,0,1,.13-0.1,0.18,0.18,0,0,0,.17-0.14,0.21,0.21,0,0,0,0-.06L36,20.31l-0.17.29,0.07,1.51a0.32,0.32,0,0,0,.26.28,0.17,0.17,0,0,1,.11.18,0.41,0.41,0,0,1,0,.23,0.28,0.28,0,0,1-.21.07l-2.28.1a0.32,0.32,0,0,1-.18,0,0.26,0.26,0,0,1-.06-0.2,0.35,0.35,0,0,1,0-.21,0.33,0.33,0,0,1,.14-0.08,0.22,0.22,0,0,0,.19-0.21l-0.2-4.43a0.27,0.27,0,0,0-.21-0.24,0.46,0.46,0,0,1-.16-0.08,0.26,0.26,0,0,1,0-.14,0.78,0.78,0,0,1,0-.29,0.2,0.2,0,0,1,.16,0l2.49-.11q0.17,0,.18.09a1.85,1.85,0,0,1,0,.35,0.28,0.28,0,0,1-.15.11,0.31,0.31,0,0,0-.25.25l0.08,1.89,1.1-1.88A0.45,0.45,0,0,0,37,17.46a0.19,0.19,0,0,0-.13-0.11,0.44,0.44,0,0,1-.18-0.11,0.62,0.62,0,0,1,0-.24,0.13,0.13,0,0,1,.15-0.15l1.45-.06a0.22,0.22,0,0,1,.16,0,0.39,0.39,0,0,1,0,.19,0.37,0.37,0,0,1,0,.21,0.63,0.63,0,0,1-.22.1L38,17.38a0.36,0.36,0,0,0-.09.1Z"/><path class="cls-7" d="M68.7,61a1.42,1.42,0,0,1,2.63-.78c0-.62-0.23-1.51-0.77-1.49V58.57l1.76-.08V58.6c-0.54,0-.67.94-0.64,1.55h0a1.42,1.42,0,1,1,1.34,2l-0.28,0A1.39,1.39,0,0,1,73,63a1.42,1.42,0,0,1-2.83.13,1.38,1.38,0,0,1,.25-0.86l-0.28,0A1.41,1.41,0,0,1,68.7,61Z"/><path class="cls-7" d="M70.89,69.55l-1.57-3.47A0.42,0.42,0,0,0,69,65.84a0.19,0.19,0,0,1-.14-0.19s0-.09,0-0.22,0.08-.09.22-0.1l2.17-.1a0.27,0.27,0,0,1,.16,0,0.22,0.22,0,0,1,0,.16s0,0.08,0,.19a0.15,0.15,0,0,1-.13.1,0.18,0.18,0,0,0-.17.14,0.25,0.25,0,0,0,0,.06l0.85,1.83,0.17-.29L72.18,66a0.32,0.32,0,0,0-.26-0.28,0.17,0.17,0,0,1-.11-0.18,0.42,0.42,0,0,1,0-.23,0.27,0.27,0,0,1,.21-0.07l2.29-.1a0.31,0.31,0,0,1,.17,0,0.26,0.26,0,0,1,.06.2,0.37,0.37,0,0,1,0,.21,0.36,0.36,0,0,1-.15.08,0.22,0.22,0,0,0-.19.21l0.2,4.43a0.27,0.27,0,0,0,.21.24,0.46,0.46,0,0,1,.16.08,0.26,0.26,0,0,1,0,.15,0.79,0.79,0,0,1,0,.29,0.2,0.2,0,0,1-.15,0l-2.49.11c-0.12,0-.18,0-0.18-0.09a1.73,1.73,0,0,1,0-.35,0.27,0.27,0,0,1,.15-0.11,0.3,0.3,0,0,0,.25-0.25l-0.08-1.89-1.1,1.88a0.48,0.48,0,0,0-.09.23,0.2,0.2,0,0,0,.14.11,0.45,0.45,0,0,1,.18.11,0.59,0.59,0,0,1,0,.24,0.13,0.13,0,0,1-.15.15l-1.45.06a0.22,0.22,0,0,1-.16,0,0.38,0.38,0,0,1,0-.19,0.34,0.34,0,0,1,0-.21,0.61,0.61,0,0,1,.22-0.1l0.18-.07a0.35,0.35,0,0,0,.09-0.1Z"/><path class="cls-8" d="M72.48,67.26a1.89,1.89,0,0,1-1.56,2.17L31.38,75.9a1.89,1.89,0,0,1-2.17-1.56L20,18a1.89,1.89,0,0,1,1.56-2.17L61.08,9.35a1.89,1.89,0,0,1,2.17,1.56Z"/><polygon class="cls-9" points="28.37 26.85 26.61 30.15 23.88 27.59 25.65 24.29 28.37 26.85"/><g class="cls-10"><path class="cls-11" d="M26.52,23a3.5,3.5,0,0,1-1,.31,2.6,2.6,0,0,1-2.15-.52,3.15,3.15,0,0,1-1.11-2,3.26,3.26,0,0,1,.39-2.33,2.9,2.9,0,0,1,4-.7,3.25,3.25,0,0,1,1.15,2.16,3.11,3.11,0,0,1-.44,2.27,1.72,1.72,0,0,0,.75.21,0.28,0.28,0,0,1,.19,0,2.27,2.27,0,0,1,.11.49c0,0.12,0,.19,0,0.22a1,1,0,0,1,0,.1q0.05,0.33-.41.41a1.47,1.47,0,0,1-.6,0A3.11,3.11,0,0,1,26.52,23Zm-0.77-1.2L25.13,18A0.36,0.36,0,0,0,25,17.7a0.47,0.47,0,0,0-.34-0.06,0.44,0.44,0,0,0-.31.17,0.38,0.38,0,0,0-.07.29L25,22.55a0.37,0.37,0,0,0,.17.26,0.43,0.43,0,0,0,.32.07,0.48,0.48,0,0,0,.29-0.16,0.29,0.29,0,0,0,.1-0.22,0.69,0.69,0,0,0-.52-0.32A0.2,0.2,0,0,1,25.18,22l0-.1a0.14,0.14,0,0,1,.14-0.18A2.81,2.81,0,0,1,25.76,21.76Z"/></g><polygon class="cls-9" points="63.94 58.18 65.7 54.88 68.43 57.45 66.66 60.75 63.94 58.18"/><g class="cls-10"><path class="cls-11" d="M65.79,62.08a3.54,3.54,0,0,1,1-.31,2.6,2.6,0,0,1,2.15.52,3.14,3.14,0,0,1,1.1,2,3.25,3.25,0,0,1-.39,2.33,2.9,2.9,0,0,1-4,.7,3.25,3.25,0,0,1-1.15-2.16,3.1,3.1,0,0,1,.44-2.27,1.73,1.73,0,0,0-.75-0.21,0.28,0.28,0,0,1-.19,0,2.27,2.27,0,0,1-.11-0.49c0-.11,0-0.19,0-0.21l0-.1c0-.22.1-0.36,0.41-0.41a1.48,1.48,0,0,1,.6,0A3.13,3.13,0,0,1,65.79,62.08Zm0.77,1.2,0.62,3.8a0.36,0.36,0,0,0,.17.26,0.47,0.47,0,0,0,.34.06A0.44,0.44,0,0,0,68,67.23a0.39,0.39,0,0,0,.07-0.29l-0.73-4.45a0.36,0.36,0,0,0-.17-0.26,0.43,0.43,0,0,0-.32-0.07,0.47,0.47,0,0,0-.29.16,0.29,0.29,0,0,0-.1.22,0.69,0.69,0,0,0,.52.32,0.2,0.2,0,0,1,.16.16l0,0.1a0.14,0.14,0,0,1-.14.18A2.82,2.82,0,0,1,66.56,63.28Z"/></g><path class="cls-12" d="M66.2,62.56A1.89,1.89,0,0,1,65,64.94L26.92,77.4a1.89,1.89,0,0,1-2.39-1.21L6.78,21.93A1.89,1.89,0,0,1,8,19.54L46.06,7.08a1.89,1.89,0,0,1,2.39,1.21Z"/><path class="cls-13" d="M13.39,25L12,25.49l0,0.35a0.08,0.08,0,0,1,0,0,0.47,0.47,0,0,0,0,.2,0.32,0.32,0,0,0,.34.13,0.37,0.37,0,0,1,.21,0,0.3,0.3,0,0,1,.09.15,0.37,0.37,0,0,1,0,.18,0.18,0.18,0,0,1-.11.07l-1.51.49A0.14,0.14,0,0,1,10.88,27a0.38,0.38,0,0,1,.1-0.38,0.42,0.42,0,0,0,.14-0.3l-0.29-4.48a0.61,0.61,0,0,0,0-.17,0.3,0.3,0,0,0-.31-0.11,0.19,0.19,0,0,1-.18-0.15,0.5,0.5,0,0,1,0-.25A0.25,0.25,0,0,1,10.44,21l2.19-.72a0.33,0.33,0,0,1,.32,0,1.68,1.68,0,0,1,.33.45l0.17,0.28,2.2,3.55a0.68,0.68,0,0,0,.48.32l0.12,0a0.26,0.26,0,0,1,.07.13,0.38,0.38,0,0,1,0,.23,0.26,0.26,0,0,1-.16.1l-2.54.83a0.12,0.12,0,0,1-.16-0.1,0.48,0.48,0,0,1,0-.22,0.42,0.42,0,0,1,.13-0.15,0.26,0.26,0,0,0,.13-0.26A3.18,3.18,0,0,0,13.39,25Zm-1.72-2.93,0.25,3,1.27-.42Z"/><path class="cls-13" d="M59.42,58.8l1.43-.47,0-.35a0.07,0.07,0,0,1,0,0,0.48,0.48,0,0,0,0-.2,0.32,0.32,0,0,0-.34-0.13,0.38,0.38,0,0,1-.21,0,0.3,0.3,0,0,1-.09-0.15,0.39,0.39,0,0,1,0-.18,0.19,0.19,0,0,1,.11-0.07l1.51-.49a0.14,0.14,0,0,1,.18.12,0.37,0.37,0,0,1-.1.38,0.43,0.43,0,0,0-.14.3L62,62a0.63,0.63,0,0,0,0,.17,0.31,0.31,0,0,0,.31.11,0.19,0.19,0,0,1,.18.15,0.5,0.5,0,0,1,0,.25,0.25,0.25,0,0,1-.17.11l-2.19.72a0.33,0.33,0,0,1-.32,0A1.71,1.71,0,0,1,59.54,63l-0.17-.28-2.2-3.55a0.68,0.68,0,0,0-.48-0.32l-0.12,0a0.26,0.26,0,0,1-.07-0.13,0.38,0.38,0,0,1,0-.23,0.27,0.27,0,0,1,.16-0.1l2.54-.83a0.12,0.12,0,0,1,.16.1,0.47,0.47,0,0,1,0,.22,0.42,0.42,0,0,1-.13.15,0.26,0.26,0,0,0-.13.26A3.26,3.26,0,0,0,59.42,58.8Zm1.72,2.93-0.25-3-1.27.42Z"/><path class="cls-13" d="M48.16,44.72a6.21,6.21,0,0,1-8.34,2.73,6.29,6.29,0,0,1-1.1-.72c0.87,2.42,2.66,5.44,4.71,4.77L43.57,52l-7.06,2.31-0.15-.45c2.06-.67,1.7-4.17,1-6.64a5.89,5.89,0,0,1-.46,1.24A6.21,6.21,0,0,1,25.81,42.8l2.79-5.5,3.81-7.52,13,6.6A6.2,6.2,0,0,1,48.16,44.72Z"/><path class="cls-13" d="M18.07,31a1.63,1.63,0,0,1-2.19.71,1.66,1.66,0,0,1-.29-0.19c0.23,0.63.7,1.42,1.23,1.25l0,0.12L15,33.45l0-.12c0.54-.18.45-1.09,0.26-1.74a1.56,1.56,0,0,1-.12.33,1.63,1.63,0,1,1-2.9-1.47L12.95,29l1-2,3.41,1.73A1.63,1.63,0,0,1,18.07,31Z"/><path class="cls-13" d="M54.64,52.46a1.63,1.63,0,0,1,2.19-.71,1.65,1.65,0,0,1,.29.19c-0.23-.63-0.7-1.43-1.23-1.25l0-.12,1.85-.6,0,0.12c-0.54.18-.45,1.09-0.26,1.74a1.5,1.5,0,0,1,.12-0.33A1.63,1.63,0,0,1,60.5,53L59.76,54.4l-1,2-3.41-1.73A1.63,1.63,0,0,1,54.64,52.46Z"/></g></g></svg>