<svg id="Layer_1" data-name="Layer 1" xmlns="http://www.w3.org/2000/svg" viewBox="0 0 90 90"><defs><style>.cls-1,.cls-47{fill:#fff;}.cls-2{fill:#707252;}.cls-10,.cls-11,.cls-12,.cls-14,.cls-15,.cls-16,.cls-18,.cls-2,.cls-20,.cls-21,.cls-22,.cls-23,.cls-24,.cls-25,.cls-26,.cls-28,.cls-29,.cls-30,.cls-31,.cls-32,.cls-33,.cls-34,.cls-35,.cls-36,.cls-37,.cls-38,.cls-39,.cls-40,.cls-41,.cls-42,.cls-43,.cls-44,.cls-46,.cls-47,.cls-5,.cls-50,.cls-51,.cls-52,.cls-53,.cls-54,.cls-6,.cls-7,.cls-9{fill-rule:evenodd;}.cls-24,.cls-3{fill:#97a543;}.cls-4{fill:#cedb9c;}.cls-5{fill:#26150e;}.cls-6{fill:#c7c99e;}.cls-7{fill:#c1cf92;}.cls-8{fill:#d3e0a6;}.cls-9{fill:#cdcfa9;}.cls-10{fill:#c8d49f;}.cls-11{fill:#cedaa9;}.cls-12{fill:#76492f;}.cls-13,.cls-23{fill:#628c3e;}.cls-14{fill:#84aa4f;}.cls-15,.cls-32{fill:#8fba51;}.cls-16{fill:#75a03f;}.cls-17,.cls-26{fill:#899c4b;}.cls-18{fill:#8b8541;}.cls-19{fill:#cedd95;}.cls-20{fill:#b1a589;}.cls-21{fill:#6f5a2e;}.cls-22{fill:#62724a;}.cls-25{fill:#81a647;}.cls-27,.cls-31{fill:#3e5429;}.cls-28{fill:#698338;}.cls-29{fill:#9c7c68;}.cls-30{fill:#a0b476;}.cls-32{stroke:#8fba51;stroke-miterlimit:22.93;stroke-width:0.04px;}.cls-33{fill:#a7aa7c;}.cls-34{fill:#dfe4b9;}.cls-35{fill:#d3d798;}.cls-36{fill:#c2c688;}.cls-37{fill:#93997c;}.cls-38{fill:#8b8f65;}.cls-39{fill:#81845b;}.cls-40{fill:#7a6d4e;}.cls-41,.cls-48{fill:#645b40;}.cls-42{fill:#5b523a;}.cls-43,.cls-49{fill:#4a4330;}.cls-44{fill:#6e6347;}.cls-45{fill:#efefc3;}.cls-46{fill:#c3c3a0;}.cls-50,.cls-55{fill:#43432c;}.cls-51{fill:#8d8d7f;}.cls-52,.cls-56{fill:#ffd798;}.cls-53{fill:#69695e;}.cls-54{fill:#747468;}.cls-57{fill:#7f7f73;}.cls-58{fill:#c6c5b7;}</style></defs><title>welcome-icons</title><path class="cls-1" d="M83.8,76a5.41,5.41,0,0,0-4.19-8.85h0l-0.15-2.77a8.92,8.92,0,0,0,7-6.67A18.2,18.2,0,0,0,89.81,47a18.38,18.38,0,0,0-25-17.15V29.16H64.64V28.7H62A18.59,18.59,0,0,0,29.37,43.6,18.83,18.83,0,0,0,28,45,13.16,13.16,0,0,0,4.55,54.87,9.6,9.6,0,0,0,9.7,72.51a9.28,9.28,0,0,0,2-.22,8,8,0,0,0,1.39.79L13,74.84c-2.11,1.1-2.6,2.48-2.6,3.52,0,0.07,0,.14,0,0.21A5.59,5.59,0,0,0,7.67,83.3c0,3.19,2.95,5.78,6.57,5.78H32.4a6.29,6.29,0,0,0,3.3.92H68a6.11,6.11,0,0,0,4.58-2h10.1c3.82,0,6.92-2.72,6.92-6.07C89.56,78.94,87.06,76.45,83.8,76Z"/><path class="cls-2" d="M23.42,81.52c5.93,0,10.76-1.42,10.76-3.15s-4.83-3.15-10.76-3.15-10.76,1.42-10.76,3.15S17.49,81.52,23.42,81.52Z"/><circle class="cls-3" cx="71.43" cy="46.97" r="16.15"/><circle class="cls-4" cx="63.49" cy="65.02" r="4.83"/><polygon class="cls-5" points="75.25 53.74 70.81 58.08 70.31 49.02 69.26 73.57 71.67 73.57 70.88 59.25 75.25 53.74"/><polygon class="cls-6" points="70.46 52.88 72.93 50.47 70.43 53.62 70.46 52.88"/><polygon class="cls-6" points="70.39 54.95 66.55 51.2 70.43 56.09 70.39 54.95"/><polygon class="cls-6" points="70.37 69.53 65.03 64.31 70.43 71.12 70.37 69.53"/><polygon class="cls-6" points="66.89 66.67 63.73 67.12 67.44 67.06 66.89 66.67"/><polygon class="cls-6" points="66.44 65.97 66.35 64.03 66.74 66.26 66.44 65.97"/><path class="cls-7" d="M63,48.7s2.2,0.36,2.72,2.16C63.91,51.14,63.25,49.53,63,48.7Z"/><path class="cls-7" d="M62.6,52.68s1.46-1.69,3.27-1.19C65.16,53.17,63.44,52.89,62.6,52.68Z"/><path class="cls-7" d="M63.26,62.13a2.43,2.43,0,0,1,.27,2.36A1.74,1.74,0,0,1,63.26,62.13Z"/><path class="cls-7" d="M61.14,63.87a2.43,2.43,0,0,1,2.15,1A1.74,1.74,0,0,1,61.14,63.87Z"/><circle class="cls-8" cx="51.96" cy="54.65" r="10.73"/><circle class="cls-8" cx="45.55" cy="66.86" r="3.79"/><polygon class="cls-9" points="51.97 73.57 50.07 73.57 50.9 54.31 51.97 73.57"/><polygon class="cls-9" points="51.03 61.67 54.77 58.02 50.99 62.78 51.03 61.67"/><polygon class="cls-9" points="50.95 70.4 46.76 66.31 50.99 71.65 50.95 70.4"/><polygon class="cls-9" points="48.21 68.15 45.74 68.51 48.65 68.46 48.21 68.15"/><polygon class="cls-9" points="47.86 67.61 47.8 66.08 48.09 67.83 47.86 67.61"/><path class="cls-10" d="M45.37,64.6a1.9,1.9,0,0,1,.21,1.85A1.36,1.36,0,0,1,45.37,64.6Z"/><path class="cls-11" d="M43.71,66a1.9,1.9,0,0,1,1.69.79A1.36,1.36,0,0,1,43.71,66Z"/><circle class="cls-3" cx="29.42" cy="67.91" r="3.19"/><polygon class="cls-9" points="34.83 73.57 33.23 73.57 33.93 57.33 34.83 73.57"/><polygon class="cls-12" points="34.04 63.54 37.19 60.46 34.01 64.47 34.04 63.54"/><circle class="cls-13" cx="42.39" cy="57.21" r="16.61"/><path class="cls-14" d="M30.84,54.89a2.35,2.35,0,0,1,1.8,1.43A1.68,1.68,0,0,1,30.84,54.89Z"/><path class="cls-14" d="M30.58,57.53a2.35,2.35,0,0,1,2.16-.79A1.68,1.68,0,0,1,30.58,57.53Z"/><path class="cls-15" d="M29.27,66a1.6,1.6,0,0,1,.18,1.56A1.15,1.15,0,0,1,29.27,66Z"/><path class="cls-16" d="M27.87,67.15a1.6,1.6,0,0,1,1.42.67A1.15,1.15,0,0,1,27.87,67.15Z"/><circle class="cls-17" cx="79.61" cy="72.53" r="3.19"/><path class="cls-18" d="M80.08,69.84a1.6,1.6,0,0,1,.18,1.56A1.15,1.15,0,0,1,80.08,69.84Z"/><path class="cls-18" d="M78.81,71a1.6,1.6,0,0,1,1.42.67A1.15,1.15,0,0,1,78.81,71Z"/><circle class="cls-3" cx="35.74" cy="63.7" r="4.17"/><circle class="cls-19" cx="41.64" cy="68.55" r="4.96"/><polygon class="cls-20" points="37.06 70.52 38.46 70.72 36.82 70.69 37.06 70.52"/><polygon class="cls-21" points="37.88 69.48 37.27 70.08 37.3 69.35 37.16 70.19 35.92 71.4 35.68 65.62 37.21 63.69 35.66 65.21 35.55 62.72 35.46 64.41 34.4 63.36 35.45 64.69 35.33 66.73 33.37 64.81 35.3 67.24 34.95 73.57 36.02 73.57 35.95 71.92 37.88 69.48"/><path class="cls-22" d="M38.79,62.58a1.57,1.57,0,0,0-1.2,1,1.12,1.12,0,0,0,1.2-1h0ZM39,64.34a1.12,1.12,0,0,1-1.44-.53A1.57,1.57,0,0,1,39,64.34Z"/><path class="cls-23" d="M38.67,68.52a1.07,1.07,0,0,0-.12,1,0.77,0.77,0,0,0,.12-1h0Zm0.93,0.77a0.77,0.77,0,0,1-1,.44A1.07,1.07,0,0,1,39.6,69.28Z"/><path class="cls-24" d="M41.57,70.25a2.35,2.35,0,0,0-2.16-.79,1.68,1.68,0,0,0,2.16.79h0Zm-0.26-2.63A1.68,1.68,0,0,1,39.51,69,2.35,2.35,0,0,1,41.31,67.61Z"/><circle class="cls-3" cx="54.59" cy="58.7" r="5.54"/><polygon class="cls-21" points="54.58 73.57 56.32 73.57 56.21 70.88 57.8 68.87 60.31 68.91 58.03 68.58 58.02 68.59 59.38 66.88 58.37 67.87 58.42 66.68 58.19 68.05 56.17 70.02 55.56 55.83 55.2 62.38 52 59.24 55.15 63.23 54.58 73.57"/><polygon class="cls-12" points="55.46 58.62 53.67 56.88 55.48 59.16 55.46 58.62"/><polygon class="cls-12" points="55.51 60.12 58.28 57.41 55.48 60.94 55.51 60.12"/><path class="cls-16" d="M58.88,57.88a2.56,2.56,0,0,0-2,1.56A1.84,1.84,0,0,0,58.88,57.88Z"/><path class="cls-16" d="M59.16,60.76a2.56,2.56,0,0,0-2.36-.86A1.84,1.84,0,0,0,59.16,60.76Z"/><circle class="cls-17" cx="60.49" cy="67.39" r="3.49"/><path class="cls-15" d="M60.66,65.31A1.75,1.75,0,0,0,60.47,67,1.26,1.26,0,0,0,60.66,65.31Z"/><path class="cls-15" d="M62.19,66.56a1.75,1.75,0,0,0-1.56.73A1.26,1.26,0,0,0,62.19,66.56Z"/><circle class="cls-13" cx="74.36" cy="49.82" r="8.86"/><polygon class="cls-12" points="71.82 56.06 77.32 50.69 71.76 57.7 71.82 56.06"/><path class="cls-25" d="M67.51,48.52s2.54,0.41,3.14,2.49C68.58,51.33,67.82,49.47,67.51,48.52Z"/><path class="cls-26" d="M67.06,53.11s1.68-2,3.77-1.38C70,53.67,68,53.35,67.06,53.11Z"/><circle class="cls-27" cx="64.94" cy="63.7" r="5.57"/><polygon class="cls-21" points="75.83 46.91 73.05 49.63 72.81 45.23 72.53 51.72 68.48 47.76 72.48 52.81 71.84 67.89 66.72 62.89 71.78 69.27 71.6 73.57 74.38 73.57 73.09 50.36 75.83 46.91"/><polygon class="cls-21" points="67.67 65.6 64.03 66.13 68.31 66.05 67.67 65.6"/><polygon class="cls-21" points="67.15 64.8 67.05 62.56 67.5 65.13 67.15 64.8"/><path class="cls-15" d="M64.67,60.37A2.8,2.8,0,0,1,65,63.1,2,2,0,0,1,64.67,60.37Z"/><path class="cls-15" d="M62.23,62.37a2.8,2.8,0,0,1,2.49,1.16A2,2,0,0,1,62.23,62.37Z"/><circle class="cls-17" cx="77.68" cy="55.57" r="6.71"/><path class="cls-28" d="M72.49,54.58a3.1,3.1,0,0,1,2.38,1.89C73.3,56.72,72.72,55.3,72.49,54.58Z"/><path class="cls-28" d="M72.15,58.07A3.1,3.1,0,0,1,75,57C74.39,58.49,72.89,58.24,72.15,58.07Z"/><polygon class="cls-5" points="80.83 56.23 76.95 60.02 76.72 55.98 78.8 53.36 76.69 55.43 76.5 52.09 76.3 57.01 73.22 54.01 76.26 57.84 75.77 69.27 71.89 65.47 75.73 70.31 75.59 73.57 77.7 73.57 77 61.05 80.83 56.23"/><polygon class="cls-12" points="73.52 67.53 70.76 67.93 74 67.87 73.52 67.53"/><polygon class="cls-29" points="73.12 66.92 73.05 65.23 73.38 67.17 73.12 66.92"/><circle class="cls-13" cx="70.54" cy="66.09" r="4.22"/><path class="cls-30" d="M70.34,63.57a2.12,2.12,0,0,1,.23,2.07A1.52,1.52,0,0,1,70.34,63.57Z"/><path class="cls-30" d="M68.49,65.08a2.12,2.12,0,0,1,1.88.88A1.52,1.52,0,0,1,68.49,65.08Z"/><circle class="cls-27" cx="47.72" cy="40.6" r="16.37"/><circle class="cls-13" cx="58.07" cy="54.9" r="7.37"/><polygon class="cls-5" points="61.04 52.95 49.31 64.42 48.47 44.59 54.06 37.54 48.4 43.07 48.02 34.02 47.67 40.15 43.79 36.35 47.62 41.18 47.2 48.62 40.06 41.63 47.1 50.51 45.82 73.56 49.71 73.56 49.45 67.57 61.04 52.95"/><ellipse class="cls-27" cx="17.56" cy="53.01" rx="10.92" ry="11.04"/><ellipse class="cls-3" cx="9.7" cy="62.92" rx="7.28" ry="7.36"/><polygon class="cls-5" points="17.02 78.19 15.15 78.19 15.84 56.66 13.1 53.16 15.87 55.89 16 51.45 16.12 54.47 18.03 52.58 16.14 54.99 16.29 58.64 19.82 55.14 16.32 59.6 17.02 78.19"/><polygon class="cls-12" points="16.05 67.5 11.92 63.41 16.1 68.74 16.05 67.5"/><path class="cls-23" d="M10.55,61.71a1.91,1.91,0,0,1,.21,1.85A1.37,1.37,0,0,1,10.55,61.71Z"/><path class="cls-23" d="M5.7,64.15S8.27,64,9.33,65.87C7.39,66.66,6.22,65,5.7,64.15Z"/><path class="cls-23" d="M8.55,62s1.63,2,.71,4C7.49,64.81,8.15,62.89,8.55,62Z"/><ellipse class="cls-13" cx="16.37" cy="65.61" rx="5.88" ry="5.95"/><ellipse class="cls-13" cx="20.7" cy="73.8" rx="2.46" ry="2.49"/><polygon class="cls-21" points="16.52 78.2 17.75 78.2 17.67 76.29 19.91 73.44 19.2 74.14 19.24 73.29 19.07 74.27 17.65 75.67 17.36 68.94 19.13 66.68 17.34 68.45 17.22 65.55 17.11 67.52 15.88 66.3 17.09 67.84 16.96 70.22 14.7 67.99 16.93 70.83 16.52 78.2"/><polygon class="cls-21" points="18.96 74.65 20.57 74.88 18.68 74.85 18.96 74.65"/><path class="cls-31" d="M21.15,67.44a1.8,1.8,0,0,0-1.67-.61,1.29,1.29,0,0,0,1.67.61h0ZM21,65.39a1.3,1.3,0,0,1-1.39,1.11A1.81,1.81,0,0,1,21,65.39Z"/><path class="cls-32" d="M20.82,72.31a1.26,1.26,0,0,0-.14,1.22A0.9,0.9,0,0,0,20.82,72.31Z"/><path class="cls-33" d="M32.65,72.6H75c2.58,0,4.7,1.73,4.7,3.84h0c0,2.11-2.11,3.84-4.7,3.84H32.65c-2.58,0-4.7-1.73-4.7-3.84h0C28,74.33,30.07,72.6,32.65,72.6Z"/><path class="cls-34" d="M40.27,78.1H82.64c2.58,0,4.7,1.73,4.7,3.84h0c0,2.11-2.11,3.84-4.7,3.84H40.27c-2.58,0-4.7-1.73-4.7-3.84h0C35.58,79.83,37.69,78.1,40.27,78.1Z"/><path class="cls-35" d="M14.24,86.86H53.45c2.39,0,4.35-1.6,4.35-3.56h0c0-2-2-3.56-4.35-3.56H14.24c-2.39,0-4.35,1.6-4.35,3.56h0C9.89,85.26,11.85,86.86,14.24,86.86Z"/><path class="cls-35" d="M34.52,81.26H63.95a3,3,0,0,0,3.26-2.67h0a3,3,0,0,0-3.26-2.67H34.52a3,3,0,0,0-3.26,2.67h0A3,3,0,0,0,34.52,81.26Z"/><path class="cls-36" d="M35.71,87.77H68c2,0,3.57-1.32,3.57-2.92h0c0-1.61-1.61-2.92-3.57-2.92H35.71c-2,0-3.57,1.32-3.57,2.92h0C32.13,86.46,33.74,87.77,35.71,87.77Z"/><path class="cls-36" d="M44.8,83.44H74.23a3,3,0,0,0,3.26-2.67h0a3,3,0,0,0-3.26-2.67H44.8a3,3,0,0,0-3.26,2.67h0A3,3,0,0,0,44.8,83.44Z"/><path class="cls-2" d="M69.86,80.28H32.65c-2.58,0-4.7-1.73-4.7-3.84h0a3.29,3.29,0,0,1,.61-1.88,144.39,144.39,0,0,1,16.21-.84c15.44,0,28,2,28,4.55C72.75,79,71.71,79.68,69.86,80.28Z"/><path class="cls-37" d="M46.21,78.1H72.73a0.78,0.78,0,0,1,0,.17c0,2.51-12.53,4.55-28,4.55l-3.15,0a3.16,3.16,0,0,1-.12-0.85h0C41.51,79.83,43.63,78.1,46.21,78.1Z"/><path class="cls-38" d="M57.62,82.31a4.33,4.33,0,0,0-4.17-2.57H18.32c3.77,1.79,14.19,3.07,26.46,3.07C49.41,82.82,53.78,82.64,57.62,82.31Z"/><path class="cls-38" d="M34.52,81.26H63.95a3,3,0,0,0,3.26-2.67h0a3,3,0,0,0-3.26-2.67H34.52a3,3,0,0,0-3.26,2.67h0A3,3,0,0,0,34.52,81.26Z"/><path class="cls-39" d="M61.46,81.92H35.71a4.12,4.12,0,0,0-2,.52c3.41,0.24,7.16.37,11.11,0.37A142.74,142.74,0,0,0,61.46,81.92Z"/><path class="cls-39" d="M72.73,78.11H44.8a3,3,0,0,0-3.26,2.67h0a2.5,2.5,0,0,0,1.16,2h2.07c15.44,0,28-2,28-4.55A0.76,0.76,0,0,0,72.73,78.11Z"/><path class="cls-40" d="M60.44,65.88V64.7H59.76V64.34H60V64h0.69V63.56h0.88V62.8h0A0.58,0.58,0,0,1,61,62.22h0a0.58,0.58,0,0,1,.57-0.57h0V42.87h0.35v-1.8H60.59V40.82h0.17V40.59h0.47v-0.3h0.71V39.83H61.8a0.39,0.39,0,0,1-.39-0.39h0a0.4,0.4,0,0,1,0-.15H61a0.39,0.39,0,0,1-.39-0.39h0a0.39,0.39,0,0,1,0,0h-2c-0.71,0-.71.51-0.71,1.07V40h0c0,0.2,0,.42,0,0.64s0,0.42,0,.62h0a0.81,0.81,0,0,1-.6.79,1.33,1.33,0,0,1-.44.08,1.31,1.31,0,0,1-.44-0.07,0.8,0.8,0,0,1-.59-0.8h0V39.91a0.61,0.61,0,0,1-.48-0.59h0a1.33,1.33,0,0,1-1-.88,3.26,3.26,0,0,0,1.25.39,0.61,0.61,0,0,1,.65,0,3.26,3.26,0,0,0,1.25-.39,1.33,1.33,0,0,1-1,.89h0a0.61,0.61,0,0,1-.38.56v1.39h0a0.47,0.47,0,0,0,.35.46,0.94,0.94,0,0,0,.32.05,1,1,0,0,0,.32-0.06,0.48,0.48,0,0,0,.36-0.46h0c0-.22,0-0.43,0-0.64s0-.4,0-0.63h0V39.91c0-.74,0-1.37,1-1.42h1.74V38.28h0.21V38.05h0.9V37.57h0.59V37.44H61.51V36.92l0.37-3H60.94v-0.3h0.12V33.45h0.18a0.39,0.39,0,0,1,0-.08h0a0.47,0.47,0,0,1,.47-0.47h0.22v0A0.42,0.42,0,0,1,62,32.59H61.8V32.44h0V32.36h0.38l0.08-.91H62.11V31.38h0.19l0-.19V30.92h0.06v0.27l0,0.19h0.19v0.07H62.39l0.08,0.91h0.38v0.08h0v0.16H62.66a0.42,0.42,0,0,1,.11.28v0H63a0.47,0.47,0,0,1,.47.47h0a0.42,0.42,0,0,1,0,.08h0.18v0.16h0.12v0.3H62.82l0.37,3v0.52H62.75v0.13h0.59v0.48h0.9v0.23h0.21V38.5h1.85c1,0.05,1,.68,1,1.42V40h0c0,0.22,0,.43,0,0.63s0,0.42,0,.64h0a0.48,0.48,0,0,0,.36.46,1,1,0,0,0,.33.06,0.94,0.94,0,0,0,.32-0.05,0.47,0.47,0,0,0,.35-0.46h0V39.88a0.61,0.61,0,0,1-.38-0.56h0a1.33,1.33,0,0,1-1-.88,3.26,3.26,0,0,0,1.25.39,0.61,0.61,0,0,1,.65,0,3.26,3.26,0,0,0,1.25-.39,1.34,1.34,0,0,1-1,.88h0a0.61,0.61,0,0,1-.48.59v1.36h0a0.8,0.8,0,0,1-.58.8,1.32,1.32,0,0,1-.44.07,1.35,1.35,0,0,1-.44-0.08,0.81,0.81,0,0,1-.6-0.79h0c0-.2,0-0.42,0-0.62s0-.44,0-0.64h0V39.91c0-.56,0-1-0.71-1.07h-2a0.39,0.39,0,0,1,0,0h0a0.39,0.39,0,0,1-.39.39H63.21a0.39,0.39,0,0,1,0,.15h0a0.39,0.39,0,0,1-.39.39h-0.1v0.46h0.71v0.3h0.47v0.23h0.17v0.25H62.75v1.8h0.35V61.65h0a0.58,0.58,0,0,1,.58.57h0a0.58,0.58,0,0,1-.58.57h0v0.77H64V64h0.69v0.34h0.26V64.7H64.26v1.18h1.47v0.75H65.05v9.2H59.64v-9.2H59V65.88h1.47Z"/><path class="cls-41" d="M61.6,39.78a0.39,0.39,0,0,1-.19-0.34h0a0.4,0.4,0,0,1,0-.15H61a0.39,0.39,0,0,1-.39-0.39h0a0.39,0.39,0,0,1,0,0h-0.3V38.28h0.18V38.05h0.9v0h2v0h0.9v0.23h0.21V38.5h0.09v0.35h-0.3a0.39,0.39,0,0,1,0,0h0a0.39,0.39,0,0,1-.39.39H63.21a0.39,0.39,0,0,1,0,.15h0a0.39,0.39,0,0,1-.19.34H61.6Z"/><polygon class="cls-42" points="61.94 42.82 61.94 41.07 60.59 41.07 60.59 41.06 64.11 41.06 64.11 41.07 62.75 41.07 62.75 42.82 61.94 42.82"/><path class="cls-43" d="M61.59,63.56V62.8h0l-0.17,0h1.89l-0.17,0h0v0.76H61.59Z"/><polygon class="cls-44" points="60.44 65.88 60.44 64.7 59.76 64.7 59.76 64.7 64.94 64.7 64.94 64.7 64.26 64.7 64.26 65.88 60.44 65.88"/><polygon class="cls-43" points="65.73 66.56 65.73 66.62 65.05 66.62 65.05 75.83 59.64 75.83 59.64 66.62 58.96 66.62 58.96 66.56 65.73 66.56"/><circle class="cls-45" cx="55.84" cy="35.54" r="3.28"/><circle class="cls-45" cx="68.97" cy="35.54" r="3.28"/><polygon class="cls-41" points="64 66.56 64 66.62 63.67 66.62 63.67 75.83 61.02 75.83 61.02 66.62 60.69 66.62 60.69 66.56 64 66.56"/><path class="cls-43" d="M55.71,39.92h0a0.61,0.61,0,0,1-.48-0.59h0a1.33,1.33,0,0,1-1-.88,3.26,3.26,0,0,0,1.25.39,0.61,0.61,0,0,1,.65,0,3.26,3.26,0,0,0,1.25-.39,1.33,1.33,0,0,1-1,.89h0a0.61,0.61,0,0,1-.38.56v0H55.71Z"/><path class="cls-46" d="M57.51,38.36a3.28,3.28,0,0,1-3.3,0s0-.07,0-0.11a1.65,1.65,0,0,1,3.31,0S57.51,38.33,57.51,38.36Z"/><path class="cls-41" d="M55.23,39.34v0h0a1.33,1.33,0,0,1-1-.88,3.26,3.26,0,0,0,1.25.39,0.61,0.61,0,0,1,.65,0,3.26,3.26,0,0,0,1.25-.39,1.33,1.33,0,0,1-1,.89h0v0A2.22,2.22,0,0,1,55.23,39.34Z"/><path class="cls-47" d="M57.51,38.36a3.28,3.28,0,0,1-3.3,0s0-.07,0-0.11a1.65,1.65,0,0,1,3.31,0S57.51,38.33,57.51,38.36Z"/><path class="cls-43" d="M69.09,39.91h0a0.61,0.61,0,0,0,.48-0.59h0a1.33,1.33,0,0,0,1-.88,3.26,3.26,0,0,1-1.25.39,0.61,0.61,0,0,0-.65,0,3.26,3.26,0,0,1-1.25-.39,1.33,1.33,0,0,0,1,.89h0a0.61,0.61,0,0,0,.38.56v0h0.35Z"/><path class="cls-46" d="M67.3,38.36a3.28,3.28,0,0,0,3.3,0s0-.07,0-0.11a1.65,1.65,0,0,0-3.31,0S67.3,38.33,67.3,38.36Z"/><path class="cls-41" d="M69.57,39.33v0h0a1.33,1.33,0,0,0,1-.88,3.26,3.26,0,0,1-1.25.39,0.61,0.61,0,0,0-.65,0,3.26,3.26,0,0,1-1.25-.39,1.33,1.33,0,0,0,1,.89h0v0A2.22,2.22,0,0,0,69.57,39.33Z"/><path class="cls-47" d="M67.3,38.36a3.28,3.28,0,0,0,3.3,0s0-.07,0-0.11a1.65,1.65,0,0,0-3.31,0S67.3,38.33,67.3,38.36Z"/><rect class="cls-48" x="61.24" y="40.28" width="2.22" height="0.32"/><rect class="cls-48" x="60.8" y="40.61" width="3.09" height="0.24"/><path class="cls-43" d="M60.94,33.9V33.61h0.12V33.45h0.18a0.4,0.4,0,0,1,0-.08h0a0.47,0.47,0,0,1,.47-0.47h0.22v0A0.42,0.42,0,0,1,62,32.59H61.8V32.44h0V32.36h0.38l0.08-.91H62.11V31.38h0.19l0-.19V30.92h0.06v0.27l0,0.19h0.19v0.07H62.39l0.08,0.91h0.38v0.08h0v0.16H62.66a0.42,0.42,0,0,1,.11.28v0H63a0.47,0.47,0,0,1,.47.47h0a0.42,0.42,0,0,1,0,.08h0.18v0.16h0.12V33.9H60.94Z"/><path class="cls-41" d="M61.66,32.9h0.26v0A0.42,0.42,0,0,1,62,32.59H61.8V32.44h0V32.36h0.38l0.08-.91H62.11V31.38h0.19l0-.19V30.92h0.06v0.27l0,0.19h0.19v0.07H62.39l0.08,0.91h0.38v0.08h0v0.16H62.66a0.42,0.42,0,0,1,.11.28v0H61.66Z"/><rect class="cls-49" x="61.92" y="42.89" width="0.82" height="18.75"/><rect class="cls-48" x="61.92" y="33.87" width="0.82" height="3.52"/><path class="cls-50" d="M44.87,70.14c5.65,0,10.58,1.95,13.21,4.84h-0.5c-2.6-2.68-7.32-4.47-12.71-4.47S34.76,72.3,32.16,75h-0.5C34.29,72.08,39.22,70.14,44.87,70.14Z"/><polygon class="cls-50" points="27.86 72.31 28.29 72.31 26.68 79.7 26.25 79.7 27.86 72.31"/><polygon class="cls-50" points="29.05 71.92 29.24 71.54 32.11 74.75 31.66 74.96 29.05 71.92"/><polygon class="cls-50" points="62 72.31 61.58 72.31 63.15 79.7 63.58 79.7 62 72.31"/><polygon class="cls-50" points="60.78 71.92 60.58 71.54 57.71 74.75 58.07 74.97 60.78 71.92"/><path class="cls-50" d="M44.87,72.85c8,0,15,2.76,18.71,6.85h-0.7c-3.69-3.79-10.37-6.33-18-6.33s-14.32,2.54-18,6.33h-0.7C29.88,75.61,36.87,72.85,44.87,72.85Z"/><path class="cls-50" d="M44.87,59.55a29.28,29.28,0,0,1,13.82,3.23H57.57a29.44,29.44,0,0,0-12.71-2.71,29.44,29.44,0,0,0-12.71,2.71H31A29.28,29.28,0,0,1,44.87,59.55Z"/><path class="cls-51" d="M44.87,73.16H63.5v-0.5H26.24v0.5H44.87Zm-18.63-.5h0Zm37.27,0"/><polygon class="cls-52" points="44.87 70.14 60.65 70.14 63.5 72.65 63.5 72.66 44.87 72.66 26.24 72.66 26.24 72.65 29.09 70.14 44.87 70.14"/><polygon class="cls-53" points="61.13 70.57 61.27 70.68 28.47 70.68 28.61 70.57 61.13 70.57"/><polygon class="cls-54" points="62.13 71.44 62.36 71.65 27.38 71.65 27.61 71.44 62.13 71.44"/><rect class="cls-55" x="29.24" y="62.74" width="0.43" height="7.4"/><rect class="cls-55" x="60.07" y="62.74" width="0.43" height="7.4"/><rect class="cls-56" x="28.7" y="62.23" width="32.35" height="1.61"/><rect class="cls-57" x="28.7" y="63.84" width="32.35" height="0.21"/><rect class="cls-58" x="28.7" y="62.23" width="32.35" height="0.26"/><rect class="cls-56" x="28.7" y="64.52" width="32.35" height="1.61"/><rect class="cls-57" x="28.7" y="66.13" width="32.35" height="0.21"/><rect class="cls-58" x="28.7" y="64.52" width="32.35" height="0.26"/><rect class="cls-56" x="28.7" y="66.8" width="32.35" height="1.61"/><rect class="cls-57" x="28.7" y="68.41" width="32.35" height="0.21"/><rect class="cls-58" x="28.7" y="66.8" width="32.35" height="0.26"/><path class="cls-50" d="M29,74.19a1.41,1.41,0,1,1-1.41,1.41A1.41,1.41,0,0,1,29,74.19h0Zm0,0.24a1.17,1.17,0,1,0,1.17,1.17A1.17,1.17,0,0,0,29,74.43Z"/><circle class="cls-55" cx="28.96" cy="75.63" r="0.7"/><path class="cls-50" d="M60.83,74.19a1.41,1.41,0,1,1-1.41,1.41,1.41,1.41,0,0,1,1.41-1.41h0Zm0,0.24A1.17,1.17,0,1,0,62,75.6,1.17,1.17,0,0,0,60.83,74.43Z"/><circle class="cls-55" cx="60.8" cy="75.63" r="0.7"/></svg>