<svg id="Layer_1" data-name="Layer 1" xmlns="http://www.w3.org/2000/svg" viewBox="0 0 90 90"><defs><style>.cls-1{fill:#fff;}.cls-1,.cls-16,.cls-17,.cls-2,.cls-3,.cls-4{fill-rule:evenodd;}.cls-2{fill:#31471f;}.cls-3{fill:#26150e;}.cls-4{fill:#97a543;}.cls-5{fill:#d8d4ce;}.cls-6{fill:#eae7e4;}.cls-7{fill:#f7f6f5;}.cls-8{fill:#a09e9b;}.cls-9{fill:#8f191c;}.cls-10{fill:#f15a29;}.cls-11{fill:#231f1e;}.cls-12{fill:#3b3432;}.cls-13{fill:#58595b;}.cls-14{fill:#071a34;}.cls-15{fill:#53713b;}.cls-16{fill:#628c3e;}.cls-17{fill:#3e5429;}</style></defs><title>welcome-icons</title><path class="cls-1" d="M43.83,90A47.28,47.28,0,0,1,11.36,77.12l-0.92-.88-0.68-.68c-0.46-.47-0.92-1-1.31-1.42L8.35,74a47.72,47.72,0,0,1-5.08-6.87l-0.05-.08c-0.13-.21-0.27-0.45-0.42-0.69L2.55,66a3.69,3.69,0,0,1-.45-1.32,4.32,4.32,0,0,1,.71-3.3,3,3,0,0,1,.45-0.53,2.68,2.68,0,0,1,.47-0.45,9,9,0,0,1,3.88-1.67L8,58.64l0-.79H5.77a2.41,2.41,0,0,1-2.28-3.18L8.67,39.44A2.41,2.41,0,0,1,11,37.81h0a2.41,2.41,0,0,1,2.28,1.63l0.67,2,1.43-4.2a2.41,2.41,0,0,1,4.56,0l0.89,2.61L20.61,26.54a5.84,5.84,0,0,1-.5-3c0.15-1.56,1.34-2.74,3.8-3.74V12a2.41,2.41,0,0,1,0-2.76l1.16-1.63A2.4,2.4,0,0,1,25.7,7l4.41-3a3.59,3.59,0,0,1,0-.37,3.69,3.69,0,0,1,7.39,0c0,0.08,0,.17,0,0.25L42,6.34a2.55,2.55,0,0,1,.31.19l1,0.77A2.41,2.41,0,0,1,44,10.48V17L55.3,7.53a2.41,2.41,0,0,1,3.25.14l13.7,13.71A2.41,2.41,0,0,1,73,23l0.1,2.71a2.41,2.41,0,0,1-.58,1.65v0.2a2.39,2.39,0,0,1-.21,1v8.77l3.55-10.44a2.41,2.41,0,0,1,4.56,0l6.12,18A2.41,2.41,0,0,1,85,47.91a15,15,0,0,1,1.5,15.43c-0.27.55-.56,1.09-0.86,1.63a2.24,2.24,0,0,1-.15.36,47.57,47.57,0,0,1-6.17,8.73l-0.21.2A47.53,47.53,0,0,1,43.83,90Z"/><path class="cls-1" d="M82.27,48.4l0-.05-0.17-.15h0a2.91,2.91,0,0,0-1.15-.64,2.82,2.82,0,0,0-.38-0.07l-0.16,0-1.71-.13-0.07-1.69h5.59l-6.12-18L72,45.64h5.71l-0.09,1.6-7.74-.61h0V27.55h0.21V25.78H69.83l0.81,0,0-.42h0l-0.08-2.29L56.88,9.41h0l0,0L43.66,20.44l-2.08,0V9.7l0.35-.46-1-.77L35,5.37a0.17,0.17,0,0,0,0-.09V5.18A0.18,0.18,0,0,0,34.89,5H34.76a0.18,0.18,0,0,0,0-.08V4.82a0.19,0.19,0,0,0-.17-0.18,1.27,1.27,0,0,0,.44-1,1.29,1.29,0,0,0-2.57,0,1.27,1.27,0,0,0,.44,1,0.19,0.19,0,0,0-.17.18v0.1a0.18,0.18,0,0,0,0,.08H32.67a0.18,0.18,0,0,0-.18.18V5.28a0.16,0.16,0,0,0,0,.06L27,9l-1.16,1.63,0.42,0.24V21.5c-1,.3-3.71,1.24-3.81,2.27A3.35,3.35,0,0,0,23,25.89a1.37,1.37,0,0,1,0-.52l0.41,31-2.05.36-3.09,1.17,0-.79,0-1.13-0.12-2.77h4.73L17.61,38,13.9,48.89l-3-8.68L5.76,55.44H10.6L10.31,60.7l-2.18.35H8.07A6.57,6.57,0,0,0,5.17,62.3a1.85,1.85,0,0,0-.21.23,0.68,0.68,0,0,0-.17.19,1.9,1.9,0,0,0-.33,1.55,1.33,1.33,0,0,0,.16.52l0.24,0.4c0.13,0.22.25,0.43,0.37,0.61h0a45.25,45.25,0,0,0,5,6.78h0c0.36,0.42.78,0.87,1.21,1.31l0.64,0.64L13,75.37A45,45,0,0,0,77.5,72.45h0a45.36,45.36,0,0,0,5.82-8.24h0c0.35-.63.7-1.27,1-1.92A12.46,12.46,0,0,0,82.27,48.4ZM42.22,27.89l1.62-1.3h0ZM43.83,25h0Zm-5,1.46,0.83-.61A5.51,5.51,0,0,1,38.84,26.5Zm-1.78-3.32,1.12,2.08Zm1.58,3,0.08,0.15ZM31.83,62.74l0-6.1,0,0v5.58L34.63,61l-2.76,1.72ZM39.7,25.86l2.75-2.26C41.73,24.2,40.52,25.2,39.7,25.86ZM31.18,9.14l0.35,0v5.53l-0.35.11V9.14Zm8.27,5.67-3-.23H36.27V8.8l3.18,0.53V14.8Zm-8.61,0-3.05.94V10.17l3.05-1v5.65Zm-4.06,7.9a10.58,10.58,0,0,0-2.53,1,7.42,7.42,0,0,1,2.3-.92ZM41.24,10.56v5.22l-1.44-.9V9.45Zm-13.8-.1v5.47l-0.79,1.24V11.5Zm-11.31,45-0.76-2.22h1.89L17,58.4l-5.36,2,0-1.08,0-1.13-0.12-2.77h4.73Z"/><polygon class="cls-2" points="10.95 40.21 5.77 55.44 16.14 55.44 10.95 40.21"/><polygon class="cls-3" points="11.52 58.21 11.22 51.12 13.22 48.59 11.2 50.58 11.06 47.33 10.94 49.53 9.55 48.17 10.92 49.9 10.77 52.56 8.21 50.06 10.73 53.23 10.27 61.49 11.66 61.49 11.57 59.34 11.52 58.21"/><polygon class="cls-4" points="17.62 37.99 12.43 53.22 22.8 53.22 17.62 37.99"/><polygon class="cls-3" points="18.19 55.99 17.88 48.9 19.89 46.37 17.86 48.35 17.72 45.11 17.6 47.31 16.21 45.95 17.58 47.67 17.43 50.34 14.87 47.84 17.39 51.01 16.93 59.27 18.32 59.27 18.23 57.12 18.19 55.99"/><polygon class="cls-5" points="45 25.05 69.86 25.8 56.8 12.81 45 25.05"/><path class="cls-6" d="M35.31,21.64C22.88,22.23,23,25.09,23,25.09L23.48,61.7l8.38-5.08Z"/><polygon class="cls-7" points="31.85 36.19 43.97 26.5 44.71 56.87 31.85 62.21 31.85 36.19"/><polygon class="cls-6" points="43.84 26.5 69.86 27.44 69.86 46.63 44.59 56.87 43.84 26.5"/><polygon class="cls-8" points="43.84 25.02 43.84 26.6 70.07 27.56 70.07 25.78 43.84 25.02"/><polygon class="cls-9" points="31.55 14.71 31.55 8.78 36.28 8.51 36.28 14.71 31.55 14.71"/><rect class="cls-10" x="33.17" y="10.75" width="1.49" height="4.68" rx="0.44" ry="0.44"/><polygon class="cls-5" points="31.41 35.34 31.45 36.51 43.84 26.6 43.85 25.08 31.41 35.34"/><rect class="cls-11" x="26.31" y="10.85" width="0.35" height="10.72"/><polygon class="cls-11" points="26.56 17.32 27.47 15.89 31.72 14.58 36.46 14.58 39.71 14.82 41.52 15.95 41.52 20.77 26.56 21.49 26.56 17.32"/><rect class="cls-11" x="41.25" y="9.66" width="0.35" height="11.01"/><path class="cls-12" d="M41.23,20.48c-10.23-.35-14.58.92-14.58,0.92s-4,1.11-4.15,2.37A3.35,3.35,0,0,0,23,25.89s-0.52-2.1,3.56-3.09c0,0,4.06-1.17,12.26-.75Z"/><path class="cls-9" d="M35.51,20.27l8.16,0.17L56.85,9.37,43,23.16l-3.31,2.72-0.84.62Z"/><polygon class="cls-9" points="33.32 30.59 33.16 31.26 30.13 33.85 33.32 30.59"/><polygon class="cls-5" points="53.17 38.83 53.17 39.89 61.08 40.09 61.07 39.03 53.17 38.83"/><polygon class="cls-13" points="53.45 28.46 53.65 38.82 60.5 39 60.09 28.72 53.45 28.46"/><polygon class="cls-6" points="53.99 29.09 54.15 38.5 59.92 38.66 59.58 29.33 53.99 29.09"/><polygon class="cls-14" points="54.21 29.48 54.36 38.34 59.75 38.5 59.42 29.7 54.21 29.48"/><path class="cls-6" d="M59.75,36.33l-1.62-.08-0.06-2.13,1.58,0.05V33.92l-1.6-.05-0.06-2,1.56,0.06V31.66L58,31.6l-0.06-2.12H57.68l0.06,2.11L56,31.52l0-2.15H55.7l0,2.14-1.55-.06v0.25l1.57,0.06,0,2-1.56-.05V34L55.8,34l0,2.09-1.61-.08v0.25l1.62,0.08,0,2.11h0.25l0-2.09,1.79,0.09,0.06,2.05H58.2l-0.06-2,1.6,0.08V36.33ZM56,31.77l1.75,0.07,0.06,2L56,33.8Zm0.09,4.37L56,34l1.77,0.06,0.06,2.13Z"/><path class="cls-7" d="M30.13,33.85v1.24L43,25l0-1.91s-4.15,3.48-4.2,3.39l-3.34-6.23-2.35,11Z"/><polygon class="cls-13" points="39.71 42.19 39.71 31.67 42.09 29.91 42.09 40.65 39.71 42.19"/><polygon class="cls-6" points="39.86 41.8 39.86 31.95 41.94 30.41 41.94 40.37 39.86 41.8"/><polygon class="cls-14" points="40.02 41.37 40.02 32.15 41.75 30.82 41.75 40.24 40.02 41.37"/><polygon class="cls-13" points="36.2 44.27 36.2 34.36 38.43 32.7 38.43 42.81 36.2 44.27"/><polygon class="cls-6" points="36.34 43.9 36.34 34.66 38.29 33.22 38.29 42.56 36.34 43.9"/><polygon class="cls-14" points="36.49 43.5 36.49 34.85 38.11 33.6 38.11 42.44 36.49 43.5"/><polygon class="cls-13" points="33.03 46.33 33.03 36.71 35.19 35.09 35.19 44.91 33.03 46.33"/><polygon class="cls-6" points="33.16 45.97 33.16 37.02 35.05 35.62 35.05 44.67 33.16 45.97"/><polygon class="cls-14" points="33.31 45.58 33.31 37.2 34.88 35.99 34.88 44.55 33.31 45.58"/><path class="cls-6" d="M41.9,38.47l-0.59.33V36.17L42,35.72l-0.09-.13L41.31,36V33.47L42,33l-0.08-.13-0.59.38V31.09H41.15v2.29l-0.6.39V31.59H40.4v2.29l-0.45.29L40,34.29l0.36-.23V36.6L39.79,37l0.09,0.13,0.52-.35v2.53l-0.6.34,0.08,0.13,0.53-.3v1.69h0.15V39.41l0.6-.34v1.69h0.15V39L42,38.61ZM40.55,34l0.6-.39v2.52l-0.6.41V34Zm0,5.28V36.68l0.6-.41v2.62Z"/><path class="cls-6" d="M38.33,38.2l-0.09-.13-0.54.36V36.09l0.63-.4-0.08-.13-0.54.35v-2H37.55V36L37,36.37v-2H36.84v2.14l-0.42.27,0.08,0.13,0.33-.21V39l-0.57.38,0.09,0.13,0.48-.32v2.36l-0.56.32L36.35,42l0.49-.27v1.58H37V41.66l0.56-.31v1.57h0.15V41.26l0.62-.35-0.08-.13-0.55.31V38.63ZM37,36.55l0.56-.36v2.35L37,38.92V36.55Zm0.56,4.62L37,41.48V39.1l0.56-.37v2.44Z"/><path class="cls-6" d="M35.1,40.45L35,40.32l-0.52.35V38.4L35.1,38,35,37.88l-0.52.34v-2H34.33v2.08l-0.53.34v-2H33.64v2.08l-0.4.26,0.08,0.13,0.32-.21v2.29l-0.55.37,0.09,0.13,0.46-.31v2.29L33.1,44l0.08,0.13,0.47-.26v1.53H33.8V43.8l0.53-.3V45h0.15V43.42l0.6-.34L35,42.94l-0.53.3V40.86Zm-1.3-1.61,0.53-.34v2.28l-0.53.36V38.85Zm0.53,4.48-0.53.3v-2.3L34.33,41v2.36Z"/><polygon class="cls-5" points="35.94 44.37 35.94 45.29 38.82 43.49 38.82 42.51 35.94 44.37"/><polygon class="cls-5" points="32.66 46.44 32.66 47.37 35.53 45.57 35.53 44.58 32.66 46.44"/><polygon class="cls-5" points="39.43 42.27 39.43 43.2 42.3 41.4 42.3 40.41 39.43 42.27"/><polygon class="cls-6" points="43.01 22.86 43.01 25.02 45 25.05 56.78 13.29 69.56 25.77 70.65 25.8 70.55 23.08 56.85 9.37 43.01 22.86"/><polygon class="cls-5" points="70.36 25.79 56.77 11.66 43.01 25.02 43 24.27 56.79 10.82 70.64 25.37 70.65 25.8 70.36 25.79"/><polygon class="cls-9" points="70.55 23.38 56.8 9.42 56.85 9.37 70.55 23.08 70.55 23.38"/><polygon class="cls-9" points="43 23.16 56.89 9.41 56.85 9.37 43 22.86 43 23.16"/><polygon class="cls-8" points="30.13 35.09 31.41 35.34 43.85 25.08 43.84 25.03 43.01 25.02 30.13 35.09"/><polygon class="cls-9" points="33.26 31.08 35.54 20.33 35.51 20.27 33.16 31.26 33.26 31.08"/><polygon class="cls-11" points="26.48 11.73 26.48 11.02 25.89 10.67 27.05 9.04 30.72 7.7 35.6 7.33 40.9 8.47 41.94 9.23 41.42 9.93 41.42 10.69 39.71 9.37 35.76 8.72 30.96 9.16 27.62 10.22 26.48 11.73"/><circle class="cls-11" cx="33.79" cy="3.68" r="1.29"/><polygon class="cls-11" points="27.05 9.04 33.01 5.01 30.72 7.7 27.05 9.04"/><polygon class="cls-11" points="34.35 5.01 35.83 7.38 40.9 8.47 34.35 5.01"/><polygon class="cls-12" points="30.72 7.7 35.83 7.38 34.35 5.01 33.01 5.01 30.72 7.7"/><rect class="cls-11" x="32.5" y="5.01" width="2.57" height="0.45" rx="0.13" ry="0.13"/><rect class="cls-11" x="32.77" y="4.63" width="2.03" height="0.49" rx="0.14" ry="0.14"/><rect class="cls-11" x="27.45" y="9.63" width="0.35" height="6.79"/><rect class="cls-11" x="30.85" y="8.56" width="0.35" height="6.36"/><rect class="cls-11" x="39.46" y="8.77" width="0.35" height="6.21"/><rect class="cls-11" x="35.5" y="8.13" width="0.35" height="6.58"/><path class="cls-15" d="M43.83,87.59a45.07,45.07,0,0,0,40.51-25.3A12.46,12.46,0,0,0,82.28,48.4l0-.05a2.8,2.8,0,0,0-1.84-.89l-10.56-.83-8.9,1.79-8.43,2.47L48,52.64l-3.4,2.22L31.89,62.77l-0.05,0,0-6.27L27.75,56a8.44,8.44,0,0,0-2.46.07l-3.93.69L11.3,60.54l-3.17.51a6.85,6.85,0,0,0-3,1.34,1.37,1.37,0,0,0-.62,1,2,2,0,0,0,.12,1.41A45.05,45.05,0,0,0,43.83,87.59Z"/><path class="cls-16" d="M77.54,72.45L47.48,74.67l-6.83.76-6.54,1.24-19.94-.23a49.79,49.79,0,0,1-3.9-3.86l4.41,1,9.24,0.95L33.78,76l6.44-.8,4.22-1.79,9.44-3,8.68-1,16.17-4.84a9.9,9.9,0,0,1,3.94-.35l0.68,0.08A45.36,45.36,0,0,1,77.54,72.45Z"/><path class="cls-16" d="M5.25,65.79l2.6-.19a8.44,8.44,0,0,0,3.61-1.11l2.24-1.29a11.3,11.3,0,0,1,3.71-1.34l8.89-1.55A7,7,0,0,0,29,59.19l2.08-1.43L27.86,58a4.57,4.57,0,0,1-2.41-.51h0a5.61,5.61,0,0,0-2.32-.63l-1.75-.09-5.24,2-4.81,1.82-3.25.53A6.57,6.57,0,0,0,5.18,62.3h0a1.93,1.93,0,0,0-.53,2.49C4.85,65.14,5.06,65.5,5.25,65.79Z"/><path class="cls-16" d="M69.77,46.63L61,48.42l-8.43,2.47L48,52.64h0l-3.4,2.22L41,57.12l10.19-.74a3.49,3.49,0,0,0,2-.78l1.28-1.05a13.42,13.42,0,0,1,2.67-1.71l1.61-.78a24.17,24.17,0,0,1,4.53-1.66l6.55-1.68a25.36,25.36,0,0,1,7.15-.78l5.21,0.27a2.7,2.7,0,0,0-1.69-.74Z"/><polygon class="cls-17" points="78.1 27.65 71.98 45.64 84.22 45.64 78.1 27.65"/><polygon class="cls-3" points="78.77 48.91 78.41 40.53 80.78 37.55 78.39 39.89 78.22 36.06 78.08 38.65 76.44 37.05 78.06 39.09 77.88 42.23 74.86 39.28 77.84 43.03 77.29 52.78 78.94 52.78 78.83 50.24 78.77 48.91"/></svg>