<svg id="Layer_1" data-name="Layer 1" xmlns="http://www.w3.org/2000/svg" viewBox="0 0 90 90"><defs><style>.cls-1{fill:#fff;}.cls-2{fill:none;}.cls-3{fill:#816a44;}.cls-4{fill:#d77d31;}.cls-5{fill:#a9813c;}.cls-6{fill:#4d4845;}.cls-7{fill:#a0703b;}.cls-8{fill:#db9130;}.cls-9{fill:#ff9f36;}.cls-10{fill:#6ec829;}.cls-11{fill:#bbdc00;}.cls-12{fill:#6a6663;}.cls-13{fill:#f15a29;}.cls-14{fill:#2b3990;}.cls-15{fill:#908c8a;}</style></defs><title>welcome-icons</title><path class="cls-1" d="M45.08,90c-1,0-2,0-3-.1-1.19-.07-2.22-0.2-2.22-0.2l-0.3-.06a44.82,44.82,0,0,1-10-2.39A45.54,45.54,0,0,1,4.44,64.48c-0.47-1-.92-2-1.32-3Q2.68,60.34,2.3,59.2A45,45,0,0,1,.9,54c-0.2-1-.37-2-0.51-3A45.87,45.87,0,0,1,0,44.9V12.31a2.4,2.4,0,0,1,2.4-2.4H12a2.4,2.4,0,0,1,2.4,2.4v4.43l3.38,2.58a2.4,2.4,0,0,1,.94,1.9V25.1h9a2.4,2.4,0,0,1,1.48.51l2.21,1.73a2.4,2.4,0,0,1,.92,1.89v7.12h1.77l1.17-1.66V30.27a2.4,2.4,0,0,1,.88-1.86l1-.82V26.37a2.4,2.4,0,0,1,2.4-2.4H43a2.4,2.4,0,0,1,1.2.32l2.37,1.36a2.4,2.4,0,0,1,1.2,2.08v4a2.47,2.47,0,0,1,.38-0.41L48.48,31V22.33a2.4,2.4,0,0,1,2.4-2.4h2a2.39,2.39,0,0,1,1.63.64L56,22a2.4,2.4,0,0,1,.77,1.76V34.47l0.74,0.73,0.15-.27a2.4,2.4,0,0,1,1.16-1.07l0.62-.27V26.67a2.4,2.4,0,0,1,.88-1.86l0.81-.66V23.43a2.4,2.4,0,0,1,1-1.93l1.53-1.12a2.39,2.39,0,0,1,1.42-.47h5.79V12.85A2.4,2.4,0,0,1,71.75,11l1.29-1V8.36A2.4,2.4,0,0,1,75.43,6h5.69a2.4,2.4,0,0,1,2.4,2.4v7.39h4.11a2.4,2.4,0,0,1,2.4,2.4V48.52q0,0.1,0,.2-0.1,1.14-.25,2.26c-0.14,1-.31,2.06-0.51,3A45.06,45.06,0,0,1,87,61.45c-0.41,1-.85,2-1.32,3A45.46,45.46,0,0,1,60.24,87.36L60,87.47c-0.38.14-.87,0.3-1.32,0.44l-1.06.32-0.3.07c-1.41.4-2.69,0.7-3.9,0.93A45.57,45.57,0,0,1,45.08,90Z"/><path class="cls-1" d="M87.21,18.15H81.12V8.36H75.43v2.72l-2.17,1.77v9.45H65.07l-1.53,1.12v1.86l-1.7,1.38v8.49l-2.05.9-1.65,3.09h-2v-2L54.4,35.46V23.72l-1.5-1.39h-2v9.83l-1.19,1v6.48H47.54L45.36,38.2V27.73L43,26.37H39.54v2.37l-1.89,1.54v5.17l-2.33,3.29H29.91V29.23L27.7,27.5H16.34V21.23L12,17.93V12.31H2.38V44.9a43.08,43.08,0,0,0,.39,5.75Q3,52.1,3.25,53.51a42.37,42.37,0,0,0,1.32,4.93q0.36,1.08.78,2.13Q5.92,62,6.6,63.43h0A42.84,42.84,0,0,0,30.36,85a16.48,16.48,0,0,1,.29-6.6,18.5,18.5,0,0,1,1.63-4.24h0a18.5,18.5,0,0,0-1.63,4.24,16.48,16.48,0,0,0-.29,6.6,42.44,42.44,0,0,0,9.75,2.29v0s1,0.12,2.09.19c1,0.06,1.91.1,2.88,0.1a42.93,42.93,0,0,0,7.9-.73c1.35-.25,2.67-0.58,4-1v0l1-.29,0.06,0c0.41-.13.86-0.27,1.21-0.4v0A42.82,42.82,0,0,0,83.56,63.43q0.68-1.4,1.25-2.86a42.38,42.38,0,0,0,2.1-7.06q0.29-1.41.48-2.86,0.14-1.06.23-2.13h0V18.15H87.21ZM49.81,72l0.09-.22h0L49.81,72q-0.15.4-.27,0.82Q49.66,72.43,49.81,72ZM74.94,61s0,0,0,0h0Zm-0.06-.4h0s0,0,0,0v0Zm-5.31.06,0-.06,0,0ZM24.22,71.32a1.82,1.82,0,0,0-.37-0.75,1.82,1.82,0,0,1,.37.75h0Zm-1.79-1.43a1.83,1.83,0,0,0-1.53.83l-0.16,0h0l0.16,0a1.82,1.82,0,0,1,2.71-.39A1.82,1.82,0,0,0,22.43,69.89Zm-4.17,3a2.19,2.19,0,0,1,1.34-2,2.19,2.19,0,0,0-.91,3.31A2.18,2.18,0,0,1,18.27,72.86Zm14.94-.27h0A31.08,31.08,0,0,1,43,63.43h0A31.07,31.07,0,0,0,33.21,72.59Zm15.94,3.05h0q0,0.41,0,.83Q49.15,76,49.15,75.64Z"/><path class="cls-2" d="M33.85,51.34a3.39,3.39,0,0,0,1.51.36h0a3.39,3.39,0,0,1-1.51-.35h0Z"/><polygon class="cls-2" points="68.92 45.15 70.01 44.09 68.92 45.15 68.92 45.15"/><polygon class="cls-2" points="82.08 32.38 80.78 33.26 80.78 33.26 82.08 32.38"/><polygon class="cls-2" points="83.29 42.78 85.88 40.25 85.88 40.25 83.29 42.78 83.29 45.15 83.29 48.76 83.29 48.76 83.29 45.15 83.29 42.78"/><path class="cls-2" d="M50.56,71.64q-0.14.31-.26,0.63Q50.42,72,50.56,71.64Z"/><path class="cls-2" d="M58.34,60.82a10.8,10.8,0,0,1-1.56,2.86,32,32,0,0,1-2.3,2.69,32,32,0,0,0,2.3-2.69,10.8,10.8,0,0,0,1.56-2.86c1.12-3.24-.41-5.52-2.54-7.06l-0.56-.38,0.56,0.38C57.94,55.3,59.47,57.58,58.34,60.82Z"/><path class="cls-2" d="M49.64,75.88q0,0.41,0,.83Q49.64,76.29,49.64,75.88Z"/><polygon class="cls-2" points="85.54 30 87.7 28.5 87.7 18.39 87.7 18.39 87.7 28.5 85.54 30"/><path class="cls-2" d="M57.62,48.39a1.33,1.33,0,0,1,.11-0.12,1.33,1.33,0,0,0-.11.12h0Z"/><path class="cls-2" d="M60,49.44a1.6,1.6,0,0,1,.39.24A1.6,1.6,0,0,0,60,49.44a1.34,1.34,0,0,0,0-.31,1.14,1.14,0,0,0,0-.19,1.14,1.14,0,0,1,0,.19A1.34,1.34,0,0,1,60,49.44Z"/><polygon class="cls-2" points="79.9 26.71 79.02 25.92 79.02 18.39 79.02 18.39 79.02 25.92 79.9 26.71"/><polygon class="cls-2" points="57.83 48.15 57.67 48.26 57.83 48.15 57.83 48.15"/><polygon class="cls-2" points="28.66 51.45 28.65 51.45 28.65 53.76 28.65 58.68 28.66 58.68 28.66 53.77 28.66 51.45"/><path class="cls-2" d="M88.11,48.76h0Q88,49.84,87.88,50.9h0q0.14-1.06.23-2.13h0Z"/><path class="cls-2" d="M53.5,52.42l0.59,0.29Z"/><path class="cls-2" d="M54.09,52.71L54.68,53Z"/><path class="cls-2" d="M54.68,53l0.57,0.35Z"/><path class="cls-2" d="M52.92,52.16l0.59,0.26Z"/><path class="cls-2" d="M51,51.46l0.51,0.17Z"/><path class="cls-2" d="M54.48,66.37L54,66.85Z"/><path class="cls-2" d="M54,66.85l-0.44.49Z"/><path class="cls-2" d="M52.73,68.33l-0.42.51Z"/><path class="cls-2" d="M72.06,59.67a2.2,2.2,0,0,0-.44,0h0a2.2,2.2,0,0,1,.44,0h0Z"/><path class="cls-2" d="M69.67,60.82a2.2,2.2,0,0,1,.15-0.25,2.21,2.21,0,0,0-.33.73A2.2,2.2,0,0,1,69.67,60.82Z"/><path class="cls-2" d="M75.43,60.68s0,0.09,0,.14a1.91,1.91,0,0,1,0,.29,2.19,2.19,0,0,1,1.32,2h0a2.19,2.19,0,0,0-1.32-2,1.91,1.91,0,0,0,0-.29s0-.09,0-0.14a1.84,1.84,0,0,0-1.84-1.84h0A1.84,1.84,0,0,1,75.43,60.68Z"/><polygon class="cls-3" points="81.61 22.16 83.38 23.93 83.38 31.5 85.54 30 87.7 28.5 87.7 18.39 81.61 18.39 81.61 20.79 81.61 22.16"/><polygon class="cls-4" points="6.47 12.55 6.47 12.55 3.88 12.55 2.87 12.55 2.87 12.55 6.47 12.55"/><polygon class="cls-4" points="2.87 18.99 3.88 18.52 3.88 27.34 6.47 25.33 6.47 12.55 2.87 12.55 2.87 18.99"/><polygon class="cls-4" points="5.18 43.42 7.77 41.59 7.77 36.28 5.18 34.52 5.18 43.42"/><rect class="cls-4" x="9.92" y="12.55" width="2.59"/><polygon class="cls-4" points="16.83 21.48 12.51 18.17 12.51 18.17 16.83 21.48"/><polygon class="cls-4" points="12.51 18.17 12.51 18.17 12.51 12.55 9.92 12.55 9.92 23.26 12.12 24.55 12.12 27.74 12.12 42.12 14.71 39.31 14.71 33.91 16.83 32.04 16.83 27.74 16.83 21.48 12.51 18.17"/><polygon class="cls-5" points="81.61 22.16 81.61 20.79 81.61 18.39 81.61 8.61 79.02 8.61 79.02 18.39 79.02 25.92 79.9 26.71 80.78 27.49 80.78 33.26 82.08 32.38 83.38 31.5 83.38 31.5 83.38 23.93 81.61 22.16"/><path class="cls-3" d="M22.65,35.85v4.77L30,45.15l2.15,1.32A0.87,0.87,0,0,1,33.7,47V47.4l1.67,1V41.16a1.45,1.45,0,1,1,2.91,0V49a1.33,1.33,0,0,1,1.67-1.13,0.87,0.87,0,0,1,1.75,0V48.5a1.59,1.59,0,0,1,.63,2.39H56a1.59,1.59,0,0,1,1.28-2.54l0.23,0,0.15-.12,0.15-.12L58,48l3.69-2.87,0.63-.49V39.71a0.9,0.9,0,0,1,1.81,0v3.54l1-.81A0.54,0.54,0,0,1,65.7,42h0l0.8-.62V37.9l7.21-5.61V22.55H65.56L64,23.67v1.86l-1.7,1.38V35.4l-2.05.9-1.65,3.09h-2v-2l-1.71-1.71V24l-1.5-1.39h-2V32.4l-1.19,1v6.48H48l-2.18-1.45V28l-2.37-1.36H40V29l-1.89,1.54v5.17L35.81,39H30.4V29.47l-2.21-1.73H16.83V32Z"/><path class="cls-6" d="M38.27,49.26v0.19h0A1.44,1.44,0,0,1,38.27,49.26Z"/><path class="cls-4" d="M54.48,66.37L54,66.85l-0.44.49c-0.29.33-.58,0.65-0.87,1l-0.42.51a13.7,13.7,0,0,0-1.76,2.8q-0.14.31-.26,0.63a10.19,10.19,0,0,0-.66,3.61q0,0.41,0,.83c0.17,2.71,1.26,6.05,3.8,10.4A42.76,42.76,0,0,0,84,63.68H56.79A32,32,0,0,1,54.48,66.37Z"/><path class="cls-7" d="M58.34,60.82H70.09c0-.09.29-0.08,0.35-0.16a1.5,1.5,0,0,1,.43-0.1c0.38-.32.36-0.15,0.89-0.15l0.3-.05,0.09,0a2.67,2.67,0,0,1,.29-0.24,1.8,1.8,0,0,1,.35-0.26,0.68,0.68,0,0,1,.38-0.07,1.28,1.28,0,0,1,.56-0.13l0.36,0.11,0.16,0.1c0.63,0.66.26,0.21,0.89,0.83a0.8,0.8,0,0,1,.23.13H85.3a42.37,42.37,0,0,0,2.1-7.06H55.81C57.94,55.3,59.47,57.58,58.34,60.82Z"/><path class="cls-7" d="M40.6,54.3L48,58.68v2.13h0.65s5.88-2.68.39-7.06H41.08A3.43,3.43,0,0,1,40.6,54.3Z"/><path class="cls-8" d="M41.68,50.9v0.92a3.4,3.4,0,0,1-.61,1.94H49a24.29,24.29,0,0,0-4.86-2.86H41.68Z"/><path class="cls-8" d="M64.11,50.9H48.89a19.94,19.94,0,0,1,2.12.56l0.51,0.17c0.44,0.15.91,0.33,1.4,0.54l0.59,0.26,0.59,0.29L54.68,53l0.57,0.35,0.56,0.38H87.4q0.29-1.41.48-2.86H64.11Z"/><path class="cls-8" d="M38.27,50.9v2L39,53.33a1.66,1.66,0,0,0,1-1.51V50.9H38.27Z"/><path class="cls-9" d="M48.61,60.82H5.83q0.57,1.46,1.25,2.86H43.47A54.54,54.54,0,0,1,48.61,60.82Z"/><path class="cls-9" d="M75.38,61.1c0.19,0.08-.21.48-0.05,0.61a3.8,3.8,0,0,1,.71.53,1.18,1.18,0,0,1,.27.35,1.85,1.85,0,0,1,.27.51H69.86a2,2,0,0,1-.07-1.25,2.17,2.17,0,0,1,.06-0.52,2.79,2.79,0,0,1,.24-0.52H58.34a10.8,10.8,0,0,1-1.56,2.86H84q0.68-1.4,1.25-2.86H75.38A1.94,1.94,0,0,1,75.38,61.1Z"/><path class="cls-10" d="M69.49,61.87a2.18,2.18,0,0,0,.37,1.82H76.7a2.19,2.19,0,0,0-1.32-2,1.91,1.91,0,0,0,0-.29s0-.09,0-0.14a1.84,1.84,0,0,0-3.37-1h0a2.2,2.2,0,0,0-.44,0,2.17,2.17,0,0,0-1.4.5A2.2,2.2,0,0,0,69.49,61.87Z"/><path class="cls-10" d="M69.45,61.55a2.18,2.18,0,0,0,.41,1.56h0A2.18,2.18,0,0,1,69.45,61.55Z"/><path class="cls-10" d="M38.29,49.44h0V50.9h1.67V47.84h0A1.33,1.33,0,0,0,38.27,49v0.29A1.44,1.44,0,0,0,38.29,49.44Z"/><path class="cls-10" d="M42.31,50.9a1.59,1.59,0,0,0-.63-2.39V50.9h0.63Z"/><path class="cls-10" d="M24.73,72.58s0.06-.11.1-0.12l-0.12-.06A1.83,1.83,0,0,0,21.39,71a2.19,2.19,0,0,0-2.2,3.44h5.47a2,2,0,0,1-.13-0.72,2.12,2.12,0,0,1,0-.27Z"/><path class="cls-9" d="M38.57,58.28a1.08,1.08,0,0,1,.84.41h3.48l-4.62-2.75v2.39A1.08,1.08,0,0,1,38.57,58.28Z"/><path class="cls-9" d="M25.07,45.15l-5-3.08V34.15l2.59,1.7L16.83,32l-2.12,1.88v5.4l-2.59,2.8V24.55l-2.2-1.29V12.55H6.47V25.33l-2.59,2V18.52l-1,.47V45.15a43.07,43.07,0,0,0,.39,5.75q0.19,1.44.48,2.86a42.38,42.38,0,0,0,1.32,4.93H9.73a2.19,2.19,0,0,1,2.47-1.31,1.83,1.83,0,0,1,3.37,1,1.77,1.77,0,0,1,0,.3h7.93V55.25l1.3-1.49,1.29-1.48V45.75ZM5.18,34.52l2.59,1.75V41.6L5.18,43.42V34.52Z"/><path class="cls-9" d="M28.65,50.9v0.55h0v7.23h6.7v-7a3.39,3.39,0,0,1-1.51-.36h0a3.39,3.39,0,0,1-1.67-1.81l-3.54-2.18V50.9Z"/><path class="cls-4" d="M35.36,49.93V48.43l-1.67-1v0.87A1.67,1.67,0,0,0,35.36,49.93Z"/><path class="cls-4" d="M38.27,53.48A1.65,1.65,0,0,0,39,53.33l-0.69-.41v0.57Z"/><path class="cls-4" d="M9.56,59.52a2.18,2.18,0,0,1,.17-0.84H5.06q0.36,1.08.78,2.13H10A2.18,2.18,0,0,1,9.56,59.52Z"/><path class="cls-4" d="M40.6,54.3a3.4,3.4,0,0,1-2.33.93v0.7l4.62,2.75H39.41l0.07,0.09,0.26,0a1.3,1.3,0,0,1,1,2.08H48V58.68Z"/><path class="cls-4" d="M28.66,58.7v0h0V47.34l3.54,2.18a3.4,3.4,0,0,1-.24-1.25V47a0.87,0.87,0,0,1,.22-0.58L30,45.15l-7.37-4.53V35.85l-2.59-1.7v7.92l5,3.08,1,0.6v6.52l-1.29,1.48-1.3,1.49v3.43H15.53s0,0.09,0,.13a2.19,2.19,0,0,1,1.32,2H35.36V58.7h-6.7Z"/><rect class="cls-4" x="28.66" y="58.68" width="6.7" height="0.02"/><path class="cls-8" d="M60,48.76H62.3V44.66l-0.63.49L58,48A1.33,1.33,0,0,1,60,48.76Z"/><polygon class="cls-8" points="88.11 48.76 88.11 48.76 88.11 48.76 88.11 48.76"/><path class="cls-8" d="M87.7,18.39V28.5L85.54,30l-2.16,1.5-1.3.88-1.3.88h0V27.49l-0.88-.79L79,25.92V8.61h-3.1v2.72L73.75,13.1V32.29L66.54,37.9v3.46l-0.8.62a0.54,0.54,0,0,1,.5.54v2.55s0,0,0,.07a2.12,2.12,0,0,1-2.12,2.05v1.56H65.2l3.72-3.62h0L70,44.09v1.06h0v3.61H83.29v-6l2.59-2.53h0v8.52h2.23V18.39H87.7Z"/><polygon class="cls-8" points="85.54 30 83.38 31.5 83.38 31.5 85.54 30"/><polygon class="cls-8" points="78.91 20.94 78.91 18.39 78.91 18.39 78.91 20.94 76.52 22.55 76.52 22.55 78.91 20.94"/><polygon class="cls-8" points="80.78 33.26 80.78 33.26 80.78 27.49 79.9 26.71 80.78 27.49 80.78 33.26"/><polygon class="cls-8" points="83.38 31.5 83.38 31.5 82.08 32.38 83.38 31.5 83.38 31.5"/><path class="cls-8" d="M57.62,48.39a1.33,1.33,0,0,1,.11-0.12,1.35,1.35,0,0,1,.11-0.12l-0.15.12-0.15.12h0.1Z"/><polygon class="cls-8" points="57.67 48.26 57.52 48.38 57.52 48.38 57.67 48.26"/><path class="cls-8" d="M64.11,46.11a1,1,0,0,0,1-1s0,0,0-.07V42.52a0.54,0.54,0,0,1,0-.09l-1,.81v2.86Z"/><polygon class="cls-5" points="85.88 45.15 85.88 40.25 83.29 42.78 83.29 45.15 83.29 48.76 85.88 48.76 85.88 45.15"/><path class="cls-5" d="M85.88,48.76H70V45.15h0V44.09l-1.09,1.06h0L65.2,48.76H64.11V50.9H87.88q0.14-1.06.23-2.13H85.88Z"/><polygon class="cls-5" points="65.2 48.76 64.11 48.76 64.11 48.76 65.2 48.76 68.92 45.15 68.92 45.15 68.92 45.15 65.2 48.76"/><rect class="cls-5" x="70.01" y="48.76" width="13.28"/><rect class="cls-5" x="85.88" y="48.76" width="2.23"/><rect class="cls-5" x="83.29" y="48.76" width="2.59"/><path class="cls-5" d="M60,48.76a1.61,1.61,0,0,1,0,.18,1.14,1.14,0,0,1,0,.19,1.34,1.34,0,0,1,0,.31,1.59,1.59,0,0,1,1,1.46H62.3V48.76H60Z"/><path class="cls-10" d="M15.51,58.81s0-.08,0-0.13a1.77,1.77,0,0,0,0-.3,1.83,1.83,0,0,0-3.37-1,2.19,2.19,0,0,0-2.63,2.14,2.18,2.18,0,0,0,.43,1.3h6.84A2.19,2.19,0,0,0,15.51,58.81Z"/><path class="cls-10" d="M60.42,49.68A1.6,1.6,0,0,0,60,49.44a1.34,1.34,0,0,0,0-.31,1.14,1.14,0,0,0,0-.19,1.6,1.6,0,0,0,0-.18h0A1.33,1.33,0,0,0,58,48l-0.16.12h0L58,48l-0.16.12a1.35,1.35,0,0,0-.11.12,1.33,1.33,0,0,0-.11.12h-0.1l-0.23,0A1.59,1.59,0,0,0,56,50.9h5A1.59,1.59,0,0,0,60.42,49.68Z"/><path class="cls-10" d="M57.83,48.15h0a1.35,1.35,0,0,0-.11.12A1.35,1.35,0,0,1,57.83,48.15Z"/><path class="cls-10" d="M57.62,48.39h0Z"/><path class="cls-10" d="M61,50.9h0a1.58,1.58,0,0,0-.15-0.69A1.58,1.58,0,0,1,61,50.9Z"/><path class="cls-10" d="M60.05,48.94a1.61,1.61,0,0,0,0-.18h0A1.6,1.6,0,0,1,60.05,48.94Z"/><path class="cls-6" d="M38.27,49.26V49a1.32,1.32,0,0,0,0,.16A1.22,1.22,0,0,0,38.27,49.26Z"/><path class="cls-11" d="M37.51,59.62a1.09,1.09,0,0,1,.76-1.3V55.23a3.42,3.42,0,0,0,3.41-3.41v-4a0.87,0.87,0,0,0-1.75,0h0v4a1.68,1.68,0,0,1-1.67,1.67V49.26a1.22,1.22,0,0,1,0-.13,1.32,1.32,0,0,1,0-.16V41.16a1.45,1.45,0,1,0-2.91,0v8.78a1.67,1.67,0,0,1-1.67-1.67V47a0.87,0.87,0,0,0-1.75,0v1.22a3.4,3.4,0,0,0,.24,1.25,7.16,7.16,0,0,0,1.67,1.81,3.39,3.39,0,0,0,1.51.35h0v7h0v2.12h1.36A1.3,1.3,0,0,1,37.51,59.62Z"/><path class="cls-11" d="M33.18,50.9a3.42,3.42,0,0,0,.67.43,7.16,7.16,0,0,1-1.67-1.81A3.42,3.42,0,0,0,33.18,50.9Z"/><path class="cls-11" d="M35.36,58.68v0h0v-7h0v7Z"/><path class="cls-11" d="M64.11,48.76V47.2a2.12,2.12,0,0,0,2.12-2.05s0,0,0-.07V42.52a0.54,0.54,0,0,0-.5-0.54h0a0.56,0.56,0,0,0-.54.54v2.55s0,0,0,.07a1,1,0,0,1-1,1v-6.4a0.9,0.9,0,0,0-1.81,0v9.05h0V50.9h1.81V48.76h0Z"/><path class="cls-6" d="M55.81,53.76l-0.56-.38L54.68,53l-0.59-.32-0.59-.29-0.59-.26c-0.48-.21-1-0.38-1.4-0.54L51,51.46a19.94,19.94,0,0,0-2.12-.56H44.14A24.29,24.29,0,0,1,49,53.76c5.48,4.38-.39,7.06-0.39,7.06a54.54,54.54,0,0,0-5.14,2.86C30.62,71.81,30.13,80.86,30.85,85.24A42.46,42.46,0,0,0,41.6,87.66l1.09,0.09c1,0.06,1.91.1,2.88,0.1a42.92,42.92,0,0,0,7.9-.73c-2.53-4.34-3.62-7.69-3.8-10.4q0-.43,0-0.83a10.19,10.19,0,0,1,.66-3.61q0.12-.32.26-0.63a13.7,13.7,0,0,1,1.76-2.8l0.42-.51c0.28-.34.57-0.67,0.87-1L54,66.85l0.44-.48a32,32,0,0,0,2.3-2.69,10.8,10.8,0,0,0,1.56-2.86C59.47,57.58,57.94,55.3,55.81,53.76Z"/><path class="cls-10" d="M39.75,58.74l-0.26,0-0.07-.09a1.09,1.09,0,0,0-1.9.94,1.3,1.3,0,0,0-.78,1.2h4.07A1.3,1.3,0,0,0,39.75,58.74Z"/><path class="cls-12" d="M59.66,85.46V72.8H57.43V86.17S58.84,85.76,59.66,85.46Z"/><path class="cls-1" d="M67.76,58.35l0-.07-3.3-3.2c-0.1-.1-0.16,0-0.24,0a5.21,5.21,0,0,1-1.43.68,5,5,0,0,1-2.37.17,4.57,4.57,0,0,1-1.65-.71,0.25,0.25,0,0,0-.31,0,6.3,6.3,0,0,1-.74.42,4.67,4.67,0,0,1-3.83-.07A11,11,0,0,1,52.76,55l-3.43,3.33a8.1,8.1,0,0,1,1.13,2.09,4.32,4.32,0,0,1-.1,3.46c-0.23.5-.48,1-0.72,1.5a6.29,6.29,0,0,0-.43,4.68,4.46,4.46,0,0,0,1.14,2,5.41,5.41,0,0,0,3,1.39c0.9,0.15,1.8.25,2.7,0.4a4,4,0,0,1,2.25,1.12c0.22,0.23.32,0.23,0.54,0A2.9,2.9,0,0,1,60,74.12a12.68,12.68,0,0,1,1.38-.34c0.88-.15,1.78-0.23,2.66-0.41a4.69,4.69,0,0,0,3.19-2,5.5,5.5,0,0,0,.91-3.12,6.89,6.89,0,0,0-.8-3.13c-0.2-.39-0.39-0.78-0.57-1.18a4.3,4.3,0,0,1-.37-2.77A6.7,6.7,0,0,1,67.76,58.35Z"/><path class="cls-1" d="M67.76,58.35a6.7,6.7,0,0,0-1.35,2.87A4.3,4.3,0,0,0,66.77,64c0.18,0.4.37,0.79,0.57,1.18a6.89,6.89,0,0,1,.8,3.13,5.5,5.5,0,0,1-.91,3.12,4.69,4.69,0,0,1-3.19,2c-0.88.17-1.77,0.25-2.66,0.41a12.68,12.68,0,0,0-1.38.34,2.9,2.9,0,0,0-1.19.83c-0.22.22-.32,0.22-0.54,0A4,4,0,0,0,56,73.83c-0.9-.16-1.8-0.26-2.7-0.4a5.41,5.41,0,0,1-3-1.39,4.46,4.46,0,0,1-1.14-2,6.29,6.29,0,0,1,.43-4.68c0.24-.5.48-1,0.72-1.5a4.32,4.32,0,0,0,.1-3.46,8.1,8.1,0,0,0-1.13-2.09L52.76,55a11,11,0,0,0,1.05.56,4.67,4.67,0,0,0,3.83.07,6.3,6.3,0,0,0,.74-0.42,0.25,0.25,0,0,1,.31,0,4.57,4.57,0,0,0,1.65.71,5,5,0,0,0,2.37-.17,5.21,5.21,0,0,0,1.43-.68c0.08-.05.14-0.11,0.24,0l3.3,3.2Zm-9.21,3.6H51.84a0.24,0.24,0,0,0-.29.26,8.1,8.1,0,0,1-.9,3,7.12,7.12,0,0,0-.87,3.2,4.16,4.16,0,0,0,.72,2.45,3.65,3.65,0,0,0,2.23,1.51c1.06,0.23,2.13.37,3.2,0.53a5.12,5.12,0,0,1,2.49.91,0.17,0.17,0,0,0,.24,0A3.93,3.93,0,0,1,60.43,73c1.19-.21,2.39-0.36,3.57-0.58a3.88,3.88,0,0,0,2.6-1.62,4.44,4.44,0,0,0,.64-3.31,8.36,8.36,0,0,0-.85-2.42,8,8,0,0,1-.85-2.83,0.26,0.26,0,0,0-.31-0.28H58.55Zm8.21-3.52v0L64.3,56.09a0.22,0.22,0,0,0-.3,0,5.63,5.63,0,0,1-5.34.08,0.32,0.32,0,0,0-.25,0,5.42,5.42,0,0,1-4.08.39c-0.49-.14-0.95-0.36-1.44-0.55L50.3,58.45l0.15,0.24a6.08,6.08,0,0,1,1,2.14,0.25,0.25,0,0,0,.3.24H65.39a0.22,0.22,0,0,0,.27-0.2,3.57,3.57,0,0,1,.24-0.79C66.16,59.52,66.46,59,66.76,58.43Z"/><path class="cls-13" d="M66.76,58.43c-0.3.56-.59,1.09-0.86,1.64a3.57,3.57,0,0,0-.24.79,0.22,0.22,0,0,1-.27.2H51.73a0.25,0.25,0,0,1-.3-0.24,6.08,6.08,0,0,0-1-2.14l-0.15-.24L52.89,56c0.49,0.19,1,.41,1.44.55a5.42,5.42,0,0,0,4.08-.39,0.32,0.32,0,0,1,.25,0A5.63,5.63,0,0,0,64,56.07a0.22,0.22,0,0,1,.3,0l2.45,2.32v0Zm-11.87,2L54,59.26l0.2-.06a0.74,0.74,0,0,0,.5-0.91A0.63,0.63,0,0,0,54,57.73H52.59V60.4h0.66V59.33c0.26,0.35.48,0.65,0.7,0.94a0.34,0.34,0,0,0,.2.14C54.38,60.43,54.61,60.42,54.89,60.42Zm1.27,0A1.35,1.35,0,1,0,54.86,59,1.33,1.33,0,0,0,56.16,60.42Zm6.12,0H64.1V59.74H63V59.36h1.16V58.76H63V58.42H64.1V57.74H62.28V60.4Zm-4.59-2.66c0,0.65,0,1.28,0,1.91a0.78,0.78,0,0,0,.73.74,2.09,2.09,0,0,0,.69,0,0.78,0.78,0,0,0,.67-0.84c0-.42,0-0.85,0-1.27s0-.57-0.56-0.53l-0.08,0c0,0.08,0,.15,0,0.23,0,0.47,0,.95,0,1.42,0,0.32-.1.42-0.37,0.42a0.36,0.36,0,0,1-.43-0.42c0-.37,0-0.75,0-1.12C58.33,57.67,58.33,57.67,57.68,57.74Zm3,0.61v2h0.69V58.34H62V57.73H60.51c-0.54,0-.54,0-0.51.54a0.39,0.39,0,0,0,0,.08h0.65Z"/><path class="cls-1" d="M54.1,66.1a4,4,0,0,1,1.49-.23A2.51,2.51,0,0,1,58,68a3,3,0,0,1-3,3.66,3.06,3.06,0,0,1-3.19-3.75,9.52,9.52,0,0,1,2.39-4.72c0.23-.26.49-0.5,0.74-0.75a0.17,0.17,0,0,1,.28,0c0.27,0.25.54,0.5,0.81,0.73s0.13,0.2,0,.32a7.39,7.39,0,0,0-1.7,2C54.28,65.7,54.21,65.88,54.1,66.1Zm0.84,4.22a1.55,1.55,0,1,0-1.56-1.56A1.57,1.57,0,0,0,54.95,70.31Z"/><path class="cls-1" d="M63.29,63.37a7.22,7.22,0,0,0-2.11,2.74L61.45,66a3.11,3.11,0,0,1,2.2.11,2.6,2.6,0,0,1,1.46,2.15,3,3,0,0,1-2.25,3.3,3.14,3.14,0,0,1-3.52-1.24,3.19,3.19,0,0,1-.43-2.5A9.87,9.87,0,0,1,62,62.53a0.22,0.22,0,0,1,.36,0C62.65,62.81,63,63.07,63.29,63.37Zm0.26,5.41A1.54,1.54,0,0,0,62,67.23a1.56,1.56,0,0,0,0,3.12A1.54,1.54,0,0,0,63.55,68.79Z"/><path class="cls-14" d="M67.24,67.48a8.36,8.36,0,0,0-.85-2.42,8,8,0,0,1-.85-2.83,0.29,0.29,0,0,0-.1-0.23v0h0a0.41,0.41,0,0,0-.19,0H51.84a0.24,0.24,0,0,0-.29.26,8.1,8.1,0,0,1-.9,3,7.12,7.12,0,0,0-.87,3.2,4.16,4.16,0,0,0,.72,2.45,3.65,3.65,0,0,0,2.23,1.51c1.06,0.23,2.13.37,3.2,0.53a5.12,5.12,0,0,1,2.49.91,0.17,0.17,0,0,0,.24,0A3.93,3.93,0,0,1,60.43,73c1.19-.21,2.39-0.36,3.57-0.58a3.88,3.88,0,0,0,2.6-1.62A4.44,4.44,0,0,0,67.24,67.48ZM55,71.68a3.06,3.06,0,0,1-3.19-3.75,9.52,9.52,0,0,1,2.39-4.72c0.23-.26.49-0.5,0.74-0.75a0.17,0.17,0,0,1,.28,0c0.27,0.25.54,0.5,0.81,0.73s0.13,0.2,0,.32a7.39,7.39,0,0,0-1.7,2c-0.09.17-.16,0.34-0.27,0.56a4,4,0,0,1,1.49-.23A2.51,2.51,0,0,1,58,68,3,3,0,0,1,55,71.68Zm7.82-.08a3.14,3.14,0,0,1-3.52-1.24,3.19,3.19,0,0,1-.43-2.5A9.87,9.87,0,0,1,62,62.53a0.22,0.22,0,0,1,.36,0c0.29,0.28.6,0.55,0.93,0.85a7.22,7.22,0,0,0-2.11,2.74L61.45,66a3.11,3.11,0,0,1,2.2.11,2.6,2.6,0,0,1,1.46,2.15A3,3,0,0,1,62.86,71.6Z"/><path class="cls-1" d="M54.89,60.42c-0.28,0-.51,0-0.73,0a0.34,0.34,0,0,1-.2-0.14c-0.23-.29-0.44-0.59-0.7-0.94V60.4H52.59V57.72H54a0.63,0.63,0,0,1,.71.57,0.74,0.74,0,0,1-.5.91l-0.2.06Zm-1.63-1.68h0.56c0.13,0,.26,0,0.24-0.18a0.36,0.36,0,0,0-.22-0.24,2.94,2.94,0,0,0-.58,0v0.44Z"/><path class="cls-1" d="M56.16,60.42a1.35,1.35,0,1,1,1.33-1.34A1.34,1.34,0,0,1,56.16,60.42Zm0.65-1.35a0.68,0.68,0,0,0-.64-0.72,0.7,0.7,0,0,0-.64.73,0.68,0.68,0,0,0,.64.72A0.67,0.67,0,0,0,56.81,59.07Z"/><path class="cls-1" d="M62.28,60.4V57.74H64.1v0.67H63v0.34h1.16v0.61H63v0.38H64.1V60.4H62.28Z"/><path class="cls-1" d="M57.68,57.74c0.65-.07.65-0.07,0.65,0.54,0,0.37,0,.75,0,1.12a0.36,0.36,0,0,0,.43.42c0.27,0,.37-0.1.37-0.42,0-.47,0-0.95,0-1.42,0-.08,0-0.16,0-0.23l0.08,0c0.57,0,.57,0,0.56.53s0,0.85,0,1.27a0.78,0.78,0,0,1-.67.84,2.09,2.09,0,0,1-.69,0,0.78,0.78,0,0,1-.73-0.74C57.66,59,57.68,58.39,57.68,57.74Z"/><path class="cls-1" d="M60.68,58.35H60a0.39,0.39,0,0,1,0-.08c0-.54,0-0.54.51-0.54H62v0.61H61.37V60.4H60.68v-2Z"/><path class="cls-14" d="M54.95,70.31a1.55,1.55,0,1,1,1.57-1.55A1.57,1.57,0,0,1,54.95,70.31Z"/><path class="cls-14" d="M63.55,68.79A1.54,1.54,0,0,1,62,70.35a1.56,1.56,0,0,1,0-3.12A1.54,1.54,0,0,1,63.55,68.79Z"/><path class="cls-13" d="M53.26,58.74V58.31a2.94,2.94,0,0,1,.58,0,0.36,0.36,0,0,1,.22.24c0,0.14-.11.18-0.24,0.18H53.26Z"/><path class="cls-13" d="M56.81,59.07a0.67,0.67,0,0,1-.63.72,0.68,0.68,0,0,1-.64-0.72,0.7,0.7,0,0,1,.64-0.73A0.68,0.68,0,0,1,56.81,59.07Z"/><path class="cls-1" d="M42.69,87.75l-0.54-3.16-1.56.21v2.77S41.57,87.68,42.69,87.75Z"/><polygon class="cls-1" points="40.42 80.78 42.31 80.78 41.85 77.82 40.74 77.82 40.42 80.78"/><polygon class="cls-1" points="41.2 74.27 42.5 74.35 42.64 72.17 41.9 72.17 41.2 74.27"/><polygon class="cls-1" points="43.4 69.18 44.6 69.27 45.51 67.8 44.94 67.75 43.4 69.18"/><polygon class="cls-1" points="46.74 66 47.52 66 48.3 65.19 47.9 65.06 46.74 66"/><polygon class="cls-1" points="49.86 63.45 50.21 63.65 51.13 62.8 50.84 62.67 49.86 63.45"/><polygon class="cls-1" points="54.6 58.9 54.99 58.92 54.97 58.04 54.63 57.99 54.6 58.9"/><polygon class="cls-1" points="54.63 56.27 54.99 56.14 54.52 55.45 54.23 55.52 54.63 56.27"/><polygon class="cls-1" points="53.11 54.46 53.34 54.3 52.71 53.76 52.49 53.87 53.11 54.46"/><polygon class="cls-1" points="51.26 53.17 51.4 53.02 50.67 52.62 50.56 52.71 51.26 53.17"/><polygon class="cls-1" points="49.25 52.06 49.38 51.9 48.75 51.48 48.6 51.54 49.25 52.06"/><path class="cls-4" d="M43.47,63.68H7.09A42.84,42.84,0,0,0,30.85,85.24C30.13,80.86,30.62,71.81,43.47,63.68ZM19.19,74.4a2.19,2.19,0,0,1,1.76-3.49,2.2,2.2,0,0,1,.44,0,1.83,1.83,0,0,1,3.32,1.43h0l-0.08.07s-0.21,1.23-.2,1.25,0.1,0.47.14,0.68H19.19Z"/><path class="cls-6" d="M27.46,71.84a0.74,0.74,0,0,0-.74.74,0.72,0.72,0,0,0,0,.08A0.74,0.74,0,1,0,27.46,71.84Z"/><path class="cls-6" d="M31.6,69.75a0.17,0.17,0,0,0-.32.07,2.17,2.17,0,0,1-.41,1.43l0.86,0.25A2.44,2.44,0,0,0,31.6,69.75Z"/><path class="cls-1" d="M34.67,73.65a0.75,0.75,0,0,0-.6-0.74l-1-.21a1.12,1.12,0,0,0-.83-1l-0.52-.16-0.86-.25a18.33,18.33,0,0,0-3.93-.76,2.81,2.81,0,0,0-2.25,1.07,2.28,2.28,0,0,1,.88-0.24,0.6,0.6,0,0,1,.5.62,0.75,0.75,0,0,1-.42.66l0,0a6.46,6.46,0,0,1-1.49.35,3,3,0,0,0,0,.38,2.86,2.86,0,0,0,.19,1H27.8a0.61,0.61,0,0,1,1.22,0,0.61,0.61,0,0,1,1.22,0,0.61,0.61,0,0,1,1.22,0,0.61,0.61,0,0,1,1.22,0h1.22A0.75,0.75,0,0,0,34.67,73.65ZM28.08,73a0.73,0.73,0,0,1-1.35-.32,0.72,0.72,0,0,1,0-.08A0.74,0.74,0,1,1,28.08,73Z"/><path class="cls-15" d="M32.08,73.79a0.61,0.61,0,0,0-.61.61h1.22A0.61,0.61,0,0,0,32.08,73.79Z"/><path class="cls-15" d="M30.86,73.79a0.61,0.61,0,0,0-.61.61h1.22A0.61,0.61,0,0,0,30.86,73.79Z"/><path class="cls-15" d="M29.64,73.79a0.61,0.61,0,0,0-.61.61h1.22A0.61,0.61,0,0,0,29.64,73.79Z"/><path class="cls-15" d="M28.41,73.79a0.61,0.61,0,0,0-.61.61H29A0.61,0.61,0,0,0,28.41,73.79Z"/><path class="cls-6" d="M24.52,71.63l-0.15,0a3.73,3.73,0,0,1-2.43,0A1.89,1.89,0,0,1,21,69.83a0.17,0.17,0,0,0-.32-0.07,2.13,2.13,0,0,0,.62,2.73,4.12,4.12,0,0,0,2.81.51,6.46,6.46,0,0,0,1.49-.35l0,0A0.75,0.75,0,0,0,26.08,72a0.6,0.6,0,0,0-.5-0.62,2.28,2.28,0,0,0-.88.24Z"/></svg>