<svg id="Layer_1" data-name="Layer 1" xmlns="http://www.w3.org/2000/svg" viewBox="0 0 90 90"><defs><style>.cls-1{fill:#fff;}.cls-2{fill:#72634f;}.cls-3{fill:#42362a;}.cls-4{fill:#524739;}.cls-5{fill:#8f8271;}.cls-6{fill:#3b3432;}.cls-7{fill:#231f1e;}</style></defs><title>welcome-icons</title><path class="cls-1" d="M27.5,90H12.88a2.41,2.41,0,0,1-.68-0.1,10.29,10.29,0,0,1-6.12-6.27A2.46,2.46,0,0,1,5,82.58C4.62,81.8,4.24,80.4,4.53,76l-0.11-.65a2.46,2.46,0,0,1-.77-0.86c-0.29-.56-0.86-1.68-0.47-7a2.45,2.45,0,0,1-.89-1c-0.69-1.34-.76-4.46-0.2-9.27,0-.2,0-0.39,0-0.59a2.42,2.42,0,0,1-.72-0.92c-0.22-.5-0.87-2,0.26-8.68v0a2.43,2.43,0,0,1-.7-1.14c-0.16-.59-0.56-2,1.35-8.18q0.11-.66.25-1.28A6.19,6.19,0,0,1,8.81,25.88,20.35,20.35,0,0,1,13.7,24.8a2.39,2.39,0,0,1,.71-0.47A6.14,6.14,0,0,1,16.84,24a50.41,50.41,0,0,1,6.84.73H24.9a2.33,2.33,0,0,1,.59-0.36A6.07,6.07,0,0,1,27.9,24a43.76,43.76,0,0,1,6.24.68,2.3,2.3,0,0,1,.5-0.3A6.06,6.06,0,0,1,37.07,24a43.5,43.5,0,0,1,6.35.7H43.5A2.31,2.31,0,0,1,44,24.34,6.07,6.07,0,0,1,46.45,24a43.35,43.35,0,0,1,6.24.68,2.33,2.33,0,0,1,.5-0.3A6.07,6.07,0,0,1,55.62,24c0.58,0,1.24,0,1.9.1q0-.18,0-0.36A5.09,5.09,0,0,1,66,19.92c0.28-.12.57-0.23,0.86-0.33,2.49-1,5.8-2.27,7.59-2.27a4,4,0,0,1,.7.06,2.4,2.4,0,0,1,1.08.5,9.65,9.65,0,0,1,2.15-.27,4.23,4.23,0,0,1,1,.11,2.44,2.44,0,0,1,1.29.82l0.69,0a5,5,0,0,1,1.66.24,2.35,2.35,0,0,1,.34.15,5.08,5.08,0,0,1,5.13,8.44A15.4,15.4,0,0,1,88.22,38c-1.18,4.09-2.07,5.22-2.85,5.82a2.45,2.45,0,0,1-.56.32c-1.65,4.71-2.58,5.48-3,5.87a2.46,2.46,0,0,1-.73.41c-1.48,4-2.36,4.77-2.77,5.11a2.51,2.51,0,0,1-1.56.56A2.36,2.36,0,0,1,76,56c-0.93,2.19-1.55,2.92-2.08,3.36a2.51,2.51,0,0,1-1.43.56l-0.65.92L68,81.92a5.75,5.75,0,0,1,3.76,5.59,2.39,2.39,0,0,1-2.39,2.39H51.54c-0.24,0-4-.17-5.86-4.81A2.51,2.51,0,0,1,44,83.72c-0.22-.46-0.71-1.5-0.32-5.82A2.44,2.44,0,0,1,43,77c-0.23-.48-0.74-1.59-0.26-6.37A2.42,2.42,0,0,1,42,69.8c-0.21-.44-0.56-1.2-0.46-3.9-3.28,1.72-4.35,1.72-4.82,1.72a2.49,2.49,0,0,1-1.34-.41C32.06,69,31,69,30.5,69a2.38,2.38,0,0,1-.65-0.09L29.5,69V81.36C32,82.15,34.8,84,35,87.49A2.39,2.39,0,0,1,32.59,90H27.5Z"/><path class="cls-1" d="M85.89,27.15c-0.12-.27-0.27-0.52-0.41-0.77A2.69,2.69,0,1,0,82.35,23a10.13,10.13,0,0,0-2.27-1.11,5.36,5.36,0,0,1,2.17-.72,0.06,0.06,0,0,0,0-.12,12.09,12.09,0,0,0-4.33.33,10.31,10.31,0,0,0-1.25-.09H76.53a5.45,5.45,0,0,1,2.3-1.09,0.06,0.06,0,0,0,0-.12c-1-.25-3.93.6-5.82,1.21h-0.7a5.48,5.48,0,0,1,2.41-1.4,0.06,0.06,0,0,0,0-.12c-1.33-.24-5.72,1.55-7,2.09a10.09,10.09,0,0,0-2.5,1.26,2.69,2.69,0,1,0-2.94,3.27c-0.11.2-.23,0.39-0.33,0.6l0,0.06H61.56c-1.24-.22-6.14-1-7.41-0.48a0.06,0.06,0,0,0,0,.12,5.18,5.18,0,0,1,1.77.37H52.49c-1-.18-6.2-1.06-7.51-0.5a0.06,0.06,0,0,0,0,.12,5.22,5.22,0,0,1,1.81.39h-3.6c-0.73-.13-6.25-1.1-7.62-0.51a0.06,0.06,0,0,0,0,.12,5.25,5.25,0,0,1,1.85.41H34.12s-6.24-1.15-7.7-.53a0.06,0.06,0,0,0,0,.12,5.28,5.28,0,0,1,1.89.43H23.48C23,27,16.75,25.94,15.35,26.54a0.06,0.06,0,0,0,0,.12,5.3,5.3,0,0,1,1.94.45H15.13l-0.9.05-0.22,0a18,18,0,0,0-4.89,1.14c-0.06,0,0,.12.05,0.11a4.8,4.8,0,0,1,1.25-.08,9.28,9.28,0,0,0-1.24.82,3.79,3.79,0,1,0-3.88,6,23.38,23.38,0,0,0-.72,3.12c-0.47,1.53-1.71,5.76-1.37,7a0.06,0.06,0,0,0,.12,0,5.33,5.33,0,0,1,.74-1.93C4,44.62,4,45.93,4,47.28c-0.17,1-1,6.21-.46,7.52a0.06,0.06,0,0,0,.12,0,5.36,5.36,0,0,1,.52-2.13c0.09,1.55.2,3.11,0.34,4.67h0S3.71,64,4.44,65.45a0.06,0.06,0,0,0,.12,0,5.46,5.46,0,0,1,.53-2.51c0.17,1.46.35,2.88,0.54,4.26-0.16,2-.34,5.28.16,6.26a0.06,0.06,0,0,0,.12,0,5.32,5.32,0,0,1,.32-2c0.25,1.69.5,3.22,0.72,4.56-0.14,2-.23,4.69.21,5.56a0.06,0.06,0,0,0,.12,0,5.26,5.26,0,0,1,.28-1.89l0.14,0.82c1,6,5.19,7.21,5.19,7.21H27.11c0-.11-0.07-0.2-0.11-0.3l0.49,0.3h5.1c-0.19-3.75-5.48-4.33-5.48-4.33V67.67l0.21-.24a45.45,45.45,0,0,1,4.66-2,5.21,5.21,0,0,1-1.53,1,0.06,0.06,0,0,0,0,.12c1.08,0,3.92-1.51,5.63-2.5,1-.3,2-0.57,2.85-0.81a5.48,5.48,0,0,1-2.26,1.83,0.06,0.06,0,0,0,0,.12c1.28,0,5-2.12,6.43-3L44.23,62l0,0.23c-0.23,1.89-.59,5.47-0.1,6.52a0.06,0.06,0,0,0,.12,0,5.45,5.45,0,0,1,.6-2.45l0.42,2.78c-0.22,1.7-.69,5.84-0.15,7a0.06,0.06,0,0,0,.12,0,5.48,5.48,0,0,1,.7-2.64l0.34,2.24c-0.21,1.61-.72,5.94-0.17,7.1a0.06,0.06,0,0,0,.12,0A5.49,5.49,0,0,1,47,80l0.24,1.54c0.87,5.87,4.33,6,4.33,6H69.33c0-3.75-4.14-3.75-4.14-3.75l4.41-23.9c0.73-1,1.45-2.06,1.92-2.8q0.64-.65,1.26-1.32a5.15,5.15,0,0,1-.48,1.7,0.06,0.06,0,0,0,.09.08,10.21,10.21,0,0,0,1.75-3.3c1-1.19,2-2.41,2.95-3.6a5.51,5.51,0,0,1-.47,3,0.06,0.06,0,0,0,.09.08c1-.81,2.33-4.8,2.84-6.41l1.07-1.54a5.42,5.42,0,0,1-.51,2.35,0.06,0.06,0,0,0,.09.08c0.87-.72,2.05-4,2.66-5.84,0.63-1,1-1.67,1.12-1.84L84.37,40a5.25,5.25,0,0,1-.55,1.8,0.06,0.06,0,0,0,.09.08c0.74-.57,1.53-2.89,2-4.7A13,13,0,0,0,85.89,27.15Z"/><circle class="cls-2" cx="84.91" cy="23.74" r="2.69"/><circle class="cls-2" cx="62.6" cy="23.7" r="2.69"/><circle class="cls-3" cx="62.77" cy="23.72" r="1.71"/><circle class="cls-3" cx="84.84" cy="23.81" r="1.71"/><path class="cls-2" d="M76.68,21.24H71.06A9.92,9.92,0,0,0,62,27a13.06,13.06,0,1,0,23.93.19A10,10,0,0,0,76.68,21.24Z"/><path class="cls-4" d="M27.11,63.47V83.28s5.29,0.58,5.48,4.33H27.5L19.8,82.89l1-18.08,6.54-3.75Z"/><path class="cls-4" d="M70.49,55.1L65.2,83.76s4.14,0,4.14,3.75H63.75l-8.85-3.08L59.23,57.6Z"/><path class="cls-2" d="M84,40.43S72.6,60.2,61.93,63.85L59.23,84.24s5.58,0.29,4.91,3.27H51.54s-3.46-.1-4.33-6L44.23,62S25,65.77,21.53,72c0,0-1.15,7.31.58,11.83a5.08,5.08,0,0,1,5,3.75H12.88s-4.23-1.25-5.19-7.21S0.37,40.29,6.91,31.82a7.57,7.57,0,0,1,.74-1.12,9.49,9.49,0,0,1,7.5-3.6L62.31,27Z"/><path class="cls-2" d="M82.61,28.6a3,3,0,0,1-3,3H68.32a3,3,0,0,1-3-3h0a3,3,0,0,1,3-3H79.58a3,3,0,0,1,3,3h0Z"/><circle class="cls-2" cx="6.19" cy="31.49" r="3.8"/><path class="cls-5" d="M78.83,35.36a4.93,4.93,0,0,1-4.93,4.93h0A4.93,4.93,0,0,1,69,35.36V31.75a4.93,4.93,0,0,1,4.93-4.93h0a4.93,4.93,0,0,1,4.93,4.93v3.61Z"/><path class="cls-6" d="M76.84,34a2.26,2.26,0,0,1-2.26,2.26H73.33A2.26,2.26,0,0,1,71.07,34h0a2.26,2.26,0,0,1,2.26-2.26h1.25A2.26,2.26,0,0,1,76.84,34h0Z"/><circle class="cls-7" cx="72.6" cy="34.76" r="0.48"/><circle class="cls-7" cx="75.1" cy="34.71" r="0.48"/><circle class="cls-6" cx="67.89" cy="28.46" r="0.87"/><circle class="cls-6" cx="79.84" cy="28.43" r="0.87"/><path class="cls-2" d="M44.42,61.05s-0.93,6.28-.26,7.72a0.06,0.06,0,0,0,.12,0,5.47,5.47,0,0,1,1.61-3.84Z"/><path class="cls-2" d="M45.41,68.33S44.48,74.6,45.15,76a0.06,0.06,0,0,0,.12,0,5.47,5.47,0,0,1,1.61-3.84Z"/><path class="cls-2" d="M46.39,75s-0.93,6.28-.26,7.72a0.06,0.06,0,0,0,.12,0,5.47,5.47,0,0,1,1.61-3.84Z"/><path class="cls-2" d="M4.51,57.31S3.71,64,4.44,65.45a0.06,0.06,0,0,0,.12,0A5.47,5.47,0,0,1,6,61.51Z"/><path class="cls-2" d="M5.76,65.7s-0.7,6.31,0,7.72a0.06,0.06,0,0,0,.12,0,5.47,5.47,0,0,1,1.46-3.9Z"/><path class="cls-2" d="M7.13,73.77s-0.7,6.31,0,7.72a0.06,0.06,0,0,0,.12,0,5.47,5.47,0,0,1,1.46-3.9Z"/><path class="cls-2" d="M4,47.1s-1.12,6.24-.49,7.7a0.06,0.06,0,0,0,.12,0A5.47,5.47,0,0,1,5.37,51Z"/><path class="cls-2" d="M4.76,37.73s-2,6-1.54,7.56a0.06,0.06,0,0,0,.12,0,5.47,5.47,0,0,1,2.23-3.52Z"/><path class="cls-2" d="M86.55,34.94s-1.38,6-2.64,7a0.06,0.06,0,0,1-.09-0.08,5.47,5.47,0,0,0,.34-4.15Z"/><path class="cls-2" d="M83.3,41.07s-1.83,6.07-3.06,7.09a0.06,0.06,0,0,1-.09-0.08,5.47,5.47,0,0,0,.19-4.16Z"/><path class="cls-2" d="M79.79,46.6S78,52.67,76.74,53.69a0.06,0.06,0,0,1-.09-0.08,5.47,5.47,0,0,0,.19-4.16Z"/><path class="cls-2" d="M75.47,50.42s-1.83,6.07-3.06,7.09a0.06,0.06,0,0,1-.09-0.08,5.47,5.47,0,0,0,.19-4.16Z"/><path class="cls-2" d="M72.12,56.12s-3.3,5.42-4.74,6.09a0.06,0.06,0,0,1-.07-0.1,5.47,5.47,0,0,0,1.23-4Z"/><path class="cls-2" d="M67.11,60s-3.3,5.42-4.74,6.09A0.06,0.06,0,0,1,62.3,66a5.47,5.47,0,0,0,1.23-4Z"/><path class="cls-2" d="M43.67,61.92s-5.39,3.35-7,3.3a0.06,0.06,0,0,1,0-.12,5.47,5.47,0,0,0,2.89-3Z"/><path class="cls-2" d="M37.44,63.27s-5.39,3.35-7,3.3a0.06,0.06,0,0,1,0-.12,5.47,5.47,0,0,0,2.89-3Z"/><path class="cls-2" d="M28.93,65.45s-3.88,5-5.38,5.53a0.06,0.06,0,0,1-.06-0.11,5.47,5.47,0,0,0,1.66-3.82Z"/><path class="cls-2" d="M74.62,22.07s6.14-1.58,7.65-1.06a0.06,0.06,0,0,1,0,.12,5.47,5.47,0,0,0-3.65,2Z"/><path class="cls-2" d="M67.35,22s5.82-2.53,7.38-2.25a0.06,0.06,0,0,1,0,.12,5.47,5.47,0,0,0-3.3,2.55Z"/><path class="cls-2" d="M71.33,21.82s6-2.16,7.51-1.78a0.06,0.06,0,0,1,0,.12,5.47,5.47,0,0,0-3.45,2.34Z"/><path class="cls-2" d="M61.85,27.07s-6.24-1.15-7.7-.53a0.06,0.06,0,0,0,0,.12A5.47,5.47,0,0,1,58,28.39Z"/><path class="cls-2" d="M52.68,27.07s-6.24-1.15-7.7-.53a0.06,0.06,0,0,0,0,.12,5.47,5.47,0,0,1,3.78,1.74Z"/><path class="cls-2" d="M43.29,27.07s-6.24-1.15-7.7-.53a0.06,0.06,0,0,0,0,.12,5.47,5.47,0,0,1,3.78,1.74Z"/><path class="cls-2" d="M34.12,27.07s-6.24-1.15-7.7-.53a0.06,0.06,0,0,0,0,.12,5.47,5.47,0,0,1,3.78,1.74Z"/><path class="cls-2" d="M23.53,27.1s-6.72-1.18-8.18-.56a0.06,0.06,0,0,0,0,.12,5.47,5.47,0,0,1,3.78,1.74Z"/><path class="cls-2" d="M16.75,27.14a17.82,17.82,0,0,0-7.63,1.18c-0.06,0,0,.12.05,0.11a5.47,5.47,0,0,1,4.08.86Z"/></svg>