<svg id="Layer_1" data-name="Layer 1" xmlns="http://www.w3.org/2000/svg" viewBox="0 0 90 90"><defs><style>.cls-1{fill:#fff;}.cls-2{fill:#4f2972;}.cls-3{fill:#662d91;}.cls-4{fill:#8352a1;}.cls-5{fill:#d8d4ce;}.cls-6{fill:#f15e22;}.cls-7{fill:#f07522;}.cls-8{fill:#f8952b;}.cls-9{fill:#f7d161;}</style></defs><title>welcome-icons</title><path class="cls-1" d="M58.34,90c-2.27,0-3.77-1.5-5-2.7a12.69,12.69,0,0,0-1.11-1c-0.92-.7-2.58-2.17-4.51-3.87-2.18-1.92-4.64-4.09-6.22-5.32s-2.31-1.45-2.68-1.45a1.82,1.82,0,0,0-1.11.55c-0.73.57-1.47,1.22-2.25,1.91a35.66,35.66,0,0,1-4.31,3.42,20.83,20.83,0,0,0-3.71,3.21c-0.56.56-1.18,1.18-1.92,1.89C23.12,88.93,21.19,90,19.28,90a5.06,5.06,0,0,1-3.34-1.28c-2.67-2.27-1.29-5.52-.29-7.89,0.24-.56.49-1.15,0.72-1.77,0.34-.91.74-2.06,1.17-3.29,1-2.95,2.2-6.29,3-8,1.29-2.67,1.53-4,.81-4.51a39.67,39.67,0,0,0-4.1-2.42c-1.08-.57-2.19-1.17-3.52-2a55.33,55.33,0,0,0-9.31-4.56C2.69,53.67.62,52.4,0.11,50.33a4.07,4.07,0,0,1,1.29-4c2.08-2,4.81-2.25,6.95-2.25,0.92,0,2,.06,3.24.18,0.65,0.06,1.35.09,2.12,0.09,1.11,0,2.3-.06,3.56-0.13,1.54-.08,3.29-0.17,5.29-0.17,0.93,0,1.81.06,2.67,0.12,0.69,0,1.36.1,2,.1A2.87,2.87,0,0,0,28.79,44c0.83-.62.95-1,1.41-2.85,0.14-.58.31-1.24,0.53-2,0.38-1.3.67-2.56,1-3.9,0.42-1.84.9-3.93,1.69-6.4,0.17-.54.33-1.07,0.49-1.57C35,23.76,36,20.38,39.46,20.38a4.57,4.57,0,0,1,.73.06c3.92,0.62,4.84,5.48,5.73,10.17,0.33,1.76.71,3.16,1.08,4.52a47,47,0,0,1,1.19,5.25C48.9,45,51.07,45,52,45h3.15c-0.06-.72-0.14-1.42-0.22-2.15-0.15-1.33-.32-2.84-0.38-4.69,0-.4,0-0.78,0-1.14-0.11-2.59-.26-6.14,3.16-6.77a3.9,3.9,0,0,1,.68-0.06c2.86,0,4.57,3,6.23,5.81,0.62,1.06,1.19,1.89,1.74,2.69a33.62,33.62,0,0,1,2,3.26c0.39,0.73,1.18,2,2.09,2a2,2,0,0,0,.64-0.13l9.22-3.24c0.38-.14.81-0.32,1.24-0.5a11.68,11.68,0,0,1,4.32-1.21A4,4,0,0,1,90,43.11c-0.17,2.07-1.87,3.5-3.25,4.65l-0.45.38a74.38,74.38,0,0,0-6.71,7.27l-0.1.13a7.71,7.71,0,0,0,1.08,1.85c1.43,2,4,5.3,5.4,7l1,1.28c0.18,0.23.37,0.45,0.54,0.66,0.79,0.92,2.87,3.36.51,5.88a4.26,4.26,0,0,1-3.17,1.42h0a7.13,7.13,0,0,1-3.08-.89,7.75,7.75,0,0,0-.89-0.39c-0.8-.26-2.25-0.85-3.93-1.53-1.88-.76-4-1.62-5.32-2.06a5.32,5.32,0,0,0-1.53-.35h0a0.56,0.56,0,0,0-.35.34c-0.35.55-.69,1.15-1,1.75a25.78,25.78,0,0,1-2.12,3.36A13.9,13.9,0,0,0,65,76.79c-0.24.5-.51,1.07-0.84,1.71a10.5,10.5,0,0,1-2.09,3c0.12,0.35.25,0.69,0.38,1,0.63,1.63,1.94,5-1.61,6.87A5.33,5.33,0,0,1,58.34,90Z"/><path class="cls-1" d="M78.61,58.77c-1.75-2.5-2-3.57-.88-4.88a77.61,77.61,0,0,1,7-7.57c1.54-1.33,3.84-3,2.43-4.59-1.18-1.37-4.06.36-6,1.06L71.89,46c-2.61.92-4.43-.71-5.64-3s-2.33-3.45-3.75-5.89-2.83-4.88-4.4-4.59S56.87,35,57,38.07s0.5,5,.63,7.4c0,0.78.11,1.38,0.16,1.91H52c-3.94,0-5.63-3-6.19-6.64s-1.5-5.74-2.25-9.69-1.5-7.89-3.75-8.25S37,25.5,35.68,29.63,34,36.65,33,39.88s-0.82,4.62-2.81,6.1c-1.69,1.26-4.64.52-7.66,0.52-4.69,0-7.87.51-11.2,0.2-4-.38-6.61-0.2-8.3,1.42s0.19,3.23,2.06,3.77a56.26,56.26,0,0,1,9.94,4.84c2.81,1.79,4.64,2.4,7.69,4.49,2.63,1.79,1.13,5.2,0,7.53s-3,8.07-4.13,11.12-2.81,5.56-1.12,7,3.65,0.63,6.37-2,3.75-3.95,6-5.38,4.31-3.59,6.37-5.2,3.75-1.44,6.75.9,8.83,7.73,10.71,9.17,3.38,4.24,6,2.87c2.06-1.08.75-2.87,0-5.2-0.09-.29-0.3-0.9-0.58-1.7,1-.08,1.93-1.07,2.87-2.92a27.43,27.43,0,0,1,2.72-5c1.16-1.47,2-3.38,3-4.93s2.15-1.82,4.68-1,7.65,3.06,9.23,3.58,3.22,2,4.64.5c1.11-1.19-.17-2.07-1.21-3.44C84.45,66.36,80.56,61.55,78.61,58.77ZM55,67.68c-0.87-3.11-1-4.75-.11-5.9L55.74,62c2.16,0.58,2,3.18,1.75,5s-0.11,5.84-.14,8.16C56.49,72.55,55.58,69.76,55,67.68Z"/><path class="cls-2" d="M30.22,46c2-1.48,1.87-2.87,2.81-6.1s1.33-6.12,2.65-10.25,1.87-7.18,4.12-6.82,3,4.31,3.75,8.25,1.69,6.1,2.25,9.69,2.25,6.64,6.19,6.64H65.92c3,0,7.68-1,8.62,1.44,1.13,2.87-2.74,4-5.44,5a110.57,110.57,0,0,0-13,6.86c-2.06,1.26-2.3,2.79-1.12,7,1.31,4.66,4.26,13,4.71,14.35,0.75,2.33,2.06,4.13,0,5.2-2.62,1.37-4.12-1.43-6-2.87S46,77.52,43,75.19s-4.69-2.51-6.75-.9-4.13,3.77-6.37,5.2-3.37,2.87-6,5.38-4.69,3.41-6.37,2,0-3.95,1.12-7,3-8.79,4.13-11.12,2.63-5.74,0-7.53c-3.05-2.09-4.87-2.69-7.69-4.49a56.28,56.28,0,0,0-9.94-4.84c-1.87-.54-3.75-2.15-2.06-3.77s4.31-1.79,8.3-1.42c3.33,0.31,6.51-.2,11.2-0.2C25.58,46.49,28.54,47.23,30.22,46Z"/><path class="cls-3" d="M31,47c1.84-1.37,1.82-3.45,2.69-6.44s1.24-5.67,2.45-9.49S37.72,23.65,39.8,24s2.61,4.54,3.3,8.19S45,38,45.52,41.34s2,6.61,5.66,6.61,9.57,0.12,12.35.12,7.72-1.49,8.59.74c1,2.66-3.16,2.93-5.65,3.91a104.13,104.13,0,0,0-12.1,6.36c-1.91,1.16-1.42,3.32-.33,7.19,1.21,4.32,3.95,12,4.36,13.28,0.69,2.16,1.91,3.82,0,4.82-2.43,1.27-4.25-2.44-6-3.77s-7.14-6.33-9.91-8.49-4.72-1.46-6.63,0S32,75.63,30,77s-3.12,2.66-5.55,5-3.53,3.4-5.09,2.07,0-3.65,1-6.47,2.78-8.14,3.82-10.29,2.78-5.77.35-7.43c-2.82-1.93-4.51-2.49-7.12-4.15a52.19,52.19,0,0,0-9.2-4.48c-1.74-.5-3.82-1.53-2.26-3s3.51-1.16,7.2-.81c3.08,0.29,5.81-.24,10.15-0.24C26.1,47.09,29.44,48.13,31,47Z"/><path class="cls-4" d="M39.53,24.06c-1,1.28-.53,4.8-0.36,6.76A31.41,31.41,0,0,1,39,36.69c-0.18,1.6-.18,5-0.36,5.69s-0.18,4.27-.53,5.51-0.89,3-2.31,3-4.62-1.24-5.87-.89-3.38.89-4.8,0.36-5-1.42-6-1.25a19.19,19.19,0,0,1-3.2,0c-1.24,0-4.09-.18-4.09-0.18s-4.94-1.44-5.85-.81,2.11,0.28,4.78,1.16,6.4,1.07,9.24,1.25,4.27,1.42,7.29,1.6,6.76,0,7.29.36,1.42,2.67.71,3.73-2.13,4.62-3.56,6.22a51.08,51.08,0,0,0-5,7.65c-0.89,1.78-3.73,5.51-4.27,6.4S20,82,19.44,83.09s-0.36,2,1.42-.89,2.67-5.33,4.27-6.93a40,40,0,0,0,4.09-5.87c0.71-1.07,3-3.2,3.38-3.91s2-2.31,2.84-3.73l2.67-4.27s2.49-1.6,3.2,0,4.62,6.4,5.69,8.71,2.49,5.87,3.73,7.29a23.25,23.25,0,0,1,3.38,4.62c0.53,1.24,2.49,3.55,3,4.8S59.61,85.4,58,82s-3-4.8-3.38-5.69a13.38,13.38,0,0,0-1.42-3.55c-0.89-1.24-2-2.13-2.67-3.38s-0.36-1.6-.89-2.84-1.24-2.49-1.6-3.2S45.93,61.58,45.75,61s-3.2-4.09-2.49-5,3.91-2.31,5.51-2.49,5.16-.18,6.93-0.71,7.47-1.07,8.18-1.24,4.8-1.42,5.87-1.6,4.37-1.18,2.36-1.21-5.38,0-7.16.86-3.38.53-5,.89a20.34,20.34,0,0,1-4.27.89c-1.42,0-4.09.18-5.51,0.35s-5,.89-6.4.89-3-.36-3.2-2-1.42-4.62-.89-7.29a68,68,0,0,0,.71-7.65c0.18-2-.36-5.16-0.36-7.47S40.16,23.27,39.53,24.06Z"/><path class="cls-4" d="M40.22,29.45a2.69,2.69,0,0,0,1.12-2.53,1.2,1.2,0,0,0-1-1.17,0.36,0.36,0,0,0-.24-0.12A2.12,2.12,0,0,0,37.91,28,1.61,1.61,0,0,0,40.22,29.45Zm-1.66,5.81a2.39,2.39,0,0,0,3-1.13,2.1,2.1,0,0,0-.71-2.49h0a0.41,0.41,0,0,0-.32-0.4C38.73,31,36.16,34.36,38.55,35.26Zm0.16,7.18a2.9,2.9,0,0,0,2-.5,4,4,0,0,0,.89-1.19c0.35-.67.69-1.93-0.25-2.12A0.44,0.44,0,0,0,41,38.48h-0.4l0,0c-1.33-1.1-3,.33-3.55,1.54a2,2,0,0,0-.13,1.89A2.07,2.07,0,0,0,38.71,42.45Zm3.6,3.12a1.78,1.78,0,0,0-1.69-1.2,3.2,3.2,0,0,0-2.2.58,2,2,0,0,0-.85.44,2.85,2.85,0,0,0-.87,2.1c0.06,1.6,2.58,1.51,3.72,1.36C41.94,48.66,42.58,46.85,42.31,45.57Zm5.37,10a2.58,2.58,0,0,0,2.37-2.37c0.17-1.38-1.55-2.36-2.74-2.59a1.76,1.76,0,0,0-1.71.55,1.57,1.57,0,0,0-.25,1.07,0.36,0.36,0,0,0-.2.34C45.18,53.88,46.14,55.6,47.68,55.57Zm7.85-1a1.83,1.83,0,0,0,1.7-.78,1.9,1.9,0,0,0-.16-2,3.36,3.36,0,0,0-.76-0.89c-0.25-.22-0.47-0.46-0.72-0.68a1.84,1.84,0,0,0-1.91.11,1.47,1.47,0,0,0-1.18,1.92A3.48,3.48,0,0,0,55.53,54.53Zm4.68-4.7a0.47,0.47,0,0,0-.66.08c-0.59.8,0.15,2.1,0.73,2.72s1.84,1.39,2.8.84c1.12-.63.59-2.26,0.07-3.08A2,2,0,0,0,60.21,49.82Zm9.44,0.09a1.73,1.73,0,0,0-1.44-1.31,2.15,2.15,0,0,0-2.1.82,1.62,1.62,0,0,0,.45,2.11,2,2,0,0,0,2.27.24l0,0A1.39,1.39,0,0,0,69.65,49.92ZM57,78.38a0.43,0.43,0,0,0-.37-0.21H55.48a0.4,0.4,0,0,0-.41.49c-1.44.78-1.72,3.4,0.34,3.66a2.38,2.38,0,0,0,2.39-1.69A1.71,1.71,0,0,0,57,78.38Zm-2.72-6.09a4.9,4.9,0,0,0-2.37-1,0.38,0.38,0,0,0-.31.11,2.21,2.21,0,0,0-2.09,1.11,1.88,1.88,0,0,0,.87,2.78,4.26,4.26,0,0,0,2.3.15A3,3,0,0,0,54.32,74,1.31,1.31,0,0,0,54.27,72.29Zm-3.64-6.78c-0.27-1.73-2.09-1.43-3.42-1.4a0.41,0.41,0,0,0-.41.45,2.24,2.24,0,0,0-1.58,2.15c-0.07,1.47,2.07,2,3.24,1.79A2.59,2.59,0,0,0,50.64,65.52ZM47,59c-0.24-1.37-2.31-1.52-3.42-1.53a0.39,0.39,0,0,0-.37.2c-1.15.22-2.34,1-2,2.29a2.67,2.67,0,0,0,3.38,2.07A2.8,2.8,0,0,0,47,59ZM31,54.86c1.54,0,2.49-1.7,2.51-3a0.36,0.36,0,0,0-.2-0.34,1.58,1.58,0,0,0-.25-1.07,1.75,1.75,0,0,0-1.71-.54c-1.2.24-2.9,1.22-2.73,2.6A2.58,2.58,0,0,0,31,54.86Zm-7.85-1a3.48,3.48,0,0,0,3-2.29A1.48,1.48,0,0,0,25,49.64a1.84,1.84,0,0,0-1.91-.1c-0.25.22-.46,0.46-0.72,0.68a3.37,3.37,0,0,0-.75.89,1.9,1.9,0,0,0-.16,2A1.83,1.83,0,0,0,23.17,53.84Zm-4.7-4.69a2,2,0,0,0-2.94.58c-0.52.82-1,2.45,0.08,3.08,1,0.54,2.14-.15,2.8-0.86s1.32-1.92.72-2.72A0.47,0.47,0,0,0,18.47,49.16Zm-8-1.18A1.73,1.73,0,0,0,9,49.29a1.39,1.39,0,0,0,.79,1.84l0,0a2,2,0,0,0,2.27-.25,1.62,1.62,0,0,0,.44-2.11A2.16,2.16,0,0,0,10.47,48Zm13,29.73A0.33,0.33,0,0,0,23,77.31l-1.27.28a0.65,0.65,0,0,0-.41.31,1.94,1.94,0,0,0-.88,2.45,2.1,2.1,0,0,0,2.65,1.11C25.37,80.68,25.06,78.13,23.46,77.7Zm3.16-7a0.38,0.38,0,0,0-.31-0.1,4.89,4.89,0,0,0-2.36,1,1.31,1.31,0,0,0,0,1.69,3,3,0,0,0,1.65,1.44,4.27,4.27,0,0,0,2.29-.16,1.88,1.88,0,0,0,.86-2.78A2.21,2.21,0,0,0,26.62,70.69Zm5.13-6.83a0.41,0.41,0,0,0-.41-0.45c-1.33,0-3.15-.32-3.41,1.41a2.59,2.59,0,0,0,2.19,3c1.17,0.18,3.31-.33,3.23-1.8A2.24,2.24,0,0,0,31.75,63.85ZM35.5,57a0.39,0.39,0,0,0-.37-0.2c-1.11,0-3.18.17-3.42,1.54a2.8,2.8,0,0,0,2.46,3,2.67,2.67,0,0,0,3.37-2.08C37.84,58,36.65,57.2,35.5,57Z"/><path class="cls-5" d="M38.77,28.14c1,0.57,2.31-.51,1.75-1.18a1.64,1.64,0,0,0-1.13-.67C38.57,26.71,37.8,27.58,38.77,28.14Zm-0.21,6.07c0.77,0.57,2.62-.46,2.26-1.18a1.2,1.2,0,0,0-1.49-.82C38.46,32.39,37.8,33.64,38.57,34.21Zm2.31,5.4a1.67,1.67,0,0,0-2.11-.82c-0.73.34-1.59,1.29-.93,2.06S41.34,40.48,40.88,39.61Zm-1.75,5.6c-0.75.15-1.75,0.41-1.59,1.49s3.86,1.44,3.75-.05A1.71,1.71,0,0,0,39.13,45.21Zm8.33,8.54c1.44,0.2,2.42-1.13,1.44-1.9s-2.11-1.23-2.62-.26A1.38,1.38,0,0,0,47.46,53.75Zm8.79-2.06a1.56,1.56,0,0,0-2.06-1.08c-0.8.31-1.29,1.13-.05,2.16A1.22,1.22,0,0,0,56.25,51.69Zm5.14-1.8c-0.46,0-1.8.67-1,1.7s3,1.08,2.62-.2S62.17,49.84,61.4,49.89Zm7.25-.57c-1-.62-0.93-0.41-1.54-0.1a0.84,0.84,0,0,0,.36,1.59C68.49,51,69.62,49.94,68.64,49.33ZM43.2,58.27c-0.73.26-1.65,1.34-.57,2.21s4-.46,3.08-1.54A1.93,1.93,0,0,0,43.2,58.27Zm6.43,6.84c-0.72-1-1.75-.46-2.31-0.26-0.86.32-1.44,1.13-.72,1.8C47.55,67.54,50.57,66.47,49.62,65.11Zm2,6.63c-0.72.1-2.36,0.87-1.85,1.85s4.27,0.36,3.29-1S51.63,71.74,51.63,71.74Zm4,7.2c-0.59.22-1.39,1.23-.67,2s2.83-.72,2.16-1.54A1,1,0,0,0,55.59,78.94ZM29.62,51c-1,.77,0,2.11,1.44,1.9a1.38,1.38,0,0,0,1.18-2.16C31.73,49.79,30.6,50.25,29.62,51Zm-5.3-1.23a1.56,1.56,0,0,0-2.06,1.08,1.22,1.22,0,0,0,2.11,1.08C25.61,50.92,25.13,50.1,24.33,49.79Zm-7.2-.72c-0.77-.05-1.23.21-1.59,1.49s1.85,1.23,2.62.21S17.59,49.1,17.13,49.07Zm-5.71-.67c-0.62-.31-0.57-0.51-1.54.1S10,50.2,11.06,50A0.84,0.84,0,0,0,11.42,48.4Zm23.91,9a1.93,1.93,0,0,0-2.52.67c-0.87,1.08,2,2.42,3.08,1.54S36.05,57.71,35.33,57.45ZM31.21,64c-0.57-.21-1.59-0.77-2.31.26-0.95,1.36,2.07,2.44,3,1.54C32.65,65.16,32.08,64.34,31.21,64ZM26.9,70.92s-0.46-.46-1.44.87,2.78,2,3.29,1S27.62,71,26.9,70.92Zm-4,7.2a1,1,0,0,0-1.49.41c-0.67.82,1.44,2.26,2.16,1.54S23.52,78.34,22.94,78.12Z"/><path class="cls-6" d="M57.15,50.17c1-1.45.57-2.34,0.44-4.69S57,41.11,57,38.07s-0.43-5.19,1.14-5.48,3,2.15,4.4,4.59,2.54,3.65,3.75,5.89,3,3.87,5.64,3l9.22-3.24c2-.7,4.86-2.43,6-1.06,1.41,1.64-.89,3.27-2.43,4.59a77.61,77.61,0,0,0-7,7.57c-1.07,1.31-.88,2.38.88,4.88,2,2.78,5.84,7.59,6.46,8.41,1,1.37,2.33,2.25,1.21,3.44-1.42,1.52-3.07,0-4.64-.5s-6.7-2.73-9.23-3.58-3.69-.57-4.68,1-1.85,3.45-3,4.93a27.43,27.43,0,0,0-2.72,5c-1.2,2.36-2.31,3.35-3.76,2.79s-0.92-2.61-.88-4.89-0.06-6.52.14-8.32,0.4-4.41-1.75-5c-2.51-.67-3.85-0.65-6.13-1.18a39.5,39.5,0,0,0-7.71-.89c-1.37.08-3-.55-2.24-2s2.44-2.19,5.17-2.87c2.28-.57,4.27-1.65,7.37-2.74C54.2,51.59,56.32,51.39,57.15,50.17Z"/><path class="cls-7" d="M57.89,50.64c0.9-1.34.4-2.71,0.28-4.89s-0.5-4-.59-6.85-0.68-5.26.78-5.53,2.78,2.4,4.09,4.66,2.61,3.43,3.73,5.51,2.87,3.91,5.29,3.06,6.37-2.15,8.21-2.79,4.76-2.78,5.86-1.51c1.31,1.52-1.41,2.68-2.83,3.9a73.09,73.09,0,0,0-6.53,7c-1,1.21-.17,2.53,1.45,4.84,1.81,2.58,5.41,7,6,7.78,1,1.27,2.15,2.08,1.12,3.19-1.31,1.4-3.38-.63-4.84-1.1s-6.2-2.53-8.54-3.31A3.27,3.27,0,0,0,67,66.18c-0.92,1.43-1.72,3.2-2.79,4.56a25.41,25.41,0,0,0-2.52,4.59c-1.11,2.18-1.54,3.07-2.89,2.56s-0.85-2.42-.82-4.53-0.06-6,.13-7.71,0.5-4.47-1.5-5c-2.32-.62-3.57-0.6-5.68-1.09a36.63,36.63,0,0,0-7.14-.83c-1.27.07-2.89-.13-2.2-1.48s2.06-1.58,4.58-2.21c2.11-.52,3.79-1.51,6.66-2.52C54.67,51.87,57.13,51.78,57.89,50.64Z"/><path class="cls-8" d="M58.21,33.49c-0.38,1.08.76,3.3,1.34,4.56A22,22,0,0,1,60.79,42c0.25,1.1,1,3.34,1.09,3.85s0.88,2.87.93,3.77,0.12,2.21-.83,2.54-3.35.25-4.09,0.78a6.14,6.14,0,0,1-3.1,1.35,14.29,14.29,0,0,0-4.29.58,13.47,13.47,0,0,1-2.12.75c-0.82.29-2.75,0.83-2.75,0.83s-3.61.2-4.06,0.83S43,56.95,45,56.91a28,28,0,0,0,6.41-1.33c1.92-.55,3.16-0.05,5.2-0.64s4.47-1.57,4.91-1.46a2.65,2.65,0,0,1,1.34,2.31c-0.22.87-.34,3.56-0.91,4.95A35.86,35.86,0,0,0,60.45,67c-0.17,1.38-1.19,4.52-1.34,5.23s-0.36,4.23-.47,5.06,0.22,1.38.73-.92,0.52-4.15,1.21-5.58a28,28,0,0,0,1.34-4.84c0.22-.87,1.26-2.82,1.33-3.38s0.76-2,1-3.13L65,56s1.28-1.64,2.12-.75,4.55,3.16,5.8,4.44,3,3.31,4.17,4a16.32,16.32,0,0,1,3.31,2.27c0.64,0.7,2.48,1.77,3.12,2.47s2.23,1.07.38-.8a46.14,46.14,0,0,0-3.56-3,9.39,9.39,0,0,0-1.77-2c-0.88-.62-1.79-1-2.55-1.62a12.22,12.22,0,0,1-1.25-1.68c-0.64-.7-1.4-1.36-1.8-1.75s-1.83-.68-2.07-1-3.07-2-2.81-2.72a8.53,8.53,0,0,1,3.07-2.93,34,34,0,0,0,4.43-2.09c1.05-.77,4.7-2.45,5.13-2.73S83.6,44,84.26,43.64s2.62-1.8,1.28-1.35S82,43.52,81,44.52s-2.11,1.14-3.09,1.75a14.28,14.28,0,0,1-2.62,1.58c-0.94.33-2.67,1.07-3.57,1.52s-3.09,1.75-4,2.08-2.08.47-2.57-.55-2-2.73-2.29-4.62a47.7,47.7,0,0,0-1.31-5.23c-0.34-1.34-1.44-3.33-2-4.86S58.44,32.82,58.21,33.49Z"/><path class="cls-8" d="M59.92,36.9A1.89,1.89,0,0,0,60.07,35a0.84,0.84,0,0,0-.93-0.55,0.25,0.25,0,0,0-.19,0A1.49,1.49,0,0,0,58,36.44,1.13,1.13,0,0,0,59.92,36.9Zm0.25,4.24a1.68,1.68,0,0,0,1.74-1.45,1.47,1.47,0,0,0-1.05-1.48h0a0.29,0.29,0,0,0-.3-0.19C59.29,38.27,58.37,41.09,60.17,41.14Zm1.78,4.72a2,2,0,0,0,1.21-.79,2.78,2.78,0,0,0,.31-1c0.08-.53,0-1.44-0.66-1.34a0.31,0.31,0,0,0-.26,0l-0.26.09h0c-1.14-.42-1.88.91-2,1.85a1.4,1.4,0,0,0,.35,1.29A1.45,1.45,0,0,0,61.95,45.86Zm3.11,1.23a1.25,1.25,0,0,0-1.4-.4,2.24,2.24,0,0,0-1.32.9,1.37,1.37,0,0,0-.46.49,2,2,0,0,0-.09,1.59c0.41,1,2.06.4,2.78,0A1.88,1.88,0,0,0,65.06,47.09Zm5.88,5.37a1.81,1.81,0,0,0,1-2.13c-0.21-1-1.57-1.2-2.42-1.08a1.23,1.23,0,0,0-1,.76,1.1,1.1,0,0,0,.09.77,0.25,0.25,0,0,0-.05.27A2,2,0,0,0,70.94,52.46Zm5-2.52A1.28,1.28,0,0,0,76.84,49a1.34,1.34,0,0,0-.57-1.26,2.36,2.36,0,0,0-.71-0.41c-0.22-.09-0.42-0.2-0.63-0.28a1.29,1.29,0,0,0-1.24.52,1,1,0,0,0-.33,1.54A2.44,2.44,0,0,0,75.9,49.94Zm2-4.21a0.33,0.33,0,0,0-.42.21c-0.21.67,0.59,1.36,1.12,1.63a1.74,1.74,0,0,0,2.05-.09c0.6-.68-0.13-1.63-0.67-2.06A1.38,1.38,0,0,0,77.9,45.73Zm6.27-2.13a1.21,1.21,0,0,0-1.26-.53,1.51,1.51,0,0,0-1.2,1,1.14,1.14,0,0,0,.79,1.29A1.39,1.39,0,0,0,84.06,45l0,0A1,1,0,0,0,84.17,43.6Zm-1.75,21.8a0.3,0.3,0,0,0-.3-0.06l-0.76.27a0.28,0.28,0,0,0-.16.42c-0.77.85-.34,2.65,1.08,2.35a1.67,1.67,0,0,0,1.19-1.67A1.2,1.2,0,0,0,82.42,65.39ZM79.2,62a3.44,3.44,0,0,0-1.8-.12,0.27,0.27,0,0,0-.18.14,1.55,1.55,0,0,0-1.12,1.22,1.32,1.32,0,0,0,1.22,1.64,3,3,0,0,0,1.56-.43,2.1,2.1,0,0,0,.75-1.34A0.92,0.92,0,0,0,79.2,62Zm-4-3.64c-0.58-1.08-1.72-.46-2.59-0.13a0.29,0.29,0,0,0-.17.39,1.57,1.57,0,0,0-.55,1.79c0.3,1,1.83.82,2.56,0.43A1.82,1.82,0,0,0,75.22,58.35ZM71.3,54.91c-0.48-.85-1.89-0.47-2.62-0.22a0.27,0.27,0,0,0-.19.22,1.46,1.46,0,0,0-.82,2,1.88,1.88,0,0,0,2.72.59A2,2,0,0,0,71.3,54.91Zm-11.55,1a2,2,0,0,0,1-2.57,0.25,0.25,0,0,0-.21-0.18,1.11,1.11,0,0,0-.42-0.65,1.23,1.23,0,0,0-1.26,0c-0.74.44-1.64,1.49-1.2,2.36A1.81,1.81,0,0,0,59.75,55.86ZM54.31,57a2.44,2.44,0,0,0,1.46-2.22,1,1,0,0,0-1.23-1,1.29,1.29,0,0,0-1.29.38c-0.12.2-.2,0.41-0.32,0.62a2.37,2.37,0,0,0-.29.76A1.34,1.34,0,0,0,53,56.91,1.28,1.28,0,0,0,54.31,57Zm-4.2-2a1.38,1.38,0,0,0-1.81,1.07c-0.15.67-.12,1.87,0.77,2a1.74,1.74,0,0,0,1.65-1.22c0.24-.55.42-1.58-0.16-2A0.33,0.33,0,0,0,50.11,55Zm-5.57,1.08a1.21,1.21,0,0,0-.65,1.2,1,1,0,0,0,1,1h0a1.38,1.38,0,0,0,1.44-.69,1.14,1.14,0,0,0-.2-1.5A1.51,1.51,0,0,0,44.54,56.09ZM60.06,72.75a0.23,0.23,0,0,0-.39-0.15l-0.78.48a0.45,0.45,0,0,0-.2.3,1.36,1.36,0,0,0,0,1.82,1.47,1.47,0,0,0,2,.12A1.37,1.37,0,0,0,60.06,72.75Zm0.46-5.38a0.27,0.27,0,0,0-.23,0A3.43,3.43,0,0,0,59,68.6a0.92,0.92,0,0,0,.37,1.13,2.1,2.1,0,0,0,1.43.57,3,3,0,0,0,1.48-.64,1.32,1.32,0,0,0-.08-2A1.55,1.55,0,0,0,60.52,67.37Zm1.81-5.72a0.29,0.29,0,0,0-.38-0.2c-0.89.29-2.16,0.52-1.93,1.73a1.82,1.82,0,0,0,2.14,1.47c0.82-.16,2.11-1,1.72-1.95A1.57,1.57,0,0,0,62.32,61.65Zm0.88-5.42a0.27,0.27,0,0,0-.29,0C62.18,56.44,60.85,57,61,58a2,2,0,0,0,2.33,1.43,1.88,1.88,0,0,0,1.75-2.17A1.46,1.46,0,0,0,63.2,56.23Z"/><path class="cls-9" d="M58.66,36.37c0.78,0.15,1.41-.88.88-1.19a1.15,1.15,0,0,0-.9-0.18C58.19,35.46,57.88,36.22,58.66,36.37Zm1.28,4.07c0.64,0.19,1.63-.92,1.22-1.31a0.84,0.84,0,0,0-1.18-.2C59.44,39.26,59.29,40.24,59.93,40.43Zm2.79,3a1.17,1.17,0,0,0-1.59-.05c-0.41.39-.76,1.22-0.13,1.58S63.23,43.94,62.72,43.47Zm0.15,4.12c-0.46.27-1.06,0.68-.71,1.36S65.05,49,64.64,48A1.2,1.2,0,0,0,62.87,47.59Zm7.5,3.71c1-.2,1.34-1.31.51-1.59s-1.68-.33-1.8.44A1,1,0,0,0,70.37,51.3Zm5.34-3.41a1.1,1.1,0,0,0-1.61-.24c-0.46.39-.59,1,0.47,1.44A0.85,0.85,0,0,0,75.72,47.89Zm3-2.39c-0.3.13-1,.86-0.29,1.36s2.23,0,1.69-.75S79.2,45.29,78.7,45.5Zm4.67-2.06c-0.79-.18-0.71-0.06-1,0.29a0.59,0.59,0,0,0,.61,1C83.66,44.6,84.16,43.62,83.37,43.44ZM68.6,55.29a0.89,0.89,0,0,0,.14,1.6c0.92,0.33,2.51-1.23,1.68-1.74A1.35,1.35,0,0,0,68.6,55.29Zm5.85,3a1.2,1.2,0,0,0-1.59.37c-0.5.41-.69,1.09-0.06,1.36C73.64,60.42,75.39,59,74.45,58.32Zm2.87,3.93c-0.45.24-1.36,1.13-.79,1.66s2.91-.76,2-1.41S77.32,62.25,77.32,62.25Zm4.3,3.84a0.9,0.9,0,0,0,0,1.45c0.64,0.31,1.71-1.14,1.07-1.52A0.73,0.73,0,0,0,81.62,66.09ZM57.92,53.65c-0.47.74,0.49,1.4,1.4,0.92a1,1,0,0,0,.28-1.71C59,52.34,58.39,52.91,57.92,53.65Zm-3.79.42A1.1,1.1,0,0,0,53,55.26a0.85,0.85,0,0,0,1.65.22C55.24,54.52,54.73,54.09,54.13,54.07Zm-4.93,1.2c-0.52.15-.77,0.42-0.71,1.36S50,57,50.27,56.15,49.51,55.18,49.2,55.27Zm-3.93.89c-0.48-.06-0.49-0.21-1,0.43s0.5,1.09,1.13.71A0.59,0.59,0,0,0,45.26,56.15ZM63.2,56.58a1.35,1.35,0,0,0-1.51,1c-0.33.92,1.89,1.13,2.4,0.3A0.89,0.89,0,0,0,63.2,56.58ZM62,61.89a1.2,1.2,0,0,0-1.47.71c-0.31,1.12,1.94,1.13,2.37.32C63.22,62.31,62.65,61.9,62,61.89Zm-1.26,5.57s-0.41-.2-0.75.91,2.29,0.65,2.41-.12S61.25,67.36,60.75,67.46Zm-0.95,5.69a0.73,0.73,0,0,0-.89.62c-0.25.7,1.48,1.16,1.79,0.52A0.9,0.9,0,0,0,59.81,73.15Z"/></svg>