<svg id="Layer_1" data-name="Layer 1" xmlns="http://www.w3.org/2000/svg" viewBox="0 0 40.11 54.55"><defs><style>.cls-1{fill:#414042;}</style></defs><title>breakfast</title><path class="cls-1" d="M541.08,224.37h-1.22a17.77,17.77,0,0,0,.13-2.09c0-4.92-1.92-11.12-5-16.18-3.73-6.1-8.45-9.46-13.28-9.46s-9.55,3.36-13.28,9.46c-3.1,5.06-5,11.26-5,16.18a17.76,17.76,0,0,0,.13,2.09H502.3a0.66,0.66,0,0,0-.66.66,20,20,0,0,0,12.83,18.71,9.89,9.89,0,0,0-2.68,6.77,0.66,0.66,0,0,0,.66.66h18.48a0.66,0.66,0,0,0,.66-0.66,9.89,9.89,0,0,0-2.68-6.77,20,20,0,0,0,12.83-18.68v0A0.66,0.66,0,0,0,541.08,224.37Zm-32.88,0a12.79,12.79,0,0,1-.17-2.09c0-7.9,6.61-21,13.66-21s13.66,13.1,13.66,21a12.78,12.78,0,0,1-.17,2.09h-27Zm13.48,16.41a1.66,1.66,0,0,1,0-3.32,12.4,12.4,0,0,0,11.52-7.75,1.66,1.66,0,0,1,3.07,1.25A15.7,15.7,0,0,1,521.69,240.78Z" transform="translate(-501.63 -196.63)"/></svg>