<svg id="Layer_1" data-name="Layer 1" xmlns="http://www.w3.org/2000/svg" viewBox="0 0 56.48 51.69"><defs><style>.cls-1{fill:#414042;}</style></defs><title>sleep</title><path class="cls-1" d="M522.35,73a61.38,61.38,0,0,0-24.06,4.64v14.7l4-1.53c0.9-4.53,2-6.77,4.94-7.43s7-1.08,9.66-.23c1.92,0.62,3.33,3.08,4,5.22,0.51,0,1,0,1.52,0h0c0.51,0,1,0,1.52,0,0.63-2.13,2-4.6,4-5.22,2.64-.85,6.58-0.46,9.66.23s4,2.9,4.94,7.43l4,1.53V77.61A61.38,61.38,0,0,0,522.35,73Z" transform="translate(-494.11 -69.67)"/><path class="cls-1" d="M522.35,92.67a72,72,0,0,0-28.24,5.44v23.25h5.2l4.16-5.82a132.67,132.67,0,0,0,18.87,1.33h0a132.67,132.67,0,0,0,18.87-1.33l4.16,5.82h5.2V98.11A72,72,0,0,0,522.35,92.67Z" transform="translate(-494.11 -69.67)"/><path class="cls-1" d="M522.35,69.67a60,60,0,0,0-9.32.74V81.1c3,0.26,6.07.42,9.32,0.42h0c3.25,0,6.35-.16,9.32-0.42V70.41A60,60,0,0,0,522.35,69.67Z" transform="translate(-494.11 -69.67)"/></svg>