<svg id="Layer_1" data-name="Layer 1" xmlns="http://www.w3.org/2000/svg" viewBox="0 0 57.17 57.72"><defs><style>.cls-1{fill:#414042;fill-rule:evenodd;}</style></defs><title>vegetable-servings</title><path class="cls-1" d="M331.74,79.43a3.88,3.88,0,0,0-3.16-6.85c0.16-1.46-.26-2.71-1.23-3.19-1.18-.58-2.77.18-3.91,1.71a1.89,1.89,0,0,0-3.38-1.35,1.86,1.86,0,0,0-.12-0.28,1.89,1.89,0,0,0-3.53,1.05,2.37,2.37,0,0,0-3.78.55,4.67,4.67,0,0,0,0-.48c-0.26-1.68-1.17-2.94-2-2.8a1.61,1.61,0,0,0-1.07,1.39h0a2.27,2.27,0,0,0-.28-1.34,2.3,2.3,0,0,0-3.13-.88,2.26,2.26,0,0,0-1.13,1.59,1.27,1.27,0,0,0-2.14.77c-0.39-1-1-1.71-1.67-1.61a1.67,1.67,0,0,0-1.06,1.58,2.32,2.32,0,0,0-.19-0.45,3.21,3.21,0,0,0-6,1.62c-1.49-.33-2.84,0-3.09.91a1.24,1.24,0,0,0,.1.84c-1.05-.26-2,0-2.21.6s0.34,1.28,1.23,1.71a3.21,3.21,0,0,0-1.75.45c-1.13.63-1.74,1.67-1.38,2.33l0.09,0.11a1.38,1.38,0,0,0-1.17.08,1.39,1.39,0,0,0-.53,1.89,1.51,1.51,0,0,0,.13.18,2.73,2.73,0,0,0-3.74,3.72,2.29,2.29,0,0,0,.48.6,1.88,1.88,0,0,0-.9.77c-0.67,1.18.21,2.94,1.94,4a1.78,1.78,0,0,0-1.38,1.17,1.63,1.63,0,0,0,.35,1.36,2.4,2.4,0,0,0-2.89.76,2.1,2.1,0,0,0,.22,2.19,1.37,1.37,0,0,0-.16.21,2,2,0,0,0,.44,2.18,2.69,2.69,0,0,0-1.95,2.76,2,2,0,0,0-.24.11,2.75,2.75,0,0,0,1.09,5.13,1.78,1.78,0,0,0,2.16,2.78,1.62,1.62,0,0,0,.28-0.19,1.33,1.33,0,0,0,.16.68,1.28,1.28,0,0,0,1.75.49,1,1,0,0,0,.18-0.12,2,2,0,0,0,.19.49,2.14,2.14,0,0,0,4-1.31h0.18a2,2,0,0,0,.24.73,2.11,2.11,0,0,0,1.84,1.08,2.2,2.2,0,0,0,.26.93,2.14,2.14,0,0,0,2.91.82,2.12,2.12,0,0,0,1-1.18,1.75,1.75,0,0,0,1.3-.17,1.76,1.76,0,0,0,.43-2.76,1.74,1.74,0,0,0,1.57-.08,1.65,1.65,0,0,0,.41-0.41c3.91,2.65,10.16,7.92,13,16,1.22,2.53,3,2.42,5.5,1.62s4.26-1.82,3.5-4.19-4.5-11.94-2.81-21a18.53,18.53,0,0,1,1.28-4.07h0a2.92,2.92,0,0,0,1.38-.09,2.57,2.57,0,0,0,2.19,1.32c1.37-.08,2.41-1.64,2.59-3.64a3.44,3.44,0,0,0,5.86-3.59,3.35,3.35,0,0,0-1-1.12,1.88,1.88,0,0,0,.18-3.08c2.34-.83,3.81-2.71,3.28-4.21A2,2,0,0,0,331.74,79.43Zm-31.06,24.21a1.69,1.69,0,0,0-1.13-1.66,1.28,1.28,0,0,0,.57-1.56l0.08,0a1.28,1.28,0,0,0-.56-2.4,4.23,4.23,0,0,0-.15-1.59,3.49,3.49,0,0,0,.59-0.54,1.62,1.62,0,0,0,.09-0.15c2.44,3.77,5.61,9.17,7.15,14A38,38,0,0,0,300.68,103.64ZM304.62,96a3.49,3.49,0,0,0,1.65-1.76,2.85,2.85,0,0,0,1.56,0,2.14,2.14,0,0,0,.36-0.28,92.64,92.64,0,0,0,2.35,11.94C309.52,103.16,307,99.31,304.62,96Zm8.11,8.17A115.21,115.21,0,0,1,311.14,92l-0.09-.94-0.09-1a1.26,1.26,0,0,0,.33-0.53,8.3,8.3,0,0,0,1.77.27,0.6,0.6,0,0,1,0,.86,2.49,2.49,0,0,0-.43,3.06c0.39,0.52,1.41.48,2.25,0.34A31.39,31.39,0,0,0,312.73,104.15Z" transform="translate(-276.03 -66.65)"/></svg>