<svg id="Layer_1" data-name="Layer 1" xmlns="http://www.w3.org/2000/svg" xmlns:xlink="http://www.w3.org/1999/xlink" viewBox="0 0 1201 844"><defs><style>.cls-1{fill:none;}.cls-2{opacity:0.44;}.cls-3{fill:#8c5222;}.cls-4{fill:#f4a052;}.cls-5{fill:#a56227;}.cls-6{fill:#ffd191;}.cls-7{fill:#5b3111;}.cls-8{fill:url(#linear-gradient);}.cls-9{fill:#6e3b17;}.cls-10{fill:#49240e;}.cls-11{fill:#ffe6c1;}.cls-12{fill:url(#linear-gradient-2);}.cls-13{fill:url(#linear-gradient-3);}.cls-14{fill:#704119;}.cls-15{fill:#75401a;}.cls-16{fill:#ffd18e;}</style><linearGradient id="linear-gradient" x1="337.98" y1="2436.72" x2="-31.38" y2="2616.41" gradientTransform="matrix(1, -0.1, 0.1, 1, 158.13, -138.75)" gradientUnits="userSpaceOnUse"><stop offset="0" stop-color="#80431d"/><stop offset="1" stop-color="#f4a052"/></linearGradient><linearGradient id="linear-gradient-2" x1="313.14" y1="2743.02" x2="475.35" y2="2756.33" gradientTransform="matrix(1, -0.1, 0.1, 1, 158.13, -138.75)" gradientUnits="userSpaceOnUse"><stop offset="0" stop-color="#a05725"/><stop offset="1" stop-color="#f4a052"/></linearGradient><linearGradient id="linear-gradient-3" x1="892.83" y1="2559.33" x2="680.38" y2="2561.72" gradientUnits="userSpaceOnUse"><stop offset="0" stop-color="#8c5222"/><stop offset="1" stop-color="#5a280d"/></linearGradient></defs><title>404-dinosaur</title><rect class="cls-1" width="1201" height="844"/><g class="cls-2"><path class="cls-3" d="M642.53,2674.8c0.48,1.92-.55,4.65-0.46,6.73a16.74,16.74,0,0,0,1.74,6.87h19.4c-1.44-3.25-2.29-6.55,2.58-3.64a15.9,15.9,0,0,1,3.87,3.64h29c-0.74-2.42-.84-5.21-3.8-6.92-4.17-2.42-6.13-1-7.19-6.68-1.11-5.91-3.48-4.58-6.87-8.82-6.62-8.29-4-17.92-3.84-27.47,0.23-11.52-.12-23.21.92-34.77,0.94-10.5.5-21.55,3-31.92a28,28,0,0,1,6-12.27c2.69-3.34,7.41-7.68,5.93-12.32-2.11-6.61-12.47-8.85-18.2-10.45L661.18,2542c-1.94-.81-10.77,3.31-12.11,5.75-1.24,2.27-.42,5.89-0.43,8.37,0,8.38.73,16.79,0.11,25.29a171.54,171.54,0,0,1-4,24.62,252,252,0,0,1-7.89,28.64c-1.6,4.52-4.43,8.4-6.11,12.88-1.88,5.05.08,7.55,2.3,12,1.94,3.9,3.61,8.11,6.42,11.49C640.85,2672.67,642,2672.67,642.53,2674.8Z" transform="translate(0 -1844.4)"/><path class="cls-4" d="M944.18,2655.49c4.15,5.3.79,11.87,6.65,17,4.82,4.18,10.22,5.75,13.72,11.81a19.32,19.32,0,0,1,1.58,4.14h8.71c0-4.21-.24-8.4-1.76-12.54-2.16-5.88-7.73-9.13-10.47-14.84-3.05-6.35-3.89-9-8.9-14.37-4.35-4.65-4.45-10.31-9.06-13.94-2.5-2-5.15-1.66-7.8-4.25a27.92,27.92,0,0,1-5.4-8.67c-2.92-6.66-3.76-9.26-10.49-13-4.76-2.64-9-4.78-11.69-9.85-3.73-6.92-2.84-12-10.8-16.32-4.71-2.55-7.9-4.38-11.44-8.46-5.66-6.54-19.13-11.94-22.83-.29a14,14,0,0,0-.77,5.33c0.59,7.46,9.74,8.37,16.16,10.6,8.33,2.9,9.51,13.61,15,19.26,2.08,2.14,5.63,3.38,8.08,6.07a24.05,24.05,0,0,1,5.94,10.58c1.39,4.41-1.42,3.52,3.16,6.59,3,2,7.22,1.77,10.42,3.57,8.43,4.71,3.15,10.1,7.57,16C933.19,2654.48,940.45,2650.71,944.18,2655.49Z" transform="translate(0 -1844.4)"/><path class="cls-5" d="M869.88,2587.46c3,1.06,6-2,8.89-1.57,2.65,0.43,4.64,2.46,6.45,4.2a23.5,23.5,0,0,1,5,7.86c0.34,0.8-.52,4.24-0.55,4.21,2.13,2.56,2.88,0,5.27,1.13,5.41,2.57,9.84,6.1,12.76,11.35,1.37,2.44,1.18,5.74,2.51,8.08,1.74,3.08,3,3.29,6.36,5.43a31.33,31.33,0,0,1,11.06,12.28c1.18,2.27,1.46,6.34,3.27,8.08,1.57,1.51,5.23,1.36,7.44,3,3.47,2.58,5.24,6.94,6.51,10.62,2.43,7,2.12,6.76,8,10.52,7.14,4.61,10.37,10,14.29,15.74h4.14c-0.81-11.61-15.6-19.48-10.15-32.07-7.2-1.32-7,4.9-12-2.31-4.49-6.39-1.3-10.12-1.36-16.31-6.8,7.92-11.14.34-14.62-5.76s-3.63-13.21-6.36-19.73c-2,11.35-11.82-.46-14.77-3.71-3.21-3.54-5.2-2.71-6.42-7.89-0.92-4,.82-7.2.43-10.83-5.93,9.17-16.74,2.87-3.53-2.36,0.18-4.69-9.46-2.83-12.08-3.33-10.91-2.11-17.67-13.68-13.67-24C868,2562.36,857.44,2583.14,869.88,2587.46Z" transform="translate(0 -1844.4)"/><path class="cls-3" d="M791,2411.59c2.69,8.74-14.34,22.49-17.62,27a420,420,0,0,1-35.52,33c-10.72,8.68-22.2,16.25-32.66,24.85-8.92,7.35-18.22,14.61-27.38,21.78-5.53,4.32-20.33,8.9-21.32,15.88-0.92,6.54,5.17,21.85,12.28,22.78,9.31,1.23,23.81-.1,31.19-6.3,3.59-3,5.34-7.55,7.62-11.62a105.25,105.25,0,0,1,8.5-12.41c7.86-10.29,80-71.39,93.26-76.1,9.85-3.5,19.85-5.48,29.8-8.53,8.31-2.56,20.61-6.2,21.19-16.57,0.34-5.85-1-11.29-6.32-13.29-6.41-2.38-13.71-.82-20.24-1.8-5.82-.87-11.12-3-16.66-5-5.95-2.21-10.75-1.69-16.69.39Z" transform="translate(0 -1844.4)"/><path class="cls-6" d="M655.71,2543.08c-14.83,2.12-2.14,25.29,11.19,13.94-2.57-.68-15.44-2.81-10.09-8.48Z" transform="translate(0 -1844.4)"/><path class="cls-4" d="M675.06,2619.39a250.67,250.67,0,0,1,4.82-45.82c1-5,5.34-10.91,5.66-15.54-2.63,1.52-6.94,3.65-9.83,1.41-3.56,3.54-6.86,7.29-11.93,8-4.76.67-4.14,51.81-4.36,57.17-0.55,12.79-1,29.56-8.74,40.48,8.37-7.46,11,3.25,12.88,9.66,0.32-7.08,3-12.61,7.08-18.5s4.87-9.86,4.6-17C675,2632.69,674.93,2626.06,675.06,2619.39Z" transform="translate(0 -1844.4)"/><path class="cls-4" d="M789.36,2417.87c-1.87,7-10.71,13.88-14.91,19.72-13.6,18.91-33.9,33.22-52,47.52-13.44,10.59-27.11,21.64-41.34,31.08-3.42,2.27-26.14,15-23.88,18.28,1.59,2.29,6.83-.13,9,2.59,1.75,2.22-.51,4.75,1.79,7.06,7.36,7.37,23.69-14.22,27.81-18.91,4.76-5.41,10.46-9.55,15.73-14.39s9.85-10.45,15.79-14.44c-8,7.4-14.13,17.61-21.81,25.63-5.34,5.58-14.32,14.78-12.7,22.9,4.1,0.55,7.94-7.62,10.06-10.39a140.45,140.45,0,0,1,9.92-12.11c9.57-10,19.79-18.43,30.17-27.51,9.76-8.56,19.67-16.22,29.94-24.13,8.21-6.33,16.08-13.18,25.57-17.59,4.22-2,20.53-7.61,19.2-13.49-5.87-2.27-12.7.24-18,2.92-7.43,3.77-16,8.11-22.55,13.24-5.85,4.57-11.48,9.1-17.94,12.79-3.95,2.26-9.68,7.14-14.13,7.57,2.64-6.55,12.52-12.16,17.82-16.73,5.15-4.43,10-8.85,14.16-14.32,3.42-4.54,6.9-9,9.34-14.2,2-4.29,6.06-9.48,5.69-14.48Z" transform="translate(0 -1844.4)"/><path class="cls-6" d="M709.14,2497.13c-5.84,3.54-25.81,20.94-42.73,30.29-2,1.11-7.53,1.71-8.36,4.31-1,3.31,3.75,2.72,6.23,2.15,5.73-1.29,13-8.48,18.55-7.85-3.29,3.35-14.5,11.38-12.59,16.65,4.72,0.57,16.75-11.44,19.71-14.12,4.77-4.31,11.07-10.17,14-15.87Z" transform="translate(0 -1844.4)"/><path class="cls-4" d="M635.34,2658.56c5.77-10.27,7.6-24.83,9.1-36.34,0.85-6.46,2.19-12.85,3.26-19.27,0.9-5.46,2.75-12.33,1.44-17.81-2.43,9.31-10.71,48.26-19.11,63.11C629,2650.14,635.45,2658.39,635.34,2658.56Z" transform="translate(0 -1844.4)"/><path class="cls-7" d="M641.27,2660.66c0.63-2.79,1.74-5.63,2.37-7.86,3.2-11.24,5.1-22.84,6.82-34.39,1.14-7.58,2.16-15.27,3.06-22.87,0.66-5.61-.32-11.51.68-17,3.61,16.8,2.68,35.13,2.36,52.14-0.15,8.31-1,17-3.46,24.94-1.1,3.5-8.55,20.72-11.86,11.52A11.86,11.86,0,0,1,641.27,2660.66Z" transform="translate(0 -1844.4)"/><path class="cls-3" d="M765,2334.45c6.34,7.26,10.77,17.69,14.33,26.44,1.15,2.83,4.18,8,3.37,11.42-0.95,4-6.16,5.32-9.48,5.92-8.7,1.57-20.26-2.91-23.73,7.91s4.55,15.92,12.73,20.48c8.87,4.94,18.86,6,29,6.74,9,0.66,18.81,1.39,27.86-.09,7.9-1.29,16.77-3.73,22.85-9.64,3.08-3,6.72-6.28,5.76-11-0.91-4.47-5.28-6.32-9.19-8.43-7.62-4.11-15.85-7.91-21.88-14.16s-10.64-14.46-14.07-22.55c-3.88-9.17-4.9-18.74-7.22-28.3a198.6,198.6,0,0,1-5-27.35c-0.36-3.56.1-19.15-3.65-20.29-3.14-1-9.3,7.57-10.93,9.34-5.54,6-7.89,11.92-11.36,19.09Z" transform="translate(0 -1844.4)"/><path class="cls-3" d="M794.23,2230.13c6.36,9,15.29,15.79,20.53,25.84,6.47,12.42,11.47,25.37,16.62,38.48,11.1,28.33,22,57.92,30,86.76,2.62,9.44,3.16,19.25-3.8,26.7-6.57,7.06-20,12.92-29.79,10.06-10.55-3.12-17.27-10.07-20.38-20.27-3-9.92,6.22-18.24,8.55-27.6,3.18-12.83,1.94-25-1.78-37.73-4.16-14.27-8-28.91-14.22-42.46-2.69-5.85-4.91-12.37-8.42-17.71-3-4.58-8-6.5-12-10-9.37-8-15.58-22.21-15.13-34.75,0.21-6.16,4.46-14.39,11.3-14.35,2.6,0,5.95,1.69,8.33,2.83,2.64,1.26,5.52,5,8.22,5.44Z" transform="translate(0 -1844.4)"/><path class="cls-7" d="M790.12,2295.74c-2.83,13.89-4.45,28.2-3,42.66,1.37,13.87,6.61,24.18,13.45,36,3,5.17,5.55,10.55,11,13.57,3.36,1.88,8,1.83,11,4.34,3.26,2.65,3.77,8,2.38,11.62-1.65,4.33-5,5.16-9,6.29-16.71,4.76-32.63,3.27-48.61-1.3-3.94-1.13-8.05-2.14-9.48-5.75s-0.16-9.4.41-12.84c0.41-2.34.89-11.08,3.19-12.52,1.35-.84,4.08.53,5.64,0.48a19,19,0,0,0,7.1-1.8c10.69-4.69,6.8-11.44,2.46-19.75-1.61-3.09-4.57-6.72-5.47-10-1-3.71.81-7.87,2.34-11.84,6.43-16.78,10.65-33.84,16-50.78,0.13-.43.31-0.7,0.45-1.13Z" transform="translate(0 -1844.4)"/><path class="cls-7" d="M804.41,2299.35c0.74,4.72,3.09,9.38,4.15,14.08s2.1,9.45,3.1,14.18c1.93,9.13,4.47,18.48,5,27.93,0.25,4.65-1.92,7.89-2,12.06-0.09,3.65,4.76,5.54,7.87,8,7.17,5.62,13.5,12.78,12.16,22.64-1.19,8.81-10,11.43-16.82,14.14,5.93,7.82,22,5.21,29.49,1.31,11.28-5.84,16-13.61,13.57-26.23-2.56,8.65-18.78-4.42-21.7-8-6.07-7.37-8.68-16-5.8-24.92,6.25-19.39,3.8-36.42-1.79-55a190.59,190.59,0,0,0-15.37-37.06c-4.71-8.64-8.19-18.37-15-25.68-3-3.25-6.45-5.2-8.77-9.11s-3.34-8.17-5.92-11.75c-6.92-9.55-9.48,10.9-9.81,15.27a93.76,93.76,0,0,0,1.7,26.91c1,4.54,2.62,7,5.54,10.37,5,5.73,10.19,9.13,13.5,16.08C799.52,2288.88,803.68,2294.65,804.41,2299.35Z" transform="translate(0 -1844.4)"/><path class="cls-8" d="M637.82,2237.76c-11.86-1.14-.22,15.4,3.06,18.64-8.26,17.19-16.9-2.39-27.06-1.81-2.33.13-16.17,7.07-16.65,9.69-1,5.34,9.71,8.41,9.92,14.21-2.94,2.62-6.19,5.85-10,6.58-7.46-14-36.83-.79-35.23,10.62,0.61,4.38,7.46,1.87,4.23,8,0.06-.11-10.06,5.4-10.65,5.5-3.41.6-5.92-2.56-10-2.13-3.41.37-7.58,3.53-10.31,5.73s-8.84,6.11-9.44,9.54c-0.94,5.42,4.49,7,1.61,12.47-0.91,1.71-6.85,5.14-8.62,6.11-5.76,3.19-4.18,1.85-9.76,2-3.83.11-7.41-1.49-10.83,1.38-4.9,4.11-.1,6.51-1.45,9.92-1,2.64-3.66,6.25-6.82,7.64-4.15,1.83-5.39-.57-10.24.74-6,1.61-8.48,8.78-14.29,11.66,1,1.94,2,5.07,3.69,6.94-2.9,2.3-6.76,5.6-10.29,6.87-4.35,1.57-7.59-.48-11.9,1.4-8.36,3.64-8.73,17.74-19.33,20.66-6.61,1.81-6.78-.09-12.12,4.26a24.16,24.16,0,0,0-5.06,4.93c-1.11,1.68-2.2,5.39-3.27,6.5-3,3.11-8.41,3-11,4.08-2.78,1.1-2.8-.38-5.74,1.43-1.85,1.15-2.68,3.16-4.68,4.28,0.06,3.41,2,9.14-.36,11.88-2.8,3.28-8.7-.22-10.83,1.21-5.36,3.57-5.67,13.59-11.52,17.68,5-.16,8.15-3.69,12.85-4.6,6-1.13,8.5,2,13.81,2,2.31,0,12-4.38,13.69-6.34,3.75-4.44-.06-8.79,7.45-11.37,5.75-2,7.38,2.5,12.78,2.43,3.78,0,9.83-4.72,12.39-7.15,1.29-1.24,3.72-1.77,4.75-3.2,1.63-2.29-1-5.28.83-7.43,2.31-2.73,9.48-4.39,12.85-6.35,5.38,6.92,11.31,2.13,16.87-.72,1.76-.89,7.28-2.74,8.24-4.35,2.74-4.61-1.7-5.78,1.5-9.73,4.38-5.42,13.62-4.75,18.49-4.28,10.06,1,12.13-1.86,21.62-5.7a29,29,0,0,1,.5-9.7c5.73-4.08,13,1.26,19.73-1,6.34-2.13,16-6.88,8.88-14,2.61-2.18,9-6.83,12.55-6.87,4.52,0,6.91,4.06,11.54,4.2,4.12,0.13,9.71-3.15,12.81-5.71,6.55-5.4,3.26-4,3.39-12.43,8-3.15,10.22-4.75,17.75-2,3.82,1.43,2.78,3.55,7.92,3.73,2.4,0.09,7.38-2.27,9.76-3.16,7.71-2.89,9.75-6.06,10.82-14.45,1-7.77-.65-13.21,8.14-16.35a41.65,41.65,0,0,0,3.46,8.29c11.27,0.85,17.6-3.73,18.5-13.92,0.88-10,1.32-15.41,11.08-21,3.35,8.39,1.5,21.43,14.06,13.27,7.09-4.6,5.62-13.9,14.81-14.95,0.74,9.41-4.63,21-7.12,30.6-2.45,9.38-12.84,22-12.09,31.15,14.56,1.51,28.48-31,32.71-42,8-20.87,15-42.59,9.85-64.56-4-17.26-12.22-29.07-30.62-30.36-7.66-.55-15.82-0.37-23.19,2.2-9.3,3.25-16,11.93-26.72,11.59Z" transform="translate(0 -1844.4)"/><path class="cls-9" d="M667.36,2296.39a45.5,45.5,0,0,1,8.85-8.21c4.17-2.87,13.07-8.26,18-8.53,1.36,5.78-1.22,12.58-.2,18.8,5.39-.22,6.6-3.38,6.94-7.85,0.52-6.62,3.9-8.66,6.84-14.18,3.81-7.13,4.06-18.66,1.44-26.21-6.64-19.18-36.32-12-50.48-7.72-6.8,2.05-13.2,4.38-20.15,2.5-1.64,5.5,3.29,11.75,4.76,16.73,1.17,3.94,1.93,4.25-2.64,5.85a13.49,13.49,0,0,1-4.37,1c-2.86-.1-2.06-0.69-4.21-1.71-5.39-2.55-10.93-3.06-16.93-3.45-7.16-.47-9.56-2.55-14.64,3.52,6.35,3.49,12.5,7.64,18.63,11.5,4.76,3,7.85,4.32,2.85,9a63.13,63.13,0,0,1-10.92,8c-6.83,4-15.89,12.27-22.92,6.43-3.58-3-7.81-9-11.94-10.81-4.57-2-8.57,2.57-5.08,6.64,3.73,4.35,10.78,7.1,15.52,10.18,5.32,3.45,7.65,4.63,2,8.43a165.48,165.48,0,0,1-15.85,8.81c-3.5,1.83-9.23,6.94-12.71,6.69s-7.55-4.92-10.12-6.92c-3.72-2.9-7.72-5.36-11.08-8.74-1,1-5.66,4.16-5.86,5.64-0.37,2.7,3.15,3.27,5.21,4.38,4.79,2.59,9.47,5.45,12.7,9.76-2.64,3-6.57,4.84-9.93,7.09-4.37,2.94-8.28,6.2-12.94,8.8-4.3,2.4-6.64,5.69-11.28,4.2-3.74-1.22-11-6.34-12.78-9.68-4.13,1-6.25,5.55-4.72,8.9,1.89,4.17,8.22,6.1,12,8.13-1.12,3-13.44,9.8-16.8,10-4.42.33-15.45-4.1-17.1-8.29-3.34,1.92-6.84,4.11-4.31,7.21,2.23,2.74,9,5.31,12.11,7.13,3.82,2.27,8.09,2.85,4.36,7.11-2.07,2.36-6.29,4.14-8.9,5.87-5.27,3.52-14.48,10.82-20.73,8.89-5.48-1.69-14.33-12-17.62-3.81,4.24,0.74,10.18,4.37,14,6.39-6.34,3.88-12.87,8.81-19.45,12.92-3.84,2.41-5.62,2.43-9.93.72-4.48-1.77-5.55-1.63-8.76,2.39,2.31,1.62,9.27,1,9,3.71s-7.72,5-9.64,5.78c-6.78,2.78-13.55.73-18.48,8.14,2,0.14,4.36.06,6.45,0.4,1,6.16-16.36,8.6-16.71,15.41,3.51-.45,8-1,10.57-3.84,2.31-2.52,2.53-4.51,5.61-6.45a100.21,100.21,0,0,1,19.06-9.17c2.23,2,4.8,3.34,5.29,6.57,9.51-2.45,1.26-7.74.47-12.12a286.53,286.53,0,0,0,26.52-12.89c3-1.63,6.13-5.5,9.25-6.5,4.87-1.55,4,6,8.83,4.2,0.43-5.53-4-7.5,1.21-11.18,3.3-2.34,7.62-3.3,11.2-5,6-2.87,20.07-12.36,23.55.39,3.8-.61,10.85.24,4.64-4.41-3.06-2.29-7.6-3.08-10.24-5.55,3.3-2.94,7.73-5.68,11.49-8.5,3.6-2.7,8.32-9.17,13.06-9,4.11,0.17,7.31,5.39,9.33,8.57,1.92,3,1.69,4.15,4.82,4.13s5-1.66,4.36-4.5c-1-4.93-7.88-5.41-3.69-10.23,1.57-1.79,3.94-2.4,5.59-4.46,1.21-1.52,1.66-3.8,2.94-5.16,2.89-3,8.35-2.64,12.36-4.54,3.29-1.56,9.12-3.29,11.24-6.18,3.69,3.58,4.66,12.89,5.67,18.25a26,26,0,0,1,5-3.88c-0.17-6.36-2.4-9.48-4.32-15.08-1.36-3.94-1.2-3.47,1.75-6.17,2.32-2.13,5.26-3.9,7.78-5.78,4.86-3.63,9.84-7.24,14.66-10.92,3.74-2.84,10.3-8.33,15.13-8.22,2.35,3.91,1.76,11.23,2.22,15.85,0.56,5.6.27,11,1.16,16.52,1.75-.32,6.26-2.24,7.18-4.08,1.36-2.75-1.33-6.9-2-9.73-1.38-6.17-1.92-13.52-2.88-19.34-1.2-7.34,8-9.31,13.69-12.5,1.87-1,8.34-6.08,10-5.94,3.34,0.27,4.27,7.85,4.81,10.31,1.46,6.54,1,13.6.49,19.8,16,1.08,4.15-20.38,9-28A24.5,24.5,0,0,1,667.36,2296.39Z" transform="translate(0 -1844.4)"/><path class="cls-6" d="M383.76,2447.33c-5,.57-7.8,0-11.87,3.94a20.87,20.87,0,0,0-5.53,11.08c6.22-2.77,12-9.21,17.58-13.22s12.4-6.24,17.87-10.41c-1.48-2.08-5.92-1.53-8.42-1.93-1.8-8.82,26.27-8,28.58-13.87-2.25-1.5-7-.63-7.56-3.7-0.5-2.75,4.39-5.91,6.62-6.81,5.08-2.06,10.06,1.86,14.8,3.5,3.39-5.41,10.59-6.65,14.44-11.27-3.78.45-7.28-3.53-10.36-5.16-1.13,13.53-17.82,7.39-24.48,14.5-3.79,4-4.45,8.37-9.32,11.73-4.52,3.12-8.84,3.43-13.68,5.41-3.89,1.59-6.85,4.83-6.4,9.42C386.42,2444.54,390.08,2446.61,383.76,2447.33Z" transform="translate(0 -1844.4)"/><path class="cls-6" d="M446.29,2391.1c1,4,7,2.75,10.14,4.47,3.48,1.93,2.41,4,6.6,2.13,6.16-2.81,15.52-9.76,20.07-14.83-4.87,0-9.49,2.53-13.88,4.17C462,2389.76,453.28,2387.39,446.29,2391.1Z" transform="translate(0 -1844.4)"/><path class="cls-6" d="M484.14,2363.3c-3.89-.26-6.25,1.71-4,4.44,1.9,2.33,9.27,3.83,12.17,4.92,4.78,1.81,5.16,1.85,8.71-2.11,2.28-2.55,6.38-5.24,7.49-8.46-5.5-.17-9.74,4.91-15,5.3Z" transform="translate(0 -1844.4)"/><path class="cls-6" d="M502.43,2345.32c6.54,3.13,12.91,11.64,20.28,8.17,3-1.41,23.46-13.5,21.17-17.84-1.5-2.85-7.85,2.09-9.74,3.34-1.61,1.07-3.38,2.82-5.24,3.17s-3.33-1-5.06-.66c-4.08.7-4.83,5.47-8.48,6.33-3.21.76-5.1-1.7-8.36-1.28Z" transform="translate(0 -1844.4)"/><path class="cls-6" d="M545.64,2308.74c-3,.22-8.6,4.34-8.7,7.42a43.84,43.84,0,0,1,12,6.48c1.74,1.37,3.82,3.81,5.68,4.8,2.84,1.51,1.69,1.52,4.54.45,7.06-2.66,18.57-10.21,22.25-17-6,0-21.66,10.22-25.78,3.55Z" transform="translate(0 -1844.4)"/><path class="cls-6" d="M584.13,2281c-0.24-.62.24-1-0.59-1.14-3.82,2.2-9.05,4.34-11.63,7.92,3.92,2.42,9,2.56,12.91,6.07,3.24,2.9,5.06,6.43,9.4,5s9.31-7.24,13-10c2.88-2.14,6.61-4.26,8.76-7-6.77-.51-14.24,4.57-21.17,5.32Z" transform="translate(0 -1844.4)"/><path class="cls-6" d="M465.32,2409.74c-3.15,1.81-5.62,4.9-8.8,6.87-2.78,1.73-5.83,2.36-7.63,5.38,2.18-.28,4.78-0.89,7-0.73,2.61,0.2,5.53,3,7.52,2.49,1.55-.39,4.12-4.12,6.16-5s4.25-1,5.92-2.22Z" transform="translate(0 -1844.4)"/><path class="cls-6" d="M500.94,2392.29c-2.7-1.3-18.77,8.5-19.38,11.85,5.9,0.36,11.49-3.68,17.41-3.85,4.15-.11,7.71,1.1,12.19.39,0.23-2-.22-4-2.06-4.74Z" transform="translate(0 -1844.4)"/><path class="cls-6" d="M528.55,2372.84c-4.51,2.66-13.44,9-14.7,14.19,4.34-.19,9.19-1.92,13.79-2.4,4.77-.49,9.42-0.17,14.18-0.92a3.67,3.67,0,0,0-3.67-4Z" transform="translate(0 -1844.4)"/><path class="cls-6" d="M572.84,2352.86c-6,6-20.18,8.18-22.82,16.64,2.94-.67,5.49-3.24,8.53-4.23,4.5-1.48,8.06-.73,12.55-0.11,6.43,0.89,11.82-1.85,6.6-8.33Z" transform="translate(0 -1844.4)"/><path class="cls-6" d="M608.19,2327.09c-4.08,3.13-21.53,12.92-24.06,21.22-0.57,1.85,11.31-2.18,12.24-2.71,3.08-1.75,8.11-5.89,12-4.6,4.53,1.52,3.9,8.83,6.83,10.36,3.32,1.74,8.24-3.17,8.23-5.72,0-3.63-2.31-7.07-3.64-10.31-0.66-1.62-3.69-11.76-2-12.54Z" transform="translate(0 -1844.4)"/><path class="cls-6" d="M644.42,2304.56c-3.65,2-8.28,5.48-10.54,8.88,2.94,1,6.45.59,9.33,2,2.15,1,3.29,3.29,5.85,3.11,0.11-5.79,1.32-11.72,1.16-17.32Z" transform="translate(0 -1844.4)"/><path class="cls-6" d="M423.45,2437.28c-2.06.42-10.89,3.48-10,6.57,0.82,2.84,12.45,3.24,12.85-.17Z" transform="translate(0 -1844.4)"/><path class="cls-6" d="M397.22,2453.79c-3.45.16-13.63,0.9-17,2.8-4,2.27-.6,5.62,3.36,6.38,9.34,1.79,19.53-6.27,20.27-15.4Z" transform="translate(0 -1844.4)"/><path class="cls-6" d="M515.6,2360.19a40.79,40.79,0,0,1,3.5,6.25c3.92,0.16,9.22-5.08,12.57-7.13,4.27-2.64,10.26-6,12.26-10.75-7.35,2.06-13.1,11-21.66,11.54Z" transform="translate(0 -1844.4)"/><path class="cls-6" d="M579.61,2325.45c-5.35,3.17-11.45,8.38-18,8.55,3.73,13.5,29-11.64,33.49-15.65Z" transform="translate(0 -1844.4)"/><path class="cls-6" d="M495.71,2378.87c-0.38,7.16-5.82,11-11.54,14.42,9.84,0.92,18.06-11.85,24.62-17.39Z" transform="translate(0 -1844.4)"/><path class="cls-6" d="M625.06,2289.19c-1.51,7.37-6.53,11.51-11.13,16.6,8.17-2.06,16.28-8,23.22-12.78Z" transform="translate(0 -1844.4)"/><path class="cls-6" d="M430.92,2422.61c-4.36,1.79-7.52,6.93-11.06,10,5.54,2.14,18-10.83,22.32-14.48Z" transform="translate(0 -1844.4)"/><path class="cls-5" d="M895.44,2098.09c-2.89-1.41-9.9,1.14-13.31,1.88-5.24,1.15-10.51,1.72-15.77,2.66-9,1.62-17.67,4.64-26,7.61s-16.77,6.25-24.7,9.78c-8.66,3.85-16.11,9.06-24.31,13.42s-17.07,9.48-25.93,12.71c-3.21,1.17-9.4.76-12.25,2.63-2.29,1.5-2.18,3.65-3.29,6.18a33.64,33.64,0,0,1-6.62,9.28c-10.17,10.57-27.31,15-36,26.66-5.43,7.29,2.91,11.89,8.29,16.21a60.09,60.09,0,0,1,17,21.15c3.18,6.47,3.2,14.48,6.78,20.8,2.56,4.55,8,8.06,12.71,10.3,5.37,2.57,11,3.69,16.16,6.76,6.43,3.85,6.1,0,9.63-5.32,12.07,4.36,7.22-9.89,6.59-16.36-0.57-5.83-.65-22.55,4.13-26.4,1,15.8-2.87,32.36-.88,48,1.47,11.45,5.1,32.87,17.54,37.67-6.8-30.5-6.6-53.32-3.86-64.22,4.3-17.08,8-35.48,24.18-45.25-21.22,30.55-22.34,71.08-12.6,106a106.45,106.45,0,0,0,15.12,31.92c3.77,5.36,16.6,18.11,23.49,17.1,0.58-4.81-4.36-8.56-7.11-12.06a97.49,97.49,0,0,1-8.13-11.87c-6.6-11.4-12-23.23-14.55-36.16-5.45-27.25,2.62-56.82,18.91-79.08,8.45-11.54,17.47-25.2,28.88-34.11-1.9,5.43-6.59,11-9.45,16.31a247.11,247.11,0,0,0-11,24.08c-7.72,19.09-9.5,37.25-8.81,57.7,0.5,15.43,5.16,31.2,11,45.17,3.11,7.39,11.81,16.34,20.54,14.71,7.91-1.48,2.22-6.22-.86-10-4-4.81-6-10.8-7.89-16.62-4.43-13.62-9-28.57-8.83-43,0.27-27.54,8.46-57.2,26.35-78.45,1.7-2,5.64-5.39,8.35-5.17,0.38,3.82-1.75,8.24-2.5,11.86-0.94,4.51-1.42,8.85-2.07,13.15a212.63,212.63,0,0,0-2.81,30.37c-0.14,14.41,1.61,28.38,6.61,42,3.12,8.45,7.24,19.76,14.78,25.27,1.58,1.16,3.63,2.48,5.66,2.4,4.12-.16,3.42-0.92,2.94-4.17-1.06-7.29-5-14.55-6.58-21.79-4.24-19-3.62-38.5-1.92-57.55,0.47-5.31.55-13.23,3.77-17.44,3.56-4.66,11.28-6.66,16.36-9,10.77-5,19.18-14,27.8-22.24,7.07-6.75,10.83-12.71,11.33-22.44a88.33,88.33,0,0,0-.68-13.92c-0.93-9.19,1.66-18.14.12-27.14-1-6-3.17-12.83-9.65-14.39s-14.22.55-20.9,0.11c-8.87-.59-18.84-1-27.73-0.18Z" transform="translate(0 -1844.4)"/><path class="cls-6" d="M815.4,2174.28a158.64,158.64,0,0,0-12.48,18.34c-3.12,5.91-8.84,19.74-3.21,25.35,2.4-4.72,3.8-10,6.75-14.8,3.54-5.78,8.32-10,12.6-15,7.82-9.15,15.07-18.74,23.39-27.51C837.5,2149.94,825.07,2161.92,815.4,2174.28Z" transform="translate(0 -1844.4)"/><path class="cls-6" d="M858.84,2155.45c-5-.39-10.93,7.73-13.53,10.53s-4.7,5.71-7,8.55a146.53,146.53,0,0,0-11.69,16.71c-5.59,9.39-9.48,21.66-9.08,32.48,3.18-3.24,4.65-9.31,6.93-13.34,7.75-13.67,19.14-25.66,30.1-36.79,3-3,8.31-7,8.61-11.58,0.13-2-.71-5-2.55-6A4.27,4.27,0,0,0,858.84,2155.45Z" transform="translate(0 -1844.4)"/><path class="cls-6" d="M872.59,2179.78a7.84,7.84,0,0,0-3.08,1.73c-5.43,5-8.89,13.88-11.9,20.5-3.49,7.68-8,18.9-6,27.55,0.79-1.54,1.38-6,2.32-8.67,1.4-3.91,3.76-7.58,5.6-11.27,2.69-5.39,4.89-10.83,8.36-15.79,2-2.83,9.3-7.86,8.69-11.31C876.07,2179.76,874.31,2179.33,872.59,2179.78Z" transform="translate(0 -1844.4)"/><path class="cls-6" d="M796.18,2131.3c-6.78,3.76-6.51,4.27-2.75,10.3,2.73,4.38,4.46,9,6.74,13.27Z" transform="translate(0 -1844.4)"/><path class="cls-6" d="M814.34,2123.37c-7.08,1.45-4.3,3.76-1.31,7.82,2.08,2.81,4.91,10,7.08,11.12Z" transform="translate(0 -1844.4)"/><path class="cls-6" d="M836.38,2115.07c-10.18-5.7.28,19,.91,20.53Z" transform="translate(0 -1844.4)"/><path class="cls-6" d="M852.44,2108.46c-3.53,2.62-5.08,3.26-1.94,7.31,1.17,1.52,5.63,6.32,6.07,6.22Z" transform="translate(0 -1844.4)"/><path class="cls-6" d="M873,2102.53c-10.8,1.08-.1,13.25,2.85,17.55Z" transform="translate(0 -1844.4)"/><path class="cls-6" d="M887.31,2202c-2.13,7-2,26.85,5.87,31.14,1.89-3.44,1.11-9.57,1.47-13.47a61.8,61.8,0,0,0,0-11.15Z" transform="translate(0 -1844.4)"/><path class="cls-9" d="M783.64,2139.78c-4.57,2.06-10.94,4.71-8.51,9.75,2.3,4.78,6.25,9.27,8.73,14.1,3.87-.26,9.83-5.24,12.51-7.83Z" transform="translate(0 -1844.4)"/><path class="cls-9" d="M805.89,2128.11a16.42,16.42,0,0,0-5.25,3.16c-2.87,2.52-3.1,2-1.16,5.27,1.57,2.57,4,4.18,5.54,6.86a40.56,40.56,0,0,1,3.05,6.2c2.25-1.75,5-2.58,7.33-4Z" transform="translate(0 -1844.4)"/><path class="cls-9" d="M827.26,2118.75c-2.21.18-7.66,1.3-8.74,3.48-1.64,3.35,2.71,7.46,3.88,10.4,1,2.39.43,7.45,3.15,8.61,2.31,1,7.08-2.13,7-3Z" transform="translate(0 -1844.4)"/><path class="cls-9" d="M845,2112.54c-8.43,3.42-5,6.9-3.64,15.17,0.38,2.23-.19,7.46,2,8.44,1.59,0.7,6.78-2.26,8.09-3.07Z" transform="translate(0 -1844.4)"/><path class="cls-9" d="M865.52,2105.5c-2.29.3-6.95,0.78-8.68,2.4-3,2.78-.2,6,1.5,9.21,0.9,1.73,2.56,9.75,3.75,10.43,0.77,0.43,7.06-2.09,8.16-2.44Z" transform="translate(0 -1844.4)"/><path class="cls-9" d="M886.38,2102.33c-4.3-.1-7.85,1.5-7.83,5.76,0,2.29,1.78,6.25,2,8.92,0.24,2.47.87,5.15,0.24,7.52,4.73,0.12,10.31,2.94,14.42,5.23s7.09,6.67,11.4,8.52c7.74-8.1-7.43-21.69-11.67-27.89Z" transform="translate(0 -1844.4)"/><path class="cls-9" d="M771.1,2177.77c-2.46,7.43-4.8,14.94-7.29,21.83-6.13,1.65-14.06-4.25-19.88-4.76-5-.43-4.87,2.12-6.81,5.8-2.41,4.56-5,3.62-9.94,4.43,1,4.73,8.13,6.58,11.89,8.22,5,2.16,9.73,4.46,14.6,6.8,1.72,0.83,5.57,3.29,7.52,2.74,3.07-.89,2-4.13,2.5-7a33.15,33.15,0,0,1,6-14.33c2.52,5.43,3.92,11.43,6.27,17s2.5,8.73,8.05,3.82c4.53-4,2.48-6.52,3.36-12.18a77.13,77.13,0,0,1,4.46-17.16c7.56-18.06,27.73-38.19,47.59-41.48a36.23,36.23,0,0,1,4.91-.39c-0.63,3.67-4.77,7.17-7.17,10.08-3.57,4.34-6.33,9.37-9.31,14.14-3.15,5-12.05,17.12-9.84,23.36,11.81-15,20.67-35.22,38.14-45.66,1.66-1,4.62-.57,6.15-1.52,1.76-1.11,2.74-3.59,3.75-5.42a68.56,68.56,0,0,1,6.55-10c1.92-2.42,5-7.22.66-9.15-2.35-1-9.93,3.2-12.46,3.92-13,3.69-25.43,7.09-38.25,12.13-6.23,2.44-12.1,5.72-18.22,8.75-6.39,3.17-12.27,8-18.23,12C780.63,2167.39,773.29,2171.17,771.1,2177.77Z" transform="translate(0 -1844.4)"/><path class="cls-10" d="M959.22,2106.28c-7.55,9.32-19.67,11.52-31,12-7.46.3-6.73,2.64-3.65,8.32s6.22,12.07,3.38,18.47c-3.95,8.87-12.3,18.73-12.82,28.56-0.21,4.15,0,7.94,1.85,11.54,1.6,3.17,4.24,6.06,4.8,9.48,6.61-2.09,14.11-12,19.44-16.76,6-5.33,12.32-10.43,16.55-17.38s3.3-14.7,2.89-22.58S962,2123,961.2,2115Z" transform="translate(0 -1844.4)"/><path class="cls-5" d="M988.06,1972.19c5.58-9.74,18.27-1.06,19.94,7.23,0.76,3.79-2.73,8-2.94,12.83-0.35,8.16,1.15,7.92,6.53,4.58,8.82-5.47,14.8-9.94,21.44,1.23,5.39,9.06-7.79,15.43-4.62,26,5,0.87,15.11-1.2,14.86,5.57-0.08,2.24-4.95,4-4.41,6.92s4.13,2.32,6.69,3.71c4.38,2.36,9.14,7.54,10.65,12.11,1,3.08-.48,6.92.65,9.36,1,2,4.53,4.69,6.1,6.54,3.52,4.15,8.34,8.89,9.56,14.27,0.69,3.06-1.37,6.09-.91,8.41,0.8,3.9,4.2,5.71,6.6,8.63,9.72,11.79,7.68,23.12,5.68,37-1.36,9.42-.55,19.76-1.27,29.39-0.25,3.25,2.48,30.34-3.05,28.57-3.71-1.17-1.52-24.75-2.19-28.89-1.63-10.13-6.27-16.54-10.19-25.6-11.49-2.47-5.52,22.56-5.63,28-0.24,10.61-5,21.31-7.59,31.64-2.69,10.75-4,22.59-6.92,33.13-2.47,8.89-5.17,18.56-13.18,24,1.1-24.48,14.31-51.05-.13-74.07-2.74-4.38-9.63-11.11-13.39-3.72-2.4,4.72,3.35,16.39,4.41,21.12,3.45,15.47,1.36,31.64-1.18,46.93-1,5.86-1.13,18.91-7.8,21.58-1.12-7.34,1-13.72,1.18-20.92a169,169,0,0,0-1.16-20c-1.22-12.38-2.5-27.35-13.47-35.32-2.39-1.73-12.33-7.87-15.78-7.14-5.55,1.16-5,14-4.76,19.94,0.81,18.93.95,36.49-2.06,55.14-1.29,8-4.29,40.26-13.2,42.36-5.65-8.44,1.19-31.5,2.46-41.1a151.1,151.1,0,0,0-.82-42.55c-1-6.16-2.31-14-4.44-19.62-3.18-8.45-6.36-5.14-13.08-3.07-7.77,2.39-12.2,2.14-12.06,11.41,0.29,19.59,3.64,35.18-1.91,54.71-1.18,4.16-10.71,30.62-16.83,24.71-2.78-2.67,2-11.5,2.78-14.31a132.75,132.75,0,0,0,3.34-17c2.09-15.38.83-32.09-1.64-47.35-4.8.74-11.62,8.11-16.36,10.84-6.71,3.86-11.36,3.85-19.41,4.14,7.56-10.13,19.63-17.36,29.89-24.57,11.93-8.37,24.11-16.36,36.27-24.48s23.5-17.11,34.88-26.22c6-4.82,9.6-7.63,12.75-14.43,5.29-11.44,12.76-23.47,16.36-35.24,4-13.23-5.66-6-10.56-13.62-2.85-4.41-.73-15.15.12-20.27,1.07-6.49,2.47-13.38,1-20.15-2.21-9.92-10.46-13.27-17.54-19-13.43-10.83-9.46-27.89-11-43.41Z" transform="translate(0 -1844.4)"/><path class="cls-4" d="M724.35,2154.55c-17.48,9.26-31.47,26.93-47.16,38.73-6.24,4.7-12.27,9.35-18.52,13.94-9.71,7.16-25.17,23.46-17.34,36.48,21.34-.54,62.4-22.09,71.32,10.66,1.87,6.87-.92,39.15,13.73,30.61,5.11-3,5.79-11,10.44-14.43,4-3,12.69-4.67,17-1.65,4.56,3.2,3.06,14.09,11.19,11.07,1.69-6.54,10.45-36.18,19.77-19.42,0.2-10.73-.62-16.37-8.86-24.15-6.49-6.13-12.85-9.87-20.57-13.64-7.26-3.54-14.76-3.66-21.45-7.5-7.69-4.39-13.39-7.4-21.93-9.47,0.26-6.45,12-3.34,15.72-2.46,11.38,2.67,5.23-4.54,12.27-9.15,6-3.94,9,3.87,14.54,3.43,5.06-.4,9.23-9.64,10.41-13.63a78,78,0,0,1,5.83-15c3.64-7.22,1.63-9.48-3.85-13.44-3.57-2.57-6.06-8-10.15-9.88C751.82,2143.48,741.83,2145.3,724.35,2154.55Z" transform="translate(0 -1844.4)"/><path class="cls-6" d="M698,2218.2c8.13,1.29,18,7.56,23,14.42,5.55,7.57,1.73,19,12.83,18,7.17-.67,17.11-7.82,23.62-4.09,3.16-7.71-5.63-15.78-11.45-19.74,5.51,1.72,9.42,5.85,12.62,10.31,4.57,6.4,5,6.82,13.58,5.43-3.37-14.83-23.94-19.83-35.1-26.71-17.29-10.68-38.48-14.69-57.88-7.41-4.8,1.8-11.35,4.25-7,9.54C677.53,2224.27,691.28,2217.13,698,2218.2Z" transform="translate(0 -1844.4)"/><path class="cls-6" d="M705.48,2190.08a83.09,83.09,0,0,0-14.64,13.57c10.39,3.13,20.28-7,31.23-4.41,8,1.87,6.49,1,9.47-6.08,2.09-5,3.89-9.08,10.7-8.48,3.54,15.78,20.77,2,19.13-9.39-4.71-1.54-11.25,3.87-16,5.8C732.72,2186.21,717.37,2181.81,705.48,2190.08Z" transform="translate(0 -1844.4)"/><path class="cls-6" d="M733.4,2150.33c9.61-4.66,20.62-8.22,28.52,1.16,1.36,1.61,2.13,4.2,3.8,5.5,2.32,1.79,4.55-.9,6,2.91,2,5.32-3.09,7.21-7,4.68-3.36-2.19-3.14-7.06-5.56-10C753.67,2147.82,740.93,2146.68,733.4,2150.33Z" transform="translate(0 -1844.4)"/><path class="cls-6" d="M644.46,2226c2.25-.18,14.35-14.5,19.27-18.42s9.66-6.49,14.77-9.81c7.47-4.86,20.12-11.14,22.26-20.46-15.41,17.69-53.47,25.78-58.46,52.24Z" transform="translate(0 -1844.4)"/><path class="cls-5" d="M718,2160.8c-6.32,4.71-18.76,13-18.39,22,9.3-.33,18.76-1.73,28.06-2.64,9.87-1,17.17-4.83,26.08-6.8,4.46-1,8.48,1,11.73-1.75,4.16-3.55,1.59-6.17-.43-9.15-4.73-6.95-8.2-13.67-17.44-13.73C737.36,2148.64,726,2154.84,718,2160.8Z" transform="translate(0 -1844.4)"/><path class="cls-5" d="M697,2223.79c0.49,0.13,1,.26,1.48.4,9.57,2.83,12.63,11.34,17.09,19,2.17,3.73,4.54,8.16,8.31,10.24,1.9,1,5.6.74,7.09,2.31,2.53,2.66-.46,6.86,2.8,8.87,3.88,2.39,14-1.34,19.34.52,5.91,2.05,5,6,10.86.22,5.46-5.38,9.46-17.64,18.9-17a88.94,88.94,0,0,1,1.11,11.37c-20.39-6.87-11.25,21.86-22,21.55-6.22-.18-6.26-10.2-10.65-13-10.52-6.69-14.59,6.46-18.7,12.18-3,4.26-10.5,7.59-15.24,4.2-7.59-5.43-3.61-18.17-4.36-25.34-0.8-7.67-2.33-17.08-9.76-20.57-10.64-5-20.56-1.15-31.43-.26-10.58.87-20,1.8-30.41,5.21-0.87.29,3.11-7.33,5.14-8.47,4.51-2.52,11.13-4,16.08-6C673.58,2224.72,685.09,2220.86,697,2223.79Z" transform="translate(0 -1844.4)"/><path class="cls-11" d="M682.86,2209.64c6,4.8,14.94,2.29,22,3a31.73,31.73,0,0,1,20.25,10.59c4.24,4.74,3.89,13.84,8.4,17.55,4,3.29,16.31,2.25,21.26,2.59-0.45-9.43-8.73-14.34-15.69-19.29,11.45-1.34,16.64,7.13,26.53,10.7-5.37-13.58-44.3-28.79-55.45-29.66C690.83,2203.65,681.61,2208.64,682.86,2209.64Z" transform="translate(0 -1844.4)"/><path class="cls-4" d="M711.75,2527c0.71-7.36,2.54-13.58,2.15-21.11-0.36-6.8-.92-13.51-0.33-20,2.45-27.28-1.08-56.5-2.24-84-0.58-13.61.45-27.55,0.8-41.22,0.37-13.92-.93-27.71-0.63-41.74,0.24-11.15,2.72-25.94,9-35.84,6.1-9.57,18.71-19.34,30-17.55,4.69,0.75,6.76,4.52,10.5,6.79,6.5-8.57,13.27-22.32,23.8-10.57s4.23,23.35.69,36.66c-7,26.43-17.89,52.8-23.25,79.85-5.5,27.71-8.83,57.6-7.38,86,0.8,15.72-.31,30.7,1.27,46.7,0.64,6.48,3.76,14,2.67,20.45-1,6-6.29,11.68-8.34,17.54-1.75,5-1.31,12.61-5.63,16.46-3.27,2.91-9.65,5.7-13.44,8.18-6.63,4.34-20.45,4.2-24.12-4C702.68,2559.21,710.67,2538.13,711.75,2527Z" transform="translate(0 -1844.4)"/><path class="cls-12" d="M770.58,2529.53c-2.45-1.31-7.25-.45-10,0.14-6,1.26-12.13,3.58-16.82,7.74-8.76,7.77-9.76,26.36-9.85,37.52-0.13,14.5,24.94,5.06,34.87,4.08,14.22-1.41,28.2.46,42.07,2.74,12.26,2,25.2,2.8,37.39,6.13,6.29,1.72,12.54,3.37,16.19-3.46,3.31-6.21-.78-11.69,6.24-16.94,6.73-5,9.28,1.07,15.7.74,6.22-.31,5.82-10.82,10.14-16,4.76-5.75,14.79-5,5.53-12.29-5.38-4.25-12.64-5.65-19-6.5-16.08-2.15-32.4,5.1-48.8,5.71-14,.52-27.67,2.83-41.72,2.19-3.82-.17-8.77.33-12.32-1.22C775.15,2537.9,774.87,2531.87,770.58,2529.53Z" transform="translate(0 -1844.4)"/><path class="cls-4" d="M995.33,2662c1.88-7,2.15-13.88,1.91-21.08-0.24-7.63-1.51-12.25-5.75-18-2.13-2.9-3.19-3.14-4.23-6.88s-0.16-7.2-2.08-10.71c-3.18-5.79-10.75-7.44-12.89-13.71-2.26-6.65,1.24-13.28-5.64-17.22-5.39-3.09-11.71-2.31-17.29-5.82a65.92,65.92,0,0,1-14.92-13.36c-5.45-6.29-15.44-14.29-23.9-13.52-9.5.86-22,3.13-24.67,12.46-3.79,13.36,3,20.24,15.62,22.89,6.48,1.36,26.48,5.63,17.43,16.48,5.58,7.54,17.64,7.56,24.61,13.67,2.38,2.08,4.75,3.31,5.14,6.85,0.28,2.48-3.35,4.12-1.66,7.68,2.24,4.71,11.26,4.44,14.17,9.43,3,5.22-1.79,9.39,2.94,14.76,3.8,4.32,10,5.19,11.36,11.42,1.64,7.7-8.42,16.41,2.52,21.51C987.67,2683.27,993.34,2669.42,995.33,2662Z" transform="translate(0 -1844.4)"/><path class="cls-3" d="M725.51,2352.56c-0.57-15.19-.38-27.87,2.52-42,2.19-10.71,8.76-29,22.11-29.08-0.46-13.59-22.51,7-24.91,10.75-7.23,11.36-11.2,22.92-10.63,36.35,1.13,26.37-1.34,51.84-.41,78.62,0.43,12.64,3.13,26.22,2.82,39s-0.89,25.6-.19,38.48c1.22,22.26-2.54,43.87-5.92,65.71,13.09-9.86,18.46,17.93,15.06,26,7.29-.88,8.09-9.27,9.28-15,1.15-5.48,3-14.71,6.71-19,4.08-4.67,11.93-5.19,16.71-9,5.2-4.1-2.36-27.62-3.86-36.65-4.46-26.81-3.85-54,.1-83.6,1.62-12.18,8.7-58.5,10.73-71.28,2-12.31,3.81-24.3,6-36.55,1.36-7.48,3.88-27.53,14.82-28.33,0.12-8.17-11.84,2.73-14.59,3.27-6.87,1.34-13.11-6.59-19.78-.59,14.22,5.67,6.58,23.69,4.77,34.64-2.4,14.51-4.91,29.07-7.24,43.35-5.06,31-5.64,61.33-6.29,92.57-0.31,14.26-1.1,28.75-1.46,42.78-0.16,6.22.32,12.84-1.46,18.54s-6,9-10.06,3.51c-3.38-4.5-2.71-15.48-3.27-20.94-1.58-15.68-2.09-31.45-2.13-47.2C724.87,2415.5,726.68,2384,725.51,2352.56Z" transform="translate(0 -1844.4)"/><path class="cls-6" d="M725.15,2283c-5.1,2.5-8.56,2.11-6.24,9.87,6.92,0.65,12.52-4.54,18.13-7.73,2.53-1.43,5.17-3.4,8.18-4,2.77-.53,7.93,1.11,10-0.09,5.42-3.1,2.41-13.48-2.39-15.89C742.48,2259.95,733.16,2279.11,725.15,2283Z" transform="translate(0 -1844.4)"/><path class="cls-6" d="M768.74,2273.89c4.18,10.74,10.68-13.64,17-3.89C794.84,2250.41,760.47,2252.59,768.74,2273.89Z" transform="translate(0 -1844.4)"/><path class="cls-13" d="M804.15,2556.29c-5.73,1.32-9.93,1.25-15.81.73-4.38-.4-11.86,1.57-15.9-0.11-12.46-5.16,16.62-8.59,19.54-10.29-9.85-6.52-32.85,2.77-38.44-10.27-11.87.24-18.06,17.58-17.2,27.47,0.32,3.71,2.39,15.06,7.58,15.8,8.05,1.15.61-11.5,7.73-13.13,5.22-1.19,11.06,6.08,17.29,5.81,6.93-.3,12.9-1.52,19.89-1.77a217.73,217.73,0,0,1,39.5,2.6,60.29,60.29,0,0,1,13.88,3.66c3.55,1.43,10.52,7.5,14,7.48,9.67-.06,4.78-15.87.55-20.13C843.78,2551.07,820.54,2552.53,804.15,2556.29Z" transform="translate(0 -1844.4)"/><path class="cls-5" d="M859.95,2545.77c7.89,1,13.33,5.9,17.66,11.82,3.36,4.59,6.2,13.89,10.93,15.47,2.88,1,7.68-.1,11,0.6a67.31,67.31,0,0,1,8.75,2.22C914,2578,923,2583,923.47,2589.51c-1.27.62-1.7,1.64-2.84,2.3,6.82,5.74,28.49,8.34,26.16,22.15-2.48,1.27-1.39,1.29-1.87,3.53,18.38,5.82,10.21,23.87,23.17,33.17,7.32,5.25,9.37,8.07,9,17.29-0.38,11,4.34,7.07,11.28,3.18-0.15,1-.16,2.25-0.28,3.17,3.46-3.4,4.88-13.18,6.23-18.11,1.94-7.14,2-13.27-1.11-19.83-2.66,2.87-1.76,8.52-6.24,9.57-3.49-4.75-5-14-3.54-19.54,1.78-6.87,6.83-11.52.55-17.77-1.25,4.48-1.34,7.18-6.72,8.31-6.59,1.39-7.77-2.32-8.35-8.37-0.42-4.34,6-25.53-2.22-23.9-0.44,4.85-7.15,11.27-8.92,4.1-1-3.89,3.5-9.36,3.53-13.61-13.08,5.62-22.69,1.15-30.9-11.28-1.11-1.69-2.74-7.75-4.56-8.58-5-2.28-3.08,1.36-5.53,3.51-2.77,2.43-.33,5.17-4.47,1.28-2-1.84-2.66-6-3.69-8.5-5.75.48-5.32,8.55-13.36,7-4.92-.94-7.29-5.66-11.51-7.94,0.43,3.19.8,9.61-4.17,8.56-1.22-.26-5.3-6.56-6.58-7.8-6-5.79-10.38-5.67-17.64-7.24Z" transform="translate(0 -1844.4)"/><path class="cls-6" d="M835,2539c11.08-.27,21.61-2.24,33-4.09,5.59-.91,32.13-0.75,32.22,5.87-1.37.22-2.43,1.29-3.8,1.52,3.66,10.52,23.82-.55,23.9,7.38-6.13,1-17.26,3.78-23.15,1.8s-9.87-13.17-16.8-11c0.53,4.79,4.79,8.68,4.43,13.52-5.69.73-9.9-5.32-14.62-7.86-19.41-10.38-49-4.32-70.34-2.52-3.76.32-14-.06-12.86,5.38,2.12,10.11,24.35,4.85,30.16,4.28,12.57-1.25,27.21-3.41,36.48,7.49,2,2.37,3.3,7.89,6.3,9,6.41,2.38,5.63-3.18,6.71-6.35,1.89-5.57.84-5.83,8.09-3.39,2-6-7.22-12.15-12.3-13.77-8.48-2.71-17.16,1.59-25.66,2.56-8.26.94-16.64,3.51-24.78,3.33a15.27,15.27,0,0,1-1.93-.22Z" transform="translate(0 -1844.4)"/><path class="cls-6" d="M907.89,2599.55c0.52,5,1.24,14.93,8.16,15.1,1.92,0,5.83-1.75,6.13-4.14,0.59-4.64-4.82-3.61-7.75-4.08Z" transform="translate(0 -1844.4)"/><path class="cls-6" d="M933.11,2626.32c0.45,4.63-.62,12,5.37,12,8.36-.06,2.78-8-1.81-9.85Z" transform="translate(0 -1844.4)"/><path class="cls-6" d="M878.64,2565.66c-1.45,7.33,1.89,19.54,11.17,20,2.84,0.15,8.57-1.2,6.17-5.9-1.27-2.48-7.47-1.9-9.66-4Z" transform="translate(0 -1844.4)"/><path class="cls-6" d="M932.69,2562.82c-0.82,15.92,29.76,18.27,27.52,9.11-2.83-.22-5.61,1.59-8,1.57-4.71,0-7.53-2.58-11.38-4.78Z" transform="translate(0 -1844.4)"/><path class="cls-14" d="M914.72,2567.11c5.83,3.43,4.15,4.66,6.87,10.19s7.76,5.41,13.23,9c2.58,1.67,4.77,3,6,5.86,1,2.42-.71,5.08.67,7.5,2.1,3.69,9.57,6.86,12.48,11.26,3.41,5.16,2,9.51,5.7,13.85,4.16,4.82,8.73,5.5,11.25,12.06,3.63,9.45,4.62,18.22,16.31,20.87,3.89-11-9-23.84-15.45-31-7.55-8.41-5.53-18.46-11-27.29-3.56-5.76-8.36-4.3-13.51-7s-6.17-8.22-9.74-12.39a36,36,0,0,0-10.59-8.18c-1.68-.91-4.2-1.9-5.53-2.59-2.08-1.09-1.87-3-5.1-3Z" transform="translate(0 -1844.4)"/><path class="cls-14" d="M930.86,2637.41c1.85,2.62,1.36,6.2,3.19,9.09,3.19,5,9.75,5.73,13.12,10.18,5,6.52,4,12.79,13.64,14.47-0.73-8.7-11.29-14.35-15.94-20.92-5.41-7.64-12.64-12.51-17.3-20.87-3.86-6.93-9.42-11.33-15.81-15.78-5.71-4-9-8.94-14.55-13.54,2.25,8.61,9.69,14.7,15.49,20.92,2.9,3.11,5.18,7,8.29,9.88C923.78,2633.44,928.75,2634.44,930.86,2637.41Z" transform="translate(0 -1844.4)"/><path class="cls-4" d="M917,2313.83a278.86,278.86,0,0,0-19.31,49.92c-2,7.09-6.94,17.45-1.33,23.76a11.25,11.25,0,0,0,19.23-3.29c3-8.06.48-19.45,1.18-28a45,45,0,0,1,9.06-23.4c5.16-7.11,12.41-12.07,19.55-17,4-2.8,16.24-8.28,16.47-14.11,0.3-7.8-12.37-9-16.1-15.12-2.72-4.45-2.51-22-11.79-16.18-2.71,1.68-4.17,16.76-5.59,20.39C925.24,2298.75,920.9,2306.21,917,2313.83Z" transform="translate(0 -1844.4)"/><path class="cls-4" d="M908.73,2489.92c-1.8-3.52-4.07-5-5-8.67-1.27-4.84.4-8.47,0.76-12.58,0.87-10-4.29-14.11-5.45-23.74-1-8.45,1.71-16.78-.24-25.67-1.21-5.52-7.87-18.08-3.57-24.14,10.5-14.82,27.51,25.35,31,31.58,3.93,7,10.7,14.92,13.38,22,3.11,8.18.7,19.08,2.62,27.66,1.45,6.5,5.06,14.55,3,20.83-3.58,10.84-6.31,2-8.08-5.9-0.63-2.75-1-9.67-2.34-12-2.18-3.9-5.41-3.59-7.55-8.18-1.76-3.77,1.23-9,0-12.28-1.57-4.09-6.81-3.22-6.48-9-1.38,7.51-1.72,17.42.46,25,0.8,2.79,5.37,7.87,5.37,10.89,0,4-4.21,6.47-4.67,10.46-0.64,5.57,3.56,12.39,4,18.21,0.17,2.06-1.75,17.87-1.87,17.77-6.13-5.87-12-14.3-13.53-22.84C909.36,2502.78,912,2496.3,908.73,2489.92Z" transform="translate(0 -1844.4)"/><path class="cls-4" d="M1004.55,2314.81c-0.44,1.15-.86,2.31-1.23,3.48-1.08,3.25-1.38,6.59-2.71,9.66-1.62,3.75-4.32,7-5.92,10.82-3.32,7.88-2.48,17.36-2.17,25.6,0.74,20.64,12.2,33.41-11.32,43.47-5,2.16-4.34,2.32-8.09,5.51-1.52,1.3-.64,3.9-3.06,5.4-2.2,1.36-5.51.07-7.76,0.74-14.34,4.29.39,6,8.41,6.11,9,0.12,14.92,5.39,20.51-4.32,2.14-3.73,1.47-7.26,4.87-9.36,3.59-2.22,9.3-.7,13.36-3.24,7.5-4.71,10.92-14.47,5.47-21.95,7.62-11.83,5-11.86.91-23.55-5.43-15.42-2.92-32.43-3.13-48.43-1.45,3.23-4.56,5.33-6.4,8.28-2.06,3.28-1.83,5.1-1.87,9-0.11,9.36-1,18.58,1.07,27.78,0.71,3.11,3.45,8.38,2.29,12-2.27,7.14-4.94,4.76-6.86-1.55-3.48-11.41,2.75-23.25,6-33.92s5.85-21.36,12.06-30.83c1.45-2.2,8.37-9.36,6.49-12.24-1.58-2.4-10.21-.29-12.6.11C1010.71,2300.72,1007.25,2307.63,1004.55,2314.81Z" transform="translate(0 -1844.4)"/><path class="cls-6" d="M943.25,2292.86c2.53,5.6-3.64,7.39-6.76,10.85-3.9,4.31-7,9.17-11.1,13.35a92.61,92.61,0,0,0-17.82,26.72c-2.1,4.63-3.23,10.2-2,15.24,2.36,9.5,4.23.61,5.32-4,4.78-20.18,17.36-38.66,37.74-45.39,3.63-1.19,9.38-1.89,10-6.56,0.61-5-5-6.12-8.18-8.1-7.44-4.69-6.35-13.92-9.07-21-2.36-6.12-8.19-1.94-8.44,2.9C932.52,2284.56,940.57,2287,943.25,2292.86Z" transform="translate(0 -1844.4)"/><path class="cls-6" d="M1001,2393.75c1,4.51,4.36,4.91,1,9.78-2.29,3.29-6.55,5.54-10.75,4.67,7.64,5.5,15.58,2.61,19.19-5.5,2.2-4.93,0-4.69-.93-9-0.84-3.9,1.12-4.94,3.48-7.51,5.51-6,4.32-23.22-2.59-28.51,0.11,6.33,2.94,14.29.41,20.34C1008.37,2383.67,999.4,2386.62,1001,2393.75Z" transform="translate(0 -1844.4)"/><path class="cls-6" d="M914.57,2431.67c6,7.55,15.47,10,16.9,20,1.2,8.5.45,14.74,5.36,21.94,2.18,3.19,2.56,4.63,3.22,8.48,0.47,2.74,1.42,8.06,5.08,7.21,0.27-4.18-1.94-8.94-2.87-13-0.83-3.64-1.25-7.43-2.08-11.07-0.89-3.91-2.27-7.81-2.41-11.9-0.14-3.83,1.24-6.49-.85-10-4-6.59-11.14-12.23-15.89-18.48-4-5.22-3.64-12.64-8.2-17.53-3.16-3.37-7.18-3.32-8.23,1.68C903.17,2415.95,910.55,2426.58,914.57,2431.67Z" transform="translate(0 -1844.4)"/><path class="cls-6" d="M920.63,2522.49c2.68-4.84,2.41-9,.8-14.41-1.36-4.56-5-8.11-5.19-13-0.21-5.71,4-4.94,5.36-9.48,1-3.31-2.55-7.61-3.87-10.37-4.12-8.63,2-18.91-3.19-27.41-1.48-2.43-3.89-3.11-5-5.92-1.07-2.61-.54-5.75-1-8.49-0.32-1.9-1.13-5.9-4-5.8-3.57.11-1.69,11.92-1.36,14.27,0.82,5.75,3.33,9.75,5.8,14.89,1.79,3.71,2.27,6.71,1.18,10.46-0.76,2.62-2,2.62-1.68,5.75,0.22,2.22,1.54,4.4,2.44,6.45,3.54,8-1.2,13.53.39,22.25,0.83,4.55,3.4,7.61,5.19,11.75,1.31,3,1.33,6.9,5.1,7.85Z" transform="translate(0 -1844.4)"/><path class="cls-3" d="M896,2402.89c-1.74,1.59,1.32,18.59,3.2,21.45s6.39,3.41,9,5.9a20.29,20.29,0,0,1,5.46,9.92c0.77,4.54-.88,5.85,3.59,8.7,3.93,2.5,6.86,3.32,8.62,7.93,1.27,3.35,1.33,7.43,2.2,10.93,1.12,4.5,3.53,5.49,6,9.24-2.64-7.2-2.13-15.46-4.63-22.76-1.37-4-1.75-5.69-5.1-7.95s-7-3.59-9.11-7.34c-1.77-3.18-2.94-6.34-4.94-9.44s-5.52-5.15-7.26-8.33c-1.93-3.51-.77-7.77-1.83-11.52-1-3.58-4.17-6.09-5.39-9.5Z" transform="translate(0 -1844.4)"/><path class="cls-3" d="M995.39,2400.76c-4.7,7.18-15.3,8.74-20.69,14.83-1.76,2-2.56,1.44-.33,3.54,1.3,1.23,4.63,1.76,6.39,1,3.42-1.41,4.37-6.94,6.8-9.74,3.15-3.64,8.49-4.27,10.32-8.7,1.47-3.57.45-8.5,1.69-12.4,1.5-4.71,7.61-7,4.84-11.49-2.6-4.19-5.33-8.73-8.34-12.68-1.38,4,.23,8.77,1.11,12.75,1.13,5.12.73,7.27,0,12.31C996.6,2393.79,997.52,2397.53,995.39,2400.76Z" transform="translate(0 -1844.4)"/><path class="cls-5" d="M925,2305.62c3.79-1.26,13.55-4.81,14.54-9.43,0.76-3.46-6-6.58-7.21-10.59C932.35,2285.6,927.72,2302.75,925,2305.62Z" transform="translate(0 -1844.4)"/><path class="cls-4" d="M879,2177.2c11.07,14.54,22,29.17,33.79,43.38,11.6,14,18.62,27.12,25.42,43,4.81,11.22,17.64,29.2,32.48,27.2,7.74-1,11.18-9,17.75-12.71,7.45-4.18,15.74-3.94,22.43-10.29,4.78-4.54,10.9-12.08,7.44-17.73-4.43-7.22-17.41-6.06-24.33-6.23-9.08-.22-18.56,1.83-27.14-1.45-8.76-3.34-16.59-10-22.61-17-12.28-14.32-22.65-29.83-32.11-46.14-7.08-12.22-8.67-46.31-28.17-46.46-9.18-.07-18.45,14.31-19.83,22.39C862.23,2166.24,873.07,2169.41,879,2177.2Z" transform="translate(0 -1844.4)"/><path class="cls-4" d="M1042.64,2186.65c5.7,8,7.95,16.68,11.76,25.59,3,7.08,8,15.48,3.08,22.83-5.22,7.8-10.14,6.25-11.42,17-1,8.8-1,15.1-10.56,19.74-8.72,4.22-16.8,1-25.2,1.59-11,.73-14,6.24-18.28,15.51-3,6.45-9,18.5,1,21.64,5.81,1.83,18.2-5.69,24.72-6.65,9.48-1.39,15.83-2.91,23.69-8.16,15.8-10.55,23.16-23.18,25.8-41.31,2.3-15.83-.55-40-5.15-55.23-4.78-15.83-17.76-27.39-28.27-39.83-4.53-5.36-6.62-11.64-10-17.49-1.76-3.08-4.9,7-4.95,7.26-0.67,3.38.75,10.5,2.07,13.71C1025.13,2173,1036.41,2177.93,1042.64,2186.65Z" transform="translate(0 -1844.4)"/><path class="cls-6" d="M984.61,2244.8c8.69-.33,17.37-1.08,25.73.73,9.13,2,8.32,11.16,2.38,17.23-9.36,9.57-14.37-7.13-23.32-7.91-5.5-.48-10,3.18-15.08,4.31a26.62,26.62,0,0,1-15.07-1.11c-0.41,11.76,20.25,8.8,18.63,20.25s-18-1.79-20.88-6.73c-4.53-7.8-5.45-16.75-10.21-24.74-4.35-7.29-10.29-17.7-10.25-26.31a13.72,13.72,0,0,0-.64-2.6c3.12,0.64,5.68,7.38,8,9.93a49.4,49.4,0,0,0,12.35,9.44C964.78,2242,974.82,2245.18,984.61,2244.8Z" transform="translate(0 -1844.4)"/><path class="cls-6" d="M1013.91,2276.31c-8.68-.33-19.5,3.74-20.19,14.38-0.62,9.55,7.33.37,9.74-1.64,4.19-3.49,10.8-3.55,16.32-3.73,8.43-.29,23.68,3.18,25.5-8.64,0.47-3.05-.87-5.28-1-8.27-0.08-2.43,1-5.59,1.4-7.85-0.39,2.54-5.83,10.86-8.34,12.6C1031.52,2277.23,1020.67,2276.57,1013.91,2276.31Z" transform="translate(0 -1844.4)"/><path class="cls-5" d="M924.83,2214.91c-5.45-8.63-22.77-41.56-26-49.86-3.75-9.71-6.85-29.57-19.65-17-3.27,3.22-7.1,6.88-6.1,11.85,1.21,6,9,12.58,13.35,16.58,6.44,5.92,27.25,34.72,31.51,42.34,3.28,5.87,7.68,11,10.75,17,3.73,7.24,6.34,17.47,11.14,23.79-2.9-3.81-.51-14.94-2.32-20C934.46,2230.88,929.73,2222.64,924.83,2214.91Z" transform="translate(0 -1844.4)"/><path class="cls-15" d="M853.49,2237.65c-3.8-1.59-7.42-3.18-5.78-7.78,1.47-4.13,5.93-7.85,9-10.92,7.38-7.49,15.61-12,24.52-16.92,19-10.52,29.13-29.58,40.38-46.92,3-4.62,5.46-10.18,9.3-14.29,2.73-2.92,6.05-5.4,8.47-8.72a76.1,76.1,0,0,0,12.36-24.52c1.09-3.63,3.16-11.61,7.73-10.94,4.94,0.72,6.11,8.94,7.86,12.17a46.53,46.53,0,0,0,7.22,9.87c4.71,4.59,7.4,1.28,12.86,1.55,14.8,0.71.82,25.2-2,30.43-12.85,23.73-36.61,42.78-59,57.4-6.5,4.25-13.34,7.92-19.85,12.12-6.08,3.92-11,10-17.81,12.79-7.94,3.29-17.15,4.58-25.65,5.42Z" transform="translate(0 -1844.4)"/><path class="cls-5" d="M753.54,1986.16c-0.47,5.39-7.61,11.4-10.78,15.08,14.71,5.52,41.36-6.59,45.61-21.87,2.62-9.41,2-19.29-9-20.83-12.93-1.82-29.54,9.89-38.78,18.18C745.36,1980.17,754.29,1977.37,753.54,1986.16Z" transform="translate(0 -1844.4)"/><path class="cls-5" d="M813.33,1986.64c15.43,0,20.66,5.69,24.67,17-0.1-7.81-2.79-17.57-7.63-23.79-3.54-4.55-5.33-5.91-10.38-3.29C818.8,1977.2,811.41,1986.64,813.33,1986.64Z" transform="translate(0 -1844.4)"/><path class="cls-5" d="M853.57,1956.21c-6,4.92-13.38,9.78-19.77,14.18,0.9,8.18.91,14.63,4.71,21.58,2.4,4.42,6.06,8.55,8.59,12.71,5.57-.64,4.73-19.92,13-24.27,4.48-2.34,8.76-1.83,10.95,2.68,2.53,5.26-1.94,7.94-2.13,12.55-0.31,8.1,3.27,2.68,7.68,5.7s2.68,9.2,5.26,13.15c2.18,3.34,6,6.54,10.49,4.61,5.52-2.4,3.54-7.37,2.32-11.64,7.6-1.53,7.63.43,11.46,5.43,3,3.94,7.66,9.06,12.5,3.62,8.27-9.3-4-31.13-9.41-38.2-7.8-10.27-15-23.5-29-23.05-13,.41-22.71,5.18-34.2,9.23Z" transform="translate(0 -1844.4)"/><path class="cls-5" d="M898,1956.92c0.8,8.92,14.37,15,18.77,23.33a29.2,29.2,0,0,1,2.82,9.57c1.31,8.25,1.95,13.21,6.8,20.22,8.5,12.31,18.62,23.17,34.53,17.31,15.57-5.74,15.19-20.43,10.18-34.26-2.63-7.24-2.44-13.59-11.37-11.6-4.75,1.06-16.25,9.61-20,8.88-4.54-.87-7.06-13.06-4.84-16.91,3.88-6.69,15-5.71,20.81-6.59-3.57-11.31-15.57-10.26-25.07-11.75-5.09-.8-9.73-3.71-14.73-4.22C913.68,1950.69,897.73,1954,898,1956.92Z" transform="translate(0 -1844.4)"/><path class="cls-4" d="M1021.11,2035.8c-1.92-7-1.51-11.17-1.82-18.21-0.38-8.87-2.93-12.22-8.54-18.41-8.29-9.14-16.64-17.32-24.14-26.84-3.39-4.3-5.8-9.66-10.06-13-2.5-2-3.68-2.63-6.77-2.87-3.72-.3-6.8,3.08-9.78,2.64a2,2,0,0,1-1.5,0c-2.39-4.16-7-7.42-9.64-11.45-3.5-5.41-5.84-8.06-12.56-8.6-12.31-1-22.4,10.75-34,.45-8.45-7.49-16.32-19.75-28.59-10.13-4.06,3.18-7.13,8.08-11,11.54-10.23,9.16-18.77,13-32.83,12.64-10.4-.28-20.24-0.07-31-0.25-10.32-.17-19.87-1.8-30.1,1.89s-25.52,8-32.08,17.6c-8.63,12.61-5.09,29.64-6.86,43.84,6.85-23.69,54.23,4.21,67.6,7,13.15,2.76,26,5.83,39.24,7.78,13.77,2,27.08.64,41.06,1,19.33,0.5,37.34,5.25,56,8.84,17.79,3.41,31.77,9,47.69,17.3,8.35-4.08,18.52.32,27,2.92,8.75,2.66,17.75,3.55,25.76,8C1028.16,2059.07,1024.31,2047.43,1021.11,2035.8Zm-275.19-42c-20.52-12.32,20.41-25.4,26.75-27.11l4.23,0.42C780.64,1980.12,758.28,2001.24,745.92,1993.81Zm87.33,4.32c-6.11,5.56-16.92-7.16-17-13.16l5.55-3.06C828.87,1980.3,839.68,1992.28,833.25,1998.13Zm19.66,4.33c-7-4.88-17.69-14.15-15-23.92a11.47,11.47,0,0,1,3.14-5.22c6-6,18.33-7.49,25.14-9.8,8-2.71,13.92-6.62,22.14-.75,9,6.45,15,16.62,19.71,26.34,2.35,4.85,6.73,8.77,8.06,14.25C922.2,2028.42,863.24,2009.62,852.91,2002.46Zm111-2.12-1.35.42c-0.4,7.27,5.81,16.1-5.06,17.91-6.76,1.13-14.19-2.87-19.33-7.1-5.86-4.83-9.52-10.08-10.61-16.69-0.58-3.5-.55-6-2.8-9.55-2.36-3.69-5.9-7-8.78-10.31-4.4-5.15-11.54-12.29-10.59-19.65,5.8-.4,11.82,7.52,17.27,9.47,7,2.53,15.11,1.2,21.86,4.73,5.1,2.66,6.63,9.92,9.73,14.27C957.7,1988.61,965,1993.86,964,2000.34Z" transform="translate(0 -1844.4)"/><path class="cls-6" d="M744.52,1977.84c-9.63,9.62,0,23.64,10,15.75-9.49.64-10.21-9.13-8.31-15.08Z" transform="translate(0 -1844.4)"/><path class="cls-6" d="M816.28,1985c-6.48,11.57,19.93,21.08,17.59,9-1.89,6.87-14-.93-15.7-6.69Z" transform="translate(0 -1844.4)"/><path class="cls-6" d="M884.14,2012.87c-8.94-1.85-17.12-6.13-24.93-10.71-3.65-2.13-20.18-12.53-21.11-16.22,4.27,17,20.42,23.4,35.34,27.45,6.58,1.79,25.3,8,30.14,1.58C902,2017,886.63,2013.39,884.14,2012.87Z" transform="translate(0 -1844.4)"/><path class="cls-6" d="M939.15,1967.82c-4.06,2.89-10.79.26-15-.94,2,2.9,5.69,8.4,9.23,9.87,1.9,0.79,5.22-.69,6.71.15,3.65,2.06.72,1.18,2.16,4.87,1.6,4.08.55,6.36,6.63,8.5,4.66,1.64,9.9.13,12.85,4.52,0.08-8.4-8.06-7.77-12.74-11.84-3.35-2.93-4.4-9-5.43-13Z" transform="translate(0 -1844.4)"/><path class="cls-16" d="M859.56,1954.39c8.68-1.16,19.24-3.34,26.83,1.35,7.76,4.8,12.52,10.84,18.36,17.74a87.58,87.58,0,0,1,13.5,21.45c2.39,5.44,6.61,22,15.18,20.18,0.45-4.7-3.48-9.85-5.2-13.87-2.09-4.89-3.25-9.57-6.38-13.89-6.83-9.37-13.57-17.94-19.35-28.18-2.26-4-4.64-9.5.9-11.82,6-2.52,10.58,1.45,15,4.71,5.11,3.78,8.81,5.76,14.66,1.75,3-2.07,8.1-7.92,5.39-12-2.93-4.38-10.78-.58-14.35.2-4.25.94-10.38,1.8-14.32,1.39-10.29-1.08-17.41-15.23-27.94-11.84-5.48,1.77-8.06,7.08-11,11.55C867.84,1947.77,862.31,1949.83,859.56,1954.39Z" transform="translate(0 -1844.4)"/><path class="cls-16" d="M792.7,1955c-5.91-1.82-13.54,0-19.38,1.37-4.76,1.12-14.64,2.22-16.56,7.75,4.41,3.71,16-1.93,22.18-.11,7.34,2.16,10.82,6.8,8.4,14.24a41.3,41.3,0,0,1-11.91,17.59c-2.86,2.46-6.51,3.8-9.3,6.22s-3.23,2.33-.08,4.73c7.64,5.85,49.73,9,39.85-8.41-5-8.86-16.66-29-4.16-36.64,5.94-3.64,13.55-1.66,19.49-5.25-2.06-2-6.47-.92-9.49-0.61-3.82.39-7-.74-10.65-0.62Z" transform="translate(0 -1844.4)"/><path class="cls-16" d="M967.36,1961.81c-4.78,2.8-2.73,8.71-.66,12.77,5.37,10.55,18.53,15.81,26.5,24.27,6.78,7.2,4.31,18.53,10.46,26.86,2.86,3.88,7.43,5.8,10.06,10,2.05,3.27,2.46,7.67,4.92,10.62,5.07-5.29-2.64-19.39-3.77-25.62-1.32-7.33-3.92-14.06-9.16-19.41-5.51-5.62-13-10.92-17.25-17.69-3.31-5.33-3.61-12.55-7.5-17.49C978.23,1962.63,971.63,1959.31,967.36,1961.81Z" transform="translate(0 -1844.4)"/><path class="cls-4" d="M729.33,2013.06c-1.12,5.68,2.8,13.44,4.19,15.51,4,6,8.59,13.57,15.6,16.34-1.43-10.41-15.1-21-8.25-32.39,2.05,5.46,2.86,11.4,5.79,16.67,2.38,4.31,7.46,13,12.35,14.34,0-7.73-9.56-21-3.35-28,0.63,6.41,5.76,27.8,13.93,28-0.08-5-4.26-20.8,1.62-22.9,3.75,8.66,5.25,27.78,16.47,31,0-5.74-2.6-11.48-2.76-17.39-0.11-3.71-.2-9.63,3-5.2s3.6,11.68,6.52,16.57c1.85,3.07,5.46,10,9.28,10.13-0.19-5.92-5.43-19.88-1.66-24.87s6.87,10.67,8.34,13.83,7.67,16.11,11.16,9.94c2.24-4-5.17-18.34,1.78-20.2,4,8.94,3.77,27.17,15.8,30.08,0.08-6.85-2.51-13.94-3.08-20.86-0.35-4.15-.24-10.1,3.84-4.8,4.48,5.81,3.35,26.36,15.31,24.64-0.15-6.63-1.28-13.31-1.34-19.94,0-3.62.86-8,4.07-4.28,1.05,1.24,1.37,6.46,1.89,8.18a51.08,51.08,0,0,0,4.42,10.9c1.75,3,5.93,10,9.83,10-0.08-4.73-6.74-27.19.66-27.22,1.36,6,7,30.55,16.23,28.9-0.87-8.63-3.27-17.16-1.32-25.83,0.32,6,3.87,22.88,10.78,24.36,1.76-5.47.26-13,1-18.92,0.69-5.56,2.51-8.68,5.59-2.89,2.15,4.07,3.57,13,7.82,15.32,4.43,2.41,3.86-3.25,4.18-7,0.18-2.23-.29-14.37,3.16-14.32,2.54,0,4.92,13.39,6,15.53,1.36,2.73,4.29,7.88,6.64,4.9s-2.22-11.52.71-13.85c2.6,3.82,4.57,12.38,9.28,13.47,2.71-5.44,5.86-14,5.66-20.14-0.29-8.82-12.34-8.35-19.07-8-8.44.42-14.43-3.88-22.26-5.5-6.25-1.27-12.85-2.42-19.29-3.37-9.22-1.36-18.82-1.33-28.12-2.22-8.29-.8-15.13-3.09-23.62-2.57-9.06.55-17.29,2.22-26.46,1.66-6.66-.41-13.58-1.42-19.94-2.08-11.5-1.2-19.85-5.85-30.34-10.5-5.52-2.45-22.21-5-26.82.56Z" transform="translate(0 -1844.4)"/><path class="cls-16" d="M747.87,2020.14c0.52,5.36,3.9,23.9,12.24,23.23,0.22-5.24-3-9.15-5.31-13.45-2.18-4-2.85-8.43-3.34-12.92Z" transform="translate(0 -1844.4)"/><path class="cls-16" d="M764.25,2022.43c-5.54,4.19.93,16.14,4.22,20,2-5.69-5.5-16.21-1.51-20.86Z" transform="translate(0 -1844.4)"/><path class="cls-16" d="M778.81,2028.79c-2.51,5.64,2.57,19.08,8.2,22,0-7.1-2.41-14.27-3.12-21.38Z" transform="translate(0 -1844.4)"/><path class="cls-16" d="M794.26,2032.84c-3.33,6.2,4.26,18.73,9.87,21.82,0.09-7.25-3.64-15.44-4.4-22.92Z" transform="translate(0 -1844.4)"/><path class="cls-16" d="M810.86,2037.33c0.22,4.69,4.26,18.71,10.14,19,0.5-7.23-5.3-13.7-4.24-21.27Z" transform="translate(0 -1844.4)"/><path class="cls-16" d="M830.61,2039.84c-0.43,7.1,1.75,18.52,8.78,22-0.28-7.59-3.76-14.52-5.41-21.78Z" transform="translate(0 -1844.4)"/><path class="cls-16" d="M844.91,2043.45c0.29,4.89,3.34,14.55,8.31,16.39,2.29-6-3.76-14.62-2.12-21.46Z" transform="translate(0 -1844.4)"/><path class="cls-16" d="M863,2046.12c0.23,4,5,17,10,17.34-0.69-6.26-4.13-12-4.52-18.45Z" transform="translate(0 -1844.4)"/><path class="cls-16" d="M881.66,2048.73c0.33,6,3.81,14.2,9,17.08-0.55-5.24-2.68-11.52-4.5-16.41Z" transform="translate(0 -1844.4)"/><path class="cls-4" d="M1073.25,2098.36c-4.47-5.54-9.21,2.5-8.79,6.87,0.75,7.87,5,17.2,7.85,24.59,2.63,6.9,5,13.71,6.12,21,1,6.36.8,13,2,19.27,2.16-3.92,1.78-12.72,2.18-17.57,0.55-6.88,1.22-13.66.62-20.56s-0.9-24.21-7.81-28.21Z" transform="translate(0 -1844.4)"/><path class="cls-4" d="M1048.62,2157.83c1.07,3.79,1.41,15.3,4.35,17.29,1.69-2.13,1.72-6.82,2.36-9.74a52.13,52.13,0,0,0,1.3-15.22c-0.31-4.54-2.57-20.53-11.22-16C1039.05,2137.53,1047.27,2153,1048.62,2157.83Z" transform="translate(0 -1844.4)"/><path class="cls-4" d="M1056.7,2070.27a8.58,8.58,0,0,0-3.14,0c-4.86,1.1-14,12.82-7.62,16.87,3.68,2.33,7-2.36,10.17-3.49,3.84-1.36,8.14-1,12.1-1.61,1.89-.32-3.84-8.4-4.58-9A16.61,16.61,0,0,0,1056.7,2070.27Z" transform="translate(0 -1844.4)"/><path class="cls-4" d="M1034,2050.45c2.41,2.07,8.79.67,11.89,1.73a16,16,0,0,1,7.93,5.69c0.33,0.46.85-3.33,0.84-3.54-0.09-2-1.61-4.16-2.68-5.79-1.51-2.31-2.94-4-5.51-5.13C1042.56,2041.8,1027.38,2044.77,1034,2050.45Z" transform="translate(0 -1844.4)"/><path class="cls-4" d="M1024.54,1994.5c-3.86-1.8-8.66,17.53-3.68,19.5,4.17,1.66,8.76-13.62,11.23-16.34Z" transform="translate(0 -1844.4)"/><path class="cls-9" d="M1031,2003.89c-5.84-.3-10.53,22.34-10.11,27.62,0.39,4.8,2.46,5.52,4.76,1.33,1.74-3.18,2-10,1.85-13.56Z" transform="translate(0 -1844.4)"/><path class="cls-9" d="M1039.17,2029.84c-3.3-1.17-10.69,4.59-13.2,7.43-2.73,3.09-2.52,5.78-1.22,10.15,4.47,0.5,8.48-3.39,12.82-4.69,0.24-3.62-6.41-3.74-2.38-8Z" transform="translate(0 -1844.4)"/><path class="cls-9" d="M1053.92,2060.7c-5-2.64-16.57,3.75-8.92,5.88,3.17,0.89,6.87-.5,10.07.11,2.84,0.55,4.9,2.39,7.57,3.18Z" transform="translate(0 -1844.4)"/><path class="cls-9" d="M1067.14,2087.26c-3.53.29-17.39,0.65-15.94,7.06,3.86,0.69,7.11.06,11,.11,3.51,0,7,2.36,10.23,1.79Z" transform="translate(0 -1844.4)"/><path class="cls-9" d="M1075.6,2156.09c-3-12.82-7.5-23.17-15.15-33.62-4.6-6.28-8.62-13.73-10.44-21.22-4.83,6,.46,27.62,3.9,34.12,3.19,6,4.47.91,9.92,2.52,4.64,1.38,7.68,5.55,9.8,9.48Z" transform="translate(0 -1844.4)"/><path class="cls-9" d="M1026,2133.8c1.71,11.73,10.27,20.7,16.77,30a64.17,64.17,0,0,0-5.41-25.18c-3.74-7.9-4.5-15.88-4.36-24.55,0.17-9.72,4.06-20,2.92-29.62-10.07-1.88-9.1,8.61-9.61,15.08C1025.43,2111.19,1024.32,2122.06,1026,2133.8Z" transform="translate(0 -1844.4)"/><path class="cls-9" d="M1013.12,2172.29c-1.94,4.27-5.21,7-8.5,10.2-3.52,3.41-4.24,3.61-.29,6.81,4.46,3.62,9,5.78,12.6,10.5a37.84,37.84,0,0,1,6.62,14.89c2.58-7.73-2.79-20-4-27.87a99.31,99.31,0,0,1-.65-23.46Z" transform="translate(0 -1844.4)"/><path class="cls-9" d="M978.37,2198.57c-5.82,1.63-13.62,6-10.38,12.15,2.32,4.36,6,7.18,7.66,12.13,1.06,3.13,1.11,6.48,2.13,9.52a86.86,86.86,0,0,1,1.35-10.59c0.73-4.73-.43-8.55-0.89-13.16Z" transform="translate(0 -1844.4)"/><path class="cls-9" d="M1034.15,2182.53c-0.72-.46-1.48-0.92-2.26-1.33,2.16,4.41,5.55,7.82,7.43,12.43a86.38,86.38,0,0,1,4.1,14.67c0.85,4,1.94,8.39,1.83,12.54-0.06,2.83-1.23,5.45-.89,8.36C1052,2213.46,1049.27,2192.38,1034.15,2182.53Z" transform="translate(0 -1844.4)"/><path class="cls-9" d="M864.06,1966.44c-8.22,5.2-3,9.27,3.61,12.76,3.25,1.71,6.55,2.77,6.06,7.36-0.31,2.93-4,6.57-3.41,9.8,0.82,4.27,4.5,2.3,7.08,5,1.84,1.92,2.87,6.43,3.32,8.93a44.29,44.29,0,0,0,7.83,1.13c3.57,0.28,4.56,1.41,3.52-2.68-1.57-6.19-8.06-11-9.43-17.62-1.07-5.2-1.45-11.05,1.38-15.63,3.65-5.9,6.87-2.79,11.8-2.34-0.46-5-8-10.15-12.43-11.66C877.52,1959.44,869.05,1963.28,864.06,1966.44Z" transform="translate(0 -1844.4)"/><path class="cls-9" d="M909.56,1963.58c-0.9,6.64,13.82,14.9,16.64,21.13,3.55,7.8,2.43,17.26,11.39,22.43,3.3,1.9,10.08,1.81,10.42-3.41,0.34-5-8.52-8.06-11.68-10.67a21.54,21.54,0,0,1-7.3-12c-0.41-2.05.39-5-.05-6.68C927,1966.84,916.47,1963.09,909.56,1963.58Z" transform="translate(0 -1844.4)"/><path class="cls-9" d="M773.26,1966.92c-3.93.41-15.26,3.27-14.2,9.24,0.52,2.92,4.6,2,4.69,5.62,0.07,3.23-3.86,6.88-4.71,9.88,11.45,0.69,18.42-15.61,17.53-25.06Z" transform="translate(0 -1844.4)"/><path class="cls-15" d="M944.41,2131.15c-9.29.87-10.61-13-17.58-15.49-3.44,9.42,5.65,17.73,7.94,25.87-8.43-1.5-11.24-13.15-17.6-16.56-1.76,4.62,1,11.73,2,16.35A79.19,79.19,0,0,0,925,2157c-7.72-2.83-11.94-12.46-18.76-16.85,1.42,12.1,6.73,22.81,8.92,34.43-4.59-3-9.93-5.14-14.07-9-2.68-2.5-6.5-10-9.18-5.7-2.52,4,2.32,14.57,3.76,18.34,1.76,4.6,4.15,8.83,6.11,13.25-1.44-3.26-7.54-7.15-10.22-9.74-4-3.91-7.15-9.34-12.46-11.73-5.42,10.13,5,23.43,6,33.27-10.06.12-10.73-18.93-17.27-23.24-6.45,5.2,2,23.66,2.91,30.25-5.36-1.45-9.53-6.23-12.15-11-1.62-2.94-2.77-11-6.59-11.52-2.51,3.77-1.17,12.54-.17,16.65,1.13,4.69,5.27,10.73,4.82,15.59-9.53,1.17-9.51-15.34-17-16-4,7.18-.59,22.28,5.28,27.84,5.42,5.15,18.75,6.46,25.59,4.41,4.51-1.35,8.17-5.22,12.36-7.57,6.95-3.87,13.43-8.52,20.44-12.27a349.38,349.38,0,0,0,32.32-19.75c11.24-7.64,26.4-17.48,32.76-30,5.25-10.29,5.78-20.79,2.55-31.48Z" transform="translate(0 -1844.4)"/><path class="cls-4" d="M976.71,2108.45c-5.05.73-9.73-1-13.78-4.06-3-2.24-6.18-9.43-8.88-5.41-4,5.93,3,21.22,7,25.5-3.71,5.58-12.87-7-15.07-9.57-3.18,2.36-1.09,10.6-.15,13.87,1.41,4.9,5.73,9.1,6.85,13.73a36,36,0,0,1-13.92-.37c-5.16-1.15-8.24-4.24-12.76-6.33,0.15,9,3,15.9,6.26,23.84,0.33,0.81,3,5.3,2.76,5.87-1.09,3.11-4.59.48-6.25-.54-3.71-2.26-7.34-6.55-11.76-7.1-0.39,8.47,2.62,13,6.5,19.87,5.88,10.5-9.92,1.5-13.75,2.59,0.09,2.64.57,5.23,0.1,7.7-0.42,2.18-1.82,3.92-2.25,6.27-3,.71-8.38-5.66-10.29-7.92-3.25-3.82-3.89-9.48-7.14-12.91-6.5,6.5.26,24,2.31,31.25a33.64,33.64,0,0,1-11.15-6.46c-3.31-3.22-4.33-8.41-8.34-10.86-3.22,8.59-.44,18.91-0.13,27.65a64.53,64.53,0,0,1-7.79-6.42c-2-2-5-8.73-7.15-6-1.56,2-.17,9.78,0,12.24,0.22,3.78,1.09,7.2,1.65,10.82-2.26-3-4.8-5.36-6.87-8.48s-3.25-7.64-5.45-10.13c-3.75,8-.78,16.69.51,24.36-6.06.59-7.89-14.59-8.48-19,0.14,8.58-1.15,17.41,7.9,22.34,14.45,7.86,25.51-1.2,37.84-9.22,9.72-6.32,18.38-13.5,28.48-19.06,13.91-7.68,27.26-14.8,39.64-25,11-9.07,21.83-20.48,29.05-33,6-10.32,6.05-19.14,4.92-30.61Z" transform="translate(0 -1844.4)"/><path class="cls-4" d="M985,2099.76c-25.5,23.22-31,49.43-37.81,59.54-12.12,18.11-27.27,33.34-46.45,44.1-9.36,5.25-19.69,7.66-28.24,14.06-6.78,5.07-17.06,16.06-25.7,16.29,7,9.29,18.74,16.71,30.25,17.56,12,0.87,22.35-8.1,31.87-14,23.14-14.42,44.76-29.15,69.5-41,13.62-6.5,23.5-11.1,32.77-23.93,8.31-11.51,10.92-24.8,12.29-38.18,1.36-13.16-1.91-28.35.8-41.06,0.61-2.86.05-5.39,2.78-7.59,2.57-2.06,6.75-.45,9-2.52,5.05-4.71,8.65-19.57,4.55-25.45C1040.09,2058,1001.7,2084.56,985,2099.76Z" transform="translate(0 -1844.4)"/><path class="cls-4" d="M917.22,2137.73a92.61,92.61,0,0,0,2.55,9.19c1.28,3.62,3,7,5.25,7.82-0.76-.29-3.67-11.56-4.18-13.43-0.43-1.61-3.54-11.5.58-10.89-2-.29-2.48-5.48-5.3-2.71C914.33,2129.47,916.77,2135.87,917.22,2137.73Z" transform="translate(0 -1844.4)"/><path class="cls-4" d="M911.8,2167.8c-1.55-7.62-7.57-17.57-5.22-25.59,2.37-.32,4.89,3.22,5.94,5.28-1.17-.81-1.64-0.33-2.7-0.58-0.38,7.71,1.64,14.77,3.74,21.83Z" transform="translate(0 -1844.4)"/><path class="cls-4" d="M897.49,2180.92a3.13,3.13,0,0,1,.7.9c-1.27-3.74-9.57-19.36-3.42-21.71a47.65,47.65,0,0,1,4.39,4.86c-2-4.94-2.47,3.43-2.15,5.42,0.57,3.55,2.46,6.36,3.19,9.71Z" transform="translate(0 -1844.4)"/><path class="cls-4" d="M878.89,2178.87c0-1.43-.43-5.09.51-6.18,1.42-1.66,3.54-2.09,4.31.71A29.82,29.82,0,0,0,882,2177c-0.43,1.91.06,4.17,0.39,6.06,0.52,3,2.55,6.71.31,9.31C880.28,2188.59,879.05,2183.31,878.89,2178.87Z" transform="translate(0 -1844.4)"/><path class="cls-4" d="M854.58,2209.13c-2.09-7.29-4.23-13.08-3.07-20.79,5.8-2.48,2.61,8.55,3.25,11.3Z" transform="translate(0 -1844.4)"/><path class="cls-4" d="M869,2202.69c-2-4.6-5.63-14.29-3.43-19.3,1.79-4.08,4.15-2.8,4.48,1.37,0.24,3-1.57,5.71-.81,9Z" transform="translate(0 -1844.4)"/><path class="cls-4" d="M839.44,2219.54c-1.66-2.35-2.63-11.41.34-13.53,5.43-3.88,1.75,8.76,1.65,11.1Z" transform="translate(0 -1844.4)"/><path class="cls-16" d="M850.57,2230.7c-3-2.38-3.16-9.22-3.51-13-0.21-2.17-1.73-10.83,2.19-6.37,1.85,2.11,1.07,8.75,1.65,11.57a12.86,12.86,0,0,0,5.91,8.89Z" transform="translate(0 -1844.4)"/><path class="cls-16" d="M864.33,2223.21c-1.3-5.81-8.8-11.56-6.33-19.91,4.06-1,2.37,14,3.8,16.82Z" transform="translate(0 -1844.4)"/><path class="cls-16" d="M878.47,2214c-1.2-3.2-9.61-24.11-3-24.13,2.61,5.13-.57,16.62,4.31,20.11Z" transform="translate(0 -1844.4)"/><path class="cls-16" d="M895.75,2202.83c-4.19-2.1-14.38-21.36-7.6-24.78,4.28-2.15,4.26,17.47,7.71,20.31Z" transform="translate(0 -1844.4)"/><path class="cls-16" d="M916.84,2190.71c-3.21-1.2-7.67-6.83-7.62-10.31,5.41,0,6.95,7.16,10.33,9.49Z" transform="translate(0 -1844.4)"/><path class="cls-16" d="M930.06,2177.71c-3.34,1.83-16.73-17.39-10.8-19,4.93-1.39,6.58,17.27,12.84,17.18Z" transform="translate(0 -1844.4)"/><path class="cls-16" d="M938.24,2159.06c-3.49-3.58-6.78-9.43-8.77-14-1-2.4-2.52-7.76,2.28-5.42,4.16,2,4.51,15.47,6.49,19.45h0Z" transform="translate(0 -1844.4)"/><path class="cls-16" d="M954.89,2135.69c-4.85-6.94-8.71-10.75-9-18.54,3.93-1.41,8.17,12.76,8.71,15.78Z" transform="translate(0 -1844.4)"/><path class="cls-16" d="M994.23,2093.91c-11.27,1.85-18.43,14.9-24,23.55-6.72,10.42-13.57,20.57-20.18,31-10.26,16.18-20.12,34.89-36.79,45.43-11.82,7.47-24.58,12.38-36.42,19.34-9.83,5.79-19.67,12.2-29.56,17.41,6.48,9.15,23-4.55,28.75-8.68,13-9.33,28.36-14.57,41.61-23.49,14.91-10,26.8-21.11,35.35-37.06,8-15,16.1-30,24.57-44.64a137.43,137.43,0,0,1,13.2-18.58Z" transform="translate(0 -1844.4)"/><path class="cls-16" d="M1020.28,2092.45c-10.73-.88-17.76,29.66-20,36.08-2.69,7.64-4.06,15.62-7,23.22-2.79,7.36-6.9,13.81-10.81,20.6-10.12,17.57-25.31,26.35-40.72,37.79,6.8,1.41,15.11-3.36,21.15-6.17a243.34,243.34,0,0,0,23.2-12.87c12.9-7.79,23-17.77,30.07-31.38,5.87-11.35,8.44-21.5,7.33-34.29-0.69-8-4.66-21.14-1.72-28.66Z" transform="translate(0 -1844.4)"/><path class="cls-16" d="M895.92,2228.42c-5.64,4.18-10.42,8.48-17.18,10.78-2.19.75-7.79,1.43-8,4-0.39,4.39,7.71,4.32,10.17,4.08,9.25-.9,20.63-8.07,27.76-13.92,6.9-5.66,9.87-15.41,18.1-19.67-2.28,1.18-6.06.9-8.61,1.81-2.94,1-5.42,2.8-8.22,4.12A77.16,77.16,0,0,0,895.92,2228.42Z" transform="translate(0 -1844.4)"/><path class="cls-4" d="M677.2,2688.4h2.87c1.49-4.51,5-9.15,6.3-4a18,18,0,0,1,.34,4h10.73c-1.13-3.84-.65-3.21-6-4.63-6.25-1.66-3.87-5.08-5.57-9.92-1.37-3.94-6-4.69-7.48-8.18l-2.16.77c-0.94,1.66.3,11,.23,13.91A31.16,31.16,0,0,0,677.2,2688.4Z" transform="translate(0 -1844.4)"/><path class="cls-7" d="M683.39,2688.4l-0.1-.28-0.4.28h0.5Z" transform="translate(0 -1844.4)"/><path class="cls-7" d="M658.24,2680.37c2.58,1.32,3.27-.25,5.9.22,4.14,0.75,5.66,4,6.61,7.81h4.8a25.67,25.67,0,0,1-4-13.12c-0.27-6.72,2.77-13.15,2.42-19.7-3.62,2.8-7.61,26.7-15.39,19.87-3.85-3.39-1.44-9.42-8-9.8-2.85-.16-12.65,2.32-8.37,5.73,0.92,0.73,5.27.57,6.83,1.25a22.78,22.78,0,0,1,5.51,3.62C655.6,2677.18,657.09,2679.77,658.24,2680.37Z" transform="translate(0 -1844.4)"/><path class="cls-4" d="M662.39,2688.4c-1.43-2.49-4.93-2.19-5.7-5.53l-0.72,4c0.19,0.53.35,1,.51,1.56h5.91Z" transform="translate(0 -1844.4)"/><path class="cls-7" d="M654.4,2688.4a6.9,6.9,0,0,0-2.11-3.82c-2.57-2.44-5.9-4.06-8.75-6.1a44.41,44.41,0,0,0,4.36,9.92h6.51Z" transform="translate(0 -1844.4)"/></g><path class="cls-5" d="M988.06,1972.4c5.58-9.74,18.27-1.06,19.94,7.23,0.76,3.79-2.73,8-2.94,12.83-0.35,8.16,1.15,7.92,6.53,4.58,8.82-5.47,14.8-9.94,21.44,1.23,5.39,9.06-7.79,15.43-4.62,26,5,0.87,15.11-1.2,14.86,5.57-0.08,2.24-4.95,4-4.41,6.92s4.13,2.32,6.69,3.71c4.38,2.36,9.14,7.54,10.65,12.11,1,3.08-.48,6.92.65,9.36,1,2,4.53,4.69,6.1,6.54,3.52,4.15,8.34,8.89,9.56,14.27,0.69,3.06-1.37,6.09-.91,8.41,0.8,3.9,4.2,5.71,6.6,8.63,9.72,11.79,7.68,23.12,5.68,37-1.36,9.42-.55,19.76-1.27,29.39-0.25,3.25,2.48,30.34-3.05,28.57-3.71-1.17-1.52-24.75-2.19-28.89-1.63-10.13-6.27-16.54-10.19-25.6-11.49-2.47-5.52,22.56-5.63,28-0.24,10.61-5,21.31-7.59,31.64-2.69,10.75-4,22.59-6.92,33.13-2.47,8.89-5.17,18.56-13.18,24,1.1-24.48,14.31-51.05-.13-74.07-2.74-4.38-9.63-11.11-13.39-3.72-2.4,4.72,3.35,16.39,4.41,21.12,3.45,15.47,1.36,31.64-1.18,46.93-1,5.86-1.13,18.91-7.8,21.58-1.12-7.34,1-13.72,1.18-20.92a169,169,0,0,0-1.16-20c-1.22-12.38-2.5-27.35-13.47-35.32-2.39-1.73-12.33-7.87-15.78-7.14-5.55,1.16-5,14-4.76,19.94,0.81,18.93.95,36.49-2.06,55.14-1.29,8-4.29,40.26-13.2,42.36-5.65-8.44,1.19-31.5,2.46-41.1a151.1,151.1,0,0,0-.82-42.55c-1-6.16-2.31-14-4.44-19.62-3.18-8.45-6.36-5.14-13.08-3.07-7.77,2.39-12.2,2.14-12.06,11.41,0.29,19.59,3.64,35.18-1.91,54.71-1.18,4.16-10.71,30.62-16.83,24.71-2.78-2.67,2-11.5,2.78-14.31a132.75,132.75,0,0,0,3.34-17c2.09-15.38.83-32.09-1.64-47.35-4.8.74-11.62,8.11-16.36,10.84-6.71,3.86-11.36,3.85-19.41,4.14,7.56-10.13,19.63-17.36,29.89-24.57,11.93-8.37,24.11-16.36,36.27-24.48s23.5-17.11,34.88-26.22c6-4.82,9.6-7.63,12.75-14.43,5.29-11.44,12.76-23.47,16.36-35.24,4-13.23-5.66-6-10.56-13.62-2.85-4.41-.73-15.15.12-20.27,1.07-6.49,2.47-13.38,1-20.15-2.21-9.92-10.46-13.27-17.54-19-13.43-10.83-9.46-27.89-11-43.41Z" transform="translate(0 -1844.4)"/><path class="cls-4" d="M917,2314A278.86,278.86,0,0,0,897.7,2364c-2,7.09-6.94,17.45-1.33,23.76a11.25,11.25,0,0,0,19.23-3.29c3-8.06.48-19.45,1.18-28a45,45,0,0,1,9.06-23.4c5.16-7.11,12.41-12.07,19.55-17,4-2.8,16.24-8.28,16.47-14.11,0.3-7.8-12.37-9-16.1-15.12-2.72-4.45-2.51-22-11.79-16.18-2.71,1.68-4.17,16.76-5.59,20.39C925.24,2299,920.9,2306.42,917,2314Z" transform="translate(0 -1844.4)"/><path class="cls-4" d="M908.73,2490.14c-1.8-3.52-4.07-5-5-8.67-1.27-4.84.4-8.47,0.76-12.58,0.87-10-4.29-14.11-5.45-23.74-1-8.45,1.71-16.78-.24-25.67-1.21-5.52-7.87-18.08-3.57-24.14,10.5-14.82,27.51,25.35,31,31.58,3.93,7,10.7,14.92,13.38,22,3.11,8.18.7,19.08,2.62,27.66,1.45,6.5,5.06,14.55,3,20.83-3.58,10.84-6.31,2-8.08-5.9-0.63-2.75-1-9.67-2.34-12-2.18-3.9-5.41-3.59-7.55-8.18-1.76-3.77,1.23-9,0-12.28-1.57-4.09-6.81-3.22-6.48-9-1.38,7.51-1.72,17.42.46,25,0.8,2.79,5.37,7.87,5.37,10.89,0,4-4.21,6.47-4.67,10.46-0.64,5.57,3.56,12.39,4,18.21,0.17,2.06-1.75,17.87-1.87,17.77-6.13-5.87-12-14.3-13.53-22.84C909.36,2503,912,2496.52,908.73,2490.14Z" transform="translate(0 -1844.4)"/><path class="cls-4" d="M1004.55,2315c-0.44,1.15-.86,2.31-1.23,3.48-1.08,3.25-1.38,6.59-2.71,9.66-1.62,3.75-4.32,7-5.92,10.82-3.32,7.88-2.48,17.36-2.17,25.6,0.74,20.64,12.2,33.41-11.32,43.47-5,2.16-4.34,2.32-8.09,5.51-1.52,1.3-.64,3.9-3.06,5.4-2.2,1.36-5.51.07-7.76,0.74-14.34,4.29.39,6,8.41,6.11,9,0.12,14.92,5.39,20.51-4.32,2.14-3.73,1.47-7.26,4.87-9.36,3.59-2.22,9.3-.7,13.36-3.24,7.5-4.71,10.92-14.47,5.47-21.95,7.62-11.83,5-11.86.91-23.55-5.43-15.42-2.92-32.43-3.13-48.43-1.45,3.23-4.56,5.33-6.4,8.28-2.06,3.28-1.83,5.1-1.87,9-0.11,9.36-1,18.58,1.07,27.78,0.71,3.11,3.45,8.38,2.29,12-2.27,7.14-4.94,4.76-6.86-1.55-3.48-11.41,2.75-23.25,6-33.92s5.85-21.36,12.06-30.83c1.45-2.2,8.37-9.36,6.49-12.24-1.58-2.4-10.21-.29-12.6.11C1010.71,2300.94,1007.25,2307.84,1004.55,2315Z" transform="translate(0 -1844.4)"/><path class="cls-6" d="M943.25,2293.08c2.53,5.6-3.64,7.39-6.76,10.85-3.9,4.31-7,9.17-11.1,13.35A92.61,92.61,0,0,0,907.57,2344c-2.1,4.63-3.23,10.2-2,15.24,2.36,9.5,4.23.61,5.32-4,4.78-20.18,17.36-38.66,37.74-45.39,3.63-1.19,9.38-1.89,10-6.56,0.61-5-5-6.12-8.18-8.1-7.44-4.69-6.35-13.92-9.07-21-2.36-6.12-8.19-1.94-8.44,2.9C932.52,2284.78,940.57,2287.18,943.25,2293.08Z" transform="translate(0 -1844.4)"/><path class="cls-6" d="M1001,2394c1,4.51,4.36,4.91,1,9.78-2.29,3.29-6.55,5.54-10.75,4.67,7.64,5.5,15.58,2.61,19.19-5.5,2.2-4.93,0-4.69-.93-9-0.84-3.9,1.12-4.94,3.48-7.51,5.51-6,4.32-23.22-2.59-28.51,0.11,6.33,2.94,14.29.41,20.34C1008.37,2383.89,999.4,2386.84,1001,2394Z" transform="translate(0 -1844.4)"/><path class="cls-6" d="M914.57,2431.89c6,7.55,15.47,10,16.9,20,1.2,8.5.45,14.74,5.36,21.94,2.18,3.19,2.56,4.63,3.22,8.48,0.47,2.74,1.42,8.06,5.08,7.21,0.27-4.18-1.94-8.94-2.87-13-0.83-3.64-1.25-7.43-2.08-11.07-0.89-3.91-2.27-7.81-2.41-11.9-0.14-3.83,1.24-6.49-.85-10-4-6.59-11.14-12.23-15.89-18.48-4-5.22-3.64-12.64-8.2-17.53-3.16-3.37-7.18-3.32-8.23,1.68C903.17,2416.16,910.55,2426.79,914.57,2431.89Z" transform="translate(0 -1844.4)"/><path class="cls-6" d="M920.63,2522.71c2.68-4.84,2.41-9,.8-14.41-1.36-4.56-5-8.11-5.19-13-0.21-5.71,4-4.94,5.36-9.48,1-3.31-2.55-7.61-3.87-10.37-4.12-8.63,2-18.91-3.19-27.41-1.48-2.43-3.89-3.11-5-5.92-1.07-2.61-.54-5.75-1-8.49-0.32-1.9-1.13-5.9-4-5.8-3.57.11-1.69,11.92-1.36,14.27,0.82,5.75,3.33,9.75,5.8,14.89,1.79,3.71,2.27,6.71,1.18,10.46-0.76,2.62-2,2.62-1.68,5.75,0.22,2.22,1.54,4.4,2.44,6.45,3.54,8-1.2,13.53.39,22.25,0.83,4.55,3.4,7.61,5.19,11.75,1.31,3,1.33,6.9,5.1,7.85Z" transform="translate(0 -1844.4)"/><path class="cls-3" d="M896,2403.1c-1.74,1.59,1.32,18.59,3.2,21.45s6.39,3.41,9,5.9a20.29,20.29,0,0,1,5.46,9.92c0.77,4.54-.88,5.85,3.59,8.7,3.93,2.5,6.86,3.32,8.62,7.93,1.27,3.35,1.33,7.43,2.2,10.93,1.12,4.5,3.53,5.49,6,9.24-2.64-7.2-2.13-15.46-4.63-22.76-1.37-4-1.75-5.69-5.1-7.95s-7-3.59-9.11-7.34c-1.77-3.18-2.94-6.34-4.94-9.44s-5.52-5.15-7.26-8.33c-1.93-3.51-.77-7.77-1.83-11.52-1-3.58-4.17-6.09-5.39-9.5Z" transform="translate(0 -1844.4)"/><path class="cls-3" d="M995.39,2401c-4.7,7.18-15.3,8.74-20.69,14.83-1.76,2-2.56,1.44-.33,3.54,1.3,1.23,4.63,1.76,6.39,1,3.42-1.41,4.37-6.94,6.8-9.74,3.15-3.64,8.49-4.27,10.32-8.7,1.47-3.57.45-8.5,1.69-12.4,1.5-4.71,7.61-7,4.84-11.49-2.6-4.19-5.33-8.73-8.34-12.68-1.38,4,.23,8.77,1.11,12.75,1.13,5.12.73,7.27,0,12.31C996.6,2394,997.52,2397.75,995.39,2401Z" transform="translate(0 -1844.4)"/><path class="cls-5" d="M925,2305.84c3.79-1.26,13.55-4.81,14.54-9.43,0.76-3.46-6-6.58-7.21-10.59C932.35,2285.82,927.72,2303,925,2305.84Z" transform="translate(0 -1844.4)"/><path class="cls-4" d="M879,2177.42c11.07,14.54,22,29.17,33.79,43.38,11.6,14,18.62,27.12,25.42,43C943,2275,955.85,2293,970.69,2291c7.74-1,11.18-9,17.75-12.71,7.45-4.18,15.74-3.94,22.43-10.29,4.78-4.54,10.9-12.08,7.44-17.73-4.43-7.22-17.41-6.06-24.33-6.23-9.08-.22-18.56,1.83-27.14-1.45-8.76-3.34-16.59-10-22.61-17-12.28-14.32-22.65-29.83-32.11-46.14-7.08-12.22-8.67-46.31-28.17-46.46-9.18-.07-18.45,14.31-19.83,22.39C862.23,2166.45,873.07,2169.62,879,2177.42Z" transform="translate(0 -1844.4)"/><path class="cls-4" d="M1042.64,2186.87c5.7,8,7.95,16.68,11.76,25.59,3,7.08,8,15.48,3.08,22.83-5.22,7.8-10.14,6.25-11.42,17-1,8.8-1,15.1-10.56,19.74-8.72,4.22-16.8,1-25.2,1.59-11,.73-14,6.24-18.28,15.51-3,6.45-9,18.5,1,21.64,5.81,1.83,18.2-5.69,24.72-6.65,9.48-1.39,15.83-2.91,23.69-8.16,15.8-10.55,23.16-23.18,25.8-41.31,2.3-15.83-.55-40-5.15-55.23-4.78-15.83-17.76-27.39-28.27-39.83-4.53-5.36-6.62-11.64-10-17.49-1.76-3.08-4.9,7-4.95,7.26-0.67,3.38.75,10.5,2.07,13.71C1025.13,2173.19,1036.41,2178.15,1042.64,2186.87Z" transform="translate(0 -1844.4)"/><path class="cls-6" d="M984.61,2245c8.69-.33,17.37-1.08,25.73.73,9.13,2,8.32,11.16,2.38,17.23-9.36,9.57-14.37-7.13-23.32-7.91-5.5-.48-10,3.18-15.08,4.31a26.62,26.62,0,0,1-15.07-1.11c-0.41,11.76,20.25,8.8,18.63,20.25s-18-1.79-20.88-6.73c-4.53-7.8-5.45-16.75-10.21-24.74-4.35-7.29-10.29-17.7-10.25-26.31a13.72,13.72,0,0,0-.64-2.6c3.12,0.64,5.68,7.38,8,9.93a49.4,49.4,0,0,0,12.35,9.44C964.78,2242.25,974.82,2245.39,984.61,2245Z" transform="translate(0 -1844.4)"/><path class="cls-6" d="M1013.91,2276.53c-8.68-.33-19.5,3.74-20.19,14.38-0.62,9.55,7.33.37,9.74-1.64,4.19-3.49,10.8-3.55,16.32-3.73,8.43-.29,23.68,3.18,25.5-8.64,0.47-3.05-.87-5.28-1-8.27-0.08-2.43,1-5.59,1.4-7.85-0.39,2.54-5.83,10.86-8.34,12.6C1031.52,2277.45,1020.67,2276.79,1013.91,2276.53Z" transform="translate(0 -1844.4)"/><path class="cls-5" d="M924.83,2215.13c-5.45-8.63-22.77-41.56-26-49.86-3.75-9.71-6.85-29.57-19.65-17-3.27,3.22-7.1,6.88-6.1,11.85,1.21,6,9,12.58,13.35,16.58,6.44,5.92,27.25,34.72,31.51,42.34,3.28,5.87,7.68,11,10.75,17,3.73,7.24,6.34,17.47,11.14,23.79-2.9-3.81-.51-14.94-2.32-20C934.46,2231.09,929.73,2222.86,924.83,2215.13Z" transform="translate(0 -1844.4)"/><path class="cls-15" d="M853.49,2237.87c-3.8-1.59-7.42-3.18-5.78-7.78,1.47-4.13,5.93-7.85,9-10.92,7.38-7.49,15.61-12,24.52-16.92,19-10.52,29.13-29.58,40.38-46.92,3-4.62,5.46-10.18,9.3-14.29,2.73-2.92,6.05-5.4,8.47-8.72a76.1,76.1,0,0,0,12.36-24.52c1.09-3.63,3.16-11.61,7.73-10.94,4.94,0.72,6.11,8.94,7.86,12.17a46.53,46.53,0,0,0,7.22,9.87c4.71,4.59,7.4,1.28,12.86,1.55,14.8,0.71.82,25.2-2,30.43-12.85,23.73-36.61,42.78-59,57.4-6.5,4.25-13.34,7.92-19.85,12.12-6.08,3.92-11,10-17.81,12.79-7.94,3.29-17.15,4.58-25.65,5.42Z" transform="translate(0 -1844.4)"/><path class="cls-5" d="M753.54,1986.38c-0.47,5.39-7.61,11.4-10.78,15.08,14.71,5.52,41.36-6.59,45.61-21.87,2.62-9.41,2-19.29-9-20.83-12.93-1.82-29.54,9.89-38.78,18.18C745.36,1980.39,754.29,1977.58,753.54,1986.38Z" transform="translate(0 -1844.4)"/><path class="cls-5" d="M813.33,1986.86c15.43,0,20.66,5.69,24.67,17-0.1-7.81-2.79-17.57-7.63-23.79-3.54-4.55-5.33-5.91-10.38-3.29C818.8,1977.42,811.41,1986.86,813.33,1986.86Z" transform="translate(0 -1844.4)"/><path class="cls-5" d="M853.57,1956.43c-6,4.92-13.38,9.78-19.77,14.18,0.9,8.18.91,14.63,4.71,21.58,2.4,4.42,6.06,8.55,8.59,12.71,5.57-.64,4.73-19.92,13-24.27,4.48-2.34,8.76-1.83,10.95,2.68,2.53,5.26-1.94,7.94-2.13,12.55-0.31,8.1,3.27,2.68,7.68,5.7s2.68,9.2,5.26,13.15c2.18,3.34,6,6.54,10.49,4.61,5.52-2.4,3.54-7.37,2.32-11.64,7.6-1.53,7.63.43,11.46,5.43,3,3.94,7.66,9.06,12.5,3.62,8.27-9.3-4-31.13-9.41-38.2-7.8-10.27-15-23.5-29-23.05-13,.41-22.71,5.18-34.2,9.23Z" transform="translate(0 -1844.4)"/><path class="cls-5" d="M898,1957.14c0.8,8.92,14.37,15,18.77,23.33a29.2,29.2,0,0,1,2.82,9.57c1.31,8.25,1.95,13.21,6.8,20.22,8.5,12.31,18.62,23.17,34.53,17.31,15.57-5.74,15.19-20.43,10.18-34.26-2.63-7.24-2.44-13.59-11.37-11.6-4.75,1.06-16.25,9.61-20,8.88-4.54-.87-7.06-13.06-4.84-16.91,3.88-6.69,15-5.71,20.81-6.59-3.57-11.31-15.57-10.26-25.07-11.75-5.09-.8-9.73-3.71-14.73-4.22C913.68,1950.91,897.73,1954.23,898,1957.14Z" transform="translate(0 -1844.4)"/><path class="cls-4" d="M1021.11,2036c-1.92-7-1.51-11.17-1.82-18.21-0.38-8.87-2.93-12.22-8.54-18.41-8.29-9.14-16.64-17.32-24.14-26.84-3.39-4.3-5.8-9.66-10.06-13-2.5-2-3.68-2.63-6.77-2.87-3.72-.3-6.8,3.08-9.78,2.64a2,2,0,0,1-1.5,0c-2.39-4.16-7-7.42-9.64-11.45-3.5-5.41-5.84-8.06-12.56-8.6-12.31-1-22.4,10.75-34,.45-8.45-7.49-16.32-19.75-28.59-10.13-4.06,3.18-7.13,8.08-11,11.54-10.23,9.16-18.77,13-32.83,12.64-10.4-.28-20.24-0.07-31-0.25-10.32-.17-19.87-1.8-30.1,1.89s-25.52,8-32.08,17.6c-8.63,12.61-5.09,29.64-6.86,43.84,6.85-23.69,54.23,4.21,67.6,7,13.15,2.76,26,5.83,39.24,7.78,13.77,2,27.08.64,41.06,1,19.33,0.5,37.34,5.25,56,8.84,17.79,3.41,31.77,9,47.69,17.3,8.35-4.08,18.52.32,27,2.92,8.75,2.66,17.75,3.55,25.76,8C1028.16,2059.28,1024.31,2047.65,1021.11,2036Zm-275.19-42c-20.52-12.32,20.41-25.4,26.75-27.11l4.23,0.42C780.64,1980.34,758.28,2001.46,745.92,1994Zm87.33,4.32c-6.11,5.56-16.92-7.16-17-13.16l5.55-3.06C828.87,1980.52,839.68,1992.49,833.25,1998.35Zm19.66,4.33c-7-4.88-17.69-14.15-15-23.92a11.47,11.47,0,0,1,3.14-5.22c6-6,18.33-7.49,25.14-9.8,8-2.71,13.92-6.62,22.14-.75,9,6.45,15,16.62,19.71,26.34,2.35,4.85,6.73,8.77,8.06,14.25C922.2,2028.63,863.24,2009.84,852.91,2002.67Zm111-2.12-1.35.42c-0.4,7.27,5.81,16.1-5.06,17.91-6.76,1.13-14.19-2.87-19.33-7.1-5.86-4.83-9.52-10.08-10.61-16.69-0.58-3.5-.55-6-2.8-9.55-2.36-3.69-5.9-7-8.78-10.31-4.4-5.15-11.54-12.29-10.59-19.65,5.8-.4,11.82,7.52,17.27,9.47,7,2.53,15.11,1.2,21.86,4.73,5.1,2.66,6.63,9.92,9.73,14.27C957.7,1988.82,965,1994.07,964,2000.56Z" transform="translate(0 -1844.4)"/><path class="cls-6" d="M744.52,1978.06c-9.63,9.62,0,23.64,10,15.75-9.49.64-10.21-9.13-8.31-15.08Z" transform="translate(0 -1844.4)"/><path class="cls-6" d="M816.28,1985.19c-6.48,11.57,19.93,21.08,17.59,9-1.89,6.87-14-.93-15.7-6.69Z" transform="translate(0 -1844.4)"/><path class="cls-6" d="M884.14,2013.09c-8.94-1.85-17.12-6.13-24.93-10.71-3.65-2.13-20.18-12.53-21.11-16.22,4.27,17,20.42,23.4,35.34,27.45,6.58,1.79,25.3,8,30.14,1.58C902,2017.24,886.63,2013.61,884.14,2013.09Z" transform="translate(0 -1844.4)"/><path class="cls-6" d="M939.15,1968c-4.06,2.89-10.79.26-15-.94,2,2.9,5.69,8.4,9.23,9.87,1.9,0.79,5.22-.69,6.71.15,3.65,2.06.72,1.18,2.16,4.87,1.6,4.08.55,6.36,6.63,8.5,4.66,1.64,9.9.13,12.85,4.52,0.08-8.4-8.06-7.77-12.74-11.84-3.35-2.93-4.4-9-5.43-13Z" transform="translate(0 -1844.4)"/><path class="cls-16" d="M859.56,1954.6c8.68-1.16,19.24-3.34,26.83,1.35,7.76,4.8,12.52,10.84,18.36,17.74a87.58,87.58,0,0,1,13.5,21.45c2.39,5.44,6.61,22,15.18,20.18,0.45-4.7-3.48-9.85-5.2-13.87-2.09-4.89-3.25-9.57-6.38-13.89-6.83-9.37-13.57-17.94-19.35-28.18-2.26-4-4.64-9.5.9-11.82,6-2.52,10.58,1.45,15,4.71,5.11,3.78,8.81,5.76,14.66,1.75,3-2.07,8.1-7.92,5.39-12-2.93-4.38-10.78-.58-14.35.2-4.25.94-10.38,1.8-14.32,1.39-10.29-1.08-17.41-15.23-27.94-11.84-5.48,1.77-8.06,7.08-11,11.55C867.84,1948,862.31,1950,859.56,1954.6Z" transform="translate(0 -1844.4)"/><path class="cls-16" d="M792.7,1955.19c-5.91-1.82-13.54,0-19.38,1.37-4.76,1.12-14.64,2.22-16.56,7.75,4.41,3.71,16-1.93,22.18-.11,7.34,2.16,10.82,6.8,8.4,14.24A41.3,41.3,0,0,1,775.43,1996c-2.86,2.46-6.51,3.8-9.3,6.22s-3.23,2.33-.08,4.73c7.64,5.85,49.73,9,39.85-8.41-5-8.86-16.66-29-4.16-36.64,5.94-3.64,13.55-1.66,19.49-5.25-2.06-2-6.47-.92-9.49-0.61-3.82.39-7-.74-10.65-0.62Z" transform="translate(0 -1844.4)"/><path class="cls-16" d="M967.36,1962c-4.78,2.8-2.73,8.71-.66,12.77,5.37,10.55,18.53,15.81,26.5,24.27,6.78,7.2,4.31,18.53,10.46,26.86,2.86,3.88,7.43,5.8,10.06,10,2.05,3.27,2.46,7.67,4.92,10.62,5.07-5.29-2.64-19.39-3.77-25.62-1.32-7.33-3.92-14.06-9.16-19.41-5.51-5.62-13-10.92-17.25-17.69-3.31-5.33-3.61-12.55-7.5-17.49C978.23,1962.84,971.63,1959.53,967.36,1962Z" transform="translate(0 -1844.4)"/><path class="cls-4" d="M729.33,2013.28c-1.12,5.68,2.8,13.44,4.19,15.51,4,6,8.59,13.57,15.6,16.34-1.43-10.41-15.1-21-8.25-32.39,2.05,5.46,2.86,11.4,5.79,16.67,2.38,4.31,7.46,13,12.35,14.34,0-7.73-9.56-21-3.35-28,0.63,6.41,5.76,27.8,13.93,28-0.08-5-4.26-20.8,1.62-22.9,3.75,8.66,5.25,27.78,16.47,31,0-5.74-2.6-11.48-2.76-17.39-0.11-3.71-.2-9.63,3-5.2s3.6,11.68,6.52,16.57c1.85,3.07,5.46,10,9.28,10.13-0.19-5.92-5.43-19.88-1.66-24.87s6.87,10.67,8.34,13.83,7.67,16.11,11.16,9.94c2.24-4-5.17-18.34,1.78-20.2,4,8.94,3.77,27.17,15.8,30.08,0.08-6.85-2.51-13.94-3.08-20.86-0.35-4.15-.24-10.1,3.84-4.8,4.48,5.81,3.35,26.36,15.31,24.64-0.15-6.63-1.28-13.31-1.34-19.94,0-3.62.86-8,4.07-4.28,1.05,1.24,1.37,6.46,1.89,8.18a51.08,51.08,0,0,0,4.42,10.9c1.75,3,5.93,10,9.83,10-0.08-4.73-6.74-27.19.66-27.22,1.36,6,7,30.55,16.23,28.9-0.87-8.63-3.27-17.16-1.32-25.83,0.32,6,3.87,22.88,10.78,24.36,1.76-5.47.26-13,1-18.92,0.69-5.56,2.51-8.68,5.59-2.89,2.15,4.07,3.57,13,7.82,15.32,4.43,2.41,3.86-3.25,4.18-7,0.18-2.23-.29-14.37,3.16-14.32,2.54,0,4.92,13.39,6,15.53,1.36,2.73,4.29,7.88,6.64,4.9s-2.22-11.52.71-13.85c2.6,3.82,4.57,12.38,9.28,13.47,2.71-5.44,5.86-14,5.66-20.14-0.29-8.82-12.34-8.35-19.07-8-8.44.42-14.43-3.88-22.26-5.5-6.25-1.27-12.85-2.42-19.29-3.37-9.22-1.36-18.82-1.33-28.12-2.22-8.29-.8-15.13-3.09-23.62-2.57-9.06.55-17.29,2.22-26.46,1.66-6.66-.41-13.58-1.42-19.94-2.08-11.5-1.2-19.85-5.85-30.34-10.5-5.52-2.45-22.21-5-26.82.56Z" transform="translate(0 -1844.4)"/><path class="cls-16" d="M747.87,2020.36c0.52,5.36,3.9,23.9,12.24,23.23,0.22-5.24-3-9.15-5.31-13.45-2.18-4-2.85-8.43-3.34-12.92Z" transform="translate(0 -1844.4)"/><path class="cls-16" d="M764.25,2022.65c-5.54,4.19.93,16.14,4.22,20,2-5.69-5.5-16.21-1.51-20.86Z" transform="translate(0 -1844.4)"/><path class="cls-16" d="M778.81,2029c-2.51,5.64,2.57,19.08,8.2,22,0-7.1-2.41-14.27-3.12-21.38Z" transform="translate(0 -1844.4)"/><path class="cls-16" d="M794.26,2033.06c-3.33,6.2,4.26,18.73,9.87,21.82,0.09-7.25-3.64-15.44-4.4-22.92Z" transform="translate(0 -1844.4)"/><path class="cls-16" d="M810.86,2037.55c0.22,4.69,4.26,18.71,10.14,19,0.5-7.23-5.3-13.7-4.24-21.27Z" transform="translate(0 -1844.4)"/><path class="cls-16" d="M830.61,2040.06c-0.43,7.1,1.75,18.52,8.78,22-0.28-7.59-3.76-14.52-5.41-21.78Z" transform="translate(0 -1844.4)"/><path class="cls-16" d="M844.91,2043.66c0.29,4.89,3.34,14.55,8.31,16.39,2.29-6-3.76-14.62-2.12-21.46Z" transform="translate(0 -1844.4)"/><path class="cls-16" d="M863,2046.34c0.23,4,5,17,10,17.34-0.69-6.26-4.13-12-4.52-18.45Z" transform="translate(0 -1844.4)"/><path class="cls-16" d="M881.66,2048.95c0.33,6,3.81,14.2,9,17.08-0.55-5.24-2.68-11.52-4.5-16.41Z" transform="translate(0 -1844.4)"/><path class="cls-4" d="M1073.25,2098.58c-4.47-5.54-9.21,2.5-8.79,6.87,0.75,7.87,5,17.2,7.85,24.59,2.63,6.9,5,13.71,6.12,21,1,6.36.8,13,2,19.27,2.16-3.92,1.78-12.72,2.18-17.57,0.55-6.88,1.22-13.66.62-20.56s-0.9-24.21-7.81-28.21Z" transform="translate(0 -1844.4)"/><path class="cls-4" d="M1048.62,2158c1.07,3.79,1.41,15.3,4.35,17.29,1.69-2.13,1.72-6.82,2.36-9.74a52.13,52.13,0,0,0,1.3-15.22c-0.31-4.54-2.57-20.53-11.22-16C1039.05,2137.75,1047.27,2153.26,1048.62,2158Z" transform="translate(0 -1844.4)"/><path class="cls-4" d="M1056.7,2070.49a8.58,8.58,0,0,0-3.14,0c-4.86,1.1-14,12.82-7.62,16.87,3.68,2.33,7-2.36,10.17-3.49,3.84-1.36,8.14-1,12.1-1.61,1.89-.32-3.84-8.4-4.58-9A16.61,16.61,0,0,0,1056.7,2070.49Z" transform="translate(0 -1844.4)"/><path class="cls-4" d="M1034,2050.66c2.41,2.07,8.79.67,11.89,1.73a16,16,0,0,1,7.93,5.69c0.33,0.46.85-3.33,0.84-3.54-0.09-2-1.61-4.16-2.68-5.79-1.51-2.31-2.94-4-5.51-5.13C1042.56,2042,1027.38,2045,1034,2050.66Z" transform="translate(0 -1844.4)"/><path class="cls-4" d="M1024.54,1994.72c-3.86-1.8-8.66,17.53-3.68,19.5,4.17,1.66,8.76-13.62,11.23-16.34Z" transform="translate(0 -1844.4)"/><path class="cls-9" d="M1031,2004.11c-5.84-.3-10.53,22.34-10.11,27.62,0.39,4.8,2.46,5.52,4.76,1.33,1.74-3.18,2-10,1.85-13.56Z" transform="translate(0 -1844.4)"/><path class="cls-9" d="M1039.17,2030.05c-3.3-1.17-10.69,4.59-13.2,7.43-2.73,3.09-2.52,5.78-1.22,10.15,4.47,0.5,8.48-3.39,12.82-4.69,0.24-3.62-6.41-3.74-2.38-8Z" transform="translate(0 -1844.4)"/><path class="cls-9" d="M1053.92,2060.92c-5-2.64-16.57,3.75-8.92,5.88,3.17,0.89,6.87-.5,10.07.11,2.84,0.55,4.9,2.39,7.57,3.18Z" transform="translate(0 -1844.4)"/><path class="cls-9" d="M1067.14,2087.48c-3.53.29-17.39,0.65-15.94,7.06,3.86,0.69,7.11.06,11,.11,3.51,0,7,2.36,10.23,1.79Z" transform="translate(0 -1844.4)"/><path class="cls-9" d="M1075.6,2156.31c-3-12.82-7.5-23.17-15.15-33.62-4.6-6.28-8.62-13.73-10.44-21.22-4.83,6,.46,27.62,3.9,34.12,3.19,6,4.47.91,9.92,2.52,4.64,1.38,7.68,5.55,9.8,9.48Z" transform="translate(0 -1844.4)"/><path class="cls-9" d="M1026,2134c1.71,11.73,10.27,20.7,16.77,30a64.17,64.17,0,0,0-5.41-25.18c-3.74-7.9-4.5-15.88-4.36-24.55,0.17-9.72,4.06-20,2.92-29.62-10.07-1.88-9.1,8.61-9.61,15.08C1025.43,2111.41,1024.32,2122.28,1026,2134Z" transform="translate(0 -1844.4)"/><path class="cls-9" d="M1013.12,2172.51c-1.94,4.27-5.21,7-8.5,10.2-3.52,3.41-4.24,3.61-.29,6.81,4.46,3.62,9,5.78,12.6,10.5a37.84,37.84,0,0,1,6.62,14.89c2.58-7.73-2.79-20-4-27.87a99.31,99.31,0,0,1-.65-23.46Z" transform="translate(0 -1844.4)"/><path class="cls-9" d="M978.37,2198.79c-5.82,1.63-13.62,6-10.38,12.15,2.32,4.36,6,7.18,7.66,12.13,1.06,3.13,1.11,6.48,2.13,9.52a86.86,86.86,0,0,1,1.35-10.59c0.73-4.73-.43-8.55-0.89-13.16Z" transform="translate(0 -1844.4)"/><path class="cls-9" d="M1034.15,2182.75c-0.72-.46-1.48-0.92-2.26-1.33,2.16,4.41,5.55,7.82,7.43,12.43a86.38,86.38,0,0,1,4.1,14.67c0.85,4,1.94,8.39,1.83,12.54-0.06,2.83-1.23,5.45-.89,8.36C1052,2213.67,1049.27,2192.59,1034.15,2182.75Z" transform="translate(0 -1844.4)"/><path class="cls-9" d="M864.06,1966.66c-8.22,5.2-3,9.27,3.61,12.76,3.25,1.71,6.55,2.77,6.06,7.36-0.31,2.93-4,6.57-3.41,9.8,0.82,4.27,4.5,2.3,7.08,5,1.84,1.92,2.87,6.43,3.32,8.93a44.29,44.29,0,0,0,7.83,1.13c3.57,0.28,4.56,1.41,3.52-2.68-1.57-6.19-8.06-11-9.43-17.62-1.07-5.2-1.45-11.05,1.38-15.63,3.65-5.9,6.87-2.79,11.8-2.34-0.46-5-8-10.15-12.43-11.66C877.52,1959.65,869.05,1963.5,864.06,1966.66Z" transform="translate(0 -1844.4)"/><path class="cls-9" d="M909.56,1963.8c-0.9,6.64,13.82,14.9,16.64,21.13,3.55,7.8,2.43,17.26,11.39,22.43,3.3,1.9,10.08,1.81,10.42-3.41,0.34-5-8.52-8.06-11.68-10.67a21.54,21.54,0,0,1-7.3-12c-0.41-2.05.39-5-.05-6.68C927,1967.05,916.47,1963.31,909.56,1963.8Z" transform="translate(0 -1844.4)"/><path class="cls-9" d="M773.26,1967.14c-3.93.41-15.26,3.27-14.2,9.24,0.52,2.92,4.6,2,4.69,5.62,0.07,3.23-3.86,6.88-4.71,9.88,11.45,0.69,18.42-15.61,17.53-25.06Z" transform="translate(0 -1844.4)"/><path class="cls-15" d="M944.41,2131.36c-9.29.87-10.61-13-17.58-15.49-3.44,9.42,5.65,17.73,7.94,25.87-8.43-1.5-11.24-13.15-17.6-16.56-1.76,4.62,1,11.73,2,16.35a79.19,79.19,0,0,0,5.8,15.66c-7.72-2.83-11.94-12.46-18.76-16.85,1.42,12.1,6.73,22.81,8.92,34.43-4.59-3-9.93-5.14-14.07-9-2.68-2.5-6.5-10-9.18-5.7-2.52,4,2.32,14.57,3.76,18.34,1.76,4.6,4.15,8.83,6.11,13.25-1.44-3.26-7.54-7.15-10.22-9.74-4-3.91-7.15-9.34-12.46-11.73-5.42,10.13,5,23.43,6,33.27-10.06.12-10.73-18.93-17.27-23.24-6.45,5.2,2,23.66,2.91,30.25-5.36-1.45-9.53-6.23-12.15-11-1.62-2.94-2.77-11-6.59-11.52-2.51,3.77-1.17,12.54-.17,16.65,1.13,4.69,5.27,10.73,4.82,15.59-9.53,1.17-9.51-15.34-17-16-4,7.18-.59,22.28,5.28,27.84,5.42,5.15,18.75,6.46,25.59,4.41,4.51-1.35,8.17-5.22,12.36-7.57,6.95-3.87,13.43-8.52,20.44-12.27a349.38,349.38,0,0,0,32.32-19.75c11.24-7.64,26.4-17.48,32.76-30,5.25-10.29,5.78-20.79,2.55-31.48Z" transform="translate(0 -1844.4)"/><path class="cls-4" d="M976.71,2108.67c-5.05.73-9.73-1-13.78-4.06-3-2.24-6.18-9.43-8.88-5.41-4,5.93,3,21.22,7,25.5-3.71,5.58-12.87-7-15.07-9.57-3.18,2.36-1.09,10.6-.15,13.87,1.41,4.9,5.73,9.1,6.85,13.73a36,36,0,0,1-13.92-.37c-5.16-1.15-8.24-4.24-12.76-6.33,0.15,9,3,15.9,6.26,23.84,0.33,0.81,3,5.3,2.76,5.87-1.09,3.11-4.59.48-6.25-.54-3.71-2.26-7.34-6.55-11.76-7.1-0.39,8.47,2.62,13,6.5,19.87,5.88,10.5-9.92,1.5-13.75,2.59,0.09,2.64.57,5.23,0.1,7.7-0.42,2.18-1.82,3.92-2.25,6.27-3,.71-8.38-5.66-10.29-7.92-3.25-3.82-3.89-9.48-7.14-12.91-6.5,6.5.26,24,2.31,31.25a33.64,33.64,0,0,1-11.15-6.46c-3.31-3.22-4.33-8.41-8.34-10.86-3.22,8.59-.44,18.91-0.13,27.65a64.53,64.53,0,0,1-7.79-6.42c-2-2-5-8.73-7.15-6-1.56,2-.17,9.78,0,12.24,0.22,3.78,1.09,7.2,1.65,10.82-2.26-3-4.8-5.36-6.87-8.48s-3.25-7.64-5.45-10.13c-3.75,8-.78,16.69.51,24.36-6.06.59-7.89-14.59-8.48-19,0.14,8.58-1.15,17.41,7.9,22.34,14.45,7.86,25.51-1.2,37.84-9.22,9.72-6.32,18.38-13.5,28.48-19.06,13.91-7.68,27.26-14.8,39.64-25,11-9.07,21.83-20.48,29.05-33,6-10.32,6.05-19.14,4.92-30.61Z" transform="translate(0 -1844.4)"/><path class="cls-4" d="M985,2100c-25.5,23.22-31,49.43-37.81,59.54-12.12,18.11-27.27,33.34-46.45,44.1-9.36,5.25-19.69,7.66-28.24,14.06-6.78,5.07-17.06,16.06-25.7,16.29,7,9.29,18.74,16.71,30.25,17.56,12,0.87,22.35-8.1,31.87-14,23.14-14.42,44.76-29.15,69.5-41,13.62-6.5,23.5-11.1,32.77-23.93,8.31-11.51,10.92-24.8,12.29-38.18,1.36-13.16-1.91-28.35.8-41.06,0.61-2.86.05-5.39,2.78-7.59,2.57-2.06,6.75-.45,9-2.52,5.05-4.71,8.65-19.57,4.55-25.45C1040.09,2058.24,1001.7,2084.77,985,2100Z" transform="translate(0 -1844.4)"/><path class="cls-4" d="M917.22,2138a92.61,92.61,0,0,0,2.55,9.19c1.28,3.62,3,7,5.25,7.82-0.76-.29-3.67-11.56-4.18-13.43-0.43-1.61-3.54-11.5.58-10.89-2-.29-2.48-5.48-5.3-2.71C914.33,2129.68,916.77,2136.09,917.22,2138Z" transform="translate(0 -1844.4)"/><path class="cls-4" d="M911.8,2168c-1.55-7.62-7.57-17.57-5.22-25.59,2.37-.32,4.89,3.22,5.94,5.28-1.17-.81-1.64-0.33-2.7-0.58-0.38,7.71,1.64,14.77,3.74,21.83Z" transform="translate(0 -1844.4)"/><path class="cls-4" d="M897.49,2181.14a3.13,3.13,0,0,1,.7.9c-1.27-3.74-9.57-19.36-3.42-21.71a47.65,47.65,0,0,1,4.39,4.86c-2-4.94-2.47,3.43-2.15,5.42,0.57,3.55,2.46,6.36,3.19,9.71Z" transform="translate(0 -1844.4)"/><path class="cls-4" d="M878.89,2179.08c0-1.43-.43-5.09.51-6.18,1.42-1.66,3.54-2.09,4.31.71a29.82,29.82,0,0,0-1.75,3.57c-0.43,1.91.06,4.17,0.39,6.06,0.52,3,2.55,6.71.31,9.31C880.28,2188.81,879.05,2183.52,878.89,2179.08Z" transform="translate(0 -1844.4)"/><path class="cls-4" d="M854.58,2209.34c-2.09-7.29-4.23-13.08-3.07-20.79,5.8-2.48,2.61,8.55,3.25,11.3Z" transform="translate(0 -1844.4)"/><path class="cls-4" d="M869,2202.9c-2-4.6-5.63-14.29-3.43-19.3,1.79-4.08,4.15-2.8,4.48,1.37,0.24,3-1.57,5.71-.81,9Z" transform="translate(0 -1844.4)"/><path class="cls-4" d="M839.44,2219.76c-1.66-2.35-2.63-11.41.34-13.53,5.43-3.88,1.75,8.76,1.65,11.1Z" transform="translate(0 -1844.4)"/><path class="cls-16" d="M850.57,2230.92c-3-2.38-3.16-9.22-3.51-13-0.21-2.17-1.73-10.83,2.19-6.37,1.85,2.11,1.07,8.75,1.65,11.57a12.86,12.86,0,0,0,5.91,8.89Z" transform="translate(0 -1844.4)"/><path class="cls-16" d="M864.33,2223.43c-1.3-5.81-8.8-11.56-6.33-19.91,4.06-1,2.37,14,3.8,16.82Z" transform="translate(0 -1844.4)"/><path class="cls-16" d="M878.47,2214.23c-1.2-3.2-9.61-24.11-3-24.13,2.61,5.13-.57,16.62,4.31,20.11Z" transform="translate(0 -1844.4)"/><path class="cls-16" d="M895.75,2203c-4.19-2.1-14.38-21.36-7.6-24.78,4.28-2.15,4.26,17.47,7.71,20.31Z" transform="translate(0 -1844.4)"/><path class="cls-16" d="M916.84,2190.93c-3.21-1.2-7.67-6.83-7.62-10.31,5.41,0,6.95,7.16,10.33,9.49Z" transform="translate(0 -1844.4)"/><path class="cls-16" d="M930.06,2177.93c-3.34,1.83-16.73-17.39-10.8-19,4.93-1.39,6.58,17.27,12.84,17.18Z" transform="translate(0 -1844.4)"/><path class="cls-16" d="M938.24,2159.28c-3.49-3.58-6.78-9.43-8.77-14-1-2.4-2.52-7.76,2.28-5.42,4.16,2,4.51,15.47,6.49,19.45h0Z" transform="translate(0 -1844.4)"/><path class="cls-16" d="M954.89,2135.91c-4.85-6.94-8.71-10.75-9-18.54,3.93-1.41,8.17,12.76,8.71,15.78Z" transform="translate(0 -1844.4)"/><path class="cls-16" d="M994.23,2094.12c-11.27,1.85-18.43,14.9-24,23.55-6.72,10.42-13.57,20.57-20.18,31-10.26,16.18-20.12,34.89-36.79,45.43-11.82,7.47-24.58,12.38-36.42,19.34-9.83,5.79-19.67,12.2-29.56,17.41,6.48,9.15,23-4.55,28.75-8.68,13-9.33,28.36-14.57,41.61-23.49,14.91-10,26.8-21.11,35.35-37.06,8-15,16.1-30,24.57-44.64a137.43,137.43,0,0,1,13.2-18.58Z" transform="translate(0 -1844.4)"/><path class="cls-16" d="M1020.28,2092.66c-10.73-.88-17.76,29.66-20,36.08-2.69,7.64-4.06,15.62-7,23.22-2.79,7.36-6.9,13.81-10.81,20.6-10.12,17.57-25.31,26.35-40.72,37.79,6.8,1.41,15.11-3.36,21.15-6.17a243.34,243.34,0,0,0,23.2-12.87c12.9-7.79,23-17.77,30.07-31.38,5.87-11.35,8.44-21.5,7.33-34.29-0.69-8-4.66-21.14-1.72-28.66Z" transform="translate(0 -1844.4)"/><path class="cls-16" d="M895.92,2228.64c-5.64,4.18-10.42,8.48-17.18,10.78-2.19.75-7.79,1.43-8,4-0.39,4.39,7.71,4.32,10.17,4.08,9.25-.9,20.63-8.07,27.76-13.92,6.9-5.66,9.87-15.41,18.1-19.67-2.28,1.18-6.06.9-8.61,1.81-2.94,1-5.42,2.8-8.22,4.12A77.16,77.16,0,0,0,895.92,2228.64Z" transform="translate(0 -1844.4)"/></svg>