<svg id="Layer_1" data-name="Layer 1" xmlns="http://www.w3.org/2000/svg" viewBox="0 0 1201 844.66"><defs><style>.cls-1{fill:#ee5937;}.cls-2{fill:#775125;}.cls-3{fill:#d8c095;}.cls-4{fill:#caae7d;}.cls-5{fill:#ba9c67;}.cls-6{fill:#e6d3b1;}.cls-7{fill:#e1cca6;}.cls-8{fill:#f3e6d1;}.cls-9{fill:none;}.cls-10{fill:#ee5a33;}.cls-11{fill:#f7f6f5;}.cls-12{fill:#5f5451;}.cls-13{fill:#f15e22;}.cls-14{fill:#f07522;}.cls-15{fill:#231f1e;}</style></defs><title>404-sand-castle</title><polygon class="cls-1" points="982.5 92.58 955.55 82.28 955.55 105.2 982.5 92.58"/><rect class="cls-2" x="954.33" y="82.28" width="2.45" height="36.21"/><rect class="cls-3" x="909.64" y="273" width="91.12" height="287.83"/><polygon class="cls-3" points="881.6 209.47 881.59 209.47 881.59 198.29 875.89 198.29 875.89 202.99 871.35 202.99 871.35 195.21 853.52 195.21 853.52 202.99 845.75 202.99 845.75 193.59 825.63 193.59 825.63 202.99 813.98 202.99 813.98 193.59 793.61 193.59 793.61 202.99 789.35 202.99 789.35 197.8 775.33 197.9 775.41 209.47 775.29 209.47 766.17 560.83 884.84 560.83 881.6 209.47"/><path class="cls-4" d="M900.93,1131.19V1198c36.3,0.81,63.11-.61,106.8.81v-67.58H900.93Z" transform="translate(0 -919.13)"/><path class="cls-5" d="M953.41,1037.37l-33.27,87.5h68.39l-31-87.36A2.19,2.19,0,0,0,953.41,1037.37Z" transform="translate(0 -919.13)"/><polygon class="cls-4" points="896.07 195.21 896.07 213.69 1015.35 213.69 1015.35 193.59 1005.62 193.59 1005.62 198.45 1001.73 198.45 1001.73 187.92 985.04 187.92 985.04 198.13 980.02 198.13 980.02 187.92 961.22 187.92 961.22 197.8 956.68 197.8 956.68 187.92 941.12 187.92 941.12 197.8 937.07 197.8 937.07 190.19 924.1 190.19 924.1 197.48 920.7 197.48 920.7 190.19 910.98 190.19 910.98 198.13 906.12 198.13 906.12 193.59 896.07 193.59 896.07 195.21"/><path class="cls-4" d="M939.42,1286.61H976v-21.87a33,33,0,0,0-3.62-15l-2.67-5.22a13.79,13.79,0,0,0-5-5.46h0a13.79,13.79,0,0,0-14.07-.23l-1.31.75a13.79,13.79,0,0,0-5.88,6.65l-1.47,3.51a33,33,0,0,0-2.56,12.73v24.17Z" transform="translate(0 -919.13)"/><rect class="cls-6" x="993.98" y="379.32" width="91.12" height="196.88"/><path class="cls-7" d="M985.27,1237.52v66.77c36.3,0.81,63.11-.61,106.8.81v-67.58H985.27Z" transform="translate(0 -919.13)"/><polygon class="cls-3" points="762.93 275.48 762.91 275.48 762.91 264.3 757.21 264.3 757.21 269 752.68 269 752.68 261.22 734.85 261.22 734.85 269 727.07 269 727.07 259.6 706.95 259.6 706.95 269 695.31 269 695.31 259.6 674.93 259.6 674.93 269 670.67 269 670.67 263.81 656.65 263.91 656.74 275.48 656.61 275.48 647.49 576.21 766.17 576.21 762.93 275.48"/><path class="cls-4" d="M662.81,1324h25.61v-24.43a55.43,55.43,0,0,0-2.53-16.78L684,1277a14.91,14.91,0,0,0-3.53-6.1h0c-3-3-6.77-3-9.84-.25l-0.91.83a15.27,15.27,0,0,0-4.11,7.43l-1,3.92a56.42,56.42,0,0,0-1.79,14.22v27Z" transform="translate(0 -919.13)"/><polygon class="cls-7" points="980.41 301.54 980.41 320.01 1099.69 320.01 1099.69 299.92 1089.97 299.92 1089.97 304.78 1086.08 304.78 1086.08 294.24 1069.38 294.24 1069.38 304.45 1064.36 304.45 1064.36 294.24 1045.56 294.24 1045.56 304.13 1041.02 304.13 1041.02 294.24 1025.47 294.24 1025.47 304.13 1021.41 304.13 1021.41 296.51 1008.45 296.51 1008.45 303.81 1005.05 303.81 1005.05 296.51 995.32 296.51 995.32 304.45 990.46 304.45 990.46 299.92 980.41 299.92 980.41 301.54"/><path class="cls-3" d="M1023.76,1392.93h36.63v-21.87a33,33,0,0,0-3.62-15l-2.67-5.22a13.79,13.79,0,0,0-5-5.46h0a13.79,13.79,0,0,0-14.07-.23l-1.31.75a13.79,13.79,0,0,0-5.88,6.65l-1.47,3.51a33,33,0,0,0-2.56,12.73v24.17Z" transform="translate(0 -919.13)"/><rect class="cls-6" x="733.48" y="379.32" width="91.12" height="196.88"/><path class="cls-7" d="M724.77,1237.52v66.77c36.3,0.81,63.11-.61,106.8.81v-67.58H724.77Z" transform="translate(0 -919.13)"/><polygon class="cls-7" points="719.91 301.54 719.91 320.01 839.19 320.01 839.19 299.92 829.47 299.92 829.47 304.78 825.58 304.78 825.58 294.24 808.89 294.24 808.89 304.45 803.86 304.45 803.86 294.24 785.06 294.24 785.06 304.13 780.52 304.13 780.52 294.24 764.97 294.24 764.97 304.13 760.91 304.13 760.91 296.51 747.95 296.51 747.95 303.81 744.55 303.81 744.55 296.51 734.82 296.51 734.82 304.45 729.96 304.45 729.96 299.92 719.91 299.92 719.91 301.54"/><path class="cls-3" d="M763.27,1392.93h36.63v-21.87a33,33,0,0,0-3.62-15l-2.67-5.22a13.79,13.79,0,0,0-5-5.46h0a13.79,13.79,0,0,0-14.07-.23l-1.31.75a13.79,13.79,0,0,0-5.88,6.65l-1.47,3.51a33,33,0,0,0-2.56,12.73v24.17Z" transform="translate(0 -919.13)"/><path class="cls-4" d="M847.81,1265.86h25.61v-24.43a55.43,55.43,0,0,0-2.53-16.78l-1.87-5.83a14.91,14.91,0,0,0-3.53-6.1h0c-3-3-6.77-3-9.84-.25l-0.91.83a15.27,15.27,0,0,0-4.11,7.43l-1,3.92a56.42,56.42,0,0,0-1.79,14.22v27Z" transform="translate(0 -919.13)"/><rect class="cls-7" x="824.07" y="443.33" width="171.14" height="145.21"/><polyline class="cls-6" points="839.19 445.44 839.19 377.21 849.57 377.21 849.56 388.01 856.37 387.85 856.37 377.21 867.72 377.21 867.72 388.01 874.63 388.01 874.63 377.21 889.76 377.21 889.76 388.44 895.81 388.44 895.81 377.21 909.64 377.21 909.64 389.31 917.85 389.31 917.85 377.21 932.54 377.21 932.54 388.88 939.02 388.88 939.02 377.21 955.01 377.21 955.01 389.31 960.2 389.31 960.2 377.21 975.33 377.21 975.33 445.44 839.19 445.44"/><path class="cls-4" d="M954.47,1507.66c17.29-71.63-39.76-108.15-39.76-108.15S862,1434.3,870.63,1507.66h83.84Z" transform="translate(0 -919.13)"/><path class="cls-8" d="M1201,1393.57c-49.54-10.81-111-4.6-120.43-5.64-12.2-1.36-82.68,42-139.61,39.75-31.63-1.26-58.93,10.65-76.95,21.49-19.27,11.59-41,18.22-63.36,20.58-39.71,4.2-100.63,11.62-145.29,21.44-71.84,15.81-162.74-13.69-193.92-19.31-18.68-3.36-107.13-36-153.05-26.85a244,244,0,0,1-103.29-1.95c-28.23-6.57-61.65-13-82.83-14.5-12.32-.88-27.35,1.38-42,4.84-26.36,6.2-53.22,9-80.23,9.8v320.22H1201V1393.57Z" transform="translate(0 -919.13)"/><rect class="cls-9" width="1201" height="844.66"/><path class="cls-10" d="M1161.32,1273l-35.3-20.59a6.94,6.94,0,0,0-9.87,3.26l-8.71,20.31a48.22,48.22,0,0,0,2.25,37.64l-50.56,114.88c-14.61-9-24.16-8.15-24.16-8.15-6.32,1.26-11.93,4.9-16.47,8.95a59.75,59.75,0,0,0-15.28,22.28l-26.11,64.27,17.21-3.63a39.63,39.63,0,0,1,25.7,3.23,46.33,46.33,0,0,0,13.73,4.27l10.2,1.5a85.49,85.49,0,0,0,22.54.31l24.1-2.87s4.26-14.09,7-28.93c2-10.72,3.42-20.31,4.78-25.84,3.37-13.76-21.28-24.44-21.28-24.44l49.37-115.16c17.41-5.06,26.9-25,26.9-25l6.92-17.83A6.94,6.94,0,0,0,1161.32,1273Zm-32.2,35.85c-2.06.58-4.24-.65-5.75-2.16-4.5-4.51-11.29-16.18,2.61-39.42l25.56,14.33S1149,1303.18,1129.12,1308.81Z" transform="translate(0 -919.13)"/><path class="cls-11" d="M845.56,1421c7.69-1,23,4.25,23,33.22s4.16,68.22-34,77.87c-71.83,18.17-123.42-35.62-123.42-35.62l-2.12-5.64s17-2,47.52-6.21,65.28-9.07,71.79-15.58S814.18,1425.26,845.56,1421Z" transform="translate(0 -919.13)"/><path class="cls-12" d="M829.26,1476.46c7.84,14-7.32,37-33.63,31.62-36.92-7.5-85.18-34.08-85.18-34.08S815.27,1451.41,829.26,1476.46Z" transform="translate(0 -919.13)"/><polygon class="cls-13" points="829.32 659.82 819.66 656.05 820.38 624.81 820.88 616.16 827.58 615.1 823.88 625.13 822.17 654.66 837.54 655.76 829.32 659.82"/><polygon class="cls-13" points="804.82 609.91 805.43 630.77 808.1 658.7 821.23 664.82 831.9 661.28 812.76 657.06 808.63 630.3 810.28 606.94 804.82 609.91"/><path class="cls-14" d="M862.33,1437.05L902,1443.4l-38.48,6.74S857.77,1443.6,862.33,1437.05Z" transform="translate(0 -919.13)"/><circle class="cls-15" cx="845.21" cy="521.65" r="4.23"/><polygon class="cls-12" points="711.91 578.78 666.07 576.66 668.18 553.39 709.09 571.72 711.91 578.78"/></svg>