<svg id="Layer_1" data-name="Layer 1" xmlns="http://www.w3.org/2000/svg" viewBox="0 0 1201 844"><defs><style>.cls-1{fill:none;}.cls-2{fill:#5f5451;}.cls-10,.cls-2,.cls-3,.cls-4,.cls-5,.cls-6,.cls-7{fill-rule:evenodd;}.cls-3{fill:#d8d4ce;}.cls-4,.cls-9{fill:#f7f6f5;}.cls-5{fill:#b4b4b4;}.cls-6,.cls-8{fill:#ee5937;}.cls-7{fill:#a09e9b;}.cls-10{fill:#231f1e;}</style></defs><title>404-astronaut</title><rect class="cls-1" width="1201" height="844"/><path class="cls-2" d="M947,102.21l117.46,60.64a61.71,61.71,0,0,1,26.45,82.9L961.44,496.43a61.71,61.71,0,0,1-82.9,26.45L761.07,462.23a61.71,61.71,0,0,1-26.45-82.9L864,128.65A61.71,61.71,0,0,1,947,102.21Z"/><path class="cls-3" d="M855.87,699.36c-1.35-1.59.92-18.42-.37-20-26.31-32.38-40.71-63.49-43.79-97.5-3.18-35.1,6.05-70.57,27-111.19l65.9,34c-14.46,28-21,50.64-19.19,70.55,1.65,18.19,10.65,36.49,27.34,57.09,1.06,1.31,29.49,35.82,30.61,37.15C920.61,698.6,891.56,726,855.87,699.36Z"/><path class="cls-3" d="M701.47,623.81c-11.7-43-12.44-79.15-.29-112.92,11.94-33.19,35.31-61.46,71.5-89.46l59.45,47.11c-2.24,1.73-18.58,15-20.67,16.7-21.11,17.29-34.46,33.51-40.62,50.61s-5.71,37.57.77,63.41c0.41,1.63,12.2,43.47,12.66,45.14-27.3,13.93-83,33.84-92.66-8.41Z"/><path class="cls-3" d="M1068.63,384.79c3.66,29.25,12.59,92.24-15.65,126-14.52-4.8-32.89-13-52.54-25.45,11.16-37.36,1.61-79.43-8.92-120.72C1013.32,368.33,1046.83,381.08,1068.63,384.79Z"/><path class="cls-4" d="M1070.48,399.94a36.4,36.4,0,0,0,0,68.93c0.69-4,1.2-8.05,1.57-12.13a24.53,24.53,0,0,1-.39-44.54C1071.34,407.9,1070.91,403.79,1070.48,399.94Z"/><path class="cls-5" d="M1057.76,509.82l-23.7,56.33a9.79,9.79,0,0,1-12.85,5.2h0a9.93,9.93,0,0,1-5.23-12.92l23.7-56.33a9.79,9.79,0,0,1,12.85-5.2h0A9.93,9.93,0,0,1,1057.76,509.82Z"/><polygon class="cls-6" points="1041.33 549.12 1023.61 540.56 1022.06 543.75 1039.78 552.31 1041.33 549.12"/><polygon class="cls-6" points="1045.13 540.07 1027.42 531.51 1025.87 534.7 1043.59 543.26 1045.13 540.07"/><path class="cls-7" d="M1047.62,516l-31.56,59.33a9.79,9.79,0,0,1-13.27,4h0a9.93,9.93,0,0,1-4-13.34l31.56-59.33a9.79,9.79,0,0,1,13.27-4h0A9.93,9.93,0,0,1,1047.62,516Z"/><rect class="cls-8" x="1013.98" y="545.1" width="3.55" height="19.67" transform="translate(74.07 1227.95) rotate(-64.2)"/><polygon class="cls-6" points="1029.82 549.29 1012.11 540.72 1010.56 543.91 1028.27 552.48 1029.82 549.29"/><path class="cls-3" d="M1031.31,511.18l-34.43,65.26a9.78,9.78,0,0,1-13.27,4h0a9.94,9.94,0,0,1-4-13.34L1014,501.86a9.78,9.78,0,0,1,13.27-4h0A9.94,9.94,0,0,1,1031.31,511.18Z"/><path class="cls-3" d="M988.69,543.27L1017.93,516a9.79,9.79,0,0,0,.21-13.9h0a9.92,9.92,0,0,0-13.9-.21L975,529.15a9.79,9.79,0,0,0-.21,13.9h0A9.94,9.94,0,0,0,988.69,543.27Z"/><polygon class="cls-6" points="995.01 537.05 981.39 522.87 978.83 525.34 992.45 539.52 995.01 537.05"/><polygon class="cls-6" points="1001.37 531.07 987.75 516.89 985.19 519.37 998.81 533.54 1001.37 531.07"/><polygon class="cls-6" points="1006.23 558.7 988.52 550.13 986.97 553.33 1004.68 561.89 1006.23 558.7"/><polygon class="cls-6" points="1010.66 550.36 992.95 541.8 991.4 544.99 1009.11 553.55 1010.66 550.36"/><polygon class="cls-3" points="1021.53 529.72 1047.37 534.5 1056.57 512.65 1028.3 499.77 1021.53 529.72"/><path class="cls-6" d="M1051.62,515.52a9.48,9.48,0,0,0,5.86-18l-53.21-17.29a9.48,9.48,0,0,0-5.86,18Z"/><path class="cls-3" d="M990.29,367.63q-1.42-37.25-2.84-74.51c6-5.21,30.32-19,39.91,8.77C1004.38,332,990.29,367.63,990.29,367.63Z"/><path class="cls-3" d="M994.94,360.84s7.62-43.71,37.07-65.73c27.85-2.3,33.61,32.38,27.23,40.13C1049,343,994.94,360.84,994.94,360.84Z"/><path class="cls-3" d="M994.94,360.84s39.45-23.74,64.3-25.6c15.41-3.52,28.48,34.13,5.39,43.69-18-4.61-68.21-11.61-68.21-11.61Z"/><path class="cls-7" d="M1066,384.34a6.43,6.43,0,1,0,2.14-12.68L997.28,359.6a6.43,6.43,0,1,0-2.14,12.68Z"/><path class="cls-7" d="M1062.27,338.23a6.18,6.18,0,1,0-5.72-11L993,360.42a6.18,6.18,0,1,0,5.73,11Z"/><path class="cls-7" d="M1037,296.42a6.17,6.17,0,0,0-11.06-5.45l-35.59,72.2a6.17,6.17,0,1,0,11.06,5.45Z"/><path class="cls-3" d="M764.82,232.76c-25.53,14.73-81.14,45.64-91,88.53,12.59,8.68,30.24,18.36,52,26.53,23.06-31.45,62.35-49.23,101.63-65.75C811.32,266.93,780.93,247.9,764.82,232.76Z"/><path class="cls-4" d="M751.62,240.43a36.4,36.4,0,0,1-55,41.56c2.78-3,5.7-5.82,8.72-8.58a24.53,24.53,0,0,0,35.75-26.57C744.75,244.54,748.28,242.41,751.62,240.43Z"/><path class="cls-5" d="M671.69,316.89l-30.6,52.89a9.79,9.79,0,0,0,3.61,13.38h0a9.93,9.93,0,0,0,13.46-3.63l30.61-52.89a9.79,9.79,0,0,0-3.61-13.38h0A9.93,9.93,0,0,0,671.69,316.89Z"/><polygon class="cls-6" points="650.27 353.72 667.79 362.67 666.18 365.83 648.66 356.88 650.27 353.72"/><polygon class="cls-6" points="655.19 345.22 672.71 354.17 671.1 357.33 653.58 348.38 655.19 345.22"/><path class="cls-7" d="M672.9,328.7l-28.26,61a9.79,9.79,0,0,0,4.8,13h0a9.93,9.93,0,0,0,13.08-4.83l28.26-61a9.79,9.79,0,0,0-4.8-13h0A9.93,9.93,0,0,0,672.9,328.7Z"/><polygon class="cls-6" points="653.12 371.56 670.63 380.51 669.02 383.67 651.5 374.72 653.12 371.56"/><polygon class="cls-6" points="657.09 362.99 674.61 371.94 673 375.11 655.48 366.15 657.09 362.99"/><path class="cls-3" d="M686.57,338.8l-31.25,66.85a9.78,9.78,0,0,0,4.8,13h0a9.94,9.94,0,0,0,13.08-4.83L704.45,347a9.78,9.78,0,0,0-4.8-13h0A9.94,9.94,0,0,0,686.57,338.8Z"/><path class="cls-3" d="M686.71,392.15l4.07-39.76a9.79,9.79,0,0,1,11-8.56h0a9.93,9.93,0,0,1,8.56,11l-4.07,39.76a9.78,9.78,0,0,1-11,8.55h0A9.94,9.94,0,0,1,686.71,392.15Z"/><polygon class="cls-6" points="687.85 383.36 707.38 385.66 706.95 389.19 687.43 386.89 687.85 383.36"/><polygon class="cls-6" points="688.78 374.68 708.3 376.98 707.88 380.51 688.36 378.21 688.78 374.68"/><polygon class="cls-6" points="663.82 387.48 681.34 396.43 679.73 399.59 662.21 390.64 663.82 387.48"/><polygon class="cls-6" points="667.79 378.91 685.31 387.87 683.7 391.03 666.18 382.07 667.79 378.91"/><polygon class="cls-3" points="677.69 357.79 658.28 340.07 670.15 319.56 697.48 334.31 677.69 357.79"/><path class="cls-6" d="M670.85,325.23a9.48,9.48,0,0,1,10.84-15.55l45.91,32a9.48,9.48,0,0,1-10.84,15.55Z"/><path class="cls-3" d="M825.78,284.86l61.12-42.71c0.54-7.91-3.13-35.66-31.08-26.52C845.66,252.13,825.78,284.86,825.78,284.86Z"/><path class="cls-3" d="M828.39,277.05s30.25-32.46,30-69.23c-15-23.59-46.11-7.25-48.43,2.51C810,223.19,828.39,277.05,828.39,277.05Z"/><path class="cls-3" d="M828.39,277.05s-4.88-45.78-18.4-66.72c-6.5-14.41-44.4-2.11-38.08,22.07,14.56,11.59,50.43,47.37,50.43,47.37Z"/><path class="cls-7" d="M766.77,234.61a6.43,6.43,0,0,1,8.82-9.36L828,274.45a6.43,6.43,0,0,1-8.82,9.36Z"/><path class="cls-7" d="M805.77,209.73a6.18,6.18,0,0,1,12.19-2l11.93,70.66a6.18,6.18,0,1,1-12.19,2Z"/><path class="cls-7" d="M854.36,204.64a6.17,6.17,0,1,1,11,5.53l-36.08,72a6.17,6.17,0,1,1-11-5.53Z"/><path class="cls-3" d="M759.5,432.55L903.65,507l113.91-220.63L873.4,211.92Z"/><rect class="cls-9" x="764.37" y="349.04" width="248.3" height="20.82" transform="translate(161.52 984.06) rotate(-62.69)"/><rect class="cls-9" x="882.89" y="269.08" width="20.82" height="162.23" transform="translate(172.32 983.3) rotate(-62.69)"/><circle class="cls-8" cx="832.15" cy="372.19" r="25.11" transform="translate(119.68 940.86) rotate(-62.69)"/><circle class="cls-8" cx="910.78" cy="412.79" r="25.11" transform="translate(126.19 1032.73) rotate(-62.69)"/><polygon class="cls-4" points="920.04 278.92 826.4 302.96 818.09 319.05 923.88 290.96 920.04 278.92"/><polygon class="cls-4" points="935.93 287.12 970.55 377.39 962.24 393.48 923.88 290.96 935.93 287.12"/><polygon class="cls-4" points="834.52 470.88 776.15 400.3 782.84 387.33 844.71 463.4 834.52 470.88"/><polygon class="cls-4" points="828.95 468.01 920.3 474.72 927 461.75 829.15 455.37 828.95 468.01"/><path class="cls-6" d="M1011.82,274.84a16.59,16.59,0,0,1,14.78,29.7,87.14,87.14,0,0,1-25.46,8c-26,4.07-55.14-2.25-80.48-15.32l0-.06c-25.38-13.11-47.43-33.21-59.12-56.68a87.16,87.16,0,0,1-8.24-25.38,16.59,16.59,0,0,1,32.77-5.15,54.19,54.19,0,0,0,5.17,15.75c8.49,17,25.16,32,44.62,42l0-.06c19.51,10.07,41.33,15,60.07,12.1A54.25,54.25,0,0,0,1011.82,274.84Z"/><path class="cls-3" d="M1020.81,103.23a96.48,96.48,0,1,1-130,41.47A96.48,96.48,0,0,1,1020.81,103.23Z"/><path class="cls-3" d="M891.77,134.25l14,7.24a11.83,11.83,0,0,1,5.07,15.89l-20.42,39.55A11.83,11.83,0,0,1,874.54,202l-14-7.24a11.83,11.83,0,0,1-5.07-15.89l20.42-39.55A11.83,11.83,0,0,1,891.77,134.25Z"/><path class="cls-3" d="M1056.23,219.16l14,7.24a11.83,11.83,0,0,1,5.07,15.89l-20.42,39.55A11.83,11.83,0,0,1,1039,286.9l-14-7.24a11.83,11.83,0,0,1-5.07-15.89l20.42-39.55A11.83,11.83,0,0,1,1056.23,219.16Z"/><path class="cls-4" d="M915.07,127.73c43.66-26.14,143,25.16,147,75.89,1.76,22.45-13.14,50.49-26.41,67.88-49.44,64.78-184.81-5.11-160.63-82.93C881.51,167.68,895.75,139.29,915.07,127.73Z"/><path class="cls-10" d="M920.22,136.33c-20.61,12.35-33,46.85-35.62,55.22C863.74,258.67,985,321.29,1027.68,265.42c5.32-7,26.25-37.07,24.38-61C1048.67,161.2,957.41,114.08,920.22,136.33Z"/><path class="cls-9" d="M904.95,195.95a8.58,8.58,0,0,1-7.61-12.53c1.36-2.61,2.62-5.39,3.89-8.19,4.66-10.24,9.95-21.84,20.52-28.16,13.71-8.21,34.11-9.11,57.44-2.53a8.58,8.58,0,1,1-4.66,16.5c-18.45-5.21-34.48-4.94-44,.74-6,3.59-9.75,11.83-13.73,20.56-1.4,3.07-2.79,6.11-4.27,9A8.58,8.58,0,0,1,904.95,195.95Z"/><path class="cls-9" d="M1011.13,179.47a8.52,8.52,0,0,1-4.84-1.5c-1.46-1-2.75-1.94-4-2.83a59.91,59.91,0,0,0-7.1-4.66,8.58,8.58,0,0,1,8.15-15.09,76.65,76.65,0,0,1,9,5.87c1.12,0.81,2.29,1.66,3.61,2.57A8.57,8.57,0,0,1,1011.13,179.47Z"/><path class="cls-6" d="M885.27,559.18a9.48,9.48,0,0,1-8.63,16.88l-63.19-32.39a9.48,9.48,0,1,1,8.63-16.88Z"/><path class="cls-6" d="M777.44,521.34a9.48,9.48,0,1,1-15,11.65l-43.61-56a9.48,9.48,0,1,1,15-11.65Z"/><path class="cls-7" d="M904.75,418.85a8.55,8.55,0,0,1,12.06-12.13,397.57,397.57,0,0,1,28.9,33.48c7.8,10.07,15.42,20.9,20.68,30.55,7.5,13.76,10.47,33.66,7.4,49.24-1.41,7.17-4.12,13.66-8.26,18.64a25.79,25.79,0,0,1-18.77,9.63c-9,.57-20.08-3.1-33.25-12.89-2.82-2.31-5-4.19-6.66-5.69a62.22,62.22,0,0,0,22.33-4.27c6.92,4.33,12.35,6,16.5,5.76a9.24,9.24,0,0,0,6.72-3.47c2.18-2.61,3.69-6.47,4.58-11,2.37-12,.13-27.3-5.59-37.79-4.75-8.71-11.85-18.78-19.21-28.27A378.46,378.46,0,0,0,904.75,418.85Z"/><path class="cls-7" d="M835.74,364.42A8.56,8.56,0,1,1,828.57,380l-1.5-.69c-14.17-6-36.92-8.33-58-5.54-19.82,2.63-37.62,9.67-43.49,22.28l-0.32.69c-1.94,4.59-2.5,13,.53,21.23a27.32,27.32,0,0,0,5,8.53,61.93,61.93,0,0,0,11.85,21.21q-1.95,2-3.82,3.94c-4.77-2.32-9.94-4.84-10.34-5.07a43.35,43.35,0,0,1-18.79-22.72c-4.61-12.46-3.45-26.06-.19-33.76l0.52-1.22c8.71-18.73,31.74-28.74,56.82-32.06,23.86-3.16,50.09-.33,66.81,6.74C834.68,364,835.37,364.25,835.74,364.42Z"/><path class="cls-4" d="M840.14,658.54l25.73-18.07,7.91,11.27L874,652l0.34,0.36c0.06,0.07,23.32,24.21-6.43,49.24a5.92,5.92,0,0,0-2.08,3.89A46.09,46.09,0,0,0,877,709.4c34.73-30.68,9.65-61,6.27-64.74-14.58-20.76-31.26-49.25-36-63a5.94,5.94,0,0,0-9.72,6.82c3.4,11,11.72,28.4,21.44,42.24l-25.2,17.69Q836.79,653.49,840.14,658.54Z"/><path class="cls-6" d="M878.42,564.1a9.48,9.48,0,1,1,3.06,18.71l-70.08,11.43a9.48,9.48,0,1,1-3.06-18.71Z"/><path class="cls-7" d="M855.87,699.36c9.89,5.49,25.3,12.4,41.44,2.86,14-8.27,34.33-27.25,43.83-36.54l10,11L893.47,729.3l-29.22,26.64h0c-17.33-19-27.93-36.32-11.32-53A20,20,0,0,0,855.87,699.36Z"/><path class="cls-2" d="M845,725.09l24.1,26.43-2.41,2.19L847.35,732.5a32.45,32.45,0,0,1-2.35-7.41h0Zm16.4-22.88,28,30.76,2.41-2.19L868.31,705a58.12,58.12,0,0,1-6.91-2.75h0Zm24.7,4.25a32.25,32.25,0,0,0,3.62-.87l13.51,14.82-2.41,2.19L886.1,706.45h0ZM901,699.91l11.22,12.31,2.41-2.2-10.92-12q-1.38,1-2.71,1.86h0Zm12.4-9.25q1.26-1,2.52-2.07L926,699.66l-2.41,2.19-10.2-11.19h0Zm11.72-10,9.86,10.82,2.41-2.2-9.84-10.79-2.42,2.17h0Zm11.32-10.43,2.35-2.25,10,10.93-2.41,2.19-9.91-10.87h0Zm-55.94,70.91L849.4,707.06a27.58,27.58,0,0,0-1.83,2.83l30.5,33.45Z"/><path class="cls-4" d="M694.72,592.37l30-5.06L727,600.89l0.06,0.34,0.15,0.47c0,0.09,10.61,31.9-27,41.67a5.93,5.93,0,0,0-4.16,3.92,27.54,27.54,0,0,0,6.9,7.63l0.23-.05c46.79-12.15,36.93-51.32,35.49-56.25-4.21-25-7-57.91-5.36-72.35a5.94,5.94,0,0,0-11.71,2c-1.69,11.42-1.66,30.67,1.15,47.36l-29.53,5Q693.81,586.39,694.72,592.37Z"/><path class="cls-6" d="M769.16,522.9A9.48,9.48,0,1,1,764,541.16l-68.35-19.23a9.48,9.48,0,1,1,5.12-18.25Z"/><path class="cls-7" d="M691.61,636c6.64,9.16,17.7,21.93,36.36,20.09,16.18-1.59,42.63-10.21,55.16-14.62l4.45,14.21L713.05,679l-37.74,11.81h0c-7.69-24.55-10-44.72,12.1-52.79A20,20,0,0,0,691.61,636Z"/><path class="cls-2" d="M670.9,654.73l10.69,34.13-3.11,1-8.58-27.4a32.5,32.5,0,0,1,1-7.71h0Zm24.52-13.82a58.22,58.22,0,0,0,5.11,5.41L711,679.66l-3.11,1-12.44-39.72h0ZM716,655.19a32.08,32.08,0,0,0,3.64.74l6,19.14-3.11,1L716,655.19h0Zm16.24,0.35q1.58-.24,3.24-0.54l4.84,15.47-3.11,1-5-15.9h0Zm15.14-3.15,3.16-.81L755,665.87l-3.11,1-4.53-14.45h0Zm14.84-4.11,3.12-.95,4.37,13.94-3.11,1-4.37-14h0Zm14.67-4.68,3.09-1,4.42,14.12-3.11,1-4.4-14h0Zm-80.64,40.67-13.78-44a28.52,28.52,0,0,0-2.85,1.79l13.53,43.2Z"/></svg>